ISO-10303-21;
HEADER;
FILE_DESCRIPTION(('Open CASCADE Model'),'2;1');
FILE_NAME('tpu_pad_print','2026-09-07T15:13:58',('Author'),(
    'Open CASCADE'),'Open CASCADE STEP processor 7.9','build123d',
  'Unknown');
FILE_SCHEMA(('AUTOMOTIVE_DESIGN { 1 0 10303 214 1 1 1 1 }'));
ENDSEC;
DATA;
#1 = APPLICATION_PROTOCOL_DEFINITION('international standard',
  'automotive_design',2000,#2);
#2 = APPLICATION_CONTEXT(
  'core data for automotive mechanical design processes');
#3 = SHAPE_DEFINITION_REPRESENTATION(#4,#10);
#4 = PRODUCT_DEFINITION_SHAPE('','',#5);
#5 = PRODUCT_DEFINITION('design','',#6,#9);
#6 = PRODUCT_DEFINITION_FORMATION('','',#7);
#7 = PRODUCT('tpu_pad_print','tpu_pad_print','',(#8));
#8 = PRODUCT_CONTEXT('',#2,'mechanical');
#9 = PRODUCT_DEFINITION_CONTEXT('part definition',#2,'design');
#10 = ADVANCED_BREP_SHAPE_REPRESENTATION('',(#11,#15),#1338);
#11 = AXIS2_PLACEMENT_3D('',#12,#13,#14);
#12 = CARTESIAN_POINT('',(0.,0.,0.));
#13 = DIRECTION('',(0.,0.,1.));
#14 = DIRECTION('',(1.,0.,-0.));
#15 = MANIFOLD_SOLID_BREP('',#16);
#16 = CLOSED_SHELL('',(#17,#371,#702,#820,#1126,#1202,#1251,#1300,#1327,
    #1331));
#17 = ADVANCED_FACE('',(#18),#32,.T.);
#18 = FACE_BOUND('',#19,.T.);
#19 = EDGE_LOOP('',(#20,#50,#77,#78));
#20 = ORIENTED_EDGE('',*,*,#21,.T.);
#21 = EDGE_CURVE('',#22,#24,#26,.T.);
#22 = VERTEX_POINT('',#23);
#23 = CARTESIAN_POINT('',(4.795,-2.985904330306E-15,4.738349668944));
#24 = VERTEX_POINT('',#25);
#25 = CARTESIAN_POINT('',(4.795,-3.566184793591E-15,9.999999939225E-08)
  );
#26 = SEAM_CURVE('',#27,(#31,#43),.PCURVE_S1.);
#27 = LINE('',#28,#29);
#28 = CARTESIAN_POINT('',(4.795,-2.378277398418E-15,9.7000001));
#29 = VECTOR('',#30,1.);
#30 = DIRECTION('',(0.,-1.224646799147E-16,-1.));
#31 = PCURVE('',#32,#37);
#32 = CYLINDRICAL_SURFACE('',#33,4.795);
#33 = AXIS2_PLACEMENT_3D('',#34,#35,#36);
#34 = CARTESIAN_POINT('',(0.,-3.552713678801E-15,9.7000001));
#35 = DIRECTION('',(0.,-1.224646799147E-16,-1.));
#36 = DIRECTION('',(1.,0.,0.));
#37 = DEFINITIONAL_REPRESENTATION('',(#38),#42);
#38 = LINE('',#39,#40);
#39 = CARTESIAN_POINT('',(6.28318530718,-0.));
#40 = VECTOR('',#41,1.);
#41 = DIRECTION('',(0.,1.));
#42 = ( GEOMETRIC_REPRESENTATION_CONTEXT(2) 
PARAMETRIC_REPRESENTATION_CONTEXT() REPRESENTATION_CONTEXT('2D SPACE',''
  ) );
#43 = PCURVE('',#32,#44);
#44 = DEFINITIONAL_REPRESENTATION('',(#45),#49);
#45 = LINE('',#46,#47);
#46 = CARTESIAN_POINT('',(0.,-0.));
#47 = VECTOR('',#48,1.);
#48 = DIRECTION('',(0.,1.));
#49 = ( GEOMETRIC_REPRESENTATION_CONTEXT(2) 
PARAMETRIC_REPRESENTATION_CONTEXT() REPRESENTATION_CONTEXT('2D SPACE',''
  ) );
#50 = ORIENTED_EDGE('',*,*,#51,.F.);
#51 = EDGE_CURVE('',#24,#24,#52,.T.);
#52 = SURFACE_CURVE('',#53,(#58,#65),.PCURVE_S1.);
#53 = CIRCLE('',#54,4.795);
#54 = AXIS2_PLACEMENT_3D('',#55,#56,#57);
#55 = CARTESIAN_POINT('',(0.,-4.740621073973E-15,9.999999939225E-08));
#56 = DIRECTION('',(0.,-1.224646799147E-16,-1.));
#57 = DIRECTION('',(1.,0.,0.));
#58 = PCURVE('',#32,#59);
#59 = DEFINITIONAL_REPRESENTATION('',(#60),#64);
#60 = LINE('',#61,#62);
#61 = CARTESIAN_POINT('',(0.,9.7));
#62 = VECTOR('',#63,1.);
#63 = DIRECTION('',(1.,0.));
#64 = ( GEOMETRIC_REPRESENTATION_CONTEXT(2) 
PARAMETRIC_REPRESENTATION_CONTEXT() REPRESENTATION_CONTEXT('2D SPACE',''
  ) );
#65 = PCURVE('',#66,#71);
#66 = PLANE('',#67);
#67 = AXIS2_PLACEMENT_3D('',#68,#69,#70);
#68 = CARTESIAN_POINT('',(0.,-4.740621073973E-15,9.999999939225E-08));
#69 = DIRECTION('',(0.,-1.224646799147E-16,-1.));
#70 = DIRECTION('',(1.,0.,0.));
#71 = DEFINITIONAL_REPRESENTATION('',(#72),#76);
#72 = CIRCLE('',#73,4.795);
#73 = AXIS2_PLACEMENT_2D('',#74,#75);
#74 = CARTESIAN_POINT('',(0.,0.));
#75 = DIRECTION('',(1.,0.));
#76 = ( GEOMETRIC_REPRESENTATION_CONTEXT(2) 
PARAMETRIC_REPRESENTATION_CONTEXT() REPRESENTATION_CONTEXT('2D SPACE',''
  ) );
#77 = ORIENTED_EDGE('',*,*,#21,.F.);
#78 = ORIENTED_EDGE('',*,*,#79,.T.);
#79 = EDGE_CURVE('',#22,#22,#80,.T.);
#80 = SURFACE_CURVE('',#81,(#174,#270),.PCURVE_S1.);
#81 = B_SPLINE_CURVE_WITH_KNOTS('',6,(#82,#83,#84,#85,#86,#87,#88,#89,
    #90,#91,#92,#93,#94,#95,#96,#97,#98,#99,#100,#101,#102,#103,#104,
    #105,#106,#107,#108,#109,#110,#111,#112,#113,#114,#115,#116,#117,
    #118,#119,#120,#121,#122,#123,#124,#125,#126,#127,#128,#129,#130,
    #131,#132,#133,#134,#135,#136,#137,#138,#139,#140,#141,#142,#143,
    #144,#145,#146,#147,#148,#149,#150,#151,#152,#153,#154,#155,#156,
    #157,#158,#159,#160,#161,#162,#163,#164,#165,#166,#167,#168,#169,
    #170,#171,#172,#173),.UNSPECIFIED.,.T.,.F.,(7,5,5,5,5,5,5,5,5,5,5,5,
    5,5,5,5,5,5,7),(0.,4.97382099782E-02,0.106684700509,0.173065649705,
    0.228192597197,0.282240083498,0.328238232027,0.393428221989,
    0.450640627488,0.500107813202,0.549824578223,0.606746515882,
    0.673098844456,0.72820202357,0.782226206909,0.828204521962,
    0.893366404666,0.950554142514,1.),.UNSPECIFIED.);
#82 = CARTESIAN_POINT('',(4.795,-2.383983771288E-15,4.738349668944));
#83 = CARTESIAN_POINT('',(4.795,-0.227928353677,4.738349668944));
#84 = CARTESIAN_POINT('',(4.781998768074,-0.45541671023,4.725785162042)
  );
#85 = CARTESIAN_POINT('',(4.75608945272,-0.681567337808,4.70074588192));
#86 = CARTESIAN_POINT('',(4.717446034083,-0.905430063776,4.663894993562)
  );
#87 = CARTESIAN_POINT('',(4.666354502787,-1.125901703258,4.616471821454)
  );
#88 = CARTESIAN_POINT('',(4.531496203318,-1.588633785131,4.495686427176)
  );
#89 = CARTESIAN_POINT('',(4.443985432888,-1.829702090233,4.4194879298));
#90 = CARTESIAN_POINT('',(4.341341046503,-2.064660546094,4.333556063787)
  );
#91 = CARTESIAN_POINT('',(4.223677608386,-2.293165694257,4.239940789628)
  );
#92 = CARTESIAN_POINT('',(4.090963386485,-2.514686610677,4.140636518936)
  );
#93 = CARTESIAN_POINT('',(3.770544844287,-2.977730336252,3.91751283965)
  );
#94 = CARTESIAN_POINT('',(3.577360188538,-3.216504845546,3.792348448347)
  );
#95 = CARTESIAN_POINT('',(3.362430134847,-3.444708026969,3.664727026415)
  );
#96 = CARTESIAN_POINT('',(3.124066724389,-3.661272690975,3.537198539022)
  );
#97 = CARTESIAN_POINT('',(2.860286253474,-3.863880236033,3.412944142615)
  );
#98 = CARTESIAN_POINT('',(2.327627319213,-4.201915874725,3.199234567562)
  );
#99 = CARTESIAN_POINT('',(2.065462612996,-4.344008753475,3.106755789188)
  );
#100 = CARTESIAN_POINT('',(1.783104972986,-4.471050938284,3.022058010867
    ));
#101 = CARTESIAN_POINT('',(1.48125756841,-4.579282226081,2.948618547144)
  );
#102 = CARTESIAN_POINT('',(1.161100408525,-4.664835596842,2.889944686072
    ));
#103 = CARTESIAN_POINT('',(0.494292717945,-4.781212168718,2.809700858128
    ));
#104 = CARTESIAN_POINT('',(0.150871801759,-4.812622024263,2.787738207124
    ));
#105 = CARTESIAN_POINT('',(-0.197813695873,-4.813675324556,
    2.786930071274));
#106 = CARTESIAN_POINT('',(-0.543370900872,-4.783697489102,
    2.807984998573));
#107 = CARTESIAN_POINT('',(-0.877515896777,-4.725222215625,
    2.848561231238));
#108 = CARTESIAN_POINT('',(-1.460514037127,-4.575533735007,2.95085501272
    ));
#109 = CARTESIAN_POINT('',(-1.715503618854,-4.490275972915,
    3.008673191863));
#110 = CARTESIAN_POINT('',(-1.956933753401,-4.391004921311,
    3.075206081248));
#111 = CARTESIAN_POINT('',(-2.184574480844,-4.279888838103,
    3.148479120625));
#112 = CARTESIAN_POINT('',(-2.398406050402,-4.158892960562,
    3.226644775911));
#113 = CARTESIAN_POINT('',(-2.882214875233,-3.846918432501,
    3.423329193077));
#114 = CARTESIAN_POINT('',(-3.139720261762,-3.646948637241,
    3.545615914693));
#115 = CARTESIAN_POINT('',(-3.372795874426,-3.433607935485,
    3.670915698537));
#116 = CARTESIAN_POINT('',(-3.583308408913,-3.209053302872,
    3.796232692653));
#117 = CARTESIAN_POINT('',(-3.772837991145,-2.974289426223,
    3.919139117463));
#118 = CARTESIAN_POINT('',(-4.091115941522,-2.514577174242,
    4.140717018094));
#119 = CARTESIAN_POINT('',(-4.224489491062,-2.291906814109,
    4.240531574437));
#120 = CARTESIAN_POINT('',(-4.342658202568,-2.062181437208,
    4.334594709152));
#121 = CARTESIAN_POINT('',(-4.445652862637,-1.825941889741,
    4.420880049581));
#122 = CARTESIAN_POINT('',(-4.533355913626,-1.583537448621,
    4.497305075475));
#123 = CARTESIAN_POINT('',(-4.667628170986,-1.120388882352,
    4.617654373251));
#124 = CARTESIAN_POINT('',(-4.718216591449,-0.900954566097,
    4.664629810932));
#125 = CARTESIAN_POINT('',(-4.756477468958,-0.678174865471,
    4.701120871303));
#126 = CARTESIAN_POINT('',(-4.782128969571,-0.453138406152,
    4.725910988795));
#127 = CARTESIAN_POINT('',(-4.795,-0.226784148085,4.738349668944));
#128 = CARTESIAN_POINT('',(-4.795,0.227928353677,4.738349668944));
#129 = CARTESIAN_POINT('',(-4.781998768074,0.45541671023,4.725785162042)
  );
#130 = CARTESIAN_POINT('',(-4.75608945272,0.681567337808,4.70074588192)
  );
#131 = CARTESIAN_POINT('',(-4.717446034083,0.905430063776,4.663894993562
    ));
#132 = CARTESIAN_POINT('',(-4.666354502787,1.125901703258,4.616471821454
    ));
#133 = CARTESIAN_POINT('',(-4.531496203339,1.588633785059,4.495686427195
    ));
#134 = CARTESIAN_POINT('',(-4.44398543289,1.829702090257,4.419487929801)
  );
#135 = CARTESIAN_POINT('',(-4.341341046473,2.064660546159,4.333556063759
    ));
#136 = CARTESIAN_POINT('',(-4.223677608365,2.293165694271,4.239940789617
    ));
#137 = CARTESIAN_POINT('',(-4.090963386528,2.514686610615,4.140636518966
    ));
#138 = CARTESIAN_POINT('',(-3.770544844287,2.977730336252,3.91751283965)
  );
#139 = CARTESIAN_POINT('',(-3.577360188538,3.216504845546,3.792348448346
    ));
#140 = CARTESIAN_POINT('',(-3.362430134847,3.444708026968,3.664727026415
    ));
#141 = CARTESIAN_POINT('',(-3.124066724389,3.661272690975,3.537198539022
    ));
#142 = CARTESIAN_POINT('',(-2.860286253474,3.863880236033,3.412944142615
    ));
#143 = CARTESIAN_POINT('',(-2.327627319213,4.201915874725,3.199234567562
    ));
#144 = CARTESIAN_POINT('',(-2.065462612996,4.344008753475,3.106755789188
    ));
#145 = CARTESIAN_POINT('',(-1.783104972986,4.471050938283,3.022058010867
    ));
#146 = CARTESIAN_POINT('',(-1.481257568409,4.579282226081,2.948618547144
    ));
#147 = CARTESIAN_POINT('',(-1.161100408525,4.664835596842,2.889944686072
    ));
#148 = CARTESIAN_POINT('',(-0.494292717945,4.781212168718,2.809700858128
    ));
#149 = CARTESIAN_POINT('',(-0.150871801759,4.812622024263,2.787738207124
    ));
#150 = CARTESIAN_POINT('',(0.197813695872,4.813675324557,2.786930071274)
  );
#151 = CARTESIAN_POINT('',(0.543370900872,4.783697489102,2.807984998573)
  );
#152 = CARTESIAN_POINT('',(0.877515896777,4.725222215625,2.848561231238)
  );
#153 = CARTESIAN_POINT('',(1.460514031031,4.575533736573,2.95085501165)
  );
#154 = CARTESIAN_POINT('',(1.715503627373,4.490275969505,3.008673194095)
  );
#155 = CARTESIAN_POINT('',(1.956933754357,4.391004921828,3.075206080962)
  );
#156 = CARTESIAN_POINT('',(2.184574472827,4.279888841754,3.148479118261)
  );
#157 = CARTESIAN_POINT('',(2.398406054566,4.158892957877,3.226644777604)
  );
#158 = CARTESIAN_POINT('',(2.882214875233,3.846918432501,3.423329193077)
  );
#159 = CARTESIAN_POINT('',(3.139720261762,3.646948637241,3.545615914693)
  );
#160 = CARTESIAN_POINT('',(3.372795874425,3.433607935485,3.670915698537)
  );
#161 = CARTESIAN_POINT('',(3.583308408913,3.209053302871,3.796232692653)
  );
#162 = CARTESIAN_POINT('',(3.772837991145,2.974289426223,3.919139117463)
  );
#163 = CARTESIAN_POINT('',(4.091115941521,2.514577174242,4.140717018094)
  );
#164 = CARTESIAN_POINT('',(4.224489491062,2.291906814108,4.240531574437)
  );
#165 = CARTESIAN_POINT('',(4.342658202567,2.062181437208,4.334594709152)
  );
#166 = CARTESIAN_POINT('',(4.445652862637,1.825941889741,4.420880049581)
  );
#167 = CARTESIAN_POINT('',(4.533355913626,1.583537448621,4.497305075475)
  );
#168 = CARTESIAN_POINT('',(4.667628170986,1.120388882352,4.617654373251)
  );
#169 = CARTESIAN_POINT('',(4.718216591449,0.900954566097,4.664629810932)
  );
#170 = CARTESIAN_POINT('',(4.756477468958,0.678174865471,4.701120871303)
  );
#171 = CARTESIAN_POINT('',(4.782128969572,0.453138406152,4.725910988795)
  );
#172 = CARTESIAN_POINT('',(4.795,0.226784148085,4.738349668944));
#173 = CARTESIAN_POINT('',(4.795,-2.383983771288E-15,4.738349668944));
#174 = PCURVE('',#32,#175);
#175 = DEFINITIONAL_REPRESENTATION('',(#176),#269);
#176 = B_SPLINE_CURVE_WITH_KNOTS('',6,(#177,#178,#179,#180,#181,#182,
    #183,#184,#185,#186,#187,#188,#189,#190,#191,#192,#193,#194,#195,
    #196,#197,#198,#199,#200,#201,#202,#203,#204,#205,#206,#207,#208,
    #209,#210,#211,#212,#213,#214,#215,#216,#217,#218,#219,#220,#221,
    #222,#223,#224,#225,#226,#227,#228,#229,#230,#231,#232,#233,#234,
    #235,#236,#237,#238,#239,#240,#241,#242,#243,#244,#245,#246,#247,
    #248,#249,#250,#251,#252,#253,#254,#255,#256,#257,#258,#259,#260,
    #261,#262,#263,#264,#265,#266,#267,#268),.UNSPECIFIED.,.F.,.F.,(7,5,
    5,5,5,5,5,5,5,5,5,5,5,5,5,5,5,5,7),(0.,4.97382099782E-02,
    0.106684700509,0.173065649705,0.228192597197,0.282240083498,
    0.328238232027,0.393428221989,0.450640627488,0.500107813202,
    0.549824578223,0.606746515882,0.673098844456,0.72820202357,
    0.782226206909,0.828204521962,0.893366404666,0.950554142514,1.),
  .UNSPECIFIED.);
#177 = CARTESIAN_POINT('',(0.,4.961650431056));
#178 = CARTESIAN_POINT('',(4.753458887954E-02,4.961650431056));
#179 = CARTESIAN_POINT('',(9.497736855063E-02,4.974214937958));
#180 = CARTESIAN_POINT('',(0.142334771326,4.99925421808));
#181 = CARTESIAN_POINT('',(0.189597136912,5.036105106438));
#182 = CARTESIAN_POINT('',(0.236721402098,5.083528278546));
#183 = CARTESIAN_POINT('',(0.337239260916,5.204313672824));
#184 = CARTESIAN_POINT('',(0.390612636104,5.2805121702));
#185 = CARTESIAN_POINT('',(0.443923545383,5.366444036213));
#186 = CARTESIAN_POINT('',(0.49736104846,5.460059310372));
#187 = CARTESIAN_POINT('',(0.551100139487,5.559363581064));
#188 = CARTESIAN_POINT('',(0.668534212629,5.78248726035));
#189 = CARTESIAN_POINT('',(0.732408443396,5.907651651653));
#190 = CARTESIAN_POINT('',(0.797503922434,6.035273073585));
#191 = CARTESIAN_POINT('',(0.86434415595,6.162801560978));
#192 = CARTESIAN_POINT('',(0.933432903438,6.287055957385));
#193 = CARTESIAN_POINT('',(1.065000654394,6.500765532438));
#194 = CARTESIAN_POINT('',(1.127042464744,6.593244310812));
#195 = CARTESIAN_POINT('',(1.191340514154,6.677942089133));
#196 = CARTESIAN_POINT('',(1.25788587539,6.751381552856));
#197 = CARTESIAN_POINT('',(1.32672826079,6.810055413928));
#198 = CARTESIAN_POINT('',(1.467893431601,6.890299241872));
#199 = CARTESIAN_POINT('',(1.539573763196,6.912261892876));
#200 = CARTESIAN_POINT('',(1.611861868204,6.913070028726));
#201 = CARTESIAN_POINT('',(1.683780248315,6.892015101427));
#202 = CARTESIAN_POINT('',(1.754309795726,6.851438868762));
#203 = CARTESIAN_POINT('',(1.879838094593,6.74914508728));
#204 = CARTESIAN_POINT('',(1.935767842417,6.691326908137));
#205 = CARTESIAN_POINT('',(1.990029968826,6.624794018752));
#206 = CARTESIAN_POINT('',(2.042708469549,6.551520979375));
#207 = CARTESIAN_POINT('',(2.093861517875,6.473355324089));
#208 = CARTESIAN_POINT('',(2.213918394619,6.276670906923));
#209 = CARTESIAN_POINT('',(2.281652270061,6.154384185307));
#210 = CARTESIAN_POINT('',(2.347242380417,6.029084401463));
#211 = CARTESIAN_POINT('',(2.41116688928,5.903767407347));
#212 = CARTESIAN_POINT('',(2.473920667996,5.780860982537));
#213 = CARTESIAN_POINT('',(2.590529387396,5.559283081906));
#214 = CARTESIAN_POINT('',(2.644542984435,5.459468525563));
#215 = CARTESIAN_POINT('',(2.698252464353,5.365405390848));
#216 = CARTESIAN_POINT('',(2.751834994865,5.279120050419));
#217 = CARTESIAN_POINT('',(2.805482250327,5.202695024525));
#218 = CARTESIAN_POINT('',(2.906049400876,5.082345726749));
#219 = CARTESIAN_POINT('',(2.952940337883,5.035370289068));
#220 = CARTESIAN_POINT('',(2.999968286729,4.998879228697));
#221 = CARTESIAN_POINT('',(3.047090425215,4.974089111205));
#222 = CARTESIAN_POINT('',(3.094296689443,4.961650431056));
#223 = CARTESIAN_POINT('',(3.189127242469,4.961650431056));
#224 = CARTESIAN_POINT('',(3.23657002214,4.974214937958));
#225 = CARTESIAN_POINT('',(3.283927424916,4.99925421808));
#226 = CARTESIAN_POINT('',(3.331189790502,5.036105106438));
#227 = CARTESIAN_POINT('',(3.378314055688,5.083528278546));
#228 = CARTESIAN_POINT('',(3.47883191449,5.204313672805));
#229 = CARTESIAN_POINT('',(3.532205289698,5.280512170199));
#230 = CARTESIAN_POINT('',(3.585516198987,5.366444036241));
#231 = CARTESIAN_POINT('',(3.638953702055,5.460059310383));
#232 = CARTESIAN_POINT('',(3.692692793061,5.559363581034));
#233 = CARTESIAN_POINT('',(3.810126866219,5.78248726035));
#234 = CARTESIAN_POINT('',(3.874001096986,5.907651651654));
#235 = CARTESIAN_POINT('',(3.939096576024,6.035273073585));
#236 = CARTESIAN_POINT('',(4.00593680954,6.162801560978));
#237 = CARTESIAN_POINT('',(4.075025557028,6.287055957385));
#238 = CARTESIAN_POINT('',(4.206593307984,6.500765532438));
#239 = CARTESIAN_POINT('',(4.268635118334,6.593244310812));
#240 = CARTESIAN_POINT('',(4.332933167744,6.677942089133));
#241 = CARTESIAN_POINT('',(4.399478528979,6.751381552856));
#242 = CARTESIAN_POINT('',(4.46832091438,6.810055413928));
#243 = CARTESIAN_POINT('',(4.609486085191,6.890299241872));
#244 = CARTESIAN_POINT('',(4.681166416786,6.912261892876));
#245 = CARTESIAN_POINT('',(4.753454521793,6.913070028726));
#246 = CARTESIAN_POINT('',(4.825372901904,6.892015101427));
#247 = CARTESIAN_POINT('',(4.895902449316,6.851438868762));
#248 = CARTESIAN_POINT('',(5.02143074687,6.74914508835));
#249 = CARTESIAN_POINT('',(5.07736049794,6.691326905905));
#250 = CARTESIAN_POINT('',(5.131622622557,6.624794019038));
#251 = CARTESIAN_POINT('',(5.184301121282,6.551520981739));
#252 = CARTESIAN_POINT('',(5.235454172498,6.473355322396));
#253 = CARTESIAN_POINT('',(5.355511048209,6.276670906923));
#254 = CARTESIAN_POINT('',(5.423244923651,6.154384185307));
#255 = CARTESIAN_POINT('',(5.488835034007,6.029084401463));
#256 = CARTESIAN_POINT('',(5.55275954287,5.903767407347));
#257 = CARTESIAN_POINT('',(5.615513321585,5.780860982537));
#258 = CARTESIAN_POINT('',(5.732122040986,5.559283081906));
#259 = CARTESIAN_POINT('',(5.786135638025,5.459468525563));
#260 = CARTESIAN_POINT('',(5.839845117943,5.365405390848));
#261 = CARTESIAN_POINT('',(5.893427648455,5.279120050419));
#262 = CARTESIAN_POINT('',(5.947074903916,5.202695024525));
#263 = CARTESIAN_POINT('',(6.047642054466,5.082345726749));
#264 = CARTESIAN_POINT('',(6.094532991473,5.035370289068));
#265 = CARTESIAN_POINT('',(6.141560940319,4.998879228697));
#266 = CARTESIAN_POINT('',(6.188683078804,4.974089111205));
#267 = CARTESIAN_POINT('',(6.235889343033,4.961650431056));
#268 = CARTESIAN_POINT('',(6.28318530718,4.961650431056));
#269 = ( GEOMETRIC_REPRESENTATION_CONTEXT(2) 
PARAMETRIC_REPRESENTATION_CONTEXT() REPRESENTATION_CONTEXT('2D SPACE',''
  ) );
#270 = PCURVE('',#271,#276);
#271 = CYLINDRICAL_SURFACE('',#272,6.9);
#272 = AXIS2_PLACEMENT_3D('',#273,#274,#275);
#273 = CARTESIAN_POINT('',(0.,-5.795,9.7000001));
#274 = DIRECTION('',(0.,1.,-3.445092848398E-16));
#275 = DIRECTION('',(1.,0.,0.));
#276 = DEFINITIONAL_REPRESENTATION('',(#277),#370);
#277 = B_SPLINE_CURVE_WITH_KNOTS('',6,(#278,#279,#280,#281,#282,#283,
    #284,#285,#286,#287,#288,#289,#290,#291,#292,#293,#294,#295,#296,
    #297,#298,#299,#300,#301,#302,#303,#304,#305,#306,#307,#308,#309,
    #310,#311,#312,#313,#314,#315,#316,#317,#318,#319,#320,#321,#322,
    #323,#324,#325,#326,#327,#328,#329,#330,#331,#332,#333,#334,#335,
    #336,#337,#338,#339,#340,#341,#342,#343,#344,#345,#346,#347,#348,
    #349,#350,#351,#352,#353,#354,#355,#356,#357,#358,#359,#360,#361,
    #362,#363,#364,#365,#366,#367,#368,#369),.UNSPECIFIED.,.T.,.F.,(7,5,
    5,5,5,5,5,5,5,5,5,5,5,5,5,5,5,5,7),(0.,4.97382099782E-02,
    0.106684700509,0.173065649705,0.228192597197,0.282240083498,
    0.328238232027,0.393428221989,0.450640627488,0.500107813202,
    0.549824578223,0.606746515882,0.673098844456,0.72820202357,
    0.782226206909,0.828204521962,0.893366404666,0.950554142514,1.),
  .UNSPECIFIED.);
#278 = CARTESIAN_POINT('',(0.802477203822,5.795));
#279 = CARTESIAN_POINT('',(0.802477203822,5.567071646323));
#280 = CARTESIAN_POINT('',(0.805097525752,5.339583289771));
#281 = CARTESIAN_POINT('',(0.810319544483,5.113432662192));
#282 = CARTESIAN_POINT('',(0.8180579467,4.889569936224));
#283 = CARTESIAN_POINT('',(0.828159038811,4.669098296742));
#284 = CARTESIAN_POINT('',(0.854396876396,4.206366214869));
#285 = CARTESIAN_POINT('',(0.87121204245,3.965297909767));
#286 = CARTESIAN_POINT('',(0.890607035373,3.730339453906));
#287 = CARTESIAN_POINT('',(0.912386256733,3.501834305743));
#288 = CARTESIAN_POINT('',(0.936394616734,3.280313389323));
#289 = CARTESIAN_POINT('',(0.992981761805,2.817269663748));
#290 = CARTESIAN_POINT('',(1.026323762788,2.578495154454));
#291 = CARTESIAN_POINT('',(1.06250620939,2.350291973031));
#292 = CARTESIAN_POINT('',(1.10161828745,2.133727309025));
#293 = CARTESIAN_POINT('',(1.143803670863,1.931119763967));
#294 = CARTESIAN_POINT('',(1.226982143572,1.593084125275));
#295 = CARTESIAN_POINT('',(1.267235387578,1.450991246525));
#296 = CARTESIAN_POINT('',(1.309881538854,1.323949061716));
#297 = CARTESIAN_POINT('',(1.354799539426,1.215717773919));
#298 = CARTESIAN_POINT('',(1.401882738865,1.130164403158));
#299 = CARTESIAN_POINT('',(1.49921877047,1.013787831282));
#300 = CARTESIAN_POINT('',(1.549013967178,0.982377975737));
#301 = CARTESIAN_POINT('',(1.599400185387,0.981324675443));
#302 = CARTESIAN_POINT('',(1.649432590988,1.011302510898));
#303 = CARTESIAN_POINT('',(1.698147291305,1.069777784375));
#304 = CARTESIAN_POINT('',(1.783930541433,1.219466264993));
#305 = CARTESIAN_POINT('',(1.821777640045,1.304724027085));
#306 = CARTESIAN_POINT('',(1.858017902556,1.403995078689));
#307 = CARTESIAN_POINT('',(1.892634791097,1.515111161897));
#308 = CARTESIAN_POINT('',(1.925609529079,1.636107039438));
#309 = CARTESIAN_POINT('',(2.00129941625,1.948081567499));
#310 = CARTESIAN_POINT('',(2.042545820684,2.148051362759));
#311 = CARTESIAN_POINT('',(2.08083396505,2.361392064515));
#312 = CARTESIAN_POINT('',(2.11629789353,2.585946697128));
#313 = CARTESIAN_POINT('',(2.149018308591,2.820710573777));
#314 = CARTESIAN_POINT('',(2.205222847689,3.280422825758));
#315 = CARTESIAN_POINT('',(2.229351788385,3.503093185891));
#316 = CARTESIAN_POINT('',(2.251228554589,3.732818562792));
#317 = CARTESIAN_POINT('',(2.270695312566,3.969058110259));
#318 = CARTESIAN_POINT('',(2.287553054803,4.211462551379));
#319 = CARTESIAN_POINT('',(2.313685459887,4.674611117648));
#320 = CARTESIAN_POINT('',(2.323689011526,4.894045433903));
#321 = CARTESIAN_POINT('',(2.331351315122,5.116825134529));
#322 = CARTESIAN_POINT('',(2.336521368605,5.341861593848));
#323 = CARTESIAN_POINT('',(2.339115449768,5.568215851915));
#324 = CARTESIAN_POINT('',(2.339115449768,6.022928353677));
#325 = CARTESIAN_POINT('',(2.336495127837,6.25041671023));
#326 = CARTESIAN_POINT('',(2.331273109107,6.476567337808));
#327 = CARTESIAN_POINT('',(2.323534706889,6.700430063776));
#328 = CARTESIAN_POINT('',(2.313433614779,6.920901703258));
#329 = CARTESIAN_POINT('',(2.287195777198,7.383633785059));
#330 = CARTESIAN_POINT('',(2.27038061114,7.624702090257));
#331 = CARTESIAN_POINT('',(2.250985618211,7.859660546159));
#332 = CARTESIAN_POINT('',(2.229206396853,8.088165694271));
#333 = CARTESIAN_POINT('',(2.205198036863,8.309686610615));
#334 = CARTESIAN_POINT('',(2.148610891785,8.772730336252));
#335 = CARTESIAN_POINT('',(2.115268890802,9.011504845546));
#336 = CARTESIAN_POINT('',(2.0790864442,9.239708026968));
#337 = CARTESIAN_POINT('',(2.03997436614,9.456272690975));
#338 = CARTESIAN_POINT('',(1.997788982727,9.658880236033));
#339 = CARTESIAN_POINT('',(1.914610510018,9.996915874725));
#340 = CARTESIAN_POINT('',(1.874357266012,10.139008753475));
#341 = CARTESIAN_POINT('',(1.831711114736,10.266050938283));
#342 = CARTESIAN_POINT('',(1.786793114164,10.374282226082));
#343 = CARTESIAN_POINT('',(1.739709914725,10.459835596842));
#344 = CARTESIAN_POINT('',(1.64237388312,10.576212168718));
#345 = CARTESIAN_POINT('',(1.592578686412,10.607622024263));
#346 = CARTESIAN_POINT('',(1.542192468203,10.608675324557));
#347 = CARTESIAN_POINT('',(1.492160062602,10.578697489102));
#348 = CARTESIAN_POINT('',(1.443445362285,10.520222215625));
#349 = CARTESIAN_POINT('',(1.357662113054,10.370533736573));
#350 = CARTESIAN_POINT('',(1.319815012263,10.285275969505));
#351 = CARTESIAN_POINT('',(1.283574750911,10.186004921828));
#352 = CARTESIAN_POINT('',(1.24895786371,10.074888841754));
#353 = CARTESIAN_POINT('',(1.215983123859,9.953892957877));
#354 = CARTESIAN_POINT('',(1.140293237339,9.641918432501));
#355 = CARTESIAN_POINT('',(1.099046832906,9.441948637241));
#356 = CARTESIAN_POINT('',(1.06075868854,9.228607935485));
#357 = CARTESIAN_POINT('',(1.025294760059,9.004053302871));
#358 = CARTESIAN_POINT('',(0.992574344999,8.769289426223));
#359 = CARTESIAN_POINT('',(0.936369805901,8.309577174242));
#360 = CARTESIAN_POINT('',(0.912240865204,8.086906814108));
#361 = CARTESIAN_POINT('',(0.890364099001,7.857181437208));
#362 = CARTESIAN_POINT('',(0.870897341024,7.620941889741));
#363 = CARTESIAN_POINT('',(0.854039598787,7.378537448621));
#364 = CARTESIAN_POINT('',(0.827907193702,6.915388882352));
#365 = CARTESIAN_POINT('',(0.817903642064,6.695954566097));
#366 = CARTESIAN_POINT('',(0.810241338467,6.473174865471));
#367 = CARTESIAN_POINT('',(0.805071284985,6.248138406152));
#368 = CARTESIAN_POINT('',(0.802477203822,6.021784148085));
#369 = CARTESIAN_POINT('',(0.802477203822,5.795));
#370 = ( GEOMETRIC_REPRESENTATION_CONTEXT(2) 
PARAMETRIC_REPRESENTATION_CONTEXT() REPRESENTATION_CONTEXT('2D SPACE',''
  ) );
#371 = ADVANCED_FACE('',(#372,#375),#271,.F.);
#372 = FACE_BOUND('',#373,.F.);
#373 = EDGE_LOOP('',(#374));
#374 = ORIENTED_EDGE('',*,*,#79,.T.);
#375 = FACE_BOUND('',#376,.F.);
#376 = EDGE_LOOP('',(#377));
#377 = ORIENTED_EDGE('',*,*,#378,.F.);
#378 = EDGE_CURVE('',#379,#379,#381,.T.);
#379 = VERTEX_POINT('',#380);
#380 = CARTESIAN_POINT('',(3.795,-3.328926145601E-15,3.937363984471));
#381 = SURFACE_CURVE('',#382,(#485,#591),.PCURVE_S1.);
#382 = B_SPLINE_CURVE_WITH_KNOTS('',6,(#383,#384,#385,#386,#387,#388,
    #389,#390,#391,#392,#393,#394,#395,#396,#397,#398,#399,#400,#401,
    #402,#403,#404,#405,#406,#407,#408,#409,#410,#411,#412,#413,#414,
    #415,#416,#417,#418,#419,#420,#421,#422,#423,#424,#425,#426,#427,
    #428,#429,#430,#431,#432,#433,#434,#435,#436,#437,#438,#439,#440,
    #441,#442,#443,#444,#445,#446,#447,#448,#449,#450,#451,#452,#453,
    #454,#455,#456,#457,#458,#459,#460,#461,#462,#463,#464,#465,#466,
    #467,#468,#469,#470,#471,#472,#473,#474,#475,#476,#477,#478,#479,
    #480,#481,#482,#483,#484),.UNSPECIFIED.,.T.,.F.,(7,5,5,5,5,5,5,5,5,5
    ,5,5,5,5,5,5,5,5,5,5,7),(0.,4.86736834531E-02,9.270031781673E-02,
    0.14949822088,0.194317274752,0.250040924277,0.306462203855,
    0.352458949125,0.407484230178,0.451713302219,0.500145905363,
    0.548833844749,0.592873373982,0.668748904648,0.715241000743,
    0.774911618449,0.806856632078,0.852725056865,0.907596829867,
    0.951702512831,1.),.UNSPECIFIED.);
#383 = CARTESIAN_POINT('',(3.795,-3.370254646454E-15,3.937363984471));
#384 = CARTESIAN_POINT('',(3.795,-0.172674227292,3.937363984471));
#385 = CARTESIAN_POINT('',(3.785571915502,-0.345274546783,3.931155094675
    ));
#386 = CARTESIAN_POINT('',(3.766730728538,-0.517261985538,3.918747172699
    ));
#387 = CARTESIAN_POINT('',(3.73851256848,-0.688090686207,3.90032989625)
  );
#388 = CARTESIAN_POINT('',(3.700978485315,-0.857189090626,3.876273410875
    ));
#389 = CARTESIAN_POINT('',(3.611989115346,-1.174775041787,3.820712966614
    ));
#390 = CARTESIAN_POINT('',(3.562203797992,-1.32369429065,3.790138488504)
  );
#391 = CARTESIAN_POINT('',(3.504928543703,-1.470456862173,3.755726172185
    ));
#392 = CARTESIAN_POINT('',(3.440167407425,-1.614781994559,3.717888083794
    ));
#393 = CARTESIAN_POINT('',(3.367906361212,-1.756350260647,3.677090298111
    ));
#394 = CARTESIAN_POINT('',(3.185194578913,-2.073416927083,3.578052509607
    ));
#395 = CARTESIAN_POINT('',(3.069756622338,-2.246826580861,3.518191457566
    ));
#396 = CARTESIAN_POINT('',(2.941564243415,-2.414606335549,3.455252482632
    ));
#397 = CARTESIAN_POINT('',(2.800196970293,-2.576119541455,3.390303906918
    ));
#398 = CARTESIAN_POINT('',(2.645133048813,-2.730421647734,3.324565010462
    ));
#399 = CARTESIAN_POINT('',(2.342223426508,-2.991168622542,3.208122383584
    ));
#400 = CARTESIAN_POINT('',(2.199621180329,-3.100956471664,3.157121626637
    ));
#401 = CARTESIAN_POINT('',(2.047766215193,-3.204800966441,3.10720705273)
  );
#402 = CARTESIAN_POINT('',(1.886428090148,-3.301813850054,3.05921084777)
  );
#403 = CARTESIAN_POINT('',(1.715440818831,-3.390917632071,3.014073633654
    ));
#404 = CARTESIAN_POINT('',(1.310088400899,-3.570158695598,2.921595675999
    ));
#405 = CARTESIAN_POINT('',(1.068362445755,-3.656185008013,2.875919273198
    ));
#406 = CARTESIAN_POINT('',(0.81268945956,-3.724257587224,2.838908001049)
  );
#407 = CARTESIAN_POINT('',(0.546721677746,-3.771181800184,2.813100214216
    ));
#408 = CARTESIAN_POINT('',(0.274452878279,-3.795,2.8000001));
#409 = CARTESIAN_POINT('',(-0.277888880371,-3.795,2.8000001));
#410 = CARTESIAN_POINT('',(-0.553430307685,-3.770581683078,
    2.813430299278));
#411 = CARTESIAN_POINT('',(-0.822416926692,-3.722520000073,
    2.839863596595));
#412 = CARTESIAN_POINT('',(-1.080773638629,-3.652859414339,
    2.877726579005));
#413 = CARTESIAN_POINT('',(-1.324784091792,-3.564907885726,
    2.924383365007));
#414 = CARTESIAN_POINT('',(-1.735941515336,-3.380749856702,
    3.019250187171));
#415 = CARTESIAN_POINT('',(-1.910363677089,-3.288442271022,
    3.065905009573));
#416 = CARTESIAN_POINT('',(-2.074631311296,-3.187921347878,
    3.115475657481));
#417 = CARTESIAN_POINT('',(-2.228938949054,-3.080331799879,
    3.166957159727));
#418 = CARTESIAN_POINT('',(-2.373548548121,-2.96660675475,3.219465548908
    ));
#419 = CARTESIAN_POINT('',(-2.67046714929,-2.705011744725,3.335352010064
    ));
#420 = CARTESIAN_POINT('',(-2.818906441568,-2.554653397118,3.39891423947
    ));
#421 = CARTESIAN_POINT('',(-2.954550399629,-2.397612666368,
    3.461624415084));
#422 = CARTESIAN_POINT('',(-3.077862963199,-2.234731418194,
    3.522382302911));
#423 = CARTESIAN_POINT('',(-3.189217257047,-2.066585829389,
    3.580217918337));
#424 = CARTESIAN_POINT('',(-3.368904780386,-1.754496445481,
    3.677643686708));
#425 = CARTESIAN_POINT('',(-3.441388936024,-1.612283258257,
    3.718585466485));
#426 = CARTESIAN_POINT('',(-3.506308731491,-1.46729236374,3.756537014944
    ));
#427 = CARTESIAN_POINT('',(-3.563677910094,-1.31984765173,3.791026406615
    ));
#428 = CARTESIAN_POINT('',(-3.613491983998,-1.170233779005,
    3.821636837171));
#429 = CARTESIAN_POINT('',(-3.701959096403,-0.852758809905,
    3.876902006153));
#430 = CARTESIAN_POINT('',(-3.739102314229,-0.684510842818,
    3.900714822606));
#431 = CARTESIAN_POINT('',(-3.767026156397,-0.514558675102,
    3.918941727749));
#432 = CARTESIAN_POINT('',(-3.785670543775,-0.343465303604,
    3.931220046535));
#433 = CARTESIAN_POINT('',(-3.795,-0.171768664456,3.937363984471));
#434 = CARTESIAN_POINT('',(-3.795,0.172674227292,3.937363984471));
#435 = CARTESIAN_POINT('',(-3.785571915502,0.345274546783,3.931155094675
    ));
#436 = CARTESIAN_POINT('',(-3.766730728538,0.517261985538,3.918747172699
    ));
#437 = CARTESIAN_POINT('',(-3.738512568479,0.688090686207,3.90032989625)
  );
#438 = CARTESIAN_POINT('',(-3.700978485315,0.857189090626,3.876273410875
    ));
#439 = CARTESIAN_POINT('',(-3.611989115346,1.174775041787,3.820712966614
    ));
#440 = CARTESIAN_POINT('',(-3.562203797992,1.32369429065,3.790138488504)
  );
#441 = CARTESIAN_POINT('',(-3.504928543703,1.470456862173,3.755726172185
    ));
#442 = CARTESIAN_POINT('',(-3.440167407425,1.614781994559,3.717888083794
    ));
#443 = CARTESIAN_POINT('',(-3.367906361212,1.756350260647,3.677090298111
    ));
#444 = CARTESIAN_POINT('',(-3.150662824932,2.133341185842,3.559334786511
    ));
#445 = CARTESIAN_POINT('',(-2.990981356848,2.362439152312,3.477616011496
    ));
#446 = CARTESIAN_POINT('',(-2.808470726288,2.581249862472,3.391026073685
    ));
#447 = CARTESIAN_POINT('',(-2.601899423479,2.788180141383,3.302105246279
    ));
#448 = CARTESIAN_POINT('',(-2.36977666324,2.980485722956,3.214003512096)
  );
#449 = CARTESIAN_POINT('',(-1.95211493598,3.260020405197,3.079801599698)
  );
#450 = CARTESIAN_POINT('',(-1.782929532042,3.359380611314,3.030514383478
    ));
#451 = CARTESIAN_POINT('',(-1.603328123692,3.450499294418,2.984036163672
    ));
#452 = CARTESIAN_POINT('',(-1.413516944623,3.531933323342,2.941561380755
    ));
#453 = CARTESIAN_POINT('',(-1.213851804486,3.602160073281,2.904326069911
    ));
#454 = CARTESIAN_POINT('',(-0.736640105212,3.733196436629,2.834079546103
    ));
#455 = CARTESIAN_POINT('',(-0.452156727592,3.785942428399,2.805123739504
    ));
#456 = CARTESIAN_POINT('',(-0.157988820711,3.812504661572,2.790265995869
    ));
#457 = CARTESIAN_POINT('',(0.138716576649,3.810738237178,2.791330012614)
  );
#458 = CARTESIAN_POINT('',(0.430704679477,3.781270690632,2.807688013682)
  );
#459 = CARTESIAN_POINT('',(0.861229832871,3.69914362531,2.852295343199)
  );
#460 = CARTESIAN_POINT('',(1.007889235361,3.663648462347,2.871473366767)
  );
#461 = CARTESIAN_POINT('',(1.150626535022,3.621773250922,2.893924179466)
  );
#462 = CARTESIAN_POINT('',(1.289018915746,3.574047307547,2.919240158809)
  );
#463 = CARTESIAN_POINT('',(1.422685353537,3.521057763196,2.946972235001)
  );
#464 = CARTESIAN_POINT('',(1.735941515336,3.380749856702,3.019250187171)
  );
#465 = CARTESIAN_POINT('',(1.910363677089,3.288442271022,3.065905009573)
  );
#466 = CARTESIAN_POINT('',(2.074631311296,3.187921347878,3.115475657481)
  );
#467 = CARTESIAN_POINT('',(2.228938949054,3.080331799879,3.166957159727)
  );
#468 = CARTESIAN_POINT('',(2.373548548121,2.96660675475,3.219465548908)
  );
#469 = CARTESIAN_POINT('',(2.67046714929,2.705011744725,3.335352010064)
  );
#470 = CARTESIAN_POINT('',(2.818906441568,2.554653397118,3.39891423947)
  );
#471 = CARTESIAN_POINT('',(2.954550399629,2.397612666368,3.461624415084)
  );
#472 = CARTESIAN_POINT('',(3.077862963199,2.234731418194,3.522382302911)
  );
#473 = CARTESIAN_POINT('',(3.189217257047,2.066585829389,3.580217918337)
  );
#474 = CARTESIAN_POINT('',(3.368904780386,1.754496445481,3.677643686708)
  );
#475 = CARTESIAN_POINT('',(3.441388936024,1.612283258257,3.718585466485)
  );
#476 = CARTESIAN_POINT('',(3.506308731491,1.46729236374,3.756537014944)
  );
#477 = CARTESIAN_POINT('',(3.563677910094,1.31984765173,3.791026406615)
  );
#478 = CARTESIAN_POINT('',(3.613491983998,1.170233779005,3.821636837171)
  );
#479 = CARTESIAN_POINT('',(3.701959096404,0.852758809905,3.876902006153)
  );
#480 = CARTESIAN_POINT('',(3.739102314229,0.684510842818,3.900714822606)
  );
#481 = CARTESIAN_POINT('',(3.767026156397,0.514558675102,3.918941727749)
  );
#482 = CARTESIAN_POINT('',(3.785670543775,0.343465303604,3.931220046535)
  );
#483 = CARTESIAN_POINT('',(3.795,0.171768664456,3.937363984471));
#484 = CARTESIAN_POINT('',(3.795,-3.370254646454E-15,3.937363984471));
#485 = PCURVE('',#271,#486);
#486 = DEFINITIONAL_REPRESENTATION('',(#487),#590);
#487 = B_SPLINE_CURVE_WITH_KNOTS('',6,(#488,#489,#490,#491,#492,#493,
    #494,#495,#496,#497,#498,#499,#500,#501,#502,#503,#504,#505,#506,
    #507,#508,#509,#510,#511,#512,#513,#514,#515,#516,#517,#518,#519,
    #520,#521,#522,#523,#524,#525,#526,#527,#528,#529,#530,#531,#532,
    #533,#534,#535,#536,#537,#538,#539,#540,#541,#542,#543,#544,#545,
    #546,#547,#548,#549,#550,#551,#552,#553,#554,#555,#556,#557,#558,
    #559,#560,#561,#562,#563,#564,#565,#566,#567,#568,#569,#570,#571,
    #572,#573,#574,#575,#576,#577,#578,#579,#580,#581,#582,#583,#584,
    #585,#586,#587,#588,#589),.UNSPECIFIED.,.T.,.F.,(7,5,5,5,5,5,5,5,5,5
    ,5,5,5,5,5,5,5,5,5,5,7),(0.,4.86736834531E-02,9.270031781673E-02,
    0.14949822088,0.194317274752,0.250040924277,0.306462203855,
    0.352458949125,0.407484230178,0.451713302219,0.500145905363,
    0.548833844749,0.592873373982,0.668748904648,0.715241000743,
    0.774911618449,0.806856632078,0.852725056865,0.907596829867,
    0.951702512831,1.),.UNSPECIFIED.);
#488 = CARTESIAN_POINT('',(0.988432088926,5.795));
#489 = CARTESIAN_POINT('',(0.988432088926,5.622325772708));
#490 = CARTESIAN_POINT('',(0.990068158467,5.449725453217));
#491 = CARTESIAN_POINT('',(0.993337710454,5.277738014462));
#492 = CARTESIAN_POINT('',(0.998221213492,5.106909313793));
#493 = CARTESIAN_POINT('',(1.004681864709,4.937810909374));
#494 = CARTESIAN_POINT('',(1.019886186864,4.620224958213));
#495 = CARTESIAN_POINT('',(1.028353212839,4.47130570935));
#496 = CARTESIAN_POINT('',(1.038036275688,4.324543137827));
#497 = CARTESIAN_POINT('',(1.048905041434,4.180218005441));
#498 = CARTESIAN_POINT('',(1.060929723024,4.038649739353));
#499 = CARTESIAN_POINT('',(1.091049584029,3.721583072917));
#500 = CARTESIAN_POINT('',(1.109892073752,3.548173419139));
#501 = CARTESIAN_POINT('',(1.130581344364,3.380393664451));
#502 = CARTESIAN_POINT('',(1.153114914404,3.218880458545));
#503 = CARTESIAN_POINT('',(1.177510102674,3.064578352266));
#504 = CARTESIAN_POINT('',(1.224541963116,2.803831377458));
#505 = CARTESIAN_POINT('',(1.246484849092,2.694043528336));
#506 = CARTESIAN_POINT('',(1.269639053456,2.590199033559));
#507 = CARTESIAN_POINT('',(1.294017671052,2.493186149946));
#508 = CARTESIAN_POINT('',(1.319632716005,2.404082367929));
#509 = CARTESIAN_POINT('',(1.379888900056,2.224841304402));
#510 = CARTESIAN_POINT('',(1.415516526253,2.138814991987));
#511 = CARTESIAN_POINT('',(1.452902211872,2.070742412776));
#512 = CARTESIAN_POINT('',(1.49156124048,2.023818199816));
#513 = CARTESIAN_POINT('',(1.531020547334,2.));
#514 = CARTESIAN_POINT('',(1.611070077573,2.));
#515 = CARTESIAN_POINT('',(1.65100368318,2.024418316922));
#516 = CARTESIAN_POINT('',(1.690104511871,2.072479999927));
#517 = CARTESIAN_POINT('',(1.72789119352,2.142140585662));
#518 = CARTESIAN_POINT('',(1.763869974628,2.230092114274));
#519 = CARTESIAN_POINT('',(1.82502358052,2.414250143298));
#520 = CARTESIAN_POINT('',(1.851175196772,2.506557728978));
#521 = CARTESIAN_POINT('',(1.876025020385,2.607078652122));
#522 = CARTESIAN_POINT('',(1.899587458603,2.714668200121));
#523 = CARTESIAN_POINT('',(1.921877863475,2.82839324525));
#524 = CARTESIAN_POINT('',(1.968070961467,3.089988255275));
#525 = CARTESIAN_POINT('',(1.99146097394,3.240346602882));
#526 = CARTESIAN_POINT('',(2.013106967585,3.397387333632));
#527 = CARTESIAN_POINT('',(2.033022893304,3.560268581806));
#528 = CARTESIAN_POINT('',(2.051205164027,3.728414170611));
#529 = CARTESIAN_POINT('',(2.080828361787,4.040503554519));
#530 = CARTESIAN_POINT('',(2.092891439989,4.182716741743));
#531 = CARTESIAN_POINT('',(2.103788343157,4.32770763626));
#532 = CARTESIAN_POINT('',(2.113488826083,4.47515234827));
#533 = CARTESIAN_POINT('',(2.1219621312,4.624766220995));
#534 = CARTESIAN_POINT('',(2.137079586958,4.942241190095));
#535 = CARTESIAN_POINT('',(2.143473503946,5.110489157182));
#536 = CARTESIAN_POINT('',(2.14830620951,5.280441324898));
#537 = CARTESIAN_POINT('',(2.151541610177,5.451534696396));
#538 = CARTESIAN_POINT('',(2.153160564664,5.623231335544));
#539 = CARTESIAN_POINT('',(2.153160564664,5.967674227292));
#540 = CARTESIAN_POINT('',(2.151524495123,6.140274546783));
#541 = CARTESIAN_POINT('',(2.148254943136,6.312261985538));
#542 = CARTESIAN_POINT('',(2.143371440098,6.483090686207));
#543 = CARTESIAN_POINT('',(2.13691078888,6.652189090626));
#544 = CARTESIAN_POINT('',(2.121706466726,6.969775041787));
#545 = CARTESIAN_POINT('',(2.113239440751,7.11869429065));
#546 = CARTESIAN_POINT('',(2.103556377902,7.265456862173));
#547 = CARTESIAN_POINT('',(2.092687612156,7.409781994559));
#548 = CARTESIAN_POINT('',(2.080662930566,7.551350260647));
#549 = CARTESIAN_POINT('',(2.044850543239,7.928341185842));
#550 = CARTESIAN_POINT('',(2.018861146328,8.157439152312));
#551 = CARTESIAN_POINT('',(1.989605782564,8.376249862472));
#552 = CARTESIAN_POINT('',(1.957050679816,8.583180141383));
#553 = CARTESIAN_POINT('',(1.921116428941,8.775485722956));
#554 = CARTESIAN_POINT('',(1.857537745932,9.055020405197));
#555 = CARTESIAN_POINT('',(1.832008401701,9.154380611314));
#556 = CARTESIAN_POINT('',(1.805141197719,9.245499294418));
#557 = CARTESIAN_POINT('',(1.776977341209,9.326933323342));
#558 = CARTESIAN_POINT('',(1.747563025243,9.397160073281));
#559 = CARTESIAN_POINT('',(1.677656618579,9.528196436629));
#560 = CARTESIAN_POINT('',(1.636255312814,9.580942428399));
#561 = CARTESIAN_POINT('',(1.593655206025,9.607504661571));
#562 = CARTESIAN_POINT('',(1.550745954415,9.605738237178));
#563 = CARTESIAN_POINT('',(1.508409595972,9.576270690632));
#564 = CARTESIAN_POINT('',(1.445680625088,9.49414362531));
#565 = CARTESIAN_POINT('',(1.42425238933,9.458648462347));
#566 = CARTESIAN_POINT('',(1.403321762595,9.416773250922));
#567 = CARTESIAN_POINT('',(1.382940939313,9.369047307547));
#568 = CARTESIAN_POINT('',(1.363161309437,9.316057763196));
#569 = CARTESIAN_POINT('',(1.31656907307,9.175749856702));
#570 = CARTESIAN_POINT('',(1.290417456818,9.083442271022));
#571 = CARTESIAN_POINT('',(1.265567633204,8.982921347878));
#572 = CARTESIAN_POINT('',(1.242005194987,8.875331799879));
#573 = CARTESIAN_POINT('',(1.219714790114,8.76160675475));
#574 = CARTESIAN_POINT('',(1.173521692123,8.500011744725));
#575 = CARTESIAN_POINT('',(1.15013167965,8.349653397118));
#576 = CARTESIAN_POINT('',(1.128485686004,8.192612666368));
#577 = CARTESIAN_POINT('',(1.108569760286,8.029731418194));
#578 = CARTESIAN_POINT('',(1.090387489563,7.861585829389));
#579 = CARTESIAN_POINT('',(1.060764291803,7.549496445481));
#580 = CARTESIAN_POINT('',(1.048701213601,7.407283258257));
#581 = CARTESIAN_POINT('',(1.037804310432,7.26229236374));
#582 = CARTESIAN_POINT('',(1.028103827507,7.11484765173));
#583 = CARTESIAN_POINT('',(1.01963052239,6.965233779005));
#584 = CARTESIAN_POINT('',(1.004513066632,6.647758809905));
#585 = CARTESIAN_POINT('',(0.998119149643,6.479510842818));
#586 = CARTESIAN_POINT('',(0.99328644408,6.309558675102));
#587 = CARTESIAN_POINT('',(0.990051043412,6.138465303604));
#588 = CARTESIAN_POINT('',(0.988432088926,5.966768664456));
#589 = CARTESIAN_POINT('',(0.988432088926,5.795));
#590 = ( GEOMETRIC_REPRESENTATION_CONTEXT(2) 
PARAMETRIC_REPRESENTATION_CONTEXT() REPRESENTATION_CONTEXT('2D SPACE',''
  ) );
#591 = PCURVE('',#592,#597);
#592 = CYLINDRICAL_SURFACE('',#593,3.795);
#593 = AXIS2_PLACEMENT_3D('',#594,#595,#596);
#594 = CARTESIAN_POINT('',(0.,-3.552713678801E-15,9.7000001));
#595 = DIRECTION('',(0.,-1.224646799147E-16,-1.));
#596 = DIRECTION('',(1.,0.,0.));
#597 = DEFINITIONAL_REPRESENTATION('',(#598),#701);
#598 = B_SPLINE_CURVE_WITH_KNOTS('',6,(#599,#600,#601,#602,#603,#604,
    #605,#606,#607,#608,#609,#610,#611,#612,#613,#614,#615,#616,#617,
    #618,#619,#620,#621,#622,#623,#624,#625,#626,#627,#628,#629,#630,
    #631,#632,#633,#634,#635,#636,#637,#638,#639,#640,#641,#642,#643,
    #644,#645,#646,#647,#648,#649,#650,#651,#652,#653,#654,#655,#656,
    #657,#658,#659,#660,#661,#662,#663,#664,#665,#666,#667,#668,#669,
    #670,#671,#672,#673,#674,#675,#676,#677,#678,#679,#680,#681,#682,
    #683,#684,#685,#686,#687,#688,#689,#690,#691,#692,#693,#694,#695,
    #696,#697,#698,#699,#700),.UNSPECIFIED.,.F.,.F.,(7,5,5,5,5,5,5,5,5,5
    ,5,5,5,5,5,5,5,5,5,5,7),(0.,4.86736834531E-02,9.270031781673E-02,
    0.14949822088,0.194317274752,0.250040924277,0.306462203855,
    0.352458949125,0.407484230178,0.451713302219,0.500145905363,
    0.548833844749,0.592873373982,0.668748904648,0.715241000743,
    0.774911618449,0.806856632078,0.852725056865,0.907596829867,
    0.951702512831,1.),.UNSPECIFIED.);
#599 = CARTESIAN_POINT('',(0.,5.762636115529));
#600 = CARTESIAN_POINT('',(4.550045514937E-02,5.762636115529));
#601 = CARTESIAN_POINT('',(9.098142705921E-02,5.768845005325));
#602 = CARTESIAN_POINT('',(0.136470507976,5.781252927301));
#603 = CARTESIAN_POINT('',(0.181992507389,5.79967020375));
#604 = CARTESIAN_POINT('',(0.227566725715,5.823726689125));
#605 = CARTESIAN_POINT('',(0.314475302086,5.879287133386));
#606 = CARTESIAN_POINT('',(0.355800469611,5.909861611496));
#607 = CARTESIAN_POINT('',(0.397237464468,5.944273927815));
#608 = CARTESIAN_POINT('',(0.438843003714,5.982112016206));
#609 = CARTESIAN_POINT('',(0.480671426167,6.022909801889));
#610 = CARTESIAN_POINT('',(0.57709930553,6.121947590393));
#611 = CARTESIAN_POINT('',(0.631877756665,6.181808642434));
#612 = CARTESIAN_POINT('',(0.687338317504,6.244747617368));
#613 = CARTESIAN_POINT('',(0.74370176271,6.309696193082));
#614 = CARTESIAN_POINT('',(0.801194987494,6.375435089538));
#615 = CARTESIAN_POINT('',(0.906512221042,6.491877716416));
#616 = CARTESIAN_POINT('',(0.953863935926,6.542878473363));
#617 = CARTESIAN_POINT('',(1.002222760482,6.59279304727));
#618 = CARTESIAN_POINT('',(1.051696033507,6.64078925223));
#619 = CARTESIAN_POINT('',(1.102398639276,6.685926466346));
#620 = CARTESIAN_POINT('',(1.219187361553,6.778404424001));
#621 = CARTESIAN_POINT('',(1.286609459565,6.824080826802));
#622 = CARTESIAN_POINT('',(1.355967848216,6.861092098951));
#623 = CARTESIAN_POINT('',(1.426732691358,6.886899885784));
#624 = CARTESIAN_POINT('',(1.498476727775,6.9));
#625 = CARTESIAN_POINT('',(1.64402132821,6.9));
#626 = CARTESIAN_POINT('',(1.716627712974,6.886569800722));
#627 = CARTESIAN_POINT('',(1.788213947177,6.860136503405));
#628 = CARTESIAN_POINT('',(1.858351604766,6.822273520995));
#629 = CARTESIAN_POINT('',(1.926505706659,6.775616734993));
#630 = CARTESIAN_POINT('',(2.045218732688,6.680749912829));
#631 = CARTESIAN_POINT('',(2.097107427594,6.634095090427));
#632 = CARTESIAN_POINT('',(2.147710745225,6.584524442519));
#633 = CARTESIAN_POINT('',(2.197154238881,6.533042940273));
#634 = CARTESIAN_POINT('',(2.245555729022,6.480534551092));
#635 = CARTESIAN_POINT('',(2.349829203348,6.364648089936));
#636 = CARTESIAN_POINT('',(2.405369619882,6.30108586053));
#637 = CARTESIAN_POINT('',(2.459872970969,6.238375684916));
#638 = CARTESIAN_POINT('',(2.513544043235,6.177617797089));
#639 = CARTESIAN_POINT('',(2.566582194051,6.119782181663));
#640 = CARTESIAN_POINT('',(2.661475831464,6.022356413292));
#641 = CARTESIAN_POINT('',(2.703481657119,5.981414633515));
#642 = CARTESIAN_POINT('',(2.745263388313,5.943463085056));
#643 = CARTESIAN_POINT('',(2.786875877526,5.908973693385));
#644 = CARTESIAN_POINT('',(2.828376422203,5.878363262829));
#645 = CARTESIAN_POINT('',(2.9152197973,5.823098093847));
#646 = CARTESIAN_POINT('',(2.960554038126,5.799285277394));
#647 = CARTESIAN_POINT('',(3.005837135104,5.781058372251));
#648 = CARTESIAN_POINT('',(3.051087970177,5.768780053465));
#649 = CARTESIAN_POINT('',(3.096330818423,5.762636115529));
#650 = CARTESIAN_POINT('',(3.187093108739,5.762636115529));
#651 = CARTESIAN_POINT('',(3.232574080649,5.768845005325));
#652 = CARTESIAN_POINT('',(3.278063161566,5.781252927301));
#653 = CARTESIAN_POINT('',(3.323585160978,5.79967020375));
#654 = CARTESIAN_POINT('',(3.369159379305,5.823726689125));
#655 = CARTESIAN_POINT('',(3.456067955675,5.879287133386));
#656 = CARTESIAN_POINT('',(3.4973931232,5.909861611496));
#657 = CARTESIAN_POINT('',(3.538830118058,5.944273927815));
#658 = CARTESIAN_POINT('',(3.580435657303,5.982112016206));
#659 = CARTESIAN_POINT('',(3.622264079757,6.022909801889));
#660 = CARTESIAN_POINT('',(3.736916420428,6.140665313489));
#661 = CARTESIAN_POINT('',(3.81023049162,6.222384088504));
#662 = CARTESIAN_POINT('',(3.88488503812,6.308974026315));
#663 = CARTESIAN_POINT('',(3.961444440744,6.397894853721));
#664 = CARTESIAN_POINT('',(4.040460719591,6.485996587904));
#665 = CARTESIAN_POINT('',(4.172891373035,6.620198500302));
#666 = CARTESIAN_POINT('',(4.22450255341,6.669485716522));
#667 = CARTESIAN_POINT('',(4.277416968468,6.715963936328));
#668 = CARTESIAN_POINT('',(4.33166410398,6.758438719245));
#669 = CARTESIAN_POINT('',(4.387299086858,6.795674030089));
#670 = CARTESIAN_POINT('',(4.517701002959,6.865920553897));
#671 = CARTESIAN_POINT('',(4.59366809918,6.894876360496));
#672 = CARTESIAN_POINT('',(4.670978768409,6.909734104131));
#673 = CARTESIAN_POINT('',(4.748631312591,6.908670087386));
#674 = CARTESIAN_POINT('',(4.825663523174,6.892312086318));
#675 = CARTESIAN_POINT('',(4.941154549989,6.847704756801));
#676 = CARTESIAN_POINT('',(4.980868093972,6.828526733233));
#677 = CARTESIAN_POINT('',(5.019998914607,6.806075920534));
#678 = CARTESIAN_POINT('',(5.058512994163,6.780759941191));
#679 = CARTESIAN_POINT('',(5.096365282766,6.753027864999));
#680 = CARTESIAN_POINT('',(5.186811386278,6.680749912829));
#681 = CARTESIAN_POINT('',(5.238700081184,6.634095090427));
#682 = CARTESIAN_POINT('',(5.289303398815,6.584524442519));
#683 = CARTESIAN_POINT('',(5.338746892471,6.533042940273));
#684 = CARTESIAN_POINT('',(5.387148382612,6.480534551092));
#685 = CARTESIAN_POINT('',(5.491421856938,6.364648089936));
#686 = CARTESIAN_POINT('',(5.546962273471,6.30108586053));
#687 = CARTESIAN_POINT('',(5.601465624559,6.238375684916));
#688 = CARTESIAN_POINT('',(5.655136696825,6.177617797089));
#689 = CARTESIAN_POINT('',(5.708174847641,6.119782181663));
#690 = CARTESIAN_POINT('',(5.803068485053,6.022356413292));
#691 = CARTESIAN_POINT('',(5.845074310709,5.981414633515));
#692 = CARTESIAN_POINT('',(5.886856041903,5.943463085056));
#693 = CARTESIAN_POINT('',(5.928468531116,5.908973693385));
#694 = CARTESIAN_POINT('',(5.969969075793,5.878363262829));
#695 = CARTESIAN_POINT('',(6.05681245089,5.823098093847));
#696 = CARTESIAN_POINT('',(6.102146691716,5.799285277394));
#697 = CARTESIAN_POINT('',(6.147429788694,5.781058372251));
#698 = CARTESIAN_POINT('',(6.192680623767,5.768780053465));
#699 = CARTESIAN_POINT('',(6.237923472013,5.762636115529));
#700 = CARTESIAN_POINT('',(6.28318530718,5.762636115529));
#701 = ( GEOMETRIC_REPRESENTATION_CONTEXT(2) 
PARAMETRIC_REPRESENTATION_CONTEXT() REPRESENTATION_CONTEXT('2D SPACE',''
  ) );
#702 = ADVANCED_FACE('',(#703,#706),#66,.T.);
#703 = FACE_BOUND('',#704,.T.);
#704 = EDGE_LOOP('',(#705));
#705 = ORIENTED_EDGE('',*,*,#51,.T.);
#706 = FACE_BOUND('',#707,.T.);
#707 = EDGE_LOOP('',(#708,#738,#766,#794));
#708 = ORIENTED_EDGE('',*,*,#709,.T.);
#709 = EDGE_CURVE('',#710,#712,#714,.T.);
#710 = VERTEX_POINT('',#711);
#711 = CARTESIAN_POINT('',(1.6,1.1,9.999999939225E-08));
#712 = VERTEX_POINT('',#713);
#713 = CARTESIAN_POINT('',(-1.6,1.1,9.999999939225E-08));
#714 = SURFACE_CURVE('',#715,(#719,#726),.PCURVE_S1.);
#715 = LINE('',#716,#717);
#716 = CARTESIAN_POINT('',(-0.8,1.1,9.999999939225E-08));
#717 = VECTOR('',#718,1.);
#718 = DIRECTION('',(-1.,0.,-0.));
#719 = PCURVE('',#66,#720);
#720 = DEFINITIONAL_REPRESENTATION('',(#721),#725);
#721 = LINE('',#722,#723);
#722 = CARTESIAN_POINT('',(-0.8,-1.1));
#723 = VECTOR('',#724,1.);
#724 = DIRECTION('',(-1.,0.));
#725 = ( GEOMETRIC_REPRESENTATION_CONTEXT(2) 
PARAMETRIC_REPRESENTATION_CONTEXT() REPRESENTATION_CONTEXT('2D SPACE',''
  ) );
#726 = PCURVE('',#727,#732);
#727 = PLANE('',#728);
#728 = AXIS2_PLACEMENT_3D('',#729,#730,#731);
#729 = CARTESIAN_POINT('',(-1.6,1.1,0.9000001));
#730 = DIRECTION('',(0.,-1.,1.224646799147E-16));
#731 = DIRECTION('',(0.,-1.224646799147E-16,-1.));
#732 = DEFINITIONAL_REPRESENTATION('',(#733),#737);
#733 = LINE('',#734,#735);
#734 = CARTESIAN_POINT('',(0.9,0.8));
#735 = VECTOR('',#736,1.);
#736 = DIRECTION('',(-0.,-1.));
#737 = ( GEOMETRIC_REPRESENTATION_CONTEXT(2) 
PARAMETRIC_REPRESENTATION_CONTEXT() REPRESENTATION_CONTEXT('2D SPACE',''
  ) );
#738 = ORIENTED_EDGE('',*,*,#739,.T.);
#739 = EDGE_CURVE('',#712,#740,#742,.T.);
#740 = VERTEX_POINT('',#741);
#741 = CARTESIAN_POINT('',(-1.6,-1.1,9.999999939225E-08));
#742 = SURFACE_CURVE('',#743,(#747,#754),.PCURVE_S1.);
#743 = LINE('',#744,#745);
#744 = CARTESIAN_POINT('',(-1.6,0.55,9.999999939225E-08));
#745 = VECTOR('',#746,1.);
#746 = DIRECTION('',(0.,-1.,1.224646799147E-16));
#747 = PCURVE('',#66,#748);
#748 = DEFINITIONAL_REPRESENTATION('',(#749),#753);
#749 = LINE('',#750,#751);
#750 = CARTESIAN_POINT('',(-1.6,-0.55));
#751 = VECTOR('',#752,1.);
#752 = DIRECTION('',(0.,1.));
#753 = ( GEOMETRIC_REPRESENTATION_CONTEXT(2) 
PARAMETRIC_REPRESENTATION_CONTEXT() REPRESENTATION_CONTEXT('2D SPACE',''
  ) );
#754 = PCURVE('',#755,#760);
#755 = PLANE('',#756);
#756 = AXIS2_PLACEMENT_3D('',#757,#758,#759);
#757 = CARTESIAN_POINT('',(-1.6,1.1,0.9000001));
#758 = DIRECTION('',(1.,0.,0.));
#759 = DIRECTION('',(0.,-1.224646799147E-16,-1.));
#760 = DEFINITIONAL_REPRESENTATION('',(#761),#765);
#761 = LINE('',#762,#763);
#762 = CARTESIAN_POINT('',(0.9,-0.55));
#763 = VECTOR('',#764,1.);
#764 = DIRECTION('',(0.,-1.));
#765 = ( GEOMETRIC_REPRESENTATION_CONTEXT(2) 
PARAMETRIC_REPRESENTATION_CONTEXT() REPRESENTATION_CONTEXT('2D SPACE',''
  ) );
#766 = ORIENTED_EDGE('',*,*,#767,.F.);
#767 = EDGE_CURVE('',#768,#740,#770,.T.);
#768 = VERTEX_POINT('',#769);
#769 = CARTESIAN_POINT('',(1.6,-1.1,9.999999939225E-08));
#770 = SURFACE_CURVE('',#771,(#775,#782),.PCURVE_S1.);
#771 = LINE('',#772,#773);
#772 = CARTESIAN_POINT('',(-0.8,-1.1,9.999999939225E-08));
#773 = VECTOR('',#774,1.);
#774 = DIRECTION('',(-1.,0.,-0.));
#775 = PCURVE('',#66,#776);
#776 = DEFINITIONAL_REPRESENTATION('',(#777),#781);
#777 = LINE('',#778,#779);
#778 = CARTESIAN_POINT('',(-0.8,1.1));
#779 = VECTOR('',#780,1.);
#780 = DIRECTION('',(-1.,0.));
#781 = ( GEOMETRIC_REPRESENTATION_CONTEXT(2) 
PARAMETRIC_REPRESENTATION_CONTEXT() REPRESENTATION_CONTEXT('2D SPACE',''
  ) );
#782 = PCURVE('',#783,#788);
#783 = PLANE('',#784);
#784 = AXIS2_PLACEMENT_3D('',#785,#786,#787);
#785 = CARTESIAN_POINT('',(-1.6,-1.1,0.9000001));
#786 = DIRECTION('',(0.,-1.,1.224646799147E-16));
#787 = DIRECTION('',(0.,-1.224646799147E-16,-1.));
#788 = DEFINITIONAL_REPRESENTATION('',(#789),#793);
#789 = LINE('',#790,#791);
#790 = CARTESIAN_POINT('',(0.9,0.8));
#791 = VECTOR('',#792,1.);
#792 = DIRECTION('',(-0.,-1.));
#793 = ( GEOMETRIC_REPRESENTATION_CONTEXT(2) 
PARAMETRIC_REPRESENTATION_CONTEXT() REPRESENTATION_CONTEXT('2D SPACE',''
  ) );
#794 = ORIENTED_EDGE('',*,*,#795,.F.);
#795 = EDGE_CURVE('',#710,#768,#796,.T.);
#796 = SURFACE_CURVE('',#797,(#801,#808),.PCURVE_S1.);
#797 = LINE('',#798,#799);
#798 = CARTESIAN_POINT('',(1.6,0.55,9.999999939225E-08));
#799 = VECTOR('',#800,1.);
#800 = DIRECTION('',(0.,-1.,1.224646799147E-16));
#801 = PCURVE('',#66,#802);
#802 = DEFINITIONAL_REPRESENTATION('',(#803),#807);
#803 = LINE('',#804,#805);
#804 = CARTESIAN_POINT('',(1.6,-0.55));
#805 = VECTOR('',#806,1.);
#806 = DIRECTION('',(0.,1.));
#807 = ( GEOMETRIC_REPRESENTATION_CONTEXT(2) 
PARAMETRIC_REPRESENTATION_CONTEXT() REPRESENTATION_CONTEXT('2D SPACE',''
  ) );
#808 = PCURVE('',#809,#814);
#809 = PLANE('',#810);
#810 = AXIS2_PLACEMENT_3D('',#811,#812,#813);
#811 = CARTESIAN_POINT('',(1.6,1.1,0.9000001));
#812 = DIRECTION('',(1.,0.,0.));
#813 = DIRECTION('',(0.,-1.224646799147E-16,-1.));
#814 = DEFINITIONAL_REPRESENTATION('',(#815),#819);
#815 = LINE('',#816,#817);
#816 = CARTESIAN_POINT('',(0.9,-0.55));
#817 = VECTOR('',#818,1.);
#818 = DIRECTION('',(0.,-1.));
#819 = ( GEOMETRIC_REPRESENTATION_CONTEXT(2) 
PARAMETRIC_REPRESENTATION_CONTEXT() REPRESENTATION_CONTEXT('2D SPACE',''
  ) );
#820 = ADVANCED_FACE('',(#821),#592,.F.);
#821 = FACE_BOUND('',#822,.F.);
#822 = EDGE_LOOP('',(#823,#846,#1124,#1125));
#823 = ORIENTED_EDGE('',*,*,#824,.T.);
#824 = EDGE_CURVE('',#379,#825,#827,.T.);
#825 = VERTEX_POINT('',#826);
#826 = CARTESIAN_POINT('',(3.795,-3.443701606678E-15,3.000151221107));
#827 = SEAM_CURVE('',#828,(#832,#839),.PCURVE_S1.);
#828 = LINE('',#829,#830);
#829 = CARTESIAN_POINT('',(3.795,-2.623206758248E-15,9.7000001));
#830 = VECTOR('',#831,1.);
#831 = DIRECTION('',(0.,-1.224646799147E-16,-1.));
#832 = PCURVE('',#592,#833);
#833 = DEFINITIONAL_REPRESENTATION('',(#834),#838);
#834 = LINE('',#835,#836);
#835 = CARTESIAN_POINT('',(6.28318530718,-0.));
#836 = VECTOR('',#837,1.);
#837 = DIRECTION('',(0.,1.));
#838 = ( GEOMETRIC_REPRESENTATION_CONTEXT(2) 
PARAMETRIC_REPRESENTATION_CONTEXT() REPRESENTATION_CONTEXT('2D SPACE',''
  ) );
#839 = PCURVE('',#592,#840);
#840 = DEFINITIONAL_REPRESENTATION('',(#841),#845);
#841 = LINE('',#842,#843);
#842 = CARTESIAN_POINT('',(0.,-0.));
#843 = VECTOR('',#844,1.);
#844 = DIRECTION('',(0.,1.));
#845 = ( GEOMETRIC_REPRESENTATION_CONTEXT(2) 
PARAMETRIC_REPRESENTATION_CONTEXT() REPRESENTATION_CONTEXT('2D SPACE',''
  ) );
#846 = ORIENTED_EDGE('',*,*,#847,.F.);
#847 = EDGE_CURVE('',#825,#825,#848,.T.);
#848 = SURFACE_CURVE('',#849,(#937,#1028),.PCURVE_S1.);
#849 = B_SPLINE_CURVE_WITH_KNOTS('',6,(#850,#851,#852,#853,#854,#855,
    #856,#857,#858,#859,#860,#861,#862,#863,#864,#865,#866,#867,#868,
    #869,#870,#871,#872,#873,#874,#875,#876,#877,#878,#879,#880,#881,
    #882,#883,#884,#885,#886,#887,#888,#889,#890,#891,#892,#893,#894,
    #895,#896,#897,#898,#899,#900,#901,#902,#903,#904,#905,#906,#907,
    #908,#909,#910,#911,#912,#913,#914,#915,#916,#917,#918,#919,#920,
    #921,#922,#923,#924,#925,#926,#927,#928,#929,#930,#931,#932,#933,
    #934,#935,#936),.UNSPECIFIED.,.T.,.F.,(7,5,5,5,5,5,5,5,5,5,5,5,5,5,5
    ,5,5,7),(0.,8.106295965768E-02,0.142242759864,0.190650367959,
    0.24983412852,0.309022554419,0.356945275222,0.418736705951,
    0.456582247963,0.499717581599,0.580881614875,0.642137697316,
    0.690605662579,0.749863216569,0.809125441714,0.857107915087,
    0.918976390625,1.),.UNSPECIFIED.);
#850 = CARTESIAN_POINT('',(3.795,-3.485030107531E-15,3.000151221107));
#851 = CARTESIAN_POINT('',(3.795,-0.286011388048,3.000151221107));
#852 = CARTESIAN_POINT('',(3.769133971957,-0.571555925081,2.985499956115
    ));
#853 = CARTESIAN_POINT('',(3.717557681877,-0.854661663415,2.956285356864
    ));
#854 = CARTESIAN_POINT('',(3.640304272881,-1.133299773121,2.913516288703
    ));
#855 = CARTESIAN_POINT('',(3.537348605376,-1.405216216156,2.859116436403
    ));
#856 = CARTESIAN_POINT('',(3.311938708756,-1.865946228477,2.747823983729
    ));
#857 = CARTESIAN_POINT('',(3.200382165718,-2.058945971168,2.694776454938
    ));
#858 = CARTESIAN_POINT('',(3.073998810007,-2.246175067493,2.637525793388
    ));
#859 = CARTESIAN_POINT('',(2.932373969553,-2.426811057195,2.577180571928
    ));
#860 = CARTESIAN_POINT('',(2.774979401071,-2.599700159389,2.51504650463)
  );
#861 = CARTESIAN_POINT('',(2.463795354432,-2.892641789134,2.403354202375
    ));
#862 = CARTESIAN_POINT('',(2.315967640274,-3.016326326358,2.353826463272
    ));
#863 = CARTESIAN_POINT('',(2.157482891317,-3.133449562099,2.304896234878
    ));
#864 = CARTESIAN_POINT('',(1.988073448903,-3.242967361024,2.257469907536
    ));
#865 = CARTESIAN_POINT('',(1.807543757915,-3.343606152177,2.21259522003)
  );
#866 = CARTESIAN_POINT('',(1.381443668269,-3.544113634586,2.121142521863
    ));
#867 = CARTESIAN_POINT('',(1.128029365026,-3.639911598182,2.075912886903
    ));
#868 = CARTESIAN_POINT('',(0.858942027948,-3.715883260097,2.03899318834)
  );
#869 = CARTESIAN_POINT('',(0.578226367212,-3.768339844218,2.013139779277
    ));
#870 = CARTESIAN_POINT('',(0.290365333361,-3.795,2.0000001));
#871 = CARTESIAN_POINT('',(-0.290388222286,-3.795,2.0000001));
#872 = CARTESIAN_POINT('',(-0.578241153131,-3.768335640195,
    2.013141853128));
#873 = CARTESIAN_POINT('',(-0.858932967799,-3.715881381332,2.03899410815
    ));
#874 = CARTESIAN_POINT('',(-1.127998101576,-3.639919518371,
    2.075908828377));
#875 = CARTESIAN_POINT('',(-1.381409879994,-3.544129534142,
    2.121135269978));
#876 = CARTESIAN_POINT('',(-1.805635829233,-3.344503955267,
    2.212185726509));
#877 = CARTESIAN_POINT('',(-1.984479552037,-3.244969221148,2.25657719091
    ));
#878 = CARTESIAN_POINT('',(-2.15242249648,-3.136716169607,2.303481263952
    ));
#879 = CARTESIAN_POINT('',(-2.309652483439,-3.020983846048,
    2.351879693442));
#880 = CARTESIAN_POINT('',(-2.456427255492,-2.898790847634,
    2.400889835798));
#881 = CARTESIAN_POINT('',(-2.769152957719,-2.606147169043,
    2.512734902597));
#882 = CARTESIAN_POINT('',(-2.928599361665,-2.4317418116,2.575551213625)
  );
#883 = CARTESIAN_POINT('',(-3.07194392851,-2.249409973692,2.636569860852
    ));
#884 = CARTESIAN_POINT('',(-3.199733761727,-2.060344558106,2.69444300989
    ));
#885 = CARTESIAN_POINT('',(-3.312398107598,-1.865392328572,
    2.748028508637));
#886 = CARTESIAN_POINT('',(-3.470042046523,-1.542548558754,
    2.825898814256));
#887 = CARTESIAN_POINT('',(-3.524314106189,-1.417982857275,
    2.853482509721));
#888 = CARTESIAN_POINT('',(-3.572996041865,-1.291709121301,
    2.878822890875));
#889 = CARTESIAN_POINT('',(-3.616100203785,-1.163940846471,
    2.901699883545));
#890 = CARTESIAN_POINT('',(-3.653632145872,-1.0348748588,2.921925388575)
  );
#891 = CARTESIAN_POINT('',(-3.722010156287,-0.756312367427,
    2.959201836591));
#892 = CARTESIAN_POINT('',(-3.751186472494,-0.606489636339,
    2.975413010902));
#893 = CARTESIAN_POINT('',(-3.77308678189,-0.455592765293,2.987738556226
    ));
#894 = CARTESIAN_POINT('',(-3.78769410759,-0.303980851942,2.996013130006
    ));
#895 = CARTESIAN_POINT('',(-3.795,-0.152003247613,3.000151221107));
#896 = CARTESIAN_POINT('',(-3.795,0.286011388048,3.000151221107));
#897 = CARTESIAN_POINT('',(-3.769133971957,0.57155592508,2.985499956115)
  );
#898 = CARTESIAN_POINT('',(-3.717557681877,0.854661663415,2.956285356864
    ));
#899 = CARTESIAN_POINT('',(-3.640304272881,1.133299773121,2.913516288703
    ));
#900 = CARTESIAN_POINT('',(-3.537348605376,1.405216216156,2.859116436403
    ));
#901 = CARTESIAN_POINT('',(-3.311938708756,1.865946228477,2.747823983729
    ));
#902 = CARTESIAN_POINT('',(-3.200382165718,2.058945971168,2.694776454938
    ));
#903 = CARTESIAN_POINT('',(-3.073998810007,2.246175067493,2.637525793388
    ));
#904 = CARTESIAN_POINT('',(-2.932373969553,2.426811057195,2.577180571928
    ));
#905 = CARTESIAN_POINT('',(-2.774979401071,2.599700159389,2.51504650463)
  );
#906 = CARTESIAN_POINT('',(-2.463795354481,2.892641789088,2.403354202392
    ));
#907 = CARTESIAN_POINT('',(-2.315967640267,3.016326326376,2.353826463267
    ));
#908 = CARTESIAN_POINT('',(-2.157482891266,3.133449562134,2.304896234862
    ));
#909 = CARTESIAN_POINT('',(-1.988073448886,3.242967361023,2.257469907535
    ));
#910 = CARTESIAN_POINT('',(-1.807543757969,3.343606152152,2.212595220042
    ));
#911 = CARTESIAN_POINT('',(-1.381443668271,3.544113634585,2.121142521864
    ));
#912 = CARTESIAN_POINT('',(-1.128029365026,3.639911598182,2.075912886902
    ));
#913 = CARTESIAN_POINT('',(-0.858942027946,3.715883260098,2.038993188339
    ));
#914 = CARTESIAN_POINT('',(-0.578226367211,3.768339844218,2.013139779278
    ));
#915 = CARTESIAN_POINT('',(-0.290365333363,3.795,2.0000001));
#916 = CARTESIAN_POINT('',(0.290388222286,3.795,2.0000001));
#917 = CARTESIAN_POINT('',(0.578241153132,3.768335640195,2.013141853128)
  );
#918 = CARTESIAN_POINT('',(0.858932967798,3.715881381332,2.03899410815)
  );
#919 = CARTESIAN_POINT('',(1.127998101577,3.639919518371,2.075908828377)
  );
#920 = CARTESIAN_POINT('',(1.381409879993,3.544129534142,2.121135269978)
  );
#921 = CARTESIAN_POINT('',(1.805635829232,3.344503955267,2.212185726509)
  );
#922 = CARTESIAN_POINT('',(1.984479552038,3.244969221148,2.25657719091)
  );
#923 = CARTESIAN_POINT('',(2.15242249648,3.136716169608,2.303481263952)
  );
#924 = CARTESIAN_POINT('',(2.309652483439,3.020983846047,2.351879693442)
  );
#925 = CARTESIAN_POINT('',(2.456427255491,2.898790847634,2.400889835798)
  );
#926 = CARTESIAN_POINT('',(2.769152957719,2.606147169043,2.512734902597)
  );
#927 = CARTESIAN_POINT('',(2.928599361665,2.4317418116,2.575551213625));
#928 = CARTESIAN_POINT('',(3.07194392851,2.249409973692,2.636569860852)
  );
#929 = CARTESIAN_POINT('',(3.199733761727,2.060344558106,2.69444300989)
  );
#930 = CARTESIAN_POINT('',(3.312398107598,1.865392328572,2.748028508637)
  );
#931 = CARTESIAN_POINT('',(3.538198016741,1.402969894896,2.859565355873)
  );
#932 = CARTESIAN_POINT('',(3.640814101587,1.131459245069,2.913798523637)
  );
#933 = CARTESIAN_POINT('',(3.717813281211,0.85325858027,2.956430138575)
  );
#934 = CARTESIAN_POINT('',(3.769219668768,0.570611231919,2.985548496706)
  );
#935 = CARTESIAN_POINT('',(3.795,0.285537186843,3.000151221107));
#936 = CARTESIAN_POINT('',(3.795,-3.485030107531E-15,3.000151221107));
#937 = PCURVE('',#592,#938);
#938 = DEFINITIONAL_REPRESENTATION('',(#939),#1027);
#939 = B_SPLINE_CURVE_WITH_KNOTS('',6,(#940,#941,#942,#943,#944,#945,
    #946,#947,#948,#949,#950,#951,#952,#953,#954,#955,#956,#957,#958,
    #959,#960,#961,#962,#963,#964,#965,#966,#967,#968,#969,#970,#971,
    #972,#973,#974,#975,#976,#977,#978,#979,#980,#981,#982,#983,#984,
    #985,#986,#987,#988,#989,#990,#991,#992,#993,#994,#995,#996,#997,
    #998,#999,#1000,#1001,#1002,#1003,#1004,#1005,#1006,#1007,#1008,
    #1009,#1010,#1011,#1012,#1013,#1014,#1015,#1016,#1017,#1018,#1019,
    #1020,#1021,#1022,#1023,#1024,#1025,#1026),.UNSPECIFIED.,.F.,.F.,(7,
    5,5,5,5,5,5,5,5,5,5,5,5,5,5,5,5,7),(0.,8.106295965768E-02,
    0.142242759864,0.190650367959,0.24983412852,0.309022554419,
    0.356945275222,0.418736705951,0.456582247963,0.499717581599,
    0.580881614875,0.642137697316,0.690605662579,0.749863216569,
    0.809125441714,0.857107915087,0.918976390625,1.),.UNSPECIFIED.);
#940 = CARTESIAN_POINT('',(0.,6.699848878893));
#941 = CARTESIAN_POINT('',(7.536531964381E-02,6.699848878893));
#942 = CARTESIAN_POINT('',(0.150607575892,6.714500143885));
#943 = CARTESIAN_POINT('',(0.225977966641,6.743714743136));
#944 = CARTESIAN_POINT('',(0.301699010469,6.786483811297));
#945 = CARTESIAN_POINT('',(0.377982756331,6.840883663597));
#946 = CARTESIAN_POINT('',(0.513138215966,6.952176116271));
#947 = CARTESIAN_POINT('',(0.571738464248,7.005223645062));
#948 = CARTESIAN_POINT('',(0.63104453318,7.062474306612));
#949 = CARTESIAN_POINT('',(0.691289409457,7.122819528072));
#950 = CARTESIAN_POINT('',(0.752715042237,7.18495359537));
#951 = CARTESIAN_POINT('',(0.865330608722,7.296645897625));
#952 = CARTESIAN_POINT('',(0.9160331216,7.346173636728));
#953 = CARTESIAN_POINT('',(0.967816723464,7.395103865122));
#954 = CARTESIAN_POINT('',(1.020808832481,7.442530192464));
#955 = CARTESIAN_POINT('',(1.075142991147,7.48740487997));
#956 = CARTESIAN_POINT('',(1.199232272302,7.578857578137));
#957 = CARTESIAN_POINT('',(1.270400831384,7.624087213097));
#958 = CARTESIAN_POINT('',(1.3436545935,7.66100691166));
#959 = CARTESIAN_POINT('',(1.418431075858,7.686860320723));
#960 = CARTESIAN_POINT('',(1.494283722484,7.7));
#961 = CARTESIAN_POINT('',(1.647314962443,7.7));
#962 = CARTESIAN_POINT('',(1.72316547235,7.686858246872));
#963 = CARTESIAN_POINT('',(1.797935866625,7.66100599185));
#964 = CARTESIAN_POINT('',(1.871183475909,7.624091271623));
#965 = CARTESIAN_POINT('',(1.942350541433,7.578864830022));
#966 = CARTESIAN_POINT('',(2.065894033602,7.487814373491));
#967 = CARTESIAN_POINT('',(2.119702342998,7.44342290909));
#968 = CARTESIAN_POINT('',(2.172193648726,7.396518836048));
#969 = CARTESIAN_POINT('',(2.223497532626,7.348120406558));
#970 = CARTESIAN_POINT('',(2.273737517843,7.299110264202));
#971 = CARTESIAN_POINT('',(2.386595557714,7.187265197403));
#972 = CARTESIAN_POINT('',(2.448674612466,7.124448886375));
#973 = CARTESIAN_POINT('',(2.509543280586,7.063430239148));
#974 = CARTESIAN_POINT('',(2.569451212119,7.00555709011));
#975 = CARTESIAN_POINT('',(2.628638725234,6.951971591363));
#976 = CARTESIAN_POINT('',(2.723309779236,6.874101285744));
#977 = CARTESIAN_POINT('',(2.759079879857,6.846517590279));
#978 = CARTESIAN_POINT('',(2.794691783043,6.821177209125));
#979 = CARTESIAN_POINT('',(2.830175651098,6.798300216455));
#980 = CARTESIAN_POINT('',(2.865562264568,6.778074711425));
#981 = CARTESIAN_POINT('',(2.941143827369,6.740798263409));
#982 = CARTESIAN_POINT('',(2.981317361995,6.724587089098));
#983 = CARTESIAN_POINT('',(3.021426216626,6.712261543774));
#984 = CARTESIAN_POINT('',(3.061492286594,6.703986969994));
#985 = CARTESIAN_POINT('',(3.101539096906,6.699848878893));
#986 = CARTESIAN_POINT('',(3.216957973234,6.699848878893));
#987 = CARTESIAN_POINT('',(3.292200229481,6.714500143885));
#988 = CARTESIAN_POINT('',(3.367570620231,6.743714743136));
#989 = CARTESIAN_POINT('',(3.443291664058,6.786483811297));
#990 = CARTESIAN_POINT('',(3.51957540992,6.840883663597));
#991 = CARTESIAN_POINT('',(3.654730869555,6.952176116271));
#992 = CARTESIAN_POINT('',(3.713331117838,7.005223645062));
#993 = CARTESIAN_POINT('',(3.77263718677,7.062474306612));
#994 = CARTESIAN_POINT('',(3.832882063047,7.122819528072));
#995 = CARTESIAN_POINT('',(3.894307695827,7.18495359537));
#996 = CARTESIAN_POINT('',(4.006923262294,7.296645897608));
#997 = CARTESIAN_POINT('',(4.057625775194,7.346173636733));
#998 = CARTESIAN_POINT('',(4.10940937707,7.395103865138));
#999 = CARTESIAN_POINT('',(4.162401486075,7.442530192465));
#1000 = CARTESIAN_POINT('',(4.216735644721,7.487404879958));
#1001 = CARTESIAN_POINT('',(4.340824925892,7.578857578136));
#1002 = CARTESIAN_POINT('',(4.411993484974,7.624087213098));
#1003 = CARTESIAN_POINT('',(4.48524724709,7.661006911661));
#1004 = CARTESIAN_POINT('',(4.560023729448,7.686860320722));
#1005 = CARTESIAN_POINT('',(4.635876376073,7.7));
#1006 = CARTESIAN_POINT('',(4.788907616033,7.7));
#1007 = CARTESIAN_POINT('',(4.86475812594,7.686858246872));
#1008 = CARTESIAN_POINT('',(4.939528520215,7.66100599185));
#1009 = CARTESIAN_POINT('',(5.012776129499,7.624091271623));
#1010 = CARTESIAN_POINT('',(5.083943195023,7.578864830022));
#1011 = CARTESIAN_POINT('',(5.207486687192,7.487814373491));
#1012 = CARTESIAN_POINT('',(5.261294996588,7.44342290909));
#1013 = CARTESIAN_POINT('',(5.313786302315,7.396518836048));
#1014 = CARTESIAN_POINT('',(5.365090186216,7.348120406558));
#1015 = CARTESIAN_POINT('',(5.415330171433,7.299110264202));
#1016 = CARTESIAN_POINT('',(5.528188211304,7.187265197403));
#1017 = CARTESIAN_POINT('',(5.590267266056,7.124448886375));
#1018 = CARTESIAN_POINT('',(5.651135934175,7.063430239148));
#1019 = CARTESIAN_POINT('',(5.711043865709,7.00555709011));
#1020 = CARTESIAN_POINT('',(5.770231378824,6.951971591363));
#1021 = CARTESIAN_POINT('',(5.905832630212,6.840434744127));
#1022 = CARTESIAN_POINT('',(5.981986448583,6.786201576363));
#1023 = CARTESIAN_POINT('',(6.057580886021,6.743569961425));
#1024 = CARTESIAN_POINT('',(6.132826662089,6.714451603294));
#1025 = CARTESIAN_POINT('',(6.20794494174,6.699848878893));
#1026 = CARTESIAN_POINT('',(6.28318530718,6.699848878893));
#1027 = ( GEOMETRIC_REPRESENTATION_CONTEXT(2) 
PARAMETRIC_REPRESENTATION_CONTEXT() REPRESENTATION_CONTEXT('2D SPACE',''
  ) );
#1028 = PCURVE('',#1029,#1034);
#1029 = CYLINDRICAL_SURFACE('',#1030,7.7);
#1030 = AXIS2_PLACEMENT_3D('',#1031,#1032,#1033);
#1031 = CARTESIAN_POINT('',(0.,-5.795,9.7000001));
#1032 = DIRECTION('',(0.,1.,-3.445092848398E-16));
#1033 = DIRECTION('',(1.,0.,0.));
#1034 = DEFINITIONAL_REPRESENTATION('',(#1035),#1123);
#1035 = B_SPLINE_CURVE_WITH_KNOTS('',6,(#1036,#1037,#1038,#1039,#1040,
    #1041,#1042,#1043,#1044,#1045,#1046,#1047,#1048,#1049,#1050,#1051,
    #1052,#1053,#1054,#1055,#1056,#1057,#1058,#1059,#1060,#1061,#1062,
    #1063,#1064,#1065,#1066,#1067,#1068,#1069,#1070,#1071,#1072,#1073,
    #1074,#1075,#1076,#1077,#1078,#1079,#1080,#1081,#1082,#1083,#1084,
    #1085,#1086,#1087,#1088,#1089,#1090,#1091,#1092,#1093,#1094,#1095,
    #1096,#1097,#1098,#1099,#1100,#1101,#1102,#1103,#1104,#1105,#1106,
    #1107,#1108,#1109,#1110,#1111,#1112,#1113,#1114,#1115,#1116,#1117,
    #1118,#1119,#1120,#1121,#1122),.UNSPECIFIED.,.T.,.F.,(7,5,5,5,5,5,5,
    5,5,5,5,5,5,5,5,5,5,7),(0.,8.106295965768E-02,0.142242759864,
    0.190650367959,0.24983412852,0.309022554419,0.356945275222,
    0.418736705951,0.456582247963,0.499717581599,0.580881614875,
    0.642137697316,0.690605662579,0.749863216569,0.809125441714,
    0.857107915087,0.918976390625,1.),.UNSPECIFIED.);
#1036 = CARTESIAN_POINT('',(1.055425959904,5.795));
#1037 = CARTESIAN_POINT('',(1.055425959904,5.508988611952));
#1038 = CARTESIAN_POINT('',(1.059286615473,5.223444074919));
#1039 = CARTESIAN_POINT('',(1.066984895948,4.940338336585));
#1040 = CARTESIAN_POINT('',(1.078451825753,4.661700226879));
#1041 = CARTESIAN_POINT('',(1.093568686184,4.389783783844));
#1042 = CARTESIAN_POINT('',(1.126216402184,3.929053771523));
#1043 = CARTESIAN_POINT('',(1.142257029666,3.736054028832));
#1044 = CARTESIAN_POINT('',(1.160271203744,3.548824932507));
#1045 = CARTESIAN_POINT('',(1.180254779045,3.368188942805));
#1046 = CARTESIAN_POINT('',(1.202220017963,3.195299840611));
#1047 = CARTESIAN_POINT('',(1.245157895729,2.902358210866));
#1048 = CARTESIAN_POINT('',(1.265400552745,2.778673673642));
#1049 = CARTESIAN_POINT('',(1.2869319492,2.661550437901));
#1050 = CARTESIAN_POINT('',(1.309765537456,2.552032638976));
#1051 = CARTESIAN_POINT('',(1.333911884601,2.451393847823));
#1052 = CARTESIAN_POINT('',(1.39050977032,2.250886365414));
#1053 = CARTESIAN_POINT('',(1.423920624427,2.155088401818));
#1054 = CARTESIAN_POINT('',(1.459149134591,2.079116739903));
#1055 = CARTESIAN_POINT('',(1.495701932504,2.026660155782));
#1056 = CARTESIAN_POINT('',(1.533086543241,2.));
#1057 = CARTESIAN_POINT('',(1.608509082936,2.));
#1058 = CARTESIAN_POINT('',(1.645892642468,2.026664359805));
#1059 = CARTESIAN_POINT('',(1.682442363681,2.079118618668));
#1060 = CARTESIAN_POINT('',(1.717667952405,2.155080481629));
#1061 = CARTESIAN_POINT('',(1.751078395252,2.250870465858));
#1062 = CARTESIAN_POINT('',(1.807427343251,2.450496044733));
#1063 = CARTESIAN_POINT('',(1.831346439587,2.550030778852));
#1064 = CARTESIAN_POINT('',(1.853978702111,2.658283830393));
#1065 = CARTESIAN_POINT('',(1.875334247734,2.774016153952));
#1066 = CARTESIAN_POINT('',(1.895425986359,2.896209152366));
#1067 = CARTESIAN_POINT('',(1.938559038366,3.188852830957));
#1068 = CARTESIAN_POINT('',(1.960804232326,3.3632581884));
#1069 = CARTESIAN_POINT('',(1.981027216404,3.545590026308));
#1070 = CARTESIAN_POINT('',(1.999240995312,3.734655441894));
#1071 = CARTESIAN_POINT('',(2.015441507263,3.929607671428));
#1072 = CARTESIAN_POINT('',(2.038276279365,4.252451441246));
#1073 = CARTESIAN_POINT('',(2.046182198408,4.377017142725));
#1074 = CARTESIAN_POINT('',(2.053309345422,4.503290878699));
#1075 = CARTESIAN_POINT('',(2.059646657098,4.631059153529));
#1076 = CARTESIAN_POINT('',(2.065183563727,4.7601251412));
#1077 = CARTESIAN_POINT('',(2.075297675583,5.038687632573));
#1078 = CARTESIAN_POINT('',(2.079632289484,5.188510363661));
#1079 = CARTESIAN_POINT('',(2.08289594988,5.339407234707));
#1080 = CARTESIAN_POINT('',(2.08507625947,5.491019148058));
#1081 = CARTESIAN_POINT('',(2.086166693685,5.642996752387));
#1082 = CARTESIAN_POINT('',(2.086166693685,6.081011388048));
#1083 = CARTESIAN_POINT('',(2.082306038117,6.36655592508));
#1084 = CARTESIAN_POINT('',(2.074607757642,6.649661663415));
#1085 = CARTESIAN_POINT('',(2.063140827837,6.928299773121));
#1086 = CARTESIAN_POINT('',(2.048023967406,7.200216216156));
#1087 = CARTESIAN_POINT('',(2.015376251406,7.660946228477));
#1088 = CARTESIAN_POINT('',(1.999335623924,7.853945971168));
#1089 = CARTESIAN_POINT('',(1.981321449846,8.041175067493));
#1090 = CARTESIAN_POINT('',(1.961337874544,8.221811057195));
#1091 = CARTESIAN_POINT('',(1.939372635627,8.394700159389));
#1092 = CARTESIAN_POINT('',(1.896434757868,8.687641789088));
#1093 = CARTESIAN_POINT('',(1.876192100844,8.811326326376));
#1094 = CARTESIAN_POINT('',(1.854660704383,8.928449562134));
#1095 = CARTESIAN_POINT('',(1.831827116131,9.037967361023));
#1096 = CARTESIAN_POINT('',(1.807680768996,9.138606152152));
#1097 = CARTESIAN_POINT('',(1.75108288327,9.339113634585));
#1098 = CARTESIAN_POINT('',(1.717672029163,9.434911598182));
#1099 = CARTESIAN_POINT('',(1.682443518999,9.510883260098));
#1100 = CARTESIAN_POINT('',(1.645890721085,9.563339844218));
#1101 = CARTESIAN_POINT('',(1.608506110349,9.59));
#1102 = CARTESIAN_POINT('',(1.533083570654,9.59));
#1103 = CARTESIAN_POINT('',(1.495700011121,9.563335640195));
#1104 = CARTESIAN_POINT('',(1.459150289909,9.510881381332));
#1105 = CARTESIAN_POINT('',(1.423924701185,9.434919518371));
#1106 = CARTESIAN_POINT('',(1.390514258338,9.339129534142));
#1107 = CARTESIAN_POINT('',(1.334165310339,9.139503955267));
#1108 = CARTESIAN_POINT('',(1.310246214003,9.039969221148));
#1109 = CARTESIAN_POINT('',(1.287613951479,8.931716169608));
#1110 = CARTESIAN_POINT('',(1.266258405856,8.815983846047));
#1111 = CARTESIAN_POINT('',(1.24616666723,8.693790847634));
#1112 = CARTESIAN_POINT('',(1.203033615224,8.401147169043));
#1113 = CARTESIAN_POINT('',(1.180788421264,8.2267418116));
#1114 = CARTESIAN_POINT('',(1.160565437185,8.044409973692));
#1115 = CARTESIAN_POINT('',(1.142351658278,7.855344558106));
#1116 = CARTESIAN_POINT('',(1.126151146326,7.660392328572));
#1117 = CARTESIAN_POINT('',(1.093443961381,7.197969894896));
#1118 = CARTESIAN_POINT('',(1.07837615204,6.926459245069));
#1119 = CARTESIAN_POINT('',(1.066946744497,6.64825858027));
#1120 = CARTESIAN_POINT('',(1.059273825012,6.365611231919));
#1121 = CARTESIAN_POINT('',(1.055425959904,6.080537186843));
#1122 = CARTESIAN_POINT('',(1.055425959904,5.795));
#1123 = ( GEOMETRIC_REPRESENTATION_CONTEXT(2) 
PARAMETRIC_REPRESENTATION_CONTEXT() REPRESENTATION_CONTEXT('2D SPACE',''
  ) );
#1124 = ORIENTED_EDGE('',*,*,#824,.F.);
#1125 = ORIENTED_EDGE('',*,*,#378,.T.);
#1126 = ADVANCED_FACE('',(#1127),#727,.T.);
#1127 = FACE_BOUND('',#1128,.T.);
#1128 = EDGE_LOOP('',(#1129,#1152,#1180,#1201));
#1129 = ORIENTED_EDGE('',*,*,#1130,.F.);
#1130 = EDGE_CURVE('',#1131,#710,#1133,.T.);
#1131 = VERTEX_POINT('',#1132);
#1132 = CARTESIAN_POINT('',(1.6,1.1,0.9000001));
#1133 = SURFACE_CURVE('',#1134,(#1138,#1145),.PCURVE_S1.);
#1134 = LINE('',#1135,#1136);
#1135 = CARTESIAN_POINT('',(1.6,1.1,0.9000001));
#1136 = VECTOR('',#1137,1.);
#1137 = DIRECTION('',(0.,-1.224646799147E-16,-1.));
#1138 = PCURVE('',#727,#1139);
#1139 = DEFINITIONAL_REPRESENTATION('',(#1140),#1144);
#1140 = LINE('',#1141,#1142);
#1141 = CARTESIAN_POINT('',(0.,3.2));
#1142 = VECTOR('',#1143,1.);
#1143 = DIRECTION('',(1.,0.));
#1144 = ( GEOMETRIC_REPRESENTATION_CONTEXT(2) 
PARAMETRIC_REPRESENTATION_CONTEXT() REPRESENTATION_CONTEXT('2D SPACE',''
  ) );
#1145 = PCURVE('',#809,#1146);
#1146 = DEFINITIONAL_REPRESENTATION('',(#1147),#1151);
#1147 = LINE('',#1148,#1149);
#1148 = CARTESIAN_POINT('',(0.,0.));
#1149 = VECTOR('',#1150,1.);
#1150 = DIRECTION('',(1.,0.));
#1151 = ( GEOMETRIC_REPRESENTATION_CONTEXT(2) 
PARAMETRIC_REPRESENTATION_CONTEXT() REPRESENTATION_CONTEXT('2D SPACE',''
  ) );
#1152 = ORIENTED_EDGE('',*,*,#1153,.F.);
#1153 = EDGE_CURVE('',#1154,#1131,#1156,.T.);
#1154 = VERTEX_POINT('',#1155);
#1155 = CARTESIAN_POINT('',(-1.6,1.1,0.9000001));
#1156 = SURFACE_CURVE('',#1157,(#1161,#1168),.PCURVE_S1.);
#1157 = LINE('',#1158,#1159);
#1158 = CARTESIAN_POINT('',(-1.6,1.1,0.9000001));
#1159 = VECTOR('',#1160,1.);
#1160 = DIRECTION('',(1.,0.,0.));
#1161 = PCURVE('',#727,#1162);
#1162 = DEFINITIONAL_REPRESENTATION('',(#1163),#1167);
#1163 = LINE('',#1164,#1165);
#1164 = CARTESIAN_POINT('',(0.,0.));
#1165 = VECTOR('',#1166,1.);
#1166 = DIRECTION('',(0.,1.));
#1167 = ( GEOMETRIC_REPRESENTATION_CONTEXT(2) 
PARAMETRIC_REPRESENTATION_CONTEXT() REPRESENTATION_CONTEXT('2D SPACE',''
  ) );
#1168 = PCURVE('',#1169,#1174);
#1169 = PLANE('',#1170);
#1170 = AXIS2_PLACEMENT_3D('',#1171,#1172,#1173);
#1171 = CARTESIAN_POINT('',(-1.6,1.1,0.9000001));
#1172 = DIRECTION('',(0.,-1.224646799147E-16,-1.));
#1173 = DIRECTION('',(1.,0.,0.));
#1174 = DEFINITIONAL_REPRESENTATION('',(#1175),#1179);
#1175 = LINE('',#1176,#1177);
#1176 = CARTESIAN_POINT('',(0.,0.));
#1177 = VECTOR('',#1178,1.);
#1178 = DIRECTION('',(1.,0.));
#1179 = ( GEOMETRIC_REPRESENTATION_CONTEXT(2) 
PARAMETRIC_REPRESENTATION_CONTEXT() REPRESENTATION_CONTEXT('2D SPACE',''
  ) );
#1180 = ORIENTED_EDGE('',*,*,#1181,.T.);
#1181 = EDGE_CURVE('',#1154,#712,#1182,.T.);
#1182 = SURFACE_CURVE('',#1183,(#1187,#1194),.PCURVE_S1.);
#1183 = LINE('',#1184,#1185);
#1184 = CARTESIAN_POINT('',(-1.6,1.1,0.9000001));
#1185 = VECTOR('',#1186,1.);
#1186 = DIRECTION('',(0.,-1.224646799147E-16,-1.));
#1187 = PCURVE('',#727,#1188);
#1188 = DEFINITIONAL_REPRESENTATION('',(#1189),#1193);
#1189 = LINE('',#1190,#1191);
#1190 = CARTESIAN_POINT('',(0.,0.));
#1191 = VECTOR('',#1192,1.);
#1192 = DIRECTION('',(1.,0.));
#1193 = ( GEOMETRIC_REPRESENTATION_CONTEXT(2) 
PARAMETRIC_REPRESENTATION_CONTEXT() REPRESENTATION_CONTEXT('2D SPACE',''
  ) );
#1194 = PCURVE('',#755,#1195);
#1195 = DEFINITIONAL_REPRESENTATION('',(#1196),#1200);
#1196 = LINE('',#1197,#1198);
#1197 = CARTESIAN_POINT('',(0.,0.));
#1198 = VECTOR('',#1199,1.);
#1199 = DIRECTION('',(1.,0.));
#1200 = ( GEOMETRIC_REPRESENTATION_CONTEXT(2) 
PARAMETRIC_REPRESENTATION_CONTEXT() REPRESENTATION_CONTEXT('2D SPACE',''
  ) );
#1201 = ORIENTED_EDGE('',*,*,#709,.F.);
#1202 = ADVANCED_FACE('',(#1203),#809,.F.);
#1203 = FACE_BOUND('',#1204,.F.);
#1204 = EDGE_LOOP('',(#1205,#1206,#1229,#1250));
#1205 = ORIENTED_EDGE('',*,*,#1130,.F.);
#1206 = ORIENTED_EDGE('',*,*,#1207,.T.);
#1207 = EDGE_CURVE('',#1131,#1208,#1210,.T.);
#1208 = VERTEX_POINT('',#1209);
#1209 = CARTESIAN_POINT('',(1.6,-1.1,0.9000001));
#1210 = SURFACE_CURVE('',#1211,(#1215,#1222),.PCURVE_S1.);
#1211 = LINE('',#1212,#1213);
#1212 = CARTESIAN_POINT('',(1.6,1.1,0.9000001));
#1213 = VECTOR('',#1214,1.);
#1214 = DIRECTION('',(0.,-1.,1.224646799147E-16));
#1215 = PCURVE('',#809,#1216);
#1216 = DEFINITIONAL_REPRESENTATION('',(#1217),#1221);
#1217 = LINE('',#1218,#1219);
#1218 = CARTESIAN_POINT('',(0.,0.));
#1219 = VECTOR('',#1220,1.);
#1220 = DIRECTION('',(0.,-1.));
#1221 = ( GEOMETRIC_REPRESENTATION_CONTEXT(2) 
PARAMETRIC_REPRESENTATION_CONTEXT() REPRESENTATION_CONTEXT('2D SPACE',''
  ) );
#1222 = PCURVE('',#1169,#1223);
#1223 = DEFINITIONAL_REPRESENTATION('',(#1224),#1228);
#1224 = LINE('',#1225,#1226);
#1225 = CARTESIAN_POINT('',(3.2,0.));
#1226 = VECTOR('',#1227,1.);
#1227 = DIRECTION('',(0.,1.));
#1228 = ( GEOMETRIC_REPRESENTATION_CONTEXT(2) 
PARAMETRIC_REPRESENTATION_CONTEXT() REPRESENTATION_CONTEXT('2D SPACE',''
  ) );
#1229 = ORIENTED_EDGE('',*,*,#1230,.T.);
#1230 = EDGE_CURVE('',#1208,#768,#1231,.T.);
#1231 = SURFACE_CURVE('',#1232,(#1236,#1243),.PCURVE_S1.);
#1232 = LINE('',#1233,#1234);
#1233 = CARTESIAN_POINT('',(1.6,-1.1,0.9000001));
#1234 = VECTOR('',#1235,1.);
#1235 = DIRECTION('',(0.,-1.224646799147E-16,-1.));
#1236 = PCURVE('',#809,#1237);
#1237 = DEFINITIONAL_REPRESENTATION('',(#1238),#1242);
#1238 = LINE('',#1239,#1240);
#1239 = CARTESIAN_POINT('',(2.694222958124E-16,-2.2));
#1240 = VECTOR('',#1241,1.);
#1241 = DIRECTION('',(1.,0.));
#1242 = ( GEOMETRIC_REPRESENTATION_CONTEXT(2) 
PARAMETRIC_REPRESENTATION_CONTEXT() REPRESENTATION_CONTEXT('2D SPACE',''
  ) );
#1243 = PCURVE('',#783,#1244);
#1244 = DEFINITIONAL_REPRESENTATION('',(#1245),#1249);
#1245 = LINE('',#1246,#1247);
#1246 = CARTESIAN_POINT('',(0.,3.2));
#1247 = VECTOR('',#1248,1.);
#1248 = DIRECTION('',(1.,0.));
#1249 = ( GEOMETRIC_REPRESENTATION_CONTEXT(2) 
PARAMETRIC_REPRESENTATION_CONTEXT() REPRESENTATION_CONTEXT('2D SPACE',''
  ) );
#1250 = ORIENTED_EDGE('',*,*,#795,.F.);
#1251 = ADVANCED_FACE('',(#1252),#783,.F.);
#1252 = FACE_BOUND('',#1253,.F.);
#1253 = EDGE_LOOP('',(#1254,#1255,#1278,#1299));
#1254 = ORIENTED_EDGE('',*,*,#1230,.F.);
#1255 = ORIENTED_EDGE('',*,*,#1256,.F.);
#1256 = EDGE_CURVE('',#1257,#1208,#1259,.T.);
#1257 = VERTEX_POINT('',#1258);
#1258 = CARTESIAN_POINT('',(-1.6,-1.1,0.9000001));
#1259 = SURFACE_CURVE('',#1260,(#1264,#1271),.PCURVE_S1.);
#1260 = LINE('',#1261,#1262);
#1261 = CARTESIAN_POINT('',(-1.6,-1.1,0.9000001));
#1262 = VECTOR('',#1263,1.);
#1263 = DIRECTION('',(1.,0.,0.));
#1264 = PCURVE('',#783,#1265);
#1265 = DEFINITIONAL_REPRESENTATION('',(#1266),#1270);
#1266 = LINE('',#1267,#1268);
#1267 = CARTESIAN_POINT('',(0.,0.));
#1268 = VECTOR('',#1269,1.);
#1269 = DIRECTION('',(0.,1.));
#1270 = ( GEOMETRIC_REPRESENTATION_CONTEXT(2) 
PARAMETRIC_REPRESENTATION_CONTEXT() REPRESENTATION_CONTEXT('2D SPACE',''
  ) );
#1271 = PCURVE('',#1169,#1272);
#1272 = DEFINITIONAL_REPRESENTATION('',(#1273),#1277);
#1273 = LINE('',#1274,#1275);
#1274 = CARTESIAN_POINT('',(0.,2.2));
#1275 = VECTOR('',#1276,1.);
#1276 = DIRECTION('',(1.,0.));
#1277 = ( GEOMETRIC_REPRESENTATION_CONTEXT(2) 
PARAMETRIC_REPRESENTATION_CONTEXT() REPRESENTATION_CONTEXT('2D SPACE',''
  ) );
#1278 = ORIENTED_EDGE('',*,*,#1279,.T.);
#1279 = EDGE_CURVE('',#1257,#740,#1280,.T.);
#1280 = SURFACE_CURVE('',#1281,(#1285,#1292),.PCURVE_S1.);
#1281 = LINE('',#1282,#1283);
#1282 = CARTESIAN_POINT('',(-1.6,-1.1,0.9000001));
#1283 = VECTOR('',#1284,1.);
#1284 = DIRECTION('',(0.,-1.224646799147E-16,-1.));
#1285 = PCURVE('',#783,#1286);
#1286 = DEFINITIONAL_REPRESENTATION('',(#1287),#1291);
#1287 = LINE('',#1288,#1289);
#1288 = CARTESIAN_POINT('',(0.,0.));
#1289 = VECTOR('',#1290,1.);
#1290 = DIRECTION('',(1.,0.));
#1291 = ( GEOMETRIC_REPRESENTATION_CONTEXT(2) 
PARAMETRIC_REPRESENTATION_CONTEXT() REPRESENTATION_CONTEXT('2D SPACE',''
  ) );
#1292 = PCURVE('',#755,#1293);
#1293 = DEFINITIONAL_REPRESENTATION('',(#1294),#1298);
#1294 = LINE('',#1295,#1296);
#1295 = CARTESIAN_POINT('',(2.694222958124E-16,-2.2));
#1296 = VECTOR('',#1297,1.);
#1297 = DIRECTION('',(1.,0.));
#1298 = ( GEOMETRIC_REPRESENTATION_CONTEXT(2) 
PARAMETRIC_REPRESENTATION_CONTEXT() REPRESENTATION_CONTEXT('2D SPACE',''
  ) );
#1299 = ORIENTED_EDGE('',*,*,#767,.F.);
#1300 = ADVANCED_FACE('',(#1301),#755,.T.);
#1301 = FACE_BOUND('',#1302,.T.);
#1302 = EDGE_LOOP('',(#1303,#1304,#1325,#1326));
#1303 = ORIENTED_EDGE('',*,*,#1181,.F.);
#1304 = ORIENTED_EDGE('',*,*,#1305,.T.);
#1305 = EDGE_CURVE('',#1154,#1257,#1306,.T.);
#1306 = SURFACE_CURVE('',#1307,(#1311,#1318),.PCURVE_S1.);
#1307 = LINE('',#1308,#1309);
#1308 = CARTESIAN_POINT('',(-1.6,1.1,0.9000001));
#1309 = VECTOR('',#1310,1.);
#1310 = DIRECTION('',(0.,-1.,1.224646799147E-16));
#1311 = PCURVE('',#755,#1312);
#1312 = DEFINITIONAL_REPRESENTATION('',(#1313),#1317);
#1313 = LINE('',#1314,#1315);
#1314 = CARTESIAN_POINT('',(0.,0.));
#1315 = VECTOR('',#1316,1.);
#1316 = DIRECTION('',(0.,-1.));
#1317 = ( GEOMETRIC_REPRESENTATION_CONTEXT(2) 
PARAMETRIC_REPRESENTATION_CONTEXT() REPRESENTATION_CONTEXT('2D SPACE',''
  ) );
#1318 = PCURVE('',#1169,#1319);
#1319 = DEFINITIONAL_REPRESENTATION('',(#1320),#1324);
#1320 = LINE('',#1321,#1322);
#1321 = CARTESIAN_POINT('',(0.,0.));
#1322 = VECTOR('',#1323,1.);
#1323 = DIRECTION('',(0.,1.));
#1324 = ( GEOMETRIC_REPRESENTATION_CONTEXT(2) 
PARAMETRIC_REPRESENTATION_CONTEXT() REPRESENTATION_CONTEXT('2D SPACE',''
  ) );
#1325 = ORIENTED_EDGE('',*,*,#1279,.T.);
#1326 = ORIENTED_EDGE('',*,*,#739,.F.);
#1327 = ADVANCED_FACE('',(#1328),#1029,.F.);
#1328 = FACE_BOUND('',#1329,.F.);
#1329 = EDGE_LOOP('',(#1330));
#1330 = ORIENTED_EDGE('',*,*,#847,.T.);
#1331 = ADVANCED_FACE('',(#1332),#1169,.T.);
#1332 = FACE_BOUND('',#1333,.T.);
#1333 = EDGE_LOOP('',(#1334,#1335,#1336,#1337));
#1334 = ORIENTED_EDGE('',*,*,#1305,.F.);
#1335 = ORIENTED_EDGE('',*,*,#1153,.T.);
#1336 = ORIENTED_EDGE('',*,*,#1207,.T.);
#1337 = ORIENTED_EDGE('',*,*,#1256,.F.);
#1338 = ( GEOMETRIC_REPRESENTATION_CONTEXT(3) 
GLOBAL_UNCERTAINTY_ASSIGNED_CONTEXT((#1342)) 
GLOBAL_UNIT_ASSIGNED_CONTEXT((#1339,#1340,#1341)) REPRESENTATION_CONTEXT
('Context #1','3D Context with UNIT and UNCERTAINTY') );
#1339 = ( LENGTH_UNIT() NAMED_UNIT(*) SI_UNIT(.MILLI.,.METRE.) );
#1340 = ( NAMED_UNIT(*) PLANE_ANGLE_UNIT() SI_UNIT($,.RADIAN.) );
#1341 = ( NAMED_UNIT(*) SI_UNIT($,.STERADIAN.) SOLID_ANGLE_UNIT() );
#1342 = UNCERTAINTY_MEASURE_WITH_UNIT(LENGTH_MEASURE(1.E-07),#1339,
  'distance_accuracy_value','confusion accuracy');
#1343 = PRODUCT_RELATED_PRODUCT_CATEGORY('part',$,(#7));
ENDSEC;
END-ISO-10303-21;
