ISO-10303-21;
HEADER;
FILE_DESCRIPTION(('Open CASCADE Model'),'2;1');
FILE_NAME('tpu_pad6_print','2026-09-08T19:56:37',('Author'),(
    'Open CASCADE'),'Open CASCADE STEP processor 7.9','build123d',
  'Unknown');
FILE_SCHEMA(('AUTOMOTIVE_DESIGN { 1 0 10303 214 1 1 1 1 }'));
ENDSEC;
DATA;
#1 = APPLICATION_PROTOCOL_DEFINITION('international standard',
  'automotive_design',2000,#2);
#2 = APPLICATION_CONTEXT(
  'core data for automotive mechanical design processes');
#3 = SHAPE_DEFINITION_REPRESENTATION(#4,#10);
#4 = PRODUCT_DEFINITION_SHAPE('','',#5);
#5 = PRODUCT_DEFINITION('design','',#6,#9);
#6 = PRODUCT_DEFINITION_FORMATION('','',#7);
#7 = PRODUCT('tpu_pad6_print','tpu_pad6_print','',(#8));
#8 = PRODUCT_CONTEXT('',#2,'mechanical');
#9 = PRODUCT_DEFINITION_CONTEXT('part definition',#2,'design');
#10 = ADVANCED_BREP_SHAPE_REPRESENTATION('',(#11,#15),#487);
#11 = AXIS2_PLACEMENT_3D('',#12,#13,#14);
#12 = CARTESIAN_POINT('',(0.,0.,0.));
#13 = DIRECTION('',(0.,0.,1.));
#14 = DIRECTION('',(1.,0.,-0.));
#15 = MANIFOLD_SOLID_BREP('',#16);
#16 = CLOSED_SHELL('',(#17,#479,#483));
#17 = ADVANCED_FACE('',(#18),#32,.T.);
#18 = FACE_BOUND('',#19,.T.);
#19 = EDGE_LOOP('',(#20,#50,#77,#78));
#20 = ORIENTED_EDGE('',*,*,#21,.T.);
#21 = EDGE_CURVE('',#22,#24,#26,.T.);
#22 = VERTEX_POINT('',#23);
#23 = CARTESIAN_POINT('',(6.05,3.740050049476E-15,6.382244834764));
#24 = VERTEX_POINT('',#25);
#25 = CARTESIAN_POINT('',(6.05,2.958450490896E-15,9.999999939225E-08));
#26 = SEAM_CURVE('',#27,(#31,#43),.PCURVE_S1.);
#27 = LINE('',#28,#29);
#28 = CARTESIAN_POINT('',(6.05,4.146357886069E-15,9.7000001));
#29 = VECTOR('',#30,1.);
#30 = DIRECTION('',(0.,-1.224646799147E-16,-1.));
#31 = PCURVE('',#32,#37);
#32 = CYLINDRICAL_SURFACE('',#33,6.05);
#33 = AXIS2_PLACEMENT_3D('',#34,#35,#36);
#34 = CARTESIAN_POINT('',(-1.7763568394E-15,2.6645352591E-15,9.7000001)
  );
#35 = DIRECTION('',(0.,-1.224646799147E-16,-1.));
#36 = DIRECTION('',(1.,0.,0.));
#37 = DEFINITIONAL_REPRESENTATION('',(#38),#42);
#38 = LINE('',#39,#40);
#39 = CARTESIAN_POINT('',(6.28318530718,-0.));
#40 = VECTOR('',#41,1.);
#41 = DIRECTION('',(0.,1.));
#42 = ( GEOMETRIC_REPRESENTATION_CONTEXT(2) 
PARAMETRIC_REPRESENTATION_CONTEXT() REPRESENTATION_CONTEXT('2D SPACE',''
  ) );
#43 = PCURVE('',#32,#44);
#44 = DEFINITIONAL_REPRESENTATION('',(#45),#49);
#45 = LINE('',#46,#47);
#46 = CARTESIAN_POINT('',(0.,-0.));
#47 = VECTOR('',#48,1.);
#48 = DIRECTION('',(0.,1.));
#49 = ( GEOMETRIC_REPRESENTATION_CONTEXT(2) 
PARAMETRIC_REPRESENTATION_CONTEXT() REPRESENTATION_CONTEXT('2D SPACE',''
  ) );
#50 = ORIENTED_EDGE('',*,*,#51,.F.);
#51 = EDGE_CURVE('',#24,#24,#52,.T.);
#52 = SURFACE_CURVE('',#53,(#58,#65),.PCURVE_S1.);
#53 = CIRCLE('',#54,6.05);
#54 = AXIS2_PLACEMENT_3D('',#55,#56,#57);
#55 = CARTESIAN_POINT('',(-1.7763568394E-15,1.476627863927E-15,
    9.999999939225E-08));
#56 = DIRECTION('',(0.,-1.224646799147E-16,-1.));
#57 = DIRECTION('',(1.,0.,0.));
#58 = PCURVE('',#32,#59);
#59 = DEFINITIONAL_REPRESENTATION('',(#60),#64);
#60 = LINE('',#61,#62);
#61 = CARTESIAN_POINT('',(0.,9.7));
#62 = VECTOR('',#63,1.);
#63 = DIRECTION('',(1.,0.));
#64 = ( GEOMETRIC_REPRESENTATION_CONTEXT(2) 
PARAMETRIC_REPRESENTATION_CONTEXT() REPRESENTATION_CONTEXT('2D SPACE',''
  ) );
#65 = PCURVE('',#66,#71);
#66 = PLANE('',#67);
#67 = AXIS2_PLACEMENT_3D('',#68,#69,#70);
#68 = CARTESIAN_POINT('',(-1.7763568394E-15,1.476627863927E-15,
    9.999999939225E-08));
#69 = DIRECTION('',(0.,-1.224646799147E-16,-1.));
#70 = DIRECTION('',(1.,0.,0.));
#71 = DEFINITIONAL_REPRESENTATION('',(#72),#76);
#72 = CIRCLE('',#73,6.05);
#73 = AXIS2_PLACEMENT_2D('',#74,#75);
#74 = CARTESIAN_POINT('',(0.,0.));
#75 = DIRECTION('',(1.,0.));
#76 = ( GEOMETRIC_REPRESENTATION_CONTEXT(2) 
PARAMETRIC_REPRESENTATION_CONTEXT() REPRESENTATION_CONTEXT('2D SPACE',''
  ) );
#77 = ORIENTED_EDGE('',*,*,#21,.F.);
#78 = ORIENTED_EDGE('',*,*,#79,.T.);
#79 = EDGE_CURVE('',#22,#22,#80,.T.);
#80 = SURFACE_CURVE('',#81,(#210,#342),.PCURVE_S1.);
#81 = B_SPLINE_CURVE_WITH_KNOTS('',8,(#82,#83,#84,#85,#86,#87,#88,#89,
    #90,#91,#92,#93,#94,#95,#96,#97,#98,#99,#100,#101,#102,#103,#104,
    #105,#106,#107,#108,#109,#110,#111,#112,#113,#114,#115,#116,#117,
    #118,#119,#120,#121,#122,#123,#124,#125,#126,#127,#128,#129,#130,
    #131,#132,#133,#134,#135,#136,#137,#138,#139,#140,#141,#142,#143,
    #144,#145,#146,#147,#148,#149,#150,#151,#152,#153,#154,#155,#156,
    #157,#158,#159,#160,#161,#162,#163,#164,#165,#166,#167,#168,#169,
    #170,#171,#172,#173,#174,#175,#176,#177,#178,#179,#180,#181,#182,
    #183,#184,#185,#186,#187,#188,#189,#190,#191,#192,#193,#194,#195,
    #196,#197,#198,#199,#200,#201,#202,#203,#204,#205,#206,#207,#208,
    #209),.UNSPECIFIED.,.T.,.F.,(9,7,7,7,7,7,7,7,7,7,7,7,7,7,7,7,7,7,9),
  (0.,3.781164719014E-02,0.103574474101,0.177233571946,0.221717719868,
    0.272913627072,0.301708650281,0.399115975141,0.464180416828,
    0.502264156768,0.539734901712,0.604904824132,0.677899826289,
    0.72198291403,0.772717249176,0.801252662189,0.897781781924,
    0.962259615507,1.),.UNSPECIFIED.);
#82 = CARTESIAN_POINT('',(6.05,3.146405842208E-15,6.382244834764));
#83 = CARTESIAN_POINT('',(6.05,-0.171531909314,6.382244834764));
#84 = CARTESIAN_POINT('',(6.044441897342,-0.342176343652,6.372109910103)
  );
#85 = CARTESIAN_POINT('',(6.0334263318,-0.511741181023,6.352021821814));
#86 = CARTESIAN_POINT('',(6.017059557219,-0.679978362499,6.322402506602)
  );
#87 = CARTESIAN_POINT('',(5.995470832524,-0.846539159518,6.283917896474)
  );
#88 = CARTESIAN_POINT('',(5.968849980686,-1.010930720225,6.23747536969)
  );
#89 = CARTESIAN_POINT('',(5.937505115668,-1.17247389486,6.184214833069)
  );
#90 = CARTESIAN_POINT('',(5.840085860735,-1.604691384928,6.023363923058)
  );
#91 = CARTESIAN_POINT('',(5.764772599279,-1.870844204985,5.90357033603)
  );
#92 = CARTESIAN_POINT('',(5.676851597022,-2.129265777507,5.770470519802)
  );
#93 = CARTESIAN_POINT('',(5.576903673879,-2.380207106222,5.62784921629)
  );
#94 = CARTESIAN_POINT('',(5.465327970895,-2.623970102544,5.478601132683)
  );
#95 = CARTESIAN_POINT('',(5.342194557377,-2.861093053663,5.324703946096)
  );
#96 = CARTESIAN_POINT('',(5.207018591354,-3.092354541196,5.167387677624)
  );
#97 = CARTESIAN_POINT('',(4.892388748457,-3.571955379398,4.828216853008)
  );
#98 = CARTESIAN_POINT('',(4.710586273059,-3.817458146198,4.646783098606)
  );
#99 = CARTESIAN_POINT('',(4.512256409643,-4.055809872274,4.464632380624)
  );
#100 = CARTESIAN_POINT('',(4.296090435009,-4.287128960945,4.283040652744
    ));
#101 = CARTESIAN_POINT('',(4.060524100801,-4.510925523549,4.103439595857
    ));
#102 = CARTESIAN_POINT('',(3.803860055121,-4.726033869204,3.927654834907
    ));
#103 = CARTESIAN_POINT('',(3.524391519935,-4.930519390744,3.758053585234
    ));
#104 = CARTESIAN_POINT('',(3.036989724244,-5.237002001222,3.500826483637
    ));
#105 = CARTESIAN_POINT('',(2.84397693657,-5.347883037302,3.407028122778)
  );
#106 = CARTESIAN_POINT('',(2.641216933997,-5.453453174219,3.317097870571
    ));
#107 = CARTESIAN_POINT('',(2.428493520711,-5.552829350195,3.231927607987
    ));
#108 = CARTESIAN_POINT('',(2.205642652437,-5.645032984483,3.152492403979
    ));
#109 = CARTESIAN_POINT('',(1.972566907209,-5.728983532529,3.079854263541
    ));
#110 = CARTESIAN_POINT('',(1.729250550082,-5.803490943347,3.015164852844
    ));
#111 = CARTESIAN_POINT('',(1.184055522433,-5.940622598765,2.895796075576
    ));
#112 = CARTESIAN_POINT('',(0.877435260642,-6.000121491903,2.843782896484
    ));
#113 = CARTESIAN_POINT('',(0.559997280851,-6.042444509822,2.806654742232
    ));
#114 = CARTESIAN_POINT('',(0.235950432713,-6.065439611621,2.786442004712
    ));
#115 = CARTESIAN_POINT('',(-9.040446309354E-02,-6.068067938898,
    2.784138685957));
#116 = CARTESIAN_POINT('',(-0.414727451349,-6.050389967144,
    2.799684395367));
#117 = CARTESIAN_POINT('',(-0.732711111084,-6.013571773836,
    2.831968047859));
#118 = CARTESIAN_POINT('',(-1.213101213673,-5.929730279365,2.90522374702
    ));
#119 = CARTESIAN_POINT('',(-1.382529340556,-5.894251220741,
    2.936187099517));
#120 = CARTESIAN_POINT('',(-1.548238729291,-5.853811113625,
    2.971426325659));
#121 = CARTESIAN_POINT('',(-1.710028147866,-5.808757552022,
    3.010610908734));
#122 = CARTESIAN_POINT('',(-1.867711849385,-5.759449533426,
    3.053397605137));
#123 = CARTESIAN_POINT('',(-2.021119581143,-5.706258134575,
    3.099431239419));
#124 = CARTESIAN_POINT('',(-2.170096593704,-5.649567187197,
    3.148345499334));
#125 = CARTESIAN_POINT('',(-2.803001434487,-5.387506399732,
    3.373700468123));
#126 = CARTESIAN_POINT('',(-3.242253190803,-5.148475505113,
    3.577376816074));
#127 = CARTESIAN_POINT('',(-3.635027519205,-4.883431164281,
    3.800159989437));
#128 = CARTESIAN_POINT('',(-3.985454991794,-4.599704298755,4.03425549705
    ));
#129 = CARTESIAN_POINT('',(-4.298055144524,-4.301888280475,
    4.274227875915));
#130 = CARTESIAN_POINT('',(-4.577274441574,-3.991975386114,
    4.516437103232));
#131 = CARTESIAN_POINT('',(-4.826984545062,-3.669646505616,
    4.758637119169));
#132 = CARTESIAN_POINT('',(-5.198533253053,-3.106563937903,
    5.157652164584));
#133 = CARTESIAN_POINT('',(-5.33411636862,-2.876053944064,5.314844524505
    ));
#134 = CARTESIAN_POINT('',(-5.457679927647,-2.639726593899,
    5.468692842258));
#135 = CARTESIAN_POINT('',(-5.569721595274,-2.396810155192,
    5.617992587951));
#136 = CARTESIAN_POINT('',(-5.670186999205,-2.146766292554,
    5.760806827701));
#137 = CARTESIAN_POINT('',(-5.758690872624,-1.889291465373,
    5.894293866585));
#138 = CARTESIAN_POINT('',(-5.834664731645,-1.624139500986,
    6.014727718553));
#139 = CARTESIAN_POINT('',(-5.933925080294,-1.190787992884,
    6.178137477995));
#140 = CARTESIAN_POINT('',(-5.966248880373,-1.026873165791,
    6.232940614849));
#141 = CARTESIAN_POINT('',(-5.99371257971,-0.859994521153,6.280784983832
    ));
#142 = CARTESIAN_POINT('',(-6.015990875438,-0.690862297185,
    6.320468841909));
#143 = CARTESIAN_POINT('',(-6.032884665241,-0.519988314408,6.3510340232)
  );
#144 = CARTESIAN_POINT('',(-6.044258558796,-0.347730368244,
    6.371775628016));
#145 = CARTESIAN_POINT('',(-6.05,-0.174338050539,6.382244834764));
#146 = CARTESIAN_POINT('',(-6.05,0.171531909314,6.382244834764));
#147 = CARTESIAN_POINT('',(-6.044441897342,0.342176343652,6.372109910103
    ));
#148 = CARTESIAN_POINT('',(-6.0334263318,0.511741181023,6.352021821814)
  );
#149 = CARTESIAN_POINT('',(-6.017059557219,0.679978362499,6.322402506602
    ));
#150 = CARTESIAN_POINT('',(-5.995470832524,0.846539159518,6.283917896474
    ));
#151 = CARTESIAN_POINT('',(-5.968849980686,1.010930720225,6.23747536969)
  );
#152 = CARTESIAN_POINT('',(-5.937505115668,1.17247389486,6.184214833069)
  );
#153 = CARTESIAN_POINT('',(-5.840085860735,1.604691384927,6.023363923058
    ));
#154 = CARTESIAN_POINT('',(-5.764772599279,1.870844204985,5.90357033603)
  );
#155 = CARTESIAN_POINT('',(-5.676851597022,2.129265777508,5.770470519802
    ));
#156 = CARTESIAN_POINT('',(-5.576903673879,2.380207106222,5.627849216289
    ));
#157 = CARTESIAN_POINT('',(-5.465327970895,2.623970102543,5.478601132683
    ));
#158 = CARTESIAN_POINT('',(-5.342194557377,2.861093053664,5.324703946096
    ));
#159 = CARTESIAN_POINT('',(-5.207018591354,3.092354541197,5.167387677623
    ));
#160 = CARTESIAN_POINT('',(-4.892388748457,3.571955379399,4.828216853007
    ));
#161 = CARTESIAN_POINT('',(-4.710586273059,3.817458146198,4.646783098607
    ));
#162 = CARTESIAN_POINT('',(-4.512256409644,4.055809872273,4.464632380624
    ));
#163 = CARTESIAN_POINT('',(-4.296090435009,4.287128960945,4.283040652744
    ));
#164 = CARTESIAN_POINT('',(-4.060524100801,4.510925523549,4.103439595857
    ));
#165 = CARTESIAN_POINT('',(-3.80386005512,4.726033869203,3.927654834907)
  );
#166 = CARTESIAN_POINT('',(-3.524391519935,4.930519390744,3.758053585234
    ));
#167 = CARTESIAN_POINT('',(-3.036989724255,5.237002001215,3.500826483643
    ));
#168 = CARTESIAN_POINT('',(-2.843976936565,5.347883037308,3.407028122774
    ));
#169 = CARTESIAN_POINT('',(-2.641216933984,5.453453174225,3.317097870566
    ));
#170 = CARTESIAN_POINT('',(-2.428493520709,5.552829350193,3.231927607988
    ));
#171 = CARTESIAN_POINT('',(-2.20564265245,5.645032984478,3.152492403983)
  );
#172 = CARTESIAN_POINT('',(-1.972566907219,5.728983532528,3.079854263542
    ));
#173 = CARTESIAN_POINT('',(-1.729250550066,5.803490943351,3.01516485284)
  );
#174 = CARTESIAN_POINT('',(-1.184055522434,5.940622598765,2.895796075576
    ));
#175 = CARTESIAN_POINT('',(-0.877435260642,6.000121491903,2.843782896484
    ));
#176 = CARTESIAN_POINT('',(-0.559997280851,6.042444509822,2.806654742232
    ));
#177 = CARTESIAN_POINT('',(-0.235950432713,6.065439611621,2.786442004712
    ));
#178 = CARTESIAN_POINT('',(9.040446309329E-02,6.068067938898,
    2.784138685957));
#179 = CARTESIAN_POINT('',(0.414727451348,6.050389967144,2.799684395367)
  );
#180 = CARTESIAN_POINT('',(0.732711111084,6.013571773836,2.831968047859)
  );
#181 = CARTESIAN_POINT('',(1.213101213505,5.929730279395,2.905223746995)
  );
#182 = CARTESIAN_POINT('',(1.382529340493,5.894251220761,2.936187099499)
  );
#183 = CARTESIAN_POINT('',(1.548238729371,5.853811113613,2.971426325669)
  );
#184 = CARTESIAN_POINT('',(1.710028148004,5.808757551983,3.010610908767)
  );
#185 = CARTESIAN_POINT('',(1.867711849468,5.759449533392,3.053397605167)
  );
#186 = CARTESIAN_POINT('',(2.021119581104,5.706258134581,3.099431239413)
  );
#187 = CARTESIAN_POINT('',(2.170096593587,5.649567187246,3.148345499292)
  );
#188 = CARTESIAN_POINT('',(2.803001434489,5.387506399731,3.373700468123)
  );
#189 = CARTESIAN_POINT('',(3.242253190797,5.148475505114,3.577376816073)
  );
#190 = CARTESIAN_POINT('',(3.635027519213,4.883431164282,3.800159989439)
  );
#191 = CARTESIAN_POINT('',(3.985454991786,4.599704298753,4.034255497048)
  );
#192 = CARTESIAN_POINT('',(4.298055144529,4.301888280475,4.274227875917)
  );
#193 = CARTESIAN_POINT('',(4.577274441572,3.991975386115,4.516437103231)
  );
#194 = CARTESIAN_POINT('',(4.826984545062,3.669646505615,4.758637119169)
  );
#195 = CARTESIAN_POINT('',(5.198533253053,3.106563937902,5.157652164585)
  );
#196 = CARTESIAN_POINT('',(5.33411636862,2.876053944064,5.314844524505)
  );
#197 = CARTESIAN_POINT('',(5.457679927647,2.6397265939,5.468692842258));
#198 = CARTESIAN_POINT('',(5.569721595274,2.396810155192,5.617992587951)
  );
#199 = CARTESIAN_POINT('',(5.670186999205,2.146766292554,5.760806827701)
  );
#200 = CARTESIAN_POINT('',(5.758690872624,1.889291465373,5.894293866585)
  );
#201 = CARTESIAN_POINT('',(5.834664731645,1.624139500986,6.014727718553)
  );
#202 = CARTESIAN_POINT('',(5.933925080294,1.190787992884,6.178137477995)
  );
#203 = CARTESIAN_POINT('',(5.966248880373,1.02687316579,6.232940614849)
  );
#204 = CARTESIAN_POINT('',(5.99371257971,0.859994521153,6.280784983832)
  );
#205 = CARTESIAN_POINT('',(6.015990875438,0.690862297185,6.320468841909)
  );
#206 = CARTESIAN_POINT('',(6.032884665241,0.519988314408,6.3510340232));
#207 = CARTESIAN_POINT('',(6.044258558796,0.347730368244,6.371775628016)
  );
#208 = CARTESIAN_POINT('',(6.05,0.174338050539,6.382244834764));
#209 = CARTESIAN_POINT('',(6.05,3.146405842208E-15,6.382244834764));
#210 = PCURVE('',#32,#211);
#211 = DEFINITIONAL_REPRESENTATION('',(#212),#341);
#212 = B_SPLINE_CURVE_WITH_KNOTS('',8,(#213,#214,#215,#216,#217,#218,
    #219,#220,#221,#222,#223,#224,#225,#226,#227,#228,#229,#230,#231,
    #232,#233,#234,#235,#236,#237,#238,#239,#240,#241,#242,#243,#244,
    #245,#246,#247,#248,#249,#250,#251,#252,#253,#254,#255,#256,#257,
    #258,#259,#260,#261,#262,#263,#264,#265,#266,#267,#268,#269,#270,
    #271,#272,#273,#274,#275,#276,#277,#278,#279,#280,#281,#282,#283,
    #284,#285,#286,#287,#288,#289,#290,#291,#292,#293,#294,#295,#296,
    #297,#298,#299,#300,#301,#302,#303,#304,#305,#306,#307,#308,#309,
    #310,#311,#312,#313,#314,#315,#316,#317,#318,#319,#320,#321,#322,
    #323,#324,#325,#326,#327,#328,#329,#330,#331,#332,#333,#334,#335,
    #336,#337,#338,#339,#340),.UNSPECIFIED.,.F.,.F.,(9,7,7,7,7,7,7,7,7,7
    ,7,7,7,7,7,7,7,7,9),(0.,3.781164719014E-02,0.103574474101,
    0.177233571946,0.221717719868,0.272913627072,0.301708650281,
    0.399115975141,0.464180416828,0.502264156768,0.539734901712,
    0.604904824132,0.677899826289,0.72198291403,0.772717249176,
    0.801252662189,0.897781781924,0.962259615507,1.),.UNSPECIFIED.);
#213 = CARTESIAN_POINT('',(0.,3.317755265236));
#214 = CARTESIAN_POINT('',(2.835238170475E-02,3.317755265236));
#215 = CARTESIAN_POINT('',(5.655804193178E-02,3.327890189897));
#216 = CARTESIAN_POINT('',(8.462010053021E-02,3.347978278186));
#217 = CARTESIAN_POINT('',(0.112530523781,3.377597593398));
#218 = CARTESIAN_POINT('',(0.140263547799,3.416082203526));
#219 = CARTESIAN_POINT('',(0.167767421873,3.46252473031));
#220 = CARTESIAN_POINT('',(0.194954471734,3.515785266931));
#221 = CARTESIAN_POINT('',(0.268187586729,3.676636176942));
#222 = CARTESIAN_POINT('',(0.31384036893,3.79642976397));
#223 = CARTESIAN_POINT('',(0.358857717059,3.929529580198));
#224 = CARTESIAN_POINT('',(0.403389557469,4.07215088371));
#225 = CARTESIAN_POINT('',(0.447590351462,4.221398967317));
#226 = CARTESIAN_POINT('',(0.491662049609,4.375296153904));
#227 = CARTESIAN_POINT('',(0.535879041052,4.532612422376));
#228 = CARTESIAN_POINT('',(0.630687797405,4.871783246992));
#229 = CARTESIAN_POINT('',(0.681100422887,5.053217001394));
#230 = CARTESIAN_POINT('',(0.732214738337,5.235367719376));
#231 = CARTESIAN_POINT('',(0.784367592847,5.416959447256));
#232 = CARTESIAN_POINT('',(0.837874324842,5.596560504143));
#233 = CARTESIAN_POINT('',(0.893032859759,5.772345265093));
#234 = CARTESIAN_POINT('',(0.950129351397,5.941946514766));
#235 = CARTESIAN_POINT('',(1.045295220344,6.199173616363));
#236 = CARTESIAN_POINT('',(1.082058529903,6.292971977222));
#237 = CARTESIAN_POINT('',(1.119788474653,6.382902229429));
#238 = CARTESIAN_POINT('',(1.158523140978,6.468072492013));
#239 = CARTESIAN_POINT('',(1.198302975352,6.547507696021));
#240 = CARTESIAN_POINT('',(1.239171782988,6.620145836459));
#241 = CARTESIAN_POINT('',(1.281178585705,6.684835247156));
#242 = CARTESIAN_POINT('',(1.37410036416,6.804204024424));
#243 = CARTESIAN_POINT('',(1.425649501719,6.856217203516));
#244 = CARTESIAN_POINT('',(1.478427099616,6.893345357768));
#245 = CARTESIAN_POINT('',(1.531917789594,6.913558095288));
#246 = CARTESIAN_POINT('',(1.585652659952,6.915861414043));
#247 = CARTESIAN_POINT('',(1.639172900086,6.900315704633));
#248 = CARTESIAN_POINT('',(1.691995916852,6.868032052141));
#249 = CARTESIAN_POINT('',(1.772599480978,6.79477635298));
#250 = CARTESIAN_POINT('',(1.801195377312,6.763813000483));
#251 = CARTESIAN_POINT('',(1.829363942707,6.728573774341));
#252 = CARTESIAN_POINT('',(1.857095263936,6.689389191266));
#253 = CARTESIAN_POINT('',(1.884377064187,6.646602494863));
#254 = CARTESIAN_POINT('',(1.911194583659,6.600568860581));
#255 = CARTESIAN_POINT('',(1.93753046016,6.551654600666));
#256 = CARTESIAN_POINT('',(2.050755940478,6.326299631877));
#257 = CARTESIAN_POINT('',(2.132951387905,6.122623283926));
#258 = CARTESIAN_POINT('',(2.210710406818,5.899840110562));
#259 = CARTESIAN_POINT('',(2.284711791655,5.66574460295));
#260 = CARTESIAN_POINT('',(2.355642909115,5.425772224085));
#261 = CARTESIAN_POINT('',(2.424272329638,5.183562996768));
#262 = CARTESIAN_POINT('',(2.491473420441,4.941362980831));
#263 = CARTESIAN_POINT('',(2.602980647266,4.542347935416));
#264 = CARTESIAN_POINT('',(2.647124771632,4.385155575495));
#265 = CARTESIAN_POINT('',(2.691113154589,4.231307257742));
#266 = CARTESIAN_POINT('',(2.735219658872,4.082007512049));
#267 = CARTESIAN_POINT('',(2.779646369674,3.939193272299));
#268 = CARTESIAN_POINT('',(2.824547635568,3.805706233415));
#269 = CARTESIAN_POINT('',(2.870071860851,3.685272381447));
#270 = CARTESIAN_POINT('',(2.943555186139,3.521862622005));
#271 = CARTESIAN_POINT('',(2.971157466856,3.467059485151));
#272 = CARTESIAN_POINT('',(2.999088457817,3.419215116168));
#273 = CARTESIAN_POINT('',(3.027256354784,3.379531258091));
#274 = CARTESIAN_POINT('',(3.055607653633,3.3489660768));
#275 = CARTESIAN_POINT('',(3.08411659365,3.328224471984));
#276 = CARTESIAN_POINT('',(3.112776446889,3.317755265236));
#277 = CARTESIAN_POINT('',(3.169945035295,3.317755265236));
#278 = CARTESIAN_POINT('',(3.198150695522,3.327890189897));
#279 = CARTESIAN_POINT('',(3.22621275412,3.347978278186));
#280 = CARTESIAN_POINT('',(3.25412317737,3.377597593398));
#281 = CARTESIAN_POINT('',(3.281856201388,3.416082203526));
#282 = CARTESIAN_POINT('',(3.309360075463,3.46252473031));
#283 = CARTESIAN_POINT('',(3.336547125323,3.515785266931));
#284 = CARTESIAN_POINT('',(3.409780240319,3.676636176942));
#285 = CARTESIAN_POINT('',(3.45543302252,3.79642976397));
#286 = CARTESIAN_POINT('',(3.500450370649,3.929529580198));
#287 = CARTESIAN_POINT('',(3.544982211058,4.072150883711));
#288 = CARTESIAN_POINT('',(3.589183005052,4.221398967317));
#289 = CARTESIAN_POINT('',(3.633254703199,4.375296153904));
#290 = CARTESIAN_POINT('',(3.677471694641,4.532612422377));
#291 = CARTESIAN_POINT('',(3.772280450995,4.871783246993));
#292 = CARTESIAN_POINT('',(3.822693076477,5.053217001393));
#293 = CARTESIAN_POINT('',(3.873807391927,5.235367719376));
#294 = CARTESIAN_POINT('',(3.925960246437,5.416959447256));
#295 = CARTESIAN_POINT('',(3.979466978432,5.596560504143));
#296 = CARTESIAN_POINT('',(4.034625513349,5.772345265093));
#297 = CARTESIAN_POINT('',(4.091722004987,5.941946514766));
#298 = CARTESIAN_POINT('',(4.186887873931,6.199173616357));
#299 = CARTESIAN_POINT('',(4.223651183494,6.292971977226));
#300 = CARTESIAN_POINT('',(4.261381128245,6.382902229434));
#301 = CARTESIAN_POINT('',(4.300115794568,6.468072492012));
#302 = CARTESIAN_POINT('',(4.33989562894,6.547507696017));
#303 = CARTESIAN_POINT('',(4.380764436576,6.620145836458));
#304 = CARTESIAN_POINT('',(4.422771239298,6.68483524716));
#305 = CARTESIAN_POINT('',(4.51569301775,6.804204024424));
#306 = CARTESIAN_POINT('',(4.567242155309,6.856217203516));
#307 = CARTESIAN_POINT('',(4.620019753205,6.893345357768));
#308 = CARTESIAN_POINT('',(4.673510443184,6.913558095288));
#309 = CARTESIAN_POINT('',(4.727245313542,6.915861414043));
#310 = CARTESIAN_POINT('',(4.780765553676,6.900315704633));
#311 = CARTESIAN_POINT('',(4.833588570442,6.868032052141));
#312 = CARTESIAN_POINT('',(4.91419213454,6.794776353005));
#313 = CARTESIAN_POINT('',(4.942788030891,6.763813000501));
#314 = CARTESIAN_POINT('',(4.97095659631,6.728573774331));
#315 = CARTESIAN_POINT('',(4.99868791755,6.689389191233));
#316 = CARTESIAN_POINT('',(5.025969717792,6.646602494833));
#317 = CARTESIAN_POINT('',(5.052787237242,6.600568860587));
#318 = CARTESIAN_POINT('',(5.079123113729,6.551654600708));
#319 = CARTESIAN_POINT('',(5.192348594068,6.326299631877));
#320 = CARTESIAN_POINT('',(5.274544041494,6.122623283927));
#321 = CARTESIAN_POINT('',(5.352303060408,5.899840110561));
#322 = CARTESIAN_POINT('',(5.426304445245,5.665744602952));
#323 = CARTESIAN_POINT('',(5.497235562705,5.425772224083));
#324 = CARTESIAN_POINT('',(5.565864983228,5.183562996769));
#325 = CARTESIAN_POINT('',(5.633066074031,4.941362980831));
#326 = CARTESIAN_POINT('',(5.744573300856,4.542347935415));
#327 = CARTESIAN_POINT('',(5.788717425222,4.385155575495));
#328 = CARTESIAN_POINT('',(5.832705808179,4.231307257742));
#329 = CARTESIAN_POINT('',(5.876812312462,4.082007512049));
#330 = CARTESIAN_POINT('',(5.921239023264,3.939193272299));
#331 = CARTESIAN_POINT('',(5.966140289158,3.805706233415));
#332 = CARTESIAN_POINT('',(6.011664514441,3.685272381447));
#333 = CARTESIAN_POINT('',(6.085147839728,3.521862622005));
#334 = CARTESIAN_POINT('',(6.112750120446,3.467059485151));
#335 = CARTESIAN_POINT('',(6.140681111407,3.419215116168));
#336 = CARTESIAN_POINT('',(6.168849008374,3.379531258091));
#337 = CARTESIAN_POINT('',(6.197200307223,3.3489660768));
#338 = CARTESIAN_POINT('',(6.22570924724,3.328224471984));
#339 = CARTESIAN_POINT('',(6.254369100479,3.317755265236));
#340 = CARTESIAN_POINT('',(6.28318530718,3.317755265236));
#341 = ( GEOMETRIC_REPRESENTATION_CONTEXT(2) 
PARAMETRIC_REPRESENTATION_CONTEXT() REPRESENTATION_CONTEXT('2D SPACE',''
  ) );
#342 = PCURVE('',#343,#348);
#343 = CYLINDRICAL_SURFACE('',#344,6.9);
#344 = AXIS2_PLACEMENT_3D('',#345,#346,#347);
#345 = CARTESIAN_POINT('',(-1.7763568394E-15,-7.05,9.7000001));
#346 = DIRECTION('',(0.,1.,-3.445092848398E-16));
#347 = DIRECTION('',(1.,0.,0.));
#348 = DEFINITIONAL_REPRESENTATION('',(#349),#478);
#349 = B_SPLINE_CURVE_WITH_KNOTS('',8,(#350,#351,#352,#353,#354,#355,
    #356,#357,#358,#359,#360,#361,#362,#363,#364,#365,#366,#367,#368,
    #369,#370,#371,#372,#373,#374,#375,#376,#377,#378,#379,#380,#381,
    #382,#383,#384,#385,#386,#387,#388,#389,#390,#391,#392,#393,#394,
    #395,#396,#397,#398,#399,#400,#401,#402,#403,#404,#405,#406,#407,
    #408,#409,#410,#411,#412,#413,#414,#415,#416,#417,#418,#419,#420,
    #421,#422,#423,#424,#425,#426,#427,#428,#429,#430,#431,#432,#433,
    #434,#435,#436,#437,#438,#439,#440,#441,#442,#443,#444,#445,#446,
    #447,#448,#449,#450,#451,#452,#453,#454,#455,#456,#457,#458,#459,
    #460,#461,#462,#463,#464,#465,#466,#467,#468,#469,#470,#471,#472,
    #473,#474,#475,#476,#477),.UNSPECIFIED.,.T.,.F.,(9,7,7,7,7,7,7,7,7,7
    ,7,7,7,7,7,7,7,7,9),(0.,3.781164719014E-02,0.103574474101,
    0.177233571946,0.221717719868,0.272913627072,0.301708650281,
    0.399115975141,0.464180416828,0.502264156768,0.539734901712,
    0.604904824132,0.677899826289,0.72198291403,0.772717249176,
    0.801252662189,0.897781781924,0.962259615507,1.),.UNSPECIFIED.);
#350 = CARTESIAN_POINT('',(0.501605748058,7.05));
#351 = CARTESIAN_POINT('',(0.501605748058,6.878468090686));
#352 = CARTESIAN_POINT('',(0.50328092992,6.707823656348));
#353 = CARTESIAN_POINT('',(0.506601307668,6.538258818977));
#354 = CARTESIAN_POINT('',(0.511505659518,6.370021637501));
#355 = CARTESIAN_POINT('',(0.517900427936,6.203460840482));
#356 = CARTESIAN_POINT('',(0.525657890677,6.039069279775));
#357 = CARTESIAN_POINT('',(0.534613602783,5.87752610514));
#358 = CARTESIAN_POINT('',(0.561867504952,5.445308615072));
#359 = CARTESIAN_POINT('',(0.582372082866,5.179155795015));
#360 = CARTESIAN_POINT('',(0.605480572448,4.920734222493));
#361 = CARTESIAN_POINT('',(0.630700509752,4.669792893778));
#362 = CARTESIAN_POINT('',(0.657679641879,4.426029897456));
#363 = CARTESIAN_POINT('',(0.686216100295,4.188906946336));
#364 = CARTESIAN_POINT('',(0.716254472314,3.957645458804));
#365 = CARTESIAN_POINT('',(0.783302653868,3.478044620602));
#366 = CARTESIAN_POINT('',(0.820499195008,3.232541853801));
#367 = CARTESIAN_POINT('',(0.859468735889,2.994190127727));
#368 = CARTESIAN_POINT('',(0.900300603129,2.762871039055));
#369 = CARTESIAN_POINT('',(0.943127930263,2.539074476451));
#370 = CARTESIAN_POINT('',(0.988104134073,2.323966130797));
#371 = CARTESIAN_POINT('',(1.035396933404,2.119480609256));
#372 = CARTESIAN_POINT('',(1.11526848175,1.812997998778));
#373 = CARTESIAN_POINT('',(1.146352387361,1.702116962698));
#374 = CARTESIAN_POINT('',(1.178465397523,1.596546825781));
#375 = CARTESIAN_POINT('',(1.211628073343,1.497170649805));
#376 = CARTESIAN_POINT('',(1.24586245905,1.404967015517));
#377 = CARTESIAN_POINT('',(1.281192498606,1.321016467471));
#378 = CARTESIAN_POINT('',(1.31764493588,1.246509056653));
#379 = CARTESIAN_POINT('',(1.398530410804,1.109377401235));
#380 = CARTESIAN_POINT('',(1.443552313717,1.049878508097));
#381 = CARTESIAN_POINT('',(1.489767076671,1.007555490178));
#382 = CARTESIAN_POINT('',(1.536682947939,0.984560388379));
#383 = CARTESIAN_POINT('',(1.583839828957,0.981932061102));
#384 = CARTESIAN_POINT('',(1.63078466098,0.999610032856));
#385 = CARTESIAN_POINT('',(1.677048123984,1.036428226164));
#386 = CARTESIAN_POINT('',(1.74747471266,1.120269720635));
#387 = CARTESIAN_POINT('',(1.772425374821,1.155748779259));
#388 = CARTESIAN_POINT('',(1.796961508638,1.196188886375));
#389 = CARTESIAN_POINT('',(1.821068578409,1.241242447978));
#390 = CARTESIAN_POINT('',(1.844730592867,1.290550466574));
#391 = CARTESIAN_POINT('',(1.867930059645,1.343741865425));
#392 = CARTESIAN_POINT('',(1.890647939764,1.400432812803));
#393 = CARTESIAN_POINT('',(1.98801437459,1.662493600268));
#394 = CARTESIAN_POINT('',(2.057887282126,1.901524494888));
#395 = CARTESIAN_POINT('',(2.122990286334,2.166568835715));
#396 = CARTESIAN_POINT('',(2.183773199795,2.45029570125));
#397 = CARTESIAN_POINT('',(2.240670750788,2.748111719521));
#398 = CARTESIAN_POINT('',(2.294099385896,3.058024613887));
#399 = CARTESIAN_POINT('',(2.344450546501,3.380353494384));
#400 = CARTESIAN_POINT('',(2.423467485982,3.943436062097));
#401 = CARTESIAN_POINT('',(2.453530714467,4.173946055936));
#402 = CARTESIAN_POINT('',(2.482100566139,4.4102734061));
#403 = CARTESIAN_POINT('',(2.509126068136,4.653189844808));
#404 = CARTESIAN_POINT('',(2.534411813793,4.903233707446));
#405 = CARTESIAN_POINT('',(2.55761352188,5.160708534627));
#406 = CARTESIAN_POINT('',(2.578247539903,5.425860499014));
#407 = CARTESIAN_POINT('',(2.605956898896,5.859212007116));
#408 = CARTESIAN_POINT('',(2.615177184194,6.023126834209));
#409 = CARTESIAN_POINT('',(2.623171594002,6.190005478847));
#410 = CARTESIAN_POINT('',(2.629766802403,6.359137702815));
#411 = CARTESIAN_POINT('',(2.634828070813,6.530011685592));
#412 = CARTESIAN_POINT('',(2.638256471958,6.702269631756));
#413 = CARTESIAN_POINT('',(2.639986905532,6.875661949461));
#414 = CARTESIAN_POINT('',(2.639986905532,7.221531909314));
#415 = CARTESIAN_POINT('',(2.63831172367,7.392176343652));
#416 = CARTESIAN_POINT('',(2.634991345922,7.561741181023));
#417 = CARTESIAN_POINT('',(2.630086994072,7.729978362499));
#418 = CARTESIAN_POINT('',(2.623692225653,7.896539159518));
#419 = CARTESIAN_POINT('',(2.615934762913,8.060930720225));
#420 = CARTESIAN_POINT('',(2.606979050807,8.22247389486));
#421 = CARTESIAN_POINT('',(2.579725148638,8.654691384927));
#422 = CARTESIAN_POINT('',(2.559220570724,8.920844204985));
#423 = CARTESIAN_POINT('',(2.536112081142,9.179265777509));
#424 = CARTESIAN_POINT('',(2.510892143837,9.430207106222));
#425 = CARTESIAN_POINT('',(2.48391301171,9.673970102543));
#426 = CARTESIAN_POINT('',(2.455376553295,9.911093053664));
#427 = CARTESIAN_POINT('',(2.425338181276,10.142354541197));
#428 = CARTESIAN_POINT('',(2.358289999722,10.621955379399));
#429 = CARTESIAN_POINT('',(2.321093458582,10.867458146198));
#430 = CARTESIAN_POINT('',(2.282123917701,11.105809872273));
#431 = CARTESIAN_POINT('',(2.24129205046,11.337128960945));
#432 = CARTESIAN_POINT('',(2.198464723327,11.56092552355));
#433 = CARTESIAN_POINT('',(2.153488519517,11.776033869203));
#434 = CARTESIAN_POINT('',(2.106195720186,11.980519390744));
#435 = CARTESIAN_POINT('',(2.026324171841,12.287002001215));
#436 = CARTESIAN_POINT('',(1.995240266228,12.397883037308));
#437 = CARTESIAN_POINT('',(1.963127256064,12.503453174225));
#438 = CARTESIAN_POINT('',(1.929964580246,12.602829350193));
#439 = CARTESIAN_POINT('',(1.895730194542,12.695032984478));
#440 = CARTESIAN_POINT('',(1.860400154986,12.778983532527));
#441 = CARTESIAN_POINT('',(1.823947717708,12.853490943351));
#442 = CARTESIAN_POINT('',(1.743062242786,12.990622598765));
#443 = CARTESIAN_POINT('',(1.698040339872,13.050121491903));
#444 = CARTESIAN_POINT('',(1.651825576919,13.092444509822));
#445 = CARTESIAN_POINT('',(1.604909705651,13.115439611621));
#446 = CARTESIAN_POINT('',(1.557752824633,13.118067938898));
#447 = CARTESIAN_POINT('',(1.510807992609,13.100389967144));
#448 = CARTESIAN_POINT('',(1.464544529605,13.063571773836));
#449 = CARTESIAN_POINT('',(1.394117940955,12.979730279395));
#450 = CARTESIAN_POINT('',(1.369167278778,12.944251220761));
#451 = CARTESIAN_POINT('',(1.34463114494,12.903811113613));
#452 = CARTESIAN_POINT('',(1.32052407516,12.858757551983));
#453 = CARTESIAN_POINT('',(1.29686206071,12.809449533392));
#454 = CARTESIAN_POINT('',(1.27366259395,12.756258134581));
#455 = CARTESIAN_POINT('',(1.250944713844,12.699567187246));
#456 = CARTESIAN_POINT('',(1.153578279,12.437506399731));
#457 = CARTESIAN_POINT('',(1.083705371464,12.198475505115));
#458 = CARTESIAN_POINT('',(1.018602367254,11.933431164278));
#459 = CARTESIAN_POINT('',(0.957819453796,11.64970429876));
#460 = CARTESIAN_POINT('',(0.900921902801,11.351888280471));
#461 = CARTESIAN_POINT('',(0.847493267694,11.041975386117));
#462 = CARTESIAN_POINT('',(0.797142107089,10.719646505615));
#463 = CARTESIAN_POINT('',(0.718125167608,10.156563937902));
#464 = CARTESIAN_POINT('',(0.688061939123,9.926053944064));
#465 = CARTESIAN_POINT('',(0.65949208745,9.6897265939));
#466 = CARTESIAN_POINT('',(0.632466585454,9.446810155192));
#467 = CARTESIAN_POINT('',(0.607180839797,9.196766292554));
#468 = CARTESIAN_POINT('',(0.58397913171,8.939291465373));
#469 = CARTESIAN_POINT('',(0.563345113687,8.674139500986));
#470 = CARTESIAN_POINT('',(0.535635754693,8.240787992884));
#471 = CARTESIAN_POINT('',(0.526415469396,8.07687316579));
#472 = CARTESIAN_POINT('',(0.518421059588,7.909994521153));
#473 = CARTESIAN_POINT('',(0.511825851187,7.740862297185));
#474 = CARTESIAN_POINT('',(0.506764582777,7.569988314408));
#475 = CARTESIAN_POINT('',(0.503336181632,7.397730368244));
#476 = CARTESIAN_POINT('',(0.501605748058,7.224338050539));
#477 = CARTESIAN_POINT('',(0.501605748058,7.05));
#478 = ( GEOMETRIC_REPRESENTATION_CONTEXT(2) 
PARAMETRIC_REPRESENTATION_CONTEXT() REPRESENTATION_CONTEXT('2D SPACE',''
  ) );
#479 = ADVANCED_FACE('',(#480),#343,.F.);
#480 = FACE_BOUND('',#481,.F.);
#481 = EDGE_LOOP('',(#482));
#482 = ORIENTED_EDGE('',*,*,#79,.T.);
#483 = ADVANCED_FACE('',(#484),#66,.T.);
#484 = FACE_BOUND('',#485,.T.);
#485 = EDGE_LOOP('',(#486));
#486 = ORIENTED_EDGE('',*,*,#51,.T.);
#487 = ( GEOMETRIC_REPRESENTATION_CONTEXT(3) 
GLOBAL_UNCERTAINTY_ASSIGNED_CONTEXT((#491)) GLOBAL_UNIT_ASSIGNED_CONTEXT
((#488,#489,#490)) REPRESENTATION_CONTEXT('Context #1',
  '3D Context with UNIT and UNCERTAINTY') );
#488 = ( LENGTH_UNIT() NAMED_UNIT(*) SI_UNIT(.MILLI.,.METRE.) );
#489 = ( NAMED_UNIT(*) PLANE_ANGLE_UNIT() SI_UNIT($,.RADIAN.) );
#490 = ( NAMED_UNIT(*) SI_UNIT($,.STERADIAN.) SOLID_ANGLE_UNIT() );
#491 = UNCERTAINTY_MEASURE_WITH_UNIT(LENGTH_MEASURE(2.E-07),#488,
  'distance_accuracy_value','confusion accuracy');
#492 = PRODUCT_RELATED_PRODUCT_CATEGORY('part',$,(#7));
ENDSEC;
END-ISO-10303-21;
