ISO-10303-21;
HEADER;
FILE_DESCRIPTION(('Open CASCADE Model'),'2;1');
FILE_NAME('tpu_pad4_print','2026-09-10T08:15:00',('Author'),(
    'Open CASCADE'),'Open CASCADE STEP processor 7.9','build123d',
  'Unknown');
FILE_SCHEMA(('AUTOMOTIVE_DESIGN { 1 0 10303 214 1 1 1 1 }'));
ENDSEC;
DATA;
#1 = APPLICATION_PROTOCOL_DEFINITION('international standard',
  'automotive_design',2000,#2);
#2 = APPLICATION_CONTEXT(
  'core data for automotive mechanical design processes');
#3 = SHAPE_DEFINITION_REPRESENTATION(#4,#10);
#4 = PRODUCT_DEFINITION_SHAPE('','',#5);
#5 = PRODUCT_DEFINITION('design','',#6,#9);
#6 = PRODUCT_DEFINITION_FORMATION('','',#7);
#7 = PRODUCT('tpu_pad4_print','tpu_pad4_print','',(#8));
#8 = PRODUCT_CONTEXT('',#2,'mechanical');
#9 = PRODUCT_DEFINITION_CONTEXT('part definition',#2,'design');
#10 = SHAPE_REPRESENTATION('',(#11,#15),#19);
#11 = AXIS2_PLACEMENT_3D('',#12,#13,#14);
#12 = CARTESIAN_POINT('',(0.,0.,0.));
#13 = DIRECTION('',(0.,0.,1.));
#14 = DIRECTION('',(1.,0.,-0.));
#15 = AXIS2_PLACEMENT_3D('',#16,#17,#18);
#16 = CARTESIAN_POINT('',(0.,8.881784197001E-16,9.7000001));
#17 = DIRECTION('',(0.,-1.224646799147E-16,-1.));
#18 = DIRECTION('',(1.,0.,0.));
#19 = ( GEOMETRIC_REPRESENTATION_CONTEXT(3) 
GLOBAL_UNCERTAINTY_ASSIGNED_CONTEXT((#23)) GLOBAL_UNIT_ASSIGNED_CONTEXT(
(#20,#21,#22)) REPRESENTATION_CONTEXT('Context #1',
  '3D Context with UNIT and UNCERTAINTY') );
#20 = ( LENGTH_UNIT() NAMED_UNIT(*) SI_UNIT(.MILLI.,.METRE.) );
#21 = ( NAMED_UNIT(*) PLANE_ANGLE_UNIT() SI_UNIT($,.RADIAN.) );
#22 = ( NAMED_UNIT(*) SI_UNIT($,.STERADIAN.) SOLID_ANGLE_UNIT() );
#23 = UNCERTAINTY_MEASURE_WITH_UNIT(LENGTH_MEASURE(1.E-07),#20,
  'distance_accuracy_value','confusion accuracy');
#24 = PRODUCT_RELATED_PRODUCT_CATEGORY('part',$,(#7));
#25 = SHAPE_DEFINITION_REPRESENTATION(#26,#32);
#26 = PRODUCT_DEFINITION_SHAPE('','',#27);
#27 = PRODUCT_DEFINITION('design','',#28,#31);
#28 = PRODUCT_DEFINITION_FORMATION('','',#29);
#29 = PRODUCT('tpu_pad4_print','tpu_pad4_print','',(#30));
#30 = PRODUCT_CONTEXT('',#2,'mechanical');
#31 = PRODUCT_DEFINITION_CONTEXT('part definition',#2,'design');
#32 = ADVANCED_BREP_SHAPE_REPRESENTATION('',(#11,#33),#1017);
#33 = MANIFOLD_SOLID_BREP('',#34);
#34 = CLOSED_SHELL('',(#35,#599,#603,#753,#802,#851,#878,#927,#976,#1003
    ,#1010));
#35 = ADVANCED_FACE('',(#36),#137,.T.);
#36 = FACE_BOUND('',#37,.T.);
#37 = EDGE_LOOP('',(#38,#338,#361,#390,#416,#445,#471,#495,#521,#550,
    #576,#598));
#38 = ORIENTED_EDGE('',*,*,#39,.T.);
#39 = EDGE_CURVE('',#40,#40,#42,.T.);
#40 = VERTEX_POINT('',#41);
#41 = CARTESIAN_POINT('',(6.15,-1.506315562951E-15,4.958578425315));
#42 = SURFACE_CURVE('',#43,(#136,#237),.PCURVE_S1.);
#43 = B_SPLINE_CURVE_WITH_KNOTS('',6,(#44,#45,#46,#47,#48,#49,#50,#51,
    #52,#53,#54,#55,#56,#57,#58,#59,#60,#61,#62,#63,#64,#65,#66,#67,#68,
    #69,#70,#71,#72,#73,#74,#75,#76,#77,#78,#79,#80,#81,#82,#83,#84,#85,
    #86,#87,#88,#89,#90,#91,#92,#93,#94,#95,#96,#97,#98,#99,#100,#101,
    #102,#103,#104,#105,#106,#107,#108,#109,#110,#111,#112,#113,#114,
    #115,#116,#117,#118,#119,#120,#121,#122,#123,#124,#125,#126,#127,
    #128,#129,#130,#131,#132,#133,#134,#135),.UNSPECIFIED.,.T.,.F.,(7,5,
    5,5,5,5,5,5,5,5,5,5,5,5,5,5,5,5,7),(0.,4.72945977977E-02,
    0.106603255684,0.175453069551,0.219955170667,0.271204467957,
    0.325252677902,0.391416242089,0.453158727315,0.499738808272,
    0.547082845082,0.606453499786,0.675375282985,0.719923902552,
    0.771226771142,0.825331478061,0.891564203482,0.95337122856,1.),
  .UNSPECIFIED.);
#44 = CARTESIAN_POINT('',(6.15,-1.7763568394E-15,4.958578425315));
#45 = CARTESIAN_POINT('',(6.15,0.283592402288,4.958578425315));
#46 = CARTESIAN_POINT('',(6.134307634633,0.566043828553,4.978041013451)
  );
#47 = CARTESIAN_POINT('',(6.103157973173,0.846298375489,5.016676340381)
  );
#48 = CARTESIAN_POINT('',(6.056881047143,1.12314171367,5.07312430202));
#49 = CARTESIAN_POINT('',(5.996004918833,1.394931389361,5.144944712784)
  );
#50 = CARTESIAN_POINT('',(5.828998566949,1.990944954885,5.334086787433)
  );
#51 = CARTESIAN_POINT('',(5.714890906952,2.312417037589,5.458797315432)
  );
#52 = CARTESIAN_POINT('',(5.580540845145,2.624118605745,5.598445643485)
  );
#53 = CARTESIAN_POINT('',(5.42629467321,2.926008506241,5.748884127852));
#54 = CARTESIAN_POINT('',(5.252102386886,3.217946369184,5.906754683657)
  );
#55 = CARTESIAN_POINT('',(4.831050173581,3.826417981009,6.257607170477)
  );
#56 = CARTESIAN_POINT('',(4.577242371323,4.1390168025,6.451957785631));
#57 = CARTESIAN_POINT('',(4.29396142402,4.437988492181,6.648276262759));
#58 = CARTESIAN_POINT('',(3.978163540929,4.722217909631,6.843079851757)
  );
#59 = CARTESIAN_POINT('',(3.626250013203,4.98843259303,7.031659863295));
#60 = CARTESIAN_POINT('',(2.982086504036,5.386843635617,7.320792551038)
  );
#61 = CARTESIAN_POINT('',(2.711786106927,5.533735660296,7.429322515965)
  );
#62 = CARTESIAN_POINT('',(2.423759152625,5.668801083432,7.53062035096));
#63 = CARTESIAN_POINT('',(2.117867159366,5.789478175885,7.622204532692)
  );
#64 = CARTESIAN_POINT('',(1.794249065109,5.892894328817,7.701357123756)
  );
#65 = CARTESIAN_POINT('',(1.060924771708,6.071252550477,7.838615403206)
  );
#66 = CARTESIAN_POINT('',(0.644183574905,6.139846336998,7.89197720789));
#67 = CARTESIAN_POINT('',(0.213326744893,6.173869440112,7.91867740253));
#68 = CARTESIAN_POINT('',(-0.221013658341,6.170190263849,7.915725129362)
  );
#69 = CARTESIAN_POINT('',(-0.648026856384,6.129863118032,7.884204109801)
  );
#70 = CARTESIAN_POINT('',(-1.489056482473,5.983079950841,7.770615712959)
  );
#71 = CARTESIAN_POINT('',(-1.897553796648,5.873749805221,7.686358779057)
  );
#72 = CARTESIAN_POINT('',(-2.280956242232,5.736294180793,7.581292007845)
  );
#73 = CARTESIAN_POINT('',(-2.638231729536,5.576016509034,7.460421133507)
  );
#74 = CARTESIAN_POINT('',(-2.968998477183,5.397850322581,7.328497407516)
  );
#75 = CARTESIAN_POINT('',(-3.645915656593,4.972270453969,7.020318917444)
  );
#76 = CARTESIAN_POINT('',(-3.982384728789,4.71609276715,6.839166790522)
  );
#77 = CARTESIAN_POINT('',(-4.28565508047,4.443333106014,6.652352191494)
  );
#78 = CARTESIAN_POINT('',(-4.558902062896,4.156871658877,6.464037527001)
  );
#79 = CARTESIAN_POINT('',(-4.80483103252,3.857741536371,6.277351123557)
  );
#80 = CARTESIAN_POINT('',(-5.230773297668,3.254030249261,5.926214330625)
  );
#81 = CARTESIAN_POINT('',(-5.413934491134,2.95137202578,5.761241317704)
  );
#82 = CARTESIAN_POINT('',(-5.575515935109,2.637953121578,5.604060087705)
  );
#83 = CARTESIAN_POINT('',(-5.715593256161,2.313932578852,5.45840450265)
  );
#84 = CARTESIAN_POINT('',(-5.833787687988,1.979363490317,5.328947377384)
  );
#85 = CARTESIAN_POINT('',(-6.00083850193,1.373153460019,5.139236555603)
  );
#86 = CARTESIAN_POINT('',(-6.059819745975,1.105416343569,5.069539259917)
  );
#87 = CARTESIAN_POINT('',(-6.104645290755,0.832829347892,5.014831560544)
  );
#88 = CARTESIAN_POINT('',(-6.134809960271,0.556970121606,4.977418018272)
  );
#89 = CARTESIAN_POINT('',(-6.15,0.279016280557,4.958578425315));
#90 = CARTESIAN_POINT('',(-6.15,-0.283592402288,4.958578425315));
#91 = CARTESIAN_POINT('',(-6.134307634633,-0.566043828553,4.978041013451
    ));
#92 = CARTESIAN_POINT('',(-6.103157973173,-0.846298375489,5.016676340381
    ));
#93 = CARTESIAN_POINT('',(-6.056881047143,-1.12314171367,5.07312430202)
  );
#94 = CARTESIAN_POINT('',(-5.996004918833,-1.394931389361,5.144944712784
    ));
#95 = CARTESIAN_POINT('',(-5.828998568503,-1.990944949341,5.334086785674
    ));
#96 = CARTESIAN_POINT('',(-5.71489090063,-2.312417054464,5.458797321857)
  );
#97 = CARTESIAN_POINT('',(-5.580540855603,-2.624118583134,5.598445633593
    ));
#98 = CARTESIAN_POINT('',(-5.426294664664,-2.926008521496,5.748884135447
    ));
#99 = CARTESIAN_POINT('',(-5.252102389973,-3.217946364722,5.906754681084
    ));
#100 = CARTESIAN_POINT('',(-4.831050173581,-3.826417981009,
    6.257607170477));
#101 = CARTESIAN_POINT('',(-4.577242371323,-4.139016802501,
    6.451957785631));
#102 = CARTESIAN_POINT('',(-4.29396142402,-4.437988492181,6.648276262759
    ));
#103 = CARTESIAN_POINT('',(-3.978163540929,-4.722217909631,
    6.843079851758));
#104 = CARTESIAN_POINT('',(-3.626250013203,-4.98843259303,7.031659863295
    ));
#105 = CARTESIAN_POINT('',(-2.982086504027,-5.386843635623,
    7.320792551042));
#106 = CARTESIAN_POINT('',(-2.711786106938,-5.533735660288,
    7.429322515959));
#107 = CARTESIAN_POINT('',(-2.42375915263,-5.668801083434,7.530620350962
    ));
#108 = CARTESIAN_POINT('',(-2.117867159351,-5.789478175888,
    7.622204532695));
#109 = CARTESIAN_POINT('',(-1.794249065114,-5.892894328816,
    7.701357123754));
#110 = CARTESIAN_POINT('',(-1.060924772124,-6.071252550375,
    7.838615403128));
#111 = CARTESIAN_POINT('',(-0.644183574786,-6.139846337097,
    7.891977207965));
#112 = CARTESIAN_POINT('',(-0.213326744476,-6.173869440125,
    7.918677402541));
#113 = CARTESIAN_POINT('',(0.221013658455,-6.17019026376,7.915725129292)
  );
#114 = CARTESIAN_POINT('',(0.648026855962,-6.129863118105,7.884204109858
    ));
#115 = CARTESIAN_POINT('',(1.489056482503,-5.983079950836,7.770615712955
    ));
#116 = CARTESIAN_POINT('',(1.897553796602,-5.873749805225,7.686358779061
    ));
#117 = CARTESIAN_POINT('',(2.280956242239,-5.736294180806,7.581292007854
    ));
#118 = CARTESIAN_POINT('',(2.638231729565,-5.576016509012,7.460421133491
    ));
#119 = CARTESIAN_POINT('',(2.968998477166,-5.397850322592,7.328497407524
    ));
#120 = CARTESIAN_POINT('',(3.645915656593,-4.972270453969,7.020318917444
    ));
#121 = CARTESIAN_POINT('',(3.98238472879,-4.71609276715,6.839166790522)
  );
#122 = CARTESIAN_POINT('',(4.28565508047,-4.443333106015,6.652352191494)
  );
#123 = CARTESIAN_POINT('',(4.558902062897,-4.156871658876,6.464037527));
#124 = CARTESIAN_POINT('',(4.80483103252,-3.857741536371,6.277351123557)
  );
#125 = CARTESIAN_POINT('',(5.230773297668,-3.254030249261,5.926214330624
    ));
#126 = CARTESIAN_POINT('',(5.413934491133,-2.951372025781,5.761241317705
    ));
#127 = CARTESIAN_POINT('',(5.57551593511,-2.637953121577,5.604060087704)
  );
#128 = CARTESIAN_POINT('',(5.715593256161,-2.313932578852,5.45840450265)
  );
#129 = CARTESIAN_POINT('',(5.833787687988,-1.979363490317,5.328947377384
    ));
#130 = CARTESIAN_POINT('',(6.00083850193,-1.373153460019,5.139236555603)
  );
#131 = CARTESIAN_POINT('',(6.059819745975,-1.105416343569,5.069539259917
    ));
#132 = CARTESIAN_POINT('',(6.104645290755,-0.832829347892,5.014831560544
    ));
#133 = CARTESIAN_POINT('',(6.134809960271,-0.556970121606,4.977418018272
    ));
#134 = CARTESIAN_POINT('',(6.15,-0.279016280557,4.958578425315));
#135 = CARTESIAN_POINT('',(6.15,-1.7763568394E-15,4.958578425315));
#136 = PCURVE('',#137,#142);
#137 = CYLINDRICAL_SURFACE('',#138,6.15);
#138 = AXIS2_PLACEMENT_3D('',#139,#140,#141);
#139 = CARTESIAN_POINT('',(0.,0.,0.));
#140 = DIRECTION('',(0.,0.,1.));
#141 = DIRECTION('',(1.,0.,-0.));
#142 = DEFINITIONAL_REPRESENTATION('',(#143),#236);
#143 = B_SPLINE_CURVE_WITH_KNOTS('',6,(#144,#145,#146,#147,#148,#149,
    #150,#151,#152,#153,#154,#155,#156,#157,#158,#159,#160,#161,#162,
    #163,#164,#165,#166,#167,#168,#169,#170,#171,#172,#173,#174,#175,
    #176,#177,#178,#179,#180,#181,#182,#183,#184,#185,#186,#187,#188,
    #189,#190,#191,#192,#193,#194,#195,#196,#197,#198,#199,#200,#201,
    #202,#203,#204,#205,#206,#207,#208,#209,#210,#211,#212,#213,#214,
    #215,#216,#217,#218,#219,#220,#221,#222,#223,#224,#225,#226,#227,
    #228,#229,#230,#231,#232,#233,#234,#235),.UNSPECIFIED.,.F.,.F.,(7,5,
    5,5,5,5,5,5,5,5,5,5,5,5,5,5,5,5,7),(0.,4.72945977977E-02,
    0.106603255684,0.175453069551,0.219955170667,0.271204467957,
    0.325252677902,0.391416242089,0.453158727315,0.499738808272,
    0.547082845082,0.606453499786,0.675375282985,0.719923902552,
    0.771226771142,0.825331478061,0.891564203482,0.95337122856,1.),
  .UNSPECIFIED.);
#144 = CARTESIAN_POINT('',(0.,4.958578425315));
#145 = CARTESIAN_POINT('',(4.611258573795E-02,4.958578425315));
#146 = CARTESIAN_POINT('',(9.203956793965E-02,4.978041013451));
#147 = CARTESIAN_POINT('',(0.137786290481,5.016676340381));
#148 = CARTESIAN_POINT('',(0.183322834922,5.07312430202));
#149 = CARTESIAN_POINT('',(0.228547950771,5.144944712784));
#150 = CARTESIAN_POINT('',(0.329193404483,5.334086787433));
#151 = CARTESIAN_POINT('',(0.384532936744,5.458797315432));
#152 = CARTESIAN_POINT('',(0.439545970698,5.598445643485));
#153 = CARTESIAN_POINT('',(0.494493330722,5.748884127852));
#154 = CARTESIAN_POINT('',(0.549645684934,5.906754683657));
#155 = CARTESIAN_POINT('',(0.669962391811,6.257607170477));
#156 = CARTESIAN_POINT('',(0.735243860149,6.451957785631));
#157 = CARTESIAN_POINT('',(0.801914865849,6.648276262759));
#158 = CARTESIAN_POINT('',(0.870648507641,6.843079851757));
#159 = CARTESIAN_POINT('',(0.942084030397,7.031659863295));
#160 = CARTESIAN_POINT('',(1.065240994977,7.320792551038));
#161 = CARTESIAN_POINT('',(1.115184311606,7.429322515965));
#162 = CARTESIAN_POINT('',(1.166770796929,7.53062035096));
#163 = CARTESIAN_POINT('',(1.220071524243,7.622204532692));
#164 = CARTESIAN_POINT('',(1.275175815946,7.701357123756));
#165 = CARTESIAN_POINT('',(1.397891703109,7.838615403206));
#166 = CARTESIAN_POINT('',(1.466370910071,7.89197720789));
#167 = CARTESIAN_POINT('',(1.5362616531,7.91867740253));
#168 = CARTESIAN_POINT('',(1.606492418987,7.915725129362));
#169 = CARTESIAN_POINT('',(1.676018955117,7.884204109801));
#170 = CARTESIAN_POINT('',(1.8148388618,7.770615712959));
#171 = CARTESIAN_POINT('',(1.883328633384,7.686358779057));
#172 = CARTESIAN_POINT('',(1.949235626382,7.581292007845));
#173 = CARTESIAN_POINT('',(2.012647209082,7.460421133507));
#174 = CARTESIAN_POINT('',(2.073598808467,7.328497407516));
#175 = CARTESIAN_POINT('',(2.203612519805,7.020318917444));
#176 = CARTESIAN_POINT('',(2.272100708906,6.839166790522));
#177 = CARTESIAN_POINT('',(2.338112227191,6.652352191494));
#178 = CARTESIAN_POINT('',(2.402217008771,6.464037527001));
#179 = CARTESIAN_POINT('',(2.465013352687,6.277351123557));
#180 = CARTESIAN_POINT('',(2.585150992858,5.926214330625));
#181 = CARTESIAN_POINT('',(2.64253228447,5.761241317704));
#182 = CARTESIAN_POINT('',(2.699670295314,5.604060087705));
#183 = CARTESIAN_POINT('',(2.756869691465,5.45840450265));
#184 = CARTESIAN_POINT('',(2.814422154004,5.328947377384));
#185 = CARTESIAN_POINT('',(2.916666978995,5.139236555603));
#186 = CARTESIAN_POINT('',(2.961184858599,5.069539259917));
#187 = CARTESIAN_POINT('',(3.006004882177,5.014831560544));
#188 = CARTESIAN_POINT('',(3.051028478196,4.977418018272));
#189 = CARTESIAN_POINT('',(3.096224152686,4.958578425315));
#190 = CARTESIAN_POINT('',(3.187705239328,4.958578425315));
#191 = CARTESIAN_POINT('',(3.233632221529,4.978041013451));
#192 = CARTESIAN_POINT('',(3.27937894407,5.016676340381));
#193 = CARTESIAN_POINT('',(3.324915488512,5.07312430202));
#194 = CARTESIAN_POINT('',(3.370140604361,5.144944712784));
#195 = CARTESIAN_POINT('',(3.470786057137,5.334086785674));
#196 = CARTESIAN_POINT('',(3.526125593289,5.458797321857));
#197 = CARTESIAN_POINT('',(3.581138620191,5.598445633593));
#198 = CARTESIAN_POINT('',(3.636085987182,5.748884135447));
#199 = CARTESIAN_POINT('',(3.691238337641,5.906754681084));
#200 = CARTESIAN_POINT('',(3.811555045401,6.257607170477));
#201 = CARTESIAN_POINT('',(3.876836513739,6.451957785631));
#202 = CARTESIAN_POINT('',(3.943507519439,6.648276262759));
#203 = CARTESIAN_POINT('',(4.012241161231,6.843079851758));
#204 = CARTESIAN_POINT('',(4.083676683987,7.031659863295));
#205 = CARTESIAN_POINT('',(4.206833648568,7.320792551042));
#206 = CARTESIAN_POINT('',(4.256776965194,7.429322515959));
#207 = CARTESIAN_POINT('',(4.308363450518,7.530620350962));
#208 = CARTESIAN_POINT('',(4.361664177835,7.622204532695));
#209 = CARTESIAN_POINT('',(4.416768469534,7.701357123754));
#210 = CARTESIAN_POINT('',(4.539484356629,7.838615403128));
#211 = CARTESIAN_POINT('',(4.607963563683,7.891977207965));
#212 = CARTESIAN_POINT('',(4.677854306754,7.918677402541));
#213 = CARTESIAN_POINT('',(4.748085072598,7.915725129292));
#214 = CARTESIAN_POINT('',(4.817611608637,7.884204109858));
#215 = CARTESIAN_POINT('',(4.956431515395,7.770615712955));
#216 = CARTESIAN_POINT('',(5.024921286966,7.686358779061));
#217 = CARTESIAN_POINT('',(5.090828279972,7.581292007854));
#218 = CARTESIAN_POINT('',(5.154239862677,7.460421133491));
#219 = CARTESIAN_POINT('',(5.215191462054,7.328497407524));
#220 = CARTESIAN_POINT('',(5.345205173395,7.020318917444));
#221 = CARTESIAN_POINT('',(5.413693362496,6.839166790522));
#222 = CARTESIAN_POINT('',(5.479704880781,6.652352191494));
#223 = CARTESIAN_POINT('',(5.543809662361,6.464037527));
#224 = CARTESIAN_POINT('',(5.606606006277,6.277351123557));
#225 = CARTESIAN_POINT('',(5.726743646448,5.926214330624));
#226 = CARTESIAN_POINT('',(5.784124938059,5.761241317705));
#227 = CARTESIAN_POINT('',(5.841262948904,5.604060087704));
#228 = CARTESIAN_POINT('',(5.898462345055,5.45840450265));
#229 = CARTESIAN_POINT('',(5.956014807594,5.328947377384));
#230 = CARTESIAN_POINT('',(6.058259632585,5.139236555603));
#231 = CARTESIAN_POINT('',(6.102777512188,5.069539259917));
#232 = CARTESIAN_POINT('',(6.147597535767,5.014831560544));
#233 = CARTESIAN_POINT('',(6.192621131785,4.977418018272));
#234 = CARTESIAN_POINT('',(6.237816806276,4.958578425315));
#235 = CARTESIAN_POINT('',(6.28318530718,4.958578425315));
#236 = ( GEOMETRIC_REPRESENTATION_CONTEXT(2) 
PARAMETRIC_REPRESENTATION_CONTEXT() REPRESENTATION_CONTEXT('2D SPACE',''
  ) );
#237 = PCURVE('',#238,#243);
#238 = CYLINDRICAL_SURFACE('',#239,7.9);
#239 = AXIS2_PLACEMENT_3D('',#240,#241,#242);
#240 = CARTESIAN_POINT('',(0.,7.15,-1.587618925214E-15));
#241 = DIRECTION('',(0.,-1.,2.22044604925E-16));
#242 = DIRECTION('',(1.,0.,0.));
#243 = DEFINITIONAL_REPRESENTATION('',(#244),#337);
#244 = B_SPLINE_CURVE_WITH_KNOTS('',6,(#245,#246,#247,#248,#249,#250,
    #251,#252,#253,#254,#255,#256,#257,#258,#259,#260,#261,#262,#263,
    #264,#265,#266,#267,#268,#269,#270,#271,#272,#273,#274,#275,#276,
    #277,#278,#279,#280,#281,#282,#283,#284,#285,#286,#287,#288,#289,
    #290,#291,#292,#293,#294,#295,#296,#297,#298,#299,#300,#301,#302,
    #303,#304,#305,#306,#307,#308,#309,#310,#311,#312,#313,#314,#315,
    #316,#317,#318,#319,#320,#321,#322,#323,#324,#325,#326,#327,#328,
    #329,#330,#331,#332,#333,#334,#335,#336),.UNSPECIFIED.,.T.,.F.,(7,5,
    5,5,5,5,5,5,5,5,5,5,5,5,5,5,5,5,7),(0.,4.72945977977E-02,
    0.106603255684,0.175453069551,0.219955170667,0.271204467957,
    0.325252677902,0.391416242089,0.453158727315,0.499738808272,
    0.547082845082,0.606453499786,0.675375282985,0.719923902552,
    0.771226771142,0.825331478061,0.891564203482,0.95337122856,1.),
  .UNSPECIFIED.);
#245 = CARTESIAN_POINT('',(0.678554203243,7.15));
#246 = CARTESIAN_POINT('',(0.678554203243,6.866407597712));
#247 = CARTESIAN_POINT('',(0.681718824722,6.583956171447));
#248 = CARTESIAN_POINT('',(0.68800112146,6.303701624511));
#249 = CARTESIAN_POINT('',(0.697239877318,6.02685828633));
#250 = CARTESIAN_POINT('',(0.709155013199,5.755068610639));
#251 = CARTESIAN_POINT('',(0.741094369986,5.159055045115));
#252 = CARTESIAN_POINT('',(0.762488077291,4.837582962411));
#253 = CARTESIAN_POINT('',(0.787004900827,4.525881394255));
#254 = CARTESIAN_POINT('',(0.814254329091,4.223991493759));
#255 = CARTESIAN_POINT('',(0.843986580313,3.932053630816));
#256 = CARTESIAN_POINT('',(0.913362727028,3.323582018991));
#257 = CARTESIAN_POINT('',(0.953793297445,3.0109831975));
#258 = CARTESIAN_POINT('',(0.997342464252,2.712011507819));
#259 = CARTESIAN_POINT('',(1.04419701638,2.427782090369));
#260 = CARTESIAN_POINT('',(1.094611927942,2.16156740697));
#261 = CARTESIAN_POINT('',(1.183988728224,1.763156364383));
#262 = CARTESIAN_POINT('',(1.22082935148,1.616264339704));
#263 = CARTESIAN_POINT('',(1.259419972551,1.481198916568));
#264 = CARTESIAN_POINT('',(1.299764567489,1.360521824115));
#265 = CARTESIAN_POINT('',(1.341872972041,1.257105671183));
#266 = CARTESIAN_POINT('',(1.436310847552,1.078747449523));
#267 = CARTESIAN_POINT('',(1.489405436559,1.010153663002));
#268 = CARTESIAN_POINT('',(1.543866164726,0.976130559888));
#269 = CARTESIAN_POINT('',(1.598657187887,0.979809736151));
#270 = CARTESIAN_POINT('',(1.652757475354,1.020136881968));
#271 = CARTESIAN_POINT('',(1.760183489874,1.166920049159));
#272 = CARTESIAN_POINT('',(1.812854272255,1.276250194779));
#273 = CARTESIAN_POINT('',(1.863031353786,1.413705819207));
#274 = CARTESIAN_POINT('',(1.910667300061,1.573983490966));
#275 = CARTESIAN_POINT('',(1.955692531459,1.752149677419));
#276 = CARTESIAN_POINT('',(2.049840380556,2.177729546031));
#277 = CARTESIAN_POINT('',(2.09810455027,2.43390723285));
#278 = CARTESIAN_POINT('',(2.143091350104,2.706666893985));
#279 = CARTESIAN_POINT('',(2.185027646412,2.993128341124));
#280 = CARTESIAN_POINT('',(2.224079788029,3.292258463629));
#281 = CARTESIAN_POINT('',(2.293955482887,3.895969750739));
#282 = CARTESIAN_POINT('',(2.325128712457,4.198627974219));
#283 = CARTESIAN_POINT('',(2.353635271254,4.512046878423));
#284 = CARTESIAN_POINT('',(2.379201179733,4.836067421147));
#285 = CARTESIAN_POINT('',(2.401387175549,5.170636509683));
#286 = CARTESIAN_POINT('',(2.433384253793,5.776846539981));
#287 = CARTESIAN_POINT('',(2.444939499557,6.044583656431));
#288 = CARTESIAN_POINT('',(2.453891507522,6.317170652108));
#289 = CARTESIAN_POINT('',(2.45997512596,6.593029878394));
#290 = CARTESIAN_POINT('',(2.463038450347,6.870983719443));
#291 = CARTESIAN_POINT('',(2.463038450347,7.433592402288));
#292 = CARTESIAN_POINT('',(2.459873828868,7.716043828553));
#293 = CARTESIAN_POINT('',(2.45359153213,7.996298375489));
#294 = CARTESIAN_POINT('',(2.444352776272,8.27314171367));
#295 = CARTESIAN_POINT('',(2.432437640391,8.544931389361));
#296 = CARTESIAN_POINT('',(2.400498283901,9.140944949341));
#297 = CARTESIAN_POINT('',(2.379104575155,9.462417054464));
#298 = CARTESIAN_POINT('',(2.354587754589,9.774118583134));
#299 = CARTESIAN_POINT('',(2.327338323049,10.076008521496));
#300 = CARTESIAN_POINT('',(2.297606073786,10.367946364722));
#301 = CARTESIAN_POINT('',(2.228229926562,10.976417981009));
#302 = CARTESIAN_POINT('',(2.187799356144,11.289016802501));
#303 = CARTESIAN_POINT('',(2.144250189338,11.58798849218));
#304 = CARTESIAN_POINT('',(2.09739563721,11.872217909631));
#305 = CARTESIAN_POINT('',(2.046980725647,12.13843259303));
#306 = CARTESIAN_POINT('',(1.957603925365,12.536843635623));
#307 = CARTESIAN_POINT('',(1.920763302112,12.683735660288));
#308 = CARTESIAN_POINT('',(1.882172681039,12.818801083434));
#309 = CARTESIAN_POINT('',(1.841828086099,12.939478175888));
#310 = CARTESIAN_POINT('',(1.799719681549,13.042894328816));
#311 = CARTESIAN_POINT('',(1.705281806092,13.221252550375));
#312 = CARTESIAN_POINT('',(1.652187217014,13.289846337097));
#313 = CARTESIAN_POINT('',(1.597726488812,13.323869440125));
#314 = CARTESIAN_POINT('',(1.542935465687,13.32019026376));
#315 = CARTESIAN_POINT('',(1.48883517829,13.279863118105));
#316 = CARTESIAN_POINT('',(1.381409163712,13.133079950836));
#317 = CARTESIAN_POINT('',(1.328738381341,13.023749805226));
#318 = CARTESIAN_POINT('',(1.278561299803,12.886294180806));
#319 = CARTESIAN_POINT('',(1.230925353525,12.726016509012));
#320 = CARTESIAN_POINT('',(1.185900122133,12.547850322592));
#321 = CARTESIAN_POINT('',(1.091752273033,12.122270453969));
#322 = CARTESIAN_POINT('',(1.043488103319,11.86609276715));
#323 = CARTESIAN_POINT('',(0.998501303485,11.593333106015));
#324 = CARTESIAN_POINT('',(0.956565007178,11.306871658876));
#325 = CARTESIAN_POINT('',(0.91751286556,11.007741536371));
#326 = CARTESIAN_POINT('',(0.847637170703,10.404030249261));
#327 = CARTESIAN_POINT('',(0.816463941133,10.101372025781));
#328 = CARTESIAN_POINT('',(0.787957382336,9.787953121577));
#329 = CARTESIAN_POINT('',(0.762391473857,9.463932578852));
#330 = CARTESIAN_POINT('',(0.740205478041,9.129363490317));
#331 = CARTESIAN_POINT('',(0.708208399797,8.523153460019));
#332 = CARTESIAN_POINT('',(0.696653154033,8.255416343569));
#333 = CARTESIAN_POINT('',(0.687701146068,7.982829347892));
#334 = CARTESIAN_POINT('',(0.68161752763,7.706970121606));
#335 = CARTESIAN_POINT('',(0.678554203243,7.429016280557));
#336 = CARTESIAN_POINT('',(0.678554203243,7.15));
#337 = ( GEOMETRIC_REPRESENTATION_CONTEXT(2) 
PARAMETRIC_REPRESENTATION_CONTEXT() REPRESENTATION_CONTEXT('2D SPACE',''
  ) );
#338 = ORIENTED_EDGE('',*,*,#339,.T.);
#339 = EDGE_CURVE('',#40,#340,#342,.T.);
#340 = VERTEX_POINT('',#341);
#341 = CARTESIAN_POINT('',(6.15,-1.506315562951E-15,9.7));
#342 = SEAM_CURVE('',#343,(#347,#354),.PCURVE_S1.);
#343 = LINE('',#344,#345);
#344 = CARTESIAN_POINT('',(6.15,-1.506315562951E-15,0.));
#345 = VECTOR('',#346,1.);
#346 = DIRECTION('',(0.,0.,1.));
#347 = PCURVE('',#137,#348);
#348 = DEFINITIONAL_REPRESENTATION('',(#349),#353);
#349 = LINE('',#350,#351);
#350 = CARTESIAN_POINT('',(0.,-0.));
#351 = VECTOR('',#352,1.);
#352 = DIRECTION('',(0.,1.));
#353 = ( GEOMETRIC_REPRESENTATION_CONTEXT(2) 
PARAMETRIC_REPRESENTATION_CONTEXT() REPRESENTATION_CONTEXT('2D SPACE',''
  ) );
#354 = PCURVE('',#137,#355);
#355 = DEFINITIONAL_REPRESENTATION('',(#356),#360);
#356 = LINE('',#357,#358);
#357 = CARTESIAN_POINT('',(6.28318530718,-0.));
#358 = VECTOR('',#359,1.);
#359 = DIRECTION('',(0.,1.));
#360 = ( GEOMETRIC_REPRESENTATION_CONTEXT(2) 
PARAMETRIC_REPRESENTATION_CONTEXT() REPRESENTATION_CONTEXT('2D SPACE',''
  ) );
#361 = ORIENTED_EDGE('',*,*,#362,.F.);
#362 = EDGE_CURVE('',#363,#340,#365,.T.);
#363 = VERTEX_POINT('',#364);
#364 = CARTESIAN_POINT('',(0.8,-6.097745485013,9.7));
#365 = SURFACE_CURVE('',#366,(#371,#378),.PCURVE_S1.);
#366 = CIRCLE('',#367,6.15);
#367 = AXIS2_PLACEMENT_3D('',#368,#369,#370);
#368 = CARTESIAN_POINT('',(0.,0.,9.7));
#369 = DIRECTION('',(0.,0.,1.));
#370 = DIRECTION('',(1.,0.,-0.));
#371 = PCURVE('',#137,#372);
#372 = DEFINITIONAL_REPRESENTATION('',(#373),#377);
#373 = LINE('',#374,#375);
#374 = CARTESIAN_POINT('',(0.,9.7));
#375 = VECTOR('',#376,1.);
#376 = DIRECTION('',(1.,0.));
#377 = ( GEOMETRIC_REPRESENTATION_CONTEXT(2) 
PARAMETRIC_REPRESENTATION_CONTEXT() REPRESENTATION_CONTEXT('2D SPACE',''
  ) );
#378 = PCURVE('',#379,#384);
#379 = PLANE('',#380);
#380 = AXIS2_PLACEMENT_3D('',#381,#382,#383);
#381 = CARTESIAN_POINT('',(0.,0.,9.7));
#382 = DIRECTION('',(0.,0.,1.));
#383 = DIRECTION('',(1.,0.,-0.));
#384 = DEFINITIONAL_REPRESENTATION('',(#385),#389);
#385 = CIRCLE('',#386,6.15);
#386 = AXIS2_PLACEMENT_2D('',#387,#388);
#387 = CARTESIAN_POINT('',(0.,0.));
#388 = DIRECTION('',(1.,0.));
#389 = ( GEOMETRIC_REPRESENTATION_CONTEXT(2) 
PARAMETRIC_REPRESENTATION_CONTEXT() REPRESENTATION_CONTEXT('2D SPACE',''
  ) );
#390 = ORIENTED_EDGE('',*,*,#391,.F.);
#391 = EDGE_CURVE('',#392,#363,#394,.T.);
#392 = VERTEX_POINT('',#393);
#393 = CARTESIAN_POINT('',(0.8,-6.097745485013,8.8));
#394 = SURFACE_CURVE('',#395,(#399,#405),.PCURVE_S1.);
#395 = LINE('',#396,#397);
#396 = CARTESIAN_POINT('',(0.8,-6.097745485013,0.));
#397 = VECTOR('',#398,1.);
#398 = DIRECTION('',(0.,0.,1.));
#399 = PCURVE('',#137,#400);
#400 = DEFINITIONAL_REPRESENTATION('',(#401),#404);
#401 = B_SPLINE_CURVE_WITH_KNOTS('',1,(#402,#403),.UNSPECIFIED.,.F.,.F.,
  (2,2),(8.71,9.7000006),.PIECEWISE_BEZIER_KNOTS.);
#402 = CARTESIAN_POINT('',(4.842839957166,8.71));
#403 = CARTESIAN_POINT('',(4.842839957166,9.7000006));
#404 = ( GEOMETRIC_REPRESENTATION_CONTEXT(2) 
PARAMETRIC_REPRESENTATION_CONTEXT() REPRESENTATION_CONTEXT('2D SPACE',''
  ) );
#405 = PCURVE('',#406,#411);
#406 = PLANE('',#407);
#407 = AXIS2_PLACEMENT_3D('',#408,#409,#410);
#408 = CARTESIAN_POINT('',(0.8,-5.65,8.8));
#409 = DIRECTION('',(-1.,1.224646799147E-16,0.));
#410 = DIRECTION('',(0.,0.,1.));
#411 = DEFINITIONAL_REPRESENTATION('',(#412),#415);
#412 = B_SPLINE_CURVE_WITH_KNOTS('',1,(#413,#414),.UNSPECIFIED.,.F.,.F.,
  (2,2),(8.71,9.7000006),.PIECEWISE_BEZIER_KNOTS.);
#413 = CARTESIAN_POINT('',(-9.E-02,-0.447745485013));
#414 = CARTESIAN_POINT('',(0.9000006,-0.447745485013));
#415 = ( GEOMETRIC_REPRESENTATION_CONTEXT(2) 
PARAMETRIC_REPRESENTATION_CONTEXT() REPRESENTATION_CONTEXT('2D SPACE',''
  ) );
#416 = ORIENTED_EDGE('',*,*,#417,.F.);
#417 = EDGE_CURVE('',#418,#392,#420,.T.);
#418 = VERTEX_POINT('',#419);
#419 = CARTESIAN_POINT('',(-0.8,-6.097745485013,8.8));
#420 = SURFACE_CURVE('',#421,(#426,#433),.PCURVE_S1.);
#421 = CIRCLE('',#422,6.15);
#422 = AXIS2_PLACEMENT_3D('',#423,#424,#425);
#423 = CARTESIAN_POINT('',(0.,0.,8.8));
#424 = DIRECTION('',(0.,0.,1.));
#425 = DIRECTION('',(1.,0.,-0.));
#426 = PCURVE('',#137,#427);
#427 = DEFINITIONAL_REPRESENTATION('',(#428),#432);
#428 = LINE('',#429,#430);
#429 = CARTESIAN_POINT('',(0.,8.8));
#430 = VECTOR('',#431,1.);
#431 = DIRECTION('',(1.,0.));
#432 = ( GEOMETRIC_REPRESENTATION_CONTEXT(2) 
PARAMETRIC_REPRESENTATION_CONTEXT() REPRESENTATION_CONTEXT('2D SPACE',''
  ) );
#433 = PCURVE('',#434,#439);
#434 = PLANE('',#435);
#435 = AXIS2_PLACEMENT_3D('',#436,#437,#438);
#436 = CARTESIAN_POINT('',(0.8,-5.65,8.8));
#437 = DIRECTION('',(0.,0.,1.));
#438 = DIRECTION('',(-1.,1.224646799147E-16,0.));
#439 = DEFINITIONAL_REPRESENTATION('',(#440),#444);
#440 = CIRCLE('',#441,6.15);
#441 = AXIS2_PLACEMENT_2D('',#442,#443);
#442 = CARTESIAN_POINT('',(0.8,-5.65));
#443 = DIRECTION('',(-1.,-1.224646799147E-16));
#444 = ( GEOMETRIC_REPRESENTATION_CONTEXT(2) 
PARAMETRIC_REPRESENTATION_CONTEXT() REPRESENTATION_CONTEXT('2D SPACE',''
  ) );
#445 = ORIENTED_EDGE('',*,*,#446,.T.);
#446 = EDGE_CURVE('',#418,#447,#449,.T.);
#447 = VERTEX_POINT('',#448);
#448 = CARTESIAN_POINT('',(-0.8,-6.097745485013,9.7));
#449 = SURFACE_CURVE('',#450,(#454,#460),.PCURVE_S1.);
#450 = LINE('',#451,#452);
#451 = CARTESIAN_POINT('',(-0.8,-6.097745485013,0.));
#452 = VECTOR('',#453,1.);
#453 = DIRECTION('',(0.,0.,1.));
#454 = PCURVE('',#137,#455);
#455 = DEFINITIONAL_REPRESENTATION('',(#456),#459);
#456 = B_SPLINE_CURVE_WITH_KNOTS('',1,(#457,#458),.UNSPECIFIED.,.F.,.F.,
  (2,2),(8.71,9.7000006),.PIECEWISE_BEZIER_KNOTS.);
#457 = CARTESIAN_POINT('',(4.581938003604,8.71));
#458 = CARTESIAN_POINT('',(4.581938003604,9.7000006));
#459 = ( GEOMETRIC_REPRESENTATION_CONTEXT(2) 
PARAMETRIC_REPRESENTATION_CONTEXT() REPRESENTATION_CONTEXT('2D SPACE',''
  ) );
#460 = PCURVE('',#461,#466);
#461 = PLANE('',#462);
#462 = AXIS2_PLACEMENT_3D('',#463,#464,#465);
#463 = CARTESIAN_POINT('',(-0.8,-5.65,8.8));
#464 = DIRECTION('',(-1.,1.224646799147E-16,0.));
#465 = DIRECTION('',(0.,0.,1.));
#466 = DEFINITIONAL_REPRESENTATION('',(#467),#470);
#467 = B_SPLINE_CURVE_WITH_KNOTS('',1,(#468,#469),.UNSPECIFIED.,.F.,.F.,
  (2,2),(8.71,9.7000006),.PIECEWISE_BEZIER_KNOTS.);
#468 = CARTESIAN_POINT('',(-9.E-02,-0.447745485013));
#469 = CARTESIAN_POINT('',(0.9000006,-0.447745485013));
#470 = ( GEOMETRIC_REPRESENTATION_CONTEXT(2) 
PARAMETRIC_REPRESENTATION_CONTEXT() REPRESENTATION_CONTEXT('2D SPACE',''
  ) );
#471 = ORIENTED_EDGE('',*,*,#472,.F.);
#472 = EDGE_CURVE('',#473,#447,#475,.T.);
#473 = VERTEX_POINT('',#474);
#474 = CARTESIAN_POINT('',(-0.8,6.097745485013,9.7));
#475 = SURFACE_CURVE('',#476,(#481,#488),.PCURVE_S1.);
#476 = CIRCLE('',#477,6.15);
#477 = AXIS2_PLACEMENT_3D('',#478,#479,#480);
#478 = CARTESIAN_POINT('',(0.,0.,9.7));
#479 = DIRECTION('',(0.,0.,1.));
#480 = DIRECTION('',(1.,0.,-0.));
#481 = PCURVE('',#137,#482);
#482 = DEFINITIONAL_REPRESENTATION('',(#483),#487);
#483 = LINE('',#484,#485);
#484 = CARTESIAN_POINT('',(0.,9.7));
#485 = VECTOR('',#486,1.);
#486 = DIRECTION('',(1.,0.));
#487 = ( GEOMETRIC_REPRESENTATION_CONTEXT(2) 
PARAMETRIC_REPRESENTATION_CONTEXT() REPRESENTATION_CONTEXT('2D SPACE',''
  ) );
#488 = PCURVE('',#379,#489);
#489 = DEFINITIONAL_REPRESENTATION('',(#490),#494);
#490 = CIRCLE('',#491,6.15);
#491 = AXIS2_PLACEMENT_2D('',#492,#493);
#492 = CARTESIAN_POINT('',(0.,0.));
#493 = DIRECTION('',(1.,0.));
#494 = ( GEOMETRIC_REPRESENTATION_CONTEXT(2) 
PARAMETRIC_REPRESENTATION_CONTEXT() REPRESENTATION_CONTEXT('2D SPACE',''
  ) );
#495 = ORIENTED_EDGE('',*,*,#496,.F.);
#496 = EDGE_CURVE('',#497,#473,#499,.T.);
#497 = VERTEX_POINT('',#498);
#498 = CARTESIAN_POINT('',(-0.8,6.097745485013,8.8));
#499 = SURFACE_CURVE('',#500,(#504,#510),.PCURVE_S1.);
#500 = LINE('',#501,#502);
#501 = CARTESIAN_POINT('',(-0.8,6.097745485013,0.));
#502 = VECTOR('',#503,1.);
#503 = DIRECTION('',(0.,0.,1.));
#504 = PCURVE('',#137,#505);
#505 = DEFINITIONAL_REPRESENTATION('',(#506),#509);
#506 = B_SPLINE_CURVE_WITH_KNOTS('',1,(#507,#508),.UNSPECIFIED.,.F.,.F.,
  (2,2),(8.71,9.7000006),.PIECEWISE_BEZIER_KNOTS.);
#507 = CARTESIAN_POINT('',(1.701247303576,8.71));
#508 = CARTESIAN_POINT('',(1.701247303576,9.7000006));
#509 = ( GEOMETRIC_REPRESENTATION_CONTEXT(2) 
PARAMETRIC_REPRESENTATION_CONTEXT() REPRESENTATION_CONTEXT('2D SPACE',''
  ) );
#510 = PCURVE('',#511,#516);
#511 = PLANE('',#512);
#512 = AXIS2_PLACEMENT_3D('',#513,#514,#515);
#513 = CARTESIAN_POINT('',(-0.8,5.65,8.8));
#514 = DIRECTION('',(1.,0.,-0.));
#515 = DIRECTION('',(0.,0.,1.));
#516 = DEFINITIONAL_REPRESENTATION('',(#517),#520);
#517 = B_SPLINE_CURVE_WITH_KNOTS('',1,(#518,#519),.UNSPECIFIED.,.F.,.F.,
  (2,2),(8.71,9.7000006),.PIECEWISE_BEZIER_KNOTS.);
#518 = CARTESIAN_POINT('',(-9.E-02,-0.447745485013));
#519 = CARTESIAN_POINT('',(0.9000006,-0.447745485013));
#520 = ( GEOMETRIC_REPRESENTATION_CONTEXT(2) 
PARAMETRIC_REPRESENTATION_CONTEXT() REPRESENTATION_CONTEXT('2D SPACE',''
  ) );
#521 = ORIENTED_EDGE('',*,*,#522,.F.);
#522 = EDGE_CURVE('',#523,#497,#525,.T.);
#523 = VERTEX_POINT('',#524);
#524 = CARTESIAN_POINT('',(0.8,6.097745485013,8.8));
#525 = SURFACE_CURVE('',#526,(#531,#538),.PCURVE_S1.);
#526 = CIRCLE('',#527,6.15);
#527 = AXIS2_PLACEMENT_3D('',#528,#529,#530);
#528 = CARTESIAN_POINT('',(0.,0.,8.8));
#529 = DIRECTION('',(0.,0.,1.));
#530 = DIRECTION('',(1.,0.,-0.));
#531 = PCURVE('',#137,#532);
#532 = DEFINITIONAL_REPRESENTATION('',(#533),#537);
#533 = LINE('',#534,#535);
#534 = CARTESIAN_POINT('',(0.,8.8));
#535 = VECTOR('',#536,1.);
#536 = DIRECTION('',(1.,0.));
#537 = ( GEOMETRIC_REPRESENTATION_CONTEXT(2) 
PARAMETRIC_REPRESENTATION_CONTEXT() REPRESENTATION_CONTEXT('2D SPACE',''
  ) );
#538 = PCURVE('',#539,#544);
#539 = PLANE('',#540);
#540 = AXIS2_PLACEMENT_3D('',#541,#542,#543);
#541 = CARTESIAN_POINT('',(-0.8,5.65,8.8));
#542 = DIRECTION('',(0.,0.,1.));
#543 = DIRECTION('',(1.,0.,-0.));
#544 = DEFINITIONAL_REPRESENTATION('',(#545),#549);
#545 = CIRCLE('',#546,6.15);
#546 = AXIS2_PLACEMENT_2D('',#547,#548);
#547 = CARTESIAN_POINT('',(0.8,-5.65));
#548 = DIRECTION('',(1.,0.));
#549 = ( GEOMETRIC_REPRESENTATION_CONTEXT(2) 
PARAMETRIC_REPRESENTATION_CONTEXT() REPRESENTATION_CONTEXT('2D SPACE',''
  ) );
#550 = ORIENTED_EDGE('',*,*,#551,.T.);
#551 = EDGE_CURVE('',#523,#552,#554,.T.);
#552 = VERTEX_POINT('',#553);
#553 = CARTESIAN_POINT('',(0.8,6.097745485013,9.7));
#554 = SURFACE_CURVE('',#555,(#559,#565),.PCURVE_S1.);
#555 = LINE('',#556,#557);
#556 = CARTESIAN_POINT('',(0.8,6.097745485013,0.));
#557 = VECTOR('',#558,1.);
#558 = DIRECTION('',(0.,0.,1.));
#559 = PCURVE('',#137,#560);
#560 = DEFINITIONAL_REPRESENTATION('',(#561),#564);
#561 = B_SPLINE_CURVE_WITH_KNOTS('',1,(#562,#563),.UNSPECIFIED.,.F.,.F.,
  (2,2),(8.71,9.7000006),.PIECEWISE_BEZIER_KNOTS.);
#562 = CARTESIAN_POINT('',(1.440345350014,8.71));
#563 = CARTESIAN_POINT('',(1.440345350014,9.7000006));
#564 = ( GEOMETRIC_REPRESENTATION_CONTEXT(2) 
PARAMETRIC_REPRESENTATION_CONTEXT() REPRESENTATION_CONTEXT('2D SPACE',''
  ) );
#565 = PCURVE('',#566,#571);
#566 = PLANE('',#567);
#567 = AXIS2_PLACEMENT_3D('',#568,#569,#570);
#568 = CARTESIAN_POINT('',(0.8,5.65,8.8));
#569 = DIRECTION('',(1.,0.,-0.));
#570 = DIRECTION('',(0.,0.,1.));
#571 = DEFINITIONAL_REPRESENTATION('',(#572),#575);
#572 = B_SPLINE_CURVE_WITH_KNOTS('',1,(#573,#574),.UNSPECIFIED.,.F.,.F.,
  (2,2),(8.71,9.7000006),.PIECEWISE_BEZIER_KNOTS.);
#573 = CARTESIAN_POINT('',(-9.E-02,-0.447745485013));
#574 = CARTESIAN_POINT('',(0.9000006,-0.447745485013));
#575 = ( GEOMETRIC_REPRESENTATION_CONTEXT(2) 
PARAMETRIC_REPRESENTATION_CONTEXT() REPRESENTATION_CONTEXT('2D SPACE',''
  ) );
#576 = ORIENTED_EDGE('',*,*,#577,.F.);
#577 = EDGE_CURVE('',#340,#552,#578,.T.);
#578 = SURFACE_CURVE('',#579,(#584,#591),.PCURVE_S1.);
#579 = CIRCLE('',#580,6.15);
#580 = AXIS2_PLACEMENT_3D('',#581,#582,#583);
#581 = CARTESIAN_POINT('',(0.,0.,9.7));
#582 = DIRECTION('',(0.,0.,1.));
#583 = DIRECTION('',(1.,0.,-0.));
#584 = PCURVE('',#137,#585);
#585 = DEFINITIONAL_REPRESENTATION('',(#586),#590);
#586 = LINE('',#587,#588);
#587 = CARTESIAN_POINT('',(0.,9.7));
#588 = VECTOR('',#589,1.);
#589 = DIRECTION('',(1.,0.));
#590 = ( GEOMETRIC_REPRESENTATION_CONTEXT(2) 
PARAMETRIC_REPRESENTATION_CONTEXT() REPRESENTATION_CONTEXT('2D SPACE',''
  ) );
#591 = PCURVE('',#379,#592);
#592 = DEFINITIONAL_REPRESENTATION('',(#593),#597);
#593 = CIRCLE('',#594,6.15);
#594 = AXIS2_PLACEMENT_2D('',#595,#596);
#595 = CARTESIAN_POINT('',(0.,0.));
#596 = DIRECTION('',(1.,0.));
#597 = ( GEOMETRIC_REPRESENTATION_CONTEXT(2) 
PARAMETRIC_REPRESENTATION_CONTEXT() REPRESENTATION_CONTEXT('2D SPACE',''
  ) );
#598 = ORIENTED_EDGE('',*,*,#339,.F.);
#599 = ADVANCED_FACE('',(#600),#238,.F.);
#600 = FACE_BOUND('',#601,.F.);
#601 = EDGE_LOOP('',(#602));
#602 = ORIENTED_EDGE('',*,*,#39,.T.);
#603 = ADVANCED_FACE('',(#604),#379,.T.);
#604 = FACE_BOUND('',#605,.T.);
#605 = EDGE_LOOP('',(#606,#607,#608,#631,#659,#680,#681,#704,#732));
#606 = ORIENTED_EDGE('',*,*,#362,.T.);
#607 = ORIENTED_EDGE('',*,*,#577,.T.);
#608 = ORIENTED_EDGE('',*,*,#609,.T.);
#609 = EDGE_CURVE('',#552,#610,#612,.T.);
#610 = VERTEX_POINT('',#611);
#611 = CARTESIAN_POINT('',(0.8,6.9,9.7));
#612 = SURFACE_CURVE('',#613,(#617,#624),.PCURVE_S1.);
#613 = LINE('',#614,#615);
#614 = CARTESIAN_POINT('',(0.8,5.65,9.7));
#615 = VECTOR('',#616,1.);
#616 = DIRECTION('',(-0.,1.,0.));
#617 = PCURVE('',#379,#618);
#618 = DEFINITIONAL_REPRESENTATION('',(#619),#623);
#619 = LINE('',#620,#621);
#620 = CARTESIAN_POINT('',(0.8,5.65));
#621 = VECTOR('',#622,1.);
#622 = DIRECTION('',(0.,1.));
#623 = ( GEOMETRIC_REPRESENTATION_CONTEXT(2) 
PARAMETRIC_REPRESENTATION_CONTEXT() REPRESENTATION_CONTEXT('2D SPACE',''
  ) );
#624 = PCURVE('',#566,#625);
#625 = DEFINITIONAL_REPRESENTATION('',(#626),#630);
#626 = LINE('',#627,#628);
#627 = CARTESIAN_POINT('',(0.9,0.));
#628 = VECTOR('',#629,1.);
#629 = DIRECTION('',(0.,-1.));
#630 = ( GEOMETRIC_REPRESENTATION_CONTEXT(2) 
PARAMETRIC_REPRESENTATION_CONTEXT() REPRESENTATION_CONTEXT('2D SPACE',''
  ) );
#631 = ORIENTED_EDGE('',*,*,#632,.F.);
#632 = EDGE_CURVE('',#633,#610,#635,.T.);
#633 = VERTEX_POINT('',#634);
#634 = CARTESIAN_POINT('',(-0.8,6.9,9.7));
#635 = SURFACE_CURVE('',#636,(#640,#647),.PCURVE_S1.);
#636 = LINE('',#637,#638);
#637 = CARTESIAN_POINT('',(-0.8,6.9,9.7));
#638 = VECTOR('',#639,1.);
#639 = DIRECTION('',(1.,0.,-0.));
#640 = PCURVE('',#379,#641);
#641 = DEFINITIONAL_REPRESENTATION('',(#642),#646);
#642 = LINE('',#643,#644);
#643 = CARTESIAN_POINT('',(-0.8,6.9));
#644 = VECTOR('',#645,1.);
#645 = DIRECTION('',(1.,0.));
#646 = ( GEOMETRIC_REPRESENTATION_CONTEXT(2) 
PARAMETRIC_REPRESENTATION_CONTEXT() REPRESENTATION_CONTEXT('2D SPACE',''
  ) );
#647 = PCURVE('',#648,#653);
#648 = PLANE('',#649);
#649 = AXIS2_PLACEMENT_3D('',#650,#651,#652);
#650 = CARTESIAN_POINT('',(-0.8,6.9,8.8));
#651 = DIRECTION('',(-0.,1.,0.));
#652 = DIRECTION('',(0.,0.,1.));
#653 = DEFINITIONAL_REPRESENTATION('',(#654),#658);
#654 = LINE('',#655,#656);
#655 = CARTESIAN_POINT('',(0.9,0.));
#656 = VECTOR('',#657,1.);
#657 = DIRECTION('',(0.,1.));
#658 = ( GEOMETRIC_REPRESENTATION_CONTEXT(2) 
PARAMETRIC_REPRESENTATION_CONTEXT() REPRESENTATION_CONTEXT('2D SPACE',''
  ) );
#659 = ORIENTED_EDGE('',*,*,#660,.F.);
#660 = EDGE_CURVE('',#473,#633,#661,.T.);
#661 = SURFACE_CURVE('',#662,(#666,#673),.PCURVE_S1.);
#662 = LINE('',#663,#664);
#663 = CARTESIAN_POINT('',(-0.8,5.65,9.7));
#664 = VECTOR('',#665,1.);
#665 = DIRECTION('',(-0.,1.,0.));
#666 = PCURVE('',#379,#667);
#667 = DEFINITIONAL_REPRESENTATION('',(#668),#672);
#668 = LINE('',#669,#670);
#669 = CARTESIAN_POINT('',(-0.8,5.65));
#670 = VECTOR('',#671,1.);
#671 = DIRECTION('',(0.,1.));
#672 = ( GEOMETRIC_REPRESENTATION_CONTEXT(2) 
PARAMETRIC_REPRESENTATION_CONTEXT() REPRESENTATION_CONTEXT('2D SPACE',''
  ) );
#673 = PCURVE('',#511,#674);
#674 = DEFINITIONAL_REPRESENTATION('',(#675),#679);
#675 = LINE('',#676,#677);
#676 = CARTESIAN_POINT('',(0.9,0.));
#677 = VECTOR('',#678,1.);
#678 = DIRECTION('',(0.,-1.));
#679 = ( GEOMETRIC_REPRESENTATION_CONTEXT(2) 
PARAMETRIC_REPRESENTATION_CONTEXT() REPRESENTATION_CONTEXT('2D SPACE',''
  ) );
#680 = ORIENTED_EDGE('',*,*,#472,.T.);
#681 = ORIENTED_EDGE('',*,*,#682,.T.);
#682 = EDGE_CURVE('',#447,#683,#685,.T.);
#683 = VERTEX_POINT('',#684);
#684 = CARTESIAN_POINT('',(-0.8,-6.9,9.7));
#685 = SURFACE_CURVE('',#686,(#690,#697),.PCURVE_S1.);
#686 = LINE('',#687,#688);
#687 = CARTESIAN_POINT('',(-0.8,-5.65,9.7));
#688 = VECTOR('',#689,1.);
#689 = DIRECTION('',(-1.224646799147E-16,-1.,0.));
#690 = PCURVE('',#379,#691);
#691 = DEFINITIONAL_REPRESENTATION('',(#692),#696);
#692 = LINE('',#693,#694);
#693 = CARTESIAN_POINT('',(-0.8,-5.65));
#694 = VECTOR('',#695,1.);
#695 = DIRECTION('',(-1.224646799147E-16,-1.));
#696 = ( GEOMETRIC_REPRESENTATION_CONTEXT(2) 
PARAMETRIC_REPRESENTATION_CONTEXT() REPRESENTATION_CONTEXT('2D SPACE',''
  ) );
#697 = PCURVE('',#461,#698);
#698 = DEFINITIONAL_REPRESENTATION('',(#699),#703);
#699 = LINE('',#700,#701);
#700 = CARTESIAN_POINT('',(0.9,0.));
#701 = VECTOR('',#702,1.);
#702 = DIRECTION('',(0.,-1.));
#703 = ( GEOMETRIC_REPRESENTATION_CONTEXT(2) 
PARAMETRIC_REPRESENTATION_CONTEXT() REPRESENTATION_CONTEXT('2D SPACE',''
  ) );
#704 = ORIENTED_EDGE('',*,*,#705,.F.);
#705 = EDGE_CURVE('',#706,#683,#708,.T.);
#706 = VERTEX_POINT('',#707);
#707 = CARTESIAN_POINT('',(0.8,-6.9,9.7));
#708 = SURFACE_CURVE('',#709,(#713,#720),.PCURVE_S1.);
#709 = LINE('',#710,#711);
#710 = CARTESIAN_POINT('',(0.8,-6.9,9.7));
#711 = VECTOR('',#712,1.);
#712 = DIRECTION('',(-1.,1.224646799147E-16,0.));
#713 = PCURVE('',#379,#714);
#714 = DEFINITIONAL_REPRESENTATION('',(#715),#719);
#715 = LINE('',#716,#717);
#716 = CARTESIAN_POINT('',(0.8,-6.9));
#717 = VECTOR('',#718,1.);
#718 = DIRECTION('',(-1.,1.224646799147E-16));
#719 = ( GEOMETRIC_REPRESENTATION_CONTEXT(2) 
PARAMETRIC_REPRESENTATION_CONTEXT() REPRESENTATION_CONTEXT('2D SPACE',''
  ) );
#720 = PCURVE('',#721,#726);
#721 = PLANE('',#722);
#722 = AXIS2_PLACEMENT_3D('',#723,#724,#725);
#723 = CARTESIAN_POINT('',(0.8,-6.9,8.8));
#724 = DIRECTION('',(-1.224646799147E-16,-1.,0.));
#725 = DIRECTION('',(0.,0.,1.));
#726 = DEFINITIONAL_REPRESENTATION('',(#727),#731);
#727 = LINE('',#728,#729);
#728 = CARTESIAN_POINT('',(0.9,0.));
#729 = VECTOR('',#730,1.);
#730 = DIRECTION('',(0.,1.));
#731 = ( GEOMETRIC_REPRESENTATION_CONTEXT(2) 
PARAMETRIC_REPRESENTATION_CONTEXT() REPRESENTATION_CONTEXT('2D SPACE',''
  ) );
#732 = ORIENTED_EDGE('',*,*,#733,.F.);
#733 = EDGE_CURVE('',#363,#706,#734,.T.);
#734 = SURFACE_CURVE('',#735,(#739,#746),.PCURVE_S1.);
#735 = LINE('',#736,#737);
#736 = CARTESIAN_POINT('',(0.8,-5.65,9.7));
#737 = VECTOR('',#738,1.);
#738 = DIRECTION('',(-1.224646799147E-16,-1.,0.));
#739 = PCURVE('',#379,#740);
#740 = DEFINITIONAL_REPRESENTATION('',(#741),#745);
#741 = LINE('',#742,#743);
#742 = CARTESIAN_POINT('',(0.8,-5.65));
#743 = VECTOR('',#744,1.);
#744 = DIRECTION('',(-1.224646799147E-16,-1.));
#745 = ( GEOMETRIC_REPRESENTATION_CONTEXT(2) 
PARAMETRIC_REPRESENTATION_CONTEXT() REPRESENTATION_CONTEXT('2D SPACE',''
  ) );
#746 = PCURVE('',#406,#747);
#747 = DEFINITIONAL_REPRESENTATION('',(#748),#752);
#748 = LINE('',#749,#750);
#749 = CARTESIAN_POINT('',(0.9,0.));
#750 = VECTOR('',#751,1.);
#751 = DIRECTION('',(0.,-1.));
#752 = ( GEOMETRIC_REPRESENTATION_CONTEXT(2) 
PARAMETRIC_REPRESENTATION_CONTEXT() REPRESENTATION_CONTEXT('2D SPACE',''
  ) );
#753 = ADVANCED_FACE('',(#754),#566,.T.);
#754 = FACE_BOUND('',#755,.T.);
#755 = EDGE_LOOP('',(#756,#757,#758,#781));
#756 = ORIENTED_EDGE('',*,*,#609,.F.);
#757 = ORIENTED_EDGE('',*,*,#551,.F.);
#758 = ORIENTED_EDGE('',*,*,#759,.T.);
#759 = EDGE_CURVE('',#523,#760,#762,.T.);
#760 = VERTEX_POINT('',#761);
#761 = CARTESIAN_POINT('',(0.8,6.9,8.8));
#762 = SURFACE_CURVE('',#763,(#767,#774),.PCURVE_S1.);
#763 = LINE('',#764,#765);
#764 = CARTESIAN_POINT('',(0.8,5.65,8.8));
#765 = VECTOR('',#766,1.);
#766 = DIRECTION('',(-0.,1.,0.));
#767 = PCURVE('',#566,#768);
#768 = DEFINITIONAL_REPRESENTATION('',(#769),#773);
#769 = LINE('',#770,#771);
#770 = CARTESIAN_POINT('',(0.,0.));
#771 = VECTOR('',#772,1.);
#772 = DIRECTION('',(0.,-1.));
#773 = ( GEOMETRIC_REPRESENTATION_CONTEXT(2) 
PARAMETRIC_REPRESENTATION_CONTEXT() REPRESENTATION_CONTEXT('2D SPACE',''
  ) );
#774 = PCURVE('',#539,#775);
#775 = DEFINITIONAL_REPRESENTATION('',(#776),#780);
#776 = LINE('',#777,#778);
#777 = CARTESIAN_POINT('',(1.6,0.));
#778 = VECTOR('',#779,1.);
#779 = DIRECTION('',(0.,1.));
#780 = ( GEOMETRIC_REPRESENTATION_CONTEXT(2) 
PARAMETRIC_REPRESENTATION_CONTEXT() REPRESENTATION_CONTEXT('2D SPACE',''
  ) );
#781 = ORIENTED_EDGE('',*,*,#782,.T.);
#782 = EDGE_CURVE('',#760,#610,#783,.T.);
#783 = SURFACE_CURVE('',#784,(#788,#795),.PCURVE_S1.);
#784 = LINE('',#785,#786);
#785 = CARTESIAN_POINT('',(0.8,6.9,8.8));
#786 = VECTOR('',#787,1.);
#787 = DIRECTION('',(0.,0.,1.));
#788 = PCURVE('',#566,#789);
#789 = DEFINITIONAL_REPRESENTATION('',(#790),#794);
#790 = LINE('',#791,#792);
#791 = CARTESIAN_POINT('',(0.,-1.25));
#792 = VECTOR('',#793,1.);
#793 = DIRECTION('',(1.,0.));
#794 = ( GEOMETRIC_REPRESENTATION_CONTEXT(2) 
PARAMETRIC_REPRESENTATION_CONTEXT() REPRESENTATION_CONTEXT('2D SPACE',''
  ) );
#795 = PCURVE('',#648,#796);
#796 = DEFINITIONAL_REPRESENTATION('',(#797),#801);
#797 = LINE('',#798,#799);
#798 = CARTESIAN_POINT('',(0.,1.6));
#799 = VECTOR('',#800,1.);
#800 = DIRECTION('',(1.,0.));
#801 = ( GEOMETRIC_REPRESENTATION_CONTEXT(2) 
PARAMETRIC_REPRESENTATION_CONTEXT() REPRESENTATION_CONTEXT('2D SPACE',''
  ) );
#802 = ADVANCED_FACE('',(#803),#539,.F.);
#803 = FACE_BOUND('',#804,.F.);
#804 = EDGE_LOOP('',(#805,#828,#829,#830));
#805 = ORIENTED_EDGE('',*,*,#806,.F.);
#806 = EDGE_CURVE('',#497,#807,#809,.T.);
#807 = VERTEX_POINT('',#808);
#808 = CARTESIAN_POINT('',(-0.8,6.9,8.8));
#809 = SURFACE_CURVE('',#810,(#814,#821),.PCURVE_S1.);
#810 = LINE('',#811,#812);
#811 = CARTESIAN_POINT('',(-0.8,5.65,8.8));
#812 = VECTOR('',#813,1.);
#813 = DIRECTION('',(-0.,1.,0.));
#814 = PCURVE('',#539,#815);
#815 = DEFINITIONAL_REPRESENTATION('',(#816),#820);
#816 = LINE('',#817,#818);
#817 = CARTESIAN_POINT('',(0.,0.));
#818 = VECTOR('',#819,1.);
#819 = DIRECTION('',(0.,1.));
#820 = ( GEOMETRIC_REPRESENTATION_CONTEXT(2) 
PARAMETRIC_REPRESENTATION_CONTEXT() REPRESENTATION_CONTEXT('2D SPACE',''
  ) );
#821 = PCURVE('',#511,#822);
#822 = DEFINITIONAL_REPRESENTATION('',(#823),#827);
#823 = LINE('',#824,#825);
#824 = CARTESIAN_POINT('',(0.,0.));
#825 = VECTOR('',#826,1.);
#826 = DIRECTION('',(0.,-1.));
#827 = ( GEOMETRIC_REPRESENTATION_CONTEXT(2) 
PARAMETRIC_REPRESENTATION_CONTEXT() REPRESENTATION_CONTEXT('2D SPACE',''
  ) );
#828 = ORIENTED_EDGE('',*,*,#522,.F.);
#829 = ORIENTED_EDGE('',*,*,#759,.T.);
#830 = ORIENTED_EDGE('',*,*,#831,.F.);
#831 = EDGE_CURVE('',#807,#760,#832,.T.);
#832 = SURFACE_CURVE('',#833,(#837,#844),.PCURVE_S1.);
#833 = LINE('',#834,#835);
#834 = CARTESIAN_POINT('',(-0.8,6.9,8.8));
#835 = VECTOR('',#836,1.);
#836 = DIRECTION('',(1.,0.,-0.));
#837 = PCURVE('',#539,#838);
#838 = DEFINITIONAL_REPRESENTATION('',(#839),#843);
#839 = LINE('',#840,#841);
#840 = CARTESIAN_POINT('',(0.,1.25));
#841 = VECTOR('',#842,1.);
#842 = DIRECTION('',(1.,0.));
#843 = ( GEOMETRIC_REPRESENTATION_CONTEXT(2) 
PARAMETRIC_REPRESENTATION_CONTEXT() REPRESENTATION_CONTEXT('2D SPACE',''
  ) );
#844 = PCURVE('',#648,#845);
#845 = DEFINITIONAL_REPRESENTATION('',(#846),#850);
#846 = LINE('',#847,#848);
#847 = CARTESIAN_POINT('',(0.,0.));
#848 = VECTOR('',#849,1.);
#849 = DIRECTION('',(0.,1.));
#850 = ( GEOMETRIC_REPRESENTATION_CONTEXT(2) 
PARAMETRIC_REPRESENTATION_CONTEXT() REPRESENTATION_CONTEXT('2D SPACE',''
  ) );
#851 = ADVANCED_FACE('',(#852),#511,.F.);
#852 = FACE_BOUND('',#853,.F.);
#853 = EDGE_LOOP('',(#854,#855,#856,#857));
#854 = ORIENTED_EDGE('',*,*,#660,.F.);
#855 = ORIENTED_EDGE('',*,*,#496,.F.);
#856 = ORIENTED_EDGE('',*,*,#806,.T.);
#857 = ORIENTED_EDGE('',*,*,#858,.T.);
#858 = EDGE_CURVE('',#807,#633,#859,.T.);
#859 = SURFACE_CURVE('',#860,(#864,#871),.PCURVE_S1.);
#860 = LINE('',#861,#862);
#861 = CARTESIAN_POINT('',(-0.8,6.9,8.8));
#862 = VECTOR('',#863,1.);
#863 = DIRECTION('',(0.,0.,1.));
#864 = PCURVE('',#511,#865);
#865 = DEFINITIONAL_REPRESENTATION('',(#866),#870);
#866 = LINE('',#867,#868);
#867 = CARTESIAN_POINT('',(0.,-1.25));
#868 = VECTOR('',#869,1.);
#869 = DIRECTION('',(1.,0.));
#870 = ( GEOMETRIC_REPRESENTATION_CONTEXT(2) 
PARAMETRIC_REPRESENTATION_CONTEXT() REPRESENTATION_CONTEXT('2D SPACE',''
  ) );
#871 = PCURVE('',#648,#872);
#872 = DEFINITIONAL_REPRESENTATION('',(#873),#877);
#873 = LINE('',#874,#875);
#874 = CARTESIAN_POINT('',(0.,0.));
#875 = VECTOR('',#876,1.);
#876 = DIRECTION('',(1.,0.));
#877 = ( GEOMETRIC_REPRESENTATION_CONTEXT(2) 
PARAMETRIC_REPRESENTATION_CONTEXT() REPRESENTATION_CONTEXT('2D SPACE',''
  ) );
#878 = ADVANCED_FACE('',(#879),#461,.T.);
#879 = FACE_BOUND('',#880,.T.);
#880 = EDGE_LOOP('',(#881,#882,#883,#906));
#881 = ORIENTED_EDGE('',*,*,#682,.F.);
#882 = ORIENTED_EDGE('',*,*,#446,.F.);
#883 = ORIENTED_EDGE('',*,*,#884,.T.);
#884 = EDGE_CURVE('',#418,#885,#887,.T.);
#885 = VERTEX_POINT('',#886);
#886 = CARTESIAN_POINT('',(-0.8,-6.9,8.8));
#887 = SURFACE_CURVE('',#888,(#892,#899),.PCURVE_S1.);
#888 = LINE('',#889,#890);
#889 = CARTESIAN_POINT('',(-0.8,-5.65,8.8));
#890 = VECTOR('',#891,1.);
#891 = DIRECTION('',(-1.224646799147E-16,-1.,0.));
#892 = PCURVE('',#461,#893);
#893 = DEFINITIONAL_REPRESENTATION('',(#894),#898);
#894 = LINE('',#895,#896);
#895 = CARTESIAN_POINT('',(0.,0.));
#896 = VECTOR('',#897,1.);
#897 = DIRECTION('',(0.,-1.));
#898 = ( GEOMETRIC_REPRESENTATION_CONTEXT(2) 
PARAMETRIC_REPRESENTATION_CONTEXT() REPRESENTATION_CONTEXT('2D SPACE',''
  ) );
#899 = PCURVE('',#434,#900);
#900 = DEFINITIONAL_REPRESENTATION('',(#901),#905);
#901 = LINE('',#902,#903);
#902 = CARTESIAN_POINT('',(1.6,0.));
#903 = VECTOR('',#904,1.);
#904 = DIRECTION('',(0.,1.));
#905 = ( GEOMETRIC_REPRESENTATION_CONTEXT(2) 
PARAMETRIC_REPRESENTATION_CONTEXT() REPRESENTATION_CONTEXT('2D SPACE',''
  ) );
#906 = ORIENTED_EDGE('',*,*,#907,.T.);
#907 = EDGE_CURVE('',#885,#683,#908,.T.);
#908 = SURFACE_CURVE('',#909,(#913,#920),.PCURVE_S1.);
#909 = LINE('',#910,#911);
#910 = CARTESIAN_POINT('',(-0.8,-6.9,8.8));
#911 = VECTOR('',#912,1.);
#912 = DIRECTION('',(0.,0.,1.));
#913 = PCURVE('',#461,#914);
#914 = DEFINITIONAL_REPRESENTATION('',(#915),#919);
#915 = LINE('',#916,#917);
#916 = CARTESIAN_POINT('',(0.,-1.25));
#917 = VECTOR('',#918,1.);
#918 = DIRECTION('',(1.,0.));
#919 = ( GEOMETRIC_REPRESENTATION_CONTEXT(2) 
PARAMETRIC_REPRESENTATION_CONTEXT() REPRESENTATION_CONTEXT('2D SPACE',''
  ) );
#920 = PCURVE('',#721,#921);
#921 = DEFINITIONAL_REPRESENTATION('',(#922),#926);
#922 = LINE('',#923,#924);
#923 = CARTESIAN_POINT('',(0.,1.6));
#924 = VECTOR('',#925,1.);
#925 = DIRECTION('',(1.,0.));
#926 = ( GEOMETRIC_REPRESENTATION_CONTEXT(2) 
PARAMETRIC_REPRESENTATION_CONTEXT() REPRESENTATION_CONTEXT('2D SPACE',''
  ) );
#927 = ADVANCED_FACE('',(#928),#434,.F.);
#928 = FACE_BOUND('',#929,.F.);
#929 = EDGE_LOOP('',(#930,#953,#954,#955));
#930 = ORIENTED_EDGE('',*,*,#931,.F.);
#931 = EDGE_CURVE('',#392,#932,#934,.T.);
#932 = VERTEX_POINT('',#933);
#933 = CARTESIAN_POINT('',(0.8,-6.9,8.8));
#934 = SURFACE_CURVE('',#935,(#939,#946),.PCURVE_S1.);
#935 = LINE('',#936,#937);
#936 = CARTESIAN_POINT('',(0.8,-5.65,8.8));
#937 = VECTOR('',#938,1.);
#938 = DIRECTION('',(-1.224646799147E-16,-1.,0.));
#939 = PCURVE('',#434,#940);
#940 = DEFINITIONAL_REPRESENTATION('',(#941),#945);
#941 = LINE('',#942,#943);
#942 = CARTESIAN_POINT('',(0.,0.));
#943 = VECTOR('',#944,1.);
#944 = DIRECTION('',(0.,1.));
#945 = ( GEOMETRIC_REPRESENTATION_CONTEXT(2) 
PARAMETRIC_REPRESENTATION_CONTEXT() REPRESENTATION_CONTEXT('2D SPACE',''
  ) );
#946 = PCURVE('',#406,#947);
#947 = DEFINITIONAL_REPRESENTATION('',(#948),#952);
#948 = LINE('',#949,#950);
#949 = CARTESIAN_POINT('',(0.,0.));
#950 = VECTOR('',#951,1.);
#951 = DIRECTION('',(0.,-1.));
#952 = ( GEOMETRIC_REPRESENTATION_CONTEXT(2) 
PARAMETRIC_REPRESENTATION_CONTEXT() REPRESENTATION_CONTEXT('2D SPACE',''
  ) );
#953 = ORIENTED_EDGE('',*,*,#417,.F.);
#954 = ORIENTED_EDGE('',*,*,#884,.T.);
#955 = ORIENTED_EDGE('',*,*,#956,.F.);
#956 = EDGE_CURVE('',#932,#885,#957,.T.);
#957 = SURFACE_CURVE('',#958,(#962,#969),.PCURVE_S1.);
#958 = LINE('',#959,#960);
#959 = CARTESIAN_POINT('',(0.8,-6.9,8.8));
#960 = VECTOR('',#961,1.);
#961 = DIRECTION('',(-1.,1.224646799147E-16,0.));
#962 = PCURVE('',#434,#963);
#963 = DEFINITIONAL_REPRESENTATION('',(#964),#968);
#964 = LINE('',#965,#966);
#965 = CARTESIAN_POINT('',(0.,1.25));
#966 = VECTOR('',#967,1.);
#967 = DIRECTION('',(1.,0.));
#968 = ( GEOMETRIC_REPRESENTATION_CONTEXT(2) 
PARAMETRIC_REPRESENTATION_CONTEXT() REPRESENTATION_CONTEXT('2D SPACE',''
  ) );
#969 = PCURVE('',#721,#970);
#970 = DEFINITIONAL_REPRESENTATION('',(#971),#975);
#971 = LINE('',#972,#973);
#972 = CARTESIAN_POINT('',(0.,0.));
#973 = VECTOR('',#974,1.);
#974 = DIRECTION('',(0.,1.));
#975 = ( GEOMETRIC_REPRESENTATION_CONTEXT(2) 
PARAMETRIC_REPRESENTATION_CONTEXT() REPRESENTATION_CONTEXT('2D SPACE',''
  ) );
#976 = ADVANCED_FACE('',(#977),#406,.F.);
#977 = FACE_BOUND('',#978,.F.);
#978 = EDGE_LOOP('',(#979,#980,#981,#982));
#979 = ORIENTED_EDGE('',*,*,#733,.F.);
#980 = ORIENTED_EDGE('',*,*,#391,.F.);
#981 = ORIENTED_EDGE('',*,*,#931,.T.);
#982 = ORIENTED_EDGE('',*,*,#983,.T.);
#983 = EDGE_CURVE('',#932,#706,#984,.T.);
#984 = SURFACE_CURVE('',#985,(#989,#996),.PCURVE_S1.);
#985 = LINE('',#986,#987);
#986 = CARTESIAN_POINT('',(0.8,-6.9,8.8));
#987 = VECTOR('',#988,1.);
#988 = DIRECTION('',(0.,0.,1.));
#989 = PCURVE('',#406,#990);
#990 = DEFINITIONAL_REPRESENTATION('',(#991),#995);
#991 = LINE('',#992,#993);
#992 = CARTESIAN_POINT('',(0.,-1.25));
#993 = VECTOR('',#994,1.);
#994 = DIRECTION('',(1.,0.));
#995 = ( GEOMETRIC_REPRESENTATION_CONTEXT(2) 
PARAMETRIC_REPRESENTATION_CONTEXT() REPRESENTATION_CONTEXT('2D SPACE',''
  ) );
#996 = PCURVE('',#721,#997);
#997 = DEFINITIONAL_REPRESENTATION('',(#998),#1002);
#998 = LINE('',#999,#1000);
#999 = CARTESIAN_POINT('',(0.,0.));
#1000 = VECTOR('',#1001,1.);
#1001 = DIRECTION('',(1.,0.));
#1002 = ( GEOMETRIC_REPRESENTATION_CONTEXT(2) 
PARAMETRIC_REPRESENTATION_CONTEXT() REPRESENTATION_CONTEXT('2D SPACE',''
  ) );
#1003 = ADVANCED_FACE('',(#1004),#648,.T.);
#1004 = FACE_BOUND('',#1005,.T.);
#1005 = EDGE_LOOP('',(#1006,#1007,#1008,#1009));
#1006 = ORIENTED_EDGE('',*,*,#831,.F.);
#1007 = ORIENTED_EDGE('',*,*,#858,.T.);
#1008 = ORIENTED_EDGE('',*,*,#632,.T.);
#1009 = ORIENTED_EDGE('',*,*,#782,.F.);
#1010 = ADVANCED_FACE('',(#1011),#721,.T.);
#1011 = FACE_BOUND('',#1012,.T.);
#1012 = EDGE_LOOP('',(#1013,#1014,#1015,#1016));
#1013 = ORIENTED_EDGE('',*,*,#956,.F.);
#1014 = ORIENTED_EDGE('',*,*,#983,.T.);
#1015 = ORIENTED_EDGE('',*,*,#705,.T.);
#1016 = ORIENTED_EDGE('',*,*,#907,.F.);
#1017 = ( GEOMETRIC_REPRESENTATION_CONTEXT(3) 
GLOBAL_UNCERTAINTY_ASSIGNED_CONTEXT((#1021)) 
GLOBAL_UNIT_ASSIGNED_CONTEXT((#1018,#1019,#1020)) REPRESENTATION_CONTEXT
('Context #1','3D Context with UNIT and UNCERTAINTY') );
#1018 = ( LENGTH_UNIT() NAMED_UNIT(*) SI_UNIT(.MILLI.,.METRE.) );
#1019 = ( NAMED_UNIT(*) PLANE_ANGLE_UNIT() SI_UNIT($,.RADIAN.) );
#1020 = ( NAMED_UNIT(*) SI_UNIT($,.STERADIAN.) SOLID_ANGLE_UNIT() );
#1021 = UNCERTAINTY_MEASURE_WITH_UNIT(LENGTH_MEASURE(1.E-07),#1018,
  'distance_accuracy_value','confusion accuracy');
#1022 = CONTEXT_DEPENDENT_SHAPE_REPRESENTATION(#1023,#1025);
#1023 = ( REPRESENTATION_RELATIONSHIP('','',#32,#10) 
REPRESENTATION_RELATIONSHIP_WITH_TRANSFORMATION(#1024) 
SHAPE_REPRESENTATION_RELATIONSHIP() );
#1024 = ITEM_DEFINED_TRANSFORMATION('','',#11,#15);
#1025 = PRODUCT_DEFINITION_SHAPE('Placement','Placement of an item',
  #1026);
#1026 = NEXT_ASSEMBLY_USAGE_OCCURRENCE('5','tpu_pad4_print','',#5,#27,$
  );
#1027 = PRODUCT_RELATED_PRODUCT_CATEGORY('part',$,(#29));
ENDSEC;
END-ISO-10303-21;
