ISO-10303-21;
HEADER;
FILE_DESCRIPTION(('Open CASCADE Model'),'2;1');
FILE_NAME('tpu_pad5_print','2026-09-09T05:47:22',('Author'),(
    'Open CASCADE'),'Open CASCADE STEP processor 7.9','build123d',
  'Unknown');
FILE_SCHEMA(('AUTOMOTIVE_DESIGN { 1 0 10303 214 1 1 1 1 }'));
ENDSEC;
DATA;
#1 = APPLICATION_PROTOCOL_DEFINITION('international standard',
  'automotive_design',2000,#2);
#2 = APPLICATION_CONTEXT(
  'core data for automotive mechanical design processes');
#3 = SHAPE_DEFINITION_REPRESENTATION(#4,#10);
#4 = PRODUCT_DEFINITION_SHAPE('','',#5);
#5 = PRODUCT_DEFINITION('design','',#6,#9);
#6 = PRODUCT_DEFINITION_FORMATION('','',#7);
#7 = PRODUCT('tpu_pad5_print','tpu_pad5_print','',(#8));
#8 = PRODUCT_CONTEXT('',#2,'mechanical');
#9 = PRODUCT_DEFINITION_CONTEXT('part definition',#2,'design');
#10 = ADVANCED_BREP_SHAPE_REPRESENTATION('',(#11,#15),#469);
#11 = AXIS2_PLACEMENT_3D('',#12,#13,#14);
#12 = CARTESIAN_POINT('',(0.,0.,0.));
#13 = DIRECTION('',(0.,0.,1.));
#14 = DIRECTION('',(1.,0.,-0.));
#15 = MANIFOLD_SOLID_BREP('',#16);
#16 = CLOSED_SHELL('',(#17,#461,#465));
#17 = ADVANCED_FACE('',(#18),#32,.T.);
#18 = FACE_BOUND('',#19,.T.);
#19 = EDGE_LOOP('',(#20,#50,#77,#78));
#20 = ORIENTED_EDGE('',*,*,#21,.T.);
#21 = EDGE_CURVE('',#22,#24,#26,.T.);
#22 = VERTEX_POINT('',#23);
#23 = CARTESIAN_POINT('',(6.15,3.787720310701E-15,6.571502057808));
#24 = VERTEX_POINT('',#25);
#25 = CARTESIAN_POINT('',(6.15,2.982943426879E-15,9.999999939225E-08));
#26 = SEAM_CURVE('',#27,(#31,#43),.PCURVE_S1.);
#27 = LINE('',#28,#29);
#28 = CARTESIAN_POINT('',(6.15,4.170850822052E-15,9.7000001));
#29 = VECTOR('',#30,1.);
#30 = DIRECTION('',(0.,-1.224646799147E-16,-1.));
#31 = PCURVE('',#32,#37);
#32 = CYLINDRICAL_SURFACE('',#33,6.15);
#33 = AXIS2_PLACEMENT_3D('',#34,#35,#36);
#34 = CARTESIAN_POINT('',(0.,2.6645352591E-15,9.7000001));
#35 = DIRECTION('',(0.,-1.224646799147E-16,-1.));
#36 = DIRECTION('',(1.,0.,0.));
#37 = DEFINITIONAL_REPRESENTATION('',(#38),#42);
#38 = LINE('',#39,#40);
#39 = CARTESIAN_POINT('',(6.28318530718,-0.));
#40 = VECTOR('',#41,1.);
#41 = DIRECTION('',(0.,1.));
#42 = ( GEOMETRIC_REPRESENTATION_CONTEXT(2) 
PARAMETRIC_REPRESENTATION_CONTEXT() REPRESENTATION_CONTEXT('2D SPACE',''
  ) );
#43 = PCURVE('',#32,#44);
#44 = DEFINITIONAL_REPRESENTATION('',(#45),#49);
#45 = LINE('',#46,#47);
#46 = CARTESIAN_POINT('',(0.,-0.));
#47 = VECTOR('',#48,1.);
#48 = DIRECTION('',(0.,1.));
#49 = ( GEOMETRIC_REPRESENTATION_CONTEXT(2) 
PARAMETRIC_REPRESENTATION_CONTEXT() REPRESENTATION_CONTEXT('2D SPACE',''
  ) );
#50 = ORIENTED_EDGE('',*,*,#51,.F.);
#51 = EDGE_CURVE('',#24,#24,#52,.T.);
#52 = SURFACE_CURVE('',#53,(#58,#65),.PCURVE_S1.);
#53 = CIRCLE('',#54,6.15);
#54 = AXIS2_PLACEMENT_3D('',#55,#56,#57);
#55 = CARTESIAN_POINT('',(0.,1.476627863927E-15,9.999999939225E-08));
#56 = DIRECTION('',(0.,-1.224646799147E-16,-1.));
#57 = DIRECTION('',(1.,0.,0.));
#58 = PCURVE('',#32,#59);
#59 = DEFINITIONAL_REPRESENTATION('',(#60),#64);
#60 = LINE('',#61,#62);
#61 = CARTESIAN_POINT('',(0.,9.7));
#62 = VECTOR('',#63,1.);
#63 = DIRECTION('',(1.,0.));
#64 = ( GEOMETRIC_REPRESENTATION_CONTEXT(2) 
PARAMETRIC_REPRESENTATION_CONTEXT() REPRESENTATION_CONTEXT('2D SPACE',''
  ) );
#65 = PCURVE('',#66,#71);
#66 = PLANE('',#67);
#67 = AXIS2_PLACEMENT_3D('',#68,#69,#70);
#68 = CARTESIAN_POINT('',(0.,1.476627863927E-15,9.999999939225E-08));
#69 = DIRECTION('',(0.,-1.224646799147E-16,-1.));
#70 = DIRECTION('',(1.,0.,0.));
#71 = DEFINITIONAL_REPRESENTATION('',(#72),#76);
#72 = CIRCLE('',#73,6.15);
#73 = AXIS2_PLACEMENT_2D('',#74,#75);
#74 = CARTESIAN_POINT('',(0.,0.));
#75 = DIRECTION('',(1.,0.));
#76 = ( GEOMETRIC_REPRESENTATION_CONTEXT(2) 
PARAMETRIC_REPRESENTATION_CONTEXT() REPRESENTATION_CONTEXT('2D SPACE',''
  ) );
#77 = ORIENTED_EDGE('',*,*,#21,.F.);
#78 = ORIENTED_EDGE('',*,*,#79,.T.);
#79 = EDGE_CURVE('',#22,#22,#80,.T.);
#80 = SURFACE_CURVE('',#81,(#204,#330),.PCURVE_S1.);
#81 = B_SPLINE_CURVE_WITH_KNOTS('',7,(#82,#83,#84,#85,#86,#87,#88,#89,
    #90,#91,#92,#93,#94,#95,#96,#97,#98,#99,#100,#101,#102,#103,#104,
    #105,#106,#107,#108,#109,#110,#111,#112,#113,#114,#115,#116,#117,
    #118,#119,#120,#121,#122,#123,#124,#125,#126,#127,#128,#129,#130,
    #131,#132,#133,#134,#135,#136,#137,#138,#139,#140,#141,#142,#143,
    #144,#145,#146,#147,#148,#149,#150,#151,#152,#153,#154,#155,#156,
    #157,#158,#159,#160,#161,#162,#163,#164,#165,#166,#167,#168,#169,
    #170,#171,#172,#173,#174,#175,#176,#177,#178,#179,#180,#181,#182,
    #183,#184,#185,#186,#187,#188,#189,#190,#191,#192,#193,#194,#195,
    #196,#197,#198,#199,#200,#201,#202,#203),.UNSPECIFIED.,.T.,.F.,(8,6,
    6,6,6,6,6,6,6,6,6,6,6,6,6,6,6,6,6,6,8),(0.,3.581509701798E-02,
    0.101408529848,0.176865615701,0.22131156505,0.271943564521,
    0.300166140597,0.327125661589,0.399092431529,0.465858050636,
    0.501227529111,0.536867200855,0.602139351293,0.677226841715,
    0.721455090745,0.771839089906,0.799923429142,0.826750899855,
    0.898365169764,0.964803764568,1.),.UNSPECIFIED.);
#82 = CARTESIAN_POINT('',(6.15,3.16958316745E-15,6.571502057808));
#83 = CARTESIAN_POINT('',(6.15,-0.190449513128,6.571502057808));
#84 = CARTESIAN_POINT('',(6.143119281946,-0.379640228134,6.557976566568)
  );
#85 = CARTESIAN_POINT('',(6.129521740051,-0.567315009257,6.531244475378)
  );
#86 = CARTESIAN_POINT('',(6.109376455895,-0.753094927234,6.49210896809)
  );
#87 = CARTESIAN_POINT('',(6.08290692587,-0.936352190827,6.441869508845)
  );
#88 = CARTESIAN_POINT('',(6.050519325684,-1.116088487458,6.382310503558)
  );
#89 = CARTESIAN_POINT('',(5.944313145622,-1.610827823429,6.193611957911)
  );
#90 = CARTESIAN_POINT('',(5.857330243147,-1.919199760972,6.045829072321)
  );
#91 = CARTESIAN_POINT('',(5.753573716948,-2.216903348834,5.880468704916)
  );
#92 = CARTESIAN_POINT('',(5.634001888407,-2.504150695456,5.704249208573)
  );
#93 = CARTESIAN_POINT('',(5.499298492788,-2.781691366285,5.521320791442)
  );
#94 = CARTESIAN_POINT('',(5.348866126754,-3.05121428595,5.333683205507)
  );
#95 = CARTESIAN_POINT('',(4.986464189219,-3.617605571004,4.921787527357)
  );
#96 = CARTESIAN_POINT('',(4.770542038487,-3.909523548661,4.69842575033)
  );
#97 = CARTESIAN_POINT('',(4.530886886302,-4.191817871409,4.474689901104)
  );
#98 = CARTESIAN_POINT('',(4.264987507933,-4.46451071716,4.252569014704)
  );
#99 = CARTESIAN_POINT('',(3.969818759782,-4.726250524244,4.034764504366)
  );
#100 = CARTESIAN_POINT('',(3.642259401482,-4.973973662416,3.825136495943
    ));
#101 = CARTESIAN_POINT('',(3.065687681112,-5.337404444307,3.513679179589
    ));
#102 = CARTESIAN_POINT('',(2.838884958159,-5.46605216585,3.402502826505)
  );
#103 = CARTESIAN_POINT('',(2.5985457438,-5.587323996985,3.296945761298)
  );
#104 = CARTESIAN_POINT('',(2.344290191922,-5.699714403771,3.198526632221
    ));
#105 = CARTESIAN_POINT('',(2.075858107163,-5.801503391429,3.108953811078
    ));
#106 = CARTESIAN_POINT('',(1.793152448343,-5.890736729764,3.030136304873
    ));
#107 = CARTESIAN_POINT('',(1.158100441265,-6.050030456736,2.889066521435
    ));
#108 = CARTESIAN_POINT('',(0.79956784593,-6.116188310074,2.830208450083)
  );
#109 = CARTESIAN_POINT('',(0.427386395934,-6.158260257789,2.792638086469
    ));
#110 = CARTESIAN_POINT('',(4.851041164989E-02,-6.173182440242,
    2.779299436056));
#111 = CARTESIAN_POINT('',(-0.329940103222,-6.16015734336,2.790963544329
    ));
#112 = CARTESIAN_POINT('',(-0.700850568243,-6.120643904476,
    2.826211714248));
#113 = CARTESIAN_POINT('',(-1.256086644387,-6.023739696507,
    2.912313697453));
#114 = CARTESIAN_POINT('',(-1.450104895589,-5.982041796118,
    2.949320038371));
#115 = CARTESIAN_POINT('',(-1.639077137595,-5.933867531222,
    2.992005177791));
#116 = CARTESIAN_POINT('',(-1.822692582737,-5.879776608747,
    3.039832283438));
#117 = CARTESIAN_POINT('',(-2.000671241357,-5.820351151815,
    3.092240579473));
#118 = CARTESIAN_POINT('',(-2.172763924753,-5.756197285543,
    3.148647164175));
#119 = CARTESIAN_POINT('',(-2.497312036431,-5.622750602092,
    3.265574165745));
#120 = CARTESIAN_POINT('',(-2.650526546876,-5.553723952701,
    3.325878474217));
#121 = CARTESIAN_POINT('',(-2.7985119613,-5.481259563001,3.388973280986)
  );
#122 = CARTESIAN_POINT('',(-2.941397844543,-5.405707671646,
    3.454507154571));
#123 = CARTESIAN_POINT('',(-3.07932683351,-5.327375771025,3.52216533825)
  );
#124 = CARTESIAN_POINT('',(-3.212454326226,-5.246528410681,
    3.591669384257));
#125 = CARTESIAN_POINT('',(-3.683954523364,-4.941446161182,
    3.852593593913));
#126 = CARTESIAN_POINT('',(-3.994855116571,-4.7025663914,4.054342051654)
  );
#127 = CARTESIAN_POINT('',(-4.276224788815,-4.450976092236,
    4.263361561093));
#128 = CARTESIAN_POINT('',(-4.530801217854,-4.189290684731,
    4.476303139611));
#129 = CARTESIAN_POINT('',(-4.761224908386,-3.918692200254,
    4.690779471099));
#130 = CARTESIAN_POINT('',(-4.969705476609,-3.639196425031,
    4.904983770383));
#131 = CARTESIAN_POINT('',(-5.332237391442,-3.080966955959,
    5.312947392481));
#132 = CARTESIAN_POINT('',(-5.487609680404,-2.805984120372,
    5.505349515946));
#133 = CARTESIAN_POINT('',(-5.626505086775,-2.522673895745,
    5.693017317424));
#134 = CARTESIAN_POINT('',(-5.749601176565,-2.229214883199,
    5.873897759553));
#135 = CARTESIAN_POINT('',(-5.856158105768,-1.924820282359,
    6.043608749792));
#136 = CARTESIAN_POINT('',(-5.945158446497,-1.60929943894,6.194947093206
    ));
#137 = CARTESIAN_POINT('',(-6.051966485831,-1.108018347764,
    6.384973670916));
#138 = CARTESIAN_POINT('',(-6.083890889074,-0.929510726386,
    6.443737456621));
#139 = CARTESIAN_POINT('',(-6.1099767634,-0.747543760207,6.493275103614)
  );
#140 = CARTESIAN_POINT('',(-6.129827205675,-0.563097560726,6.5318450265)
  );
#141 = CARTESIAN_POINT('',(-6.14322321489,-0.376791997949,6.558180849157
    ));
#142 = CARTESIAN_POINT('',(-6.15,-0.189005666734,6.571502057808));
#143 = CARTESIAN_POINT('',(-6.15,0.190449512132,6.571502057808));
#144 = CARTESIAN_POINT('',(-6.143119282018,0.379640227944,6.557976566715
    ));
#145 = CARTESIAN_POINT('',(-6.129521740033,0.567315010023,6.531244475326
    ));
#146 = CARTESIAN_POINT('',(-6.109376455748,0.753094928108,6.492108967808
    ));
#147 = CARTESIAN_POINT('',(-6.082906925801,0.936352190798,6.441869508743
    ));
#148 = CARTESIAN_POINT('',(-6.05051932591,1.116088486406,6.382310503959)
  );
#149 = CARTESIAN_POINT('',(-5.944313145622,1.610827823429,6.193611957911
    ));
#150 = CARTESIAN_POINT('',(-5.857330243147,1.919199760974,6.04582907232)
  );
#151 = CARTESIAN_POINT('',(-5.75357371695,2.21690334883,5.880468704918)
  );
#152 = CARTESIAN_POINT('',(-5.634001888405,2.50415069546,5.704249208571)
  );
#153 = CARTESIAN_POINT('',(-5.499298492789,2.781691366283,5.521320791443
    ));
#154 = CARTESIAN_POINT('',(-5.348866126753,3.051214285951,5.333683205506
    ));
#155 = CARTESIAN_POINT('',(-4.986464189218,3.617605571005,4.921787527357
    ));
#156 = CARTESIAN_POINT('',(-4.770542038488,3.909523548659,4.698425750331
    ));
#157 = CARTESIAN_POINT('',(-4.5308868863,4.191817871413,4.474689901102)
  );
#158 = CARTESIAN_POINT('',(-4.264987507936,4.464510717156,4.252569014706
    ));
#159 = CARTESIAN_POINT('',(-3.96981875978,4.726250524246,4.034764504365)
  );
#160 = CARTESIAN_POINT('',(-3.642259401482,4.973973662416,3.825136495943
    ));
#161 = CARTESIAN_POINT('',(-3.065687681871,5.337404443829,3.513679179999
    ));
#162 = CARTESIAN_POINT('',(-2.838884958246,5.466052165895,3.402502826472
    ));
#163 = CARTESIAN_POINT('',(-2.598545743168,5.587323997344,3.296945760986
    ));
#164 = CARTESIAN_POINT('',(-2.344290191276,5.699714403971,3.198526632042
    ));
#165 = CARTESIAN_POINT('',(-2.075858107273,5.801503391292,3.108953811198
    ));
#166 = CARTESIAN_POINT('',(-1.793152449243,5.890736729538,3.030136305073
    ));
#167 = CARTESIAN_POINT('',(-1.158100441265,6.050030456736,2.889066521435
    ));
#168 = CARTESIAN_POINT('',(-0.79956784593,6.116188310074,2.830208450083)
  );
#169 = CARTESIAN_POINT('',(-0.427386395934,6.158260257789,2.792638086469
    ));
#170 = CARTESIAN_POINT('',(-4.851041164973E-02,6.173182440242,
    2.779299436056));
#171 = CARTESIAN_POINT('',(0.329940103223,6.16015734336,2.790963544329)
  );
#172 = CARTESIAN_POINT('',(0.700850568243,6.120643904476,2.826211714248)
  );
#173 = CARTESIAN_POINT('',(1.256086644383,6.023739696508,2.912313697452)
  );
#174 = CARTESIAN_POINT('',(1.450104895589,5.982041796118,2.949320038371)
  );
#175 = CARTESIAN_POINT('',(1.639077137598,5.933867531221,2.992005177791)
  );
#176 = CARTESIAN_POINT('',(1.82269258274,5.879776608746,3.039832283439)
  );
#177 = CARTESIAN_POINT('',(2.000671241357,5.820351151815,3.092240579473)
  );
#178 = CARTESIAN_POINT('',(2.17276392475,5.756197285544,3.148647164174)
  );
#179 = CARTESIAN_POINT('',(2.497312036431,5.622750602092,3.265574165744)
  );
#180 = CARTESIAN_POINT('',(2.650526546876,5.553723952701,3.325878474217)
  );
#181 = CARTESIAN_POINT('',(2.7985119613,5.481259563001,3.388973280986));
#182 = CARTESIAN_POINT('',(2.941397844544,5.405707671646,3.454507154571)
  );
#183 = CARTESIAN_POINT('',(3.07932683351,5.327375771024,3.52216533825));
#184 = CARTESIAN_POINT('',(3.212454326226,5.246528410681,3.591669384256)
  );
#185 = CARTESIAN_POINT('',(3.683954523364,4.941446161183,3.852593593913)
  );
#186 = CARTESIAN_POINT('',(3.994855116574,4.702566391398,4.054342051656)
  );
#187 = CARTESIAN_POINT('',(4.276224788809,4.45097609224,4.26336156109));
#188 = CARTESIAN_POINT('',(4.53080121786,4.189290684726,4.476303139614)
  );
#189 = CARTESIAN_POINT('',(4.761224908385,3.918692200256,4.690779471099)
  );
#190 = CARTESIAN_POINT('',(4.969705476609,3.639196425031,4.904983770383)
  );
#191 = CARTESIAN_POINT('',(5.332237391442,3.080966955958,5.312947392482)
  );
#192 = CARTESIAN_POINT('',(5.487609680404,2.805984120372,5.505349515945)
  );
#193 = CARTESIAN_POINT('',(5.626505086776,2.522673895745,5.693017317424)
  );
#194 = CARTESIAN_POINT('',(5.749601176565,2.229214883199,5.873897759553)
  );
#195 = CARTESIAN_POINT('',(5.856158105768,1.924820282358,6.043608749792)
  );
#196 = CARTESIAN_POINT('',(5.945158446497,1.60929943894,6.194947093206)
  );
#197 = CARTESIAN_POINT('',(6.051966485831,1.108018347764,6.384973670916)
  );
#198 = CARTESIAN_POINT('',(6.083890889074,0.929510726385,6.443737456621)
  );
#199 = CARTESIAN_POINT('',(6.1099767634,0.747543760207,6.493275103615));
#200 = CARTESIAN_POINT('',(6.129827205676,0.563097560726,6.5318450265));
#201 = CARTESIAN_POINT('',(6.14322321489,0.376791997949,6.558180849157)
  );
#202 = CARTESIAN_POINT('',(6.15,0.189005666734,6.571502057808));
#203 = CARTESIAN_POINT('',(6.15,3.16958316745E-15,6.571502057808));
#204 = PCURVE('',#32,#205);
#205 = DEFINITIONAL_REPRESENTATION('',(#206),#329);
#206 = B_SPLINE_CURVE_WITH_KNOTS('',7,(#207,#208,#209,#210,#211,#212,
    #213,#214,#215,#216,#217,#218,#219,#220,#221,#222,#223,#224,#225,
    #226,#227,#228,#229,#230,#231,#232,#233,#234,#235,#236,#237,#238,
    #239,#240,#241,#242,#243,#244,#245,#246,#247,#248,#249,#250,#251,
    #252,#253,#254,#255,#256,#257,#258,#259,#260,#261,#262,#263,#264,
    #265,#266,#267,#268,#269,#270,#271,#272,#273,#274,#275,#276,#277,
    #278,#279,#280,#281,#282,#283,#284,#285,#286,#287,#288,#289,#290,
    #291,#292,#293,#294,#295,#296,#297,#298,#299,#300,#301,#302,#303,
    #304,#305,#306,#307,#308,#309,#310,#311,#312,#313,#314,#315,#316,
    #317,#318,#319,#320,#321,#322,#323,#324,#325,#326,#327,#328),
  .UNSPECIFIED.,.F.,.F.,(8,6,6,6,6,6,6,6,6,6,6,6,6,6,6,6,6,6,6,6,8),(0.,
    3.581509701798E-02,0.101408529848,0.176865615701,0.22131156505,
    0.271943564521,0.300166140597,0.327125661589,0.399092431529,
    0.465858050636,0.501227529111,0.536867200855,0.602139351293,
    0.677226841715,0.721455090745,0.771839089906,0.799923429142,
    0.826750899855,0.898365169764,0.964803764568,1.),.UNSPECIFIED.);
#207 = CARTESIAN_POINT('',(0.,3.128498042192));
#208 = CARTESIAN_POINT('',(3.09674005087E-02,3.128498042192));
#209 = CARTESIAN_POINT('',(6.173008094326E-02,3.142023533432));
#210 = CARTESIAN_POINT('',(9.229494568291E-02,3.168755624622));
#211 = CARTESIAN_POINT('',(0.12264549032,3.20789113191));
#212 = CARTESIAN_POINT('',(0.152723238997,3.258130591155));
#213 = CARTESIAN_POINT('',(0.182402959992,3.317689596442));
#214 = CARTESIAN_POINT('',(0.264681112106,3.506388142089));
#215 = CARTESIAN_POINT('',(0.316674646925,3.654171027679));
#216 = CARTESIAN_POINT('',(0.367790280787,3.819531395084));
#217 = CARTESIAN_POINT('',(0.418226483111,3.995750891427));
#218 = CARTESIAN_POINT('',(0.468259578477,4.178679308558));
#219 = CARTESIAN_POINT('',(0.518357820552,4.366316894493));
#220 = CARTESIAN_POINT('',(0.627692664313,4.778212572643));
#221 = CARTESIAN_POINT('',(0.686597540385,5.00157434967));
#222 = CARTESIAN_POINT('',(0.746591078459,5.225310198896));
#223 = CARTESIAN_POINT('',(0.808243973308,5.447431085296));
#224 = CARTESIAN_POINT('',(0.872094350158,5.665235595634));
#225 = CARTESIAN_POINT('',(0.938630796833,5.874863604057));
#226 = CARTESIAN_POINT('',(1.049452707964,6.186320920411));
#227 = CARTESIAN_POINT('',(1.09180510748,6.297497273495));
#228 = CARTESIAN_POINT('',(1.135493103885,6.403054338702));
#229 = CARTESIAN_POINT('',(1.180583523008,6.501473467779));
#230 = CARTESIAN_POINT('',(1.22714754444,6.591046288922));
#231 = CARTESIAN_POINT('',(1.275264821418,6.669863795127));
#232 = CARTESIAN_POINT('',(1.38172426011,6.810933578565));
#233 = CARTESIAN_POINT('',(1.440887868437,6.869791649917));
#234 = CARTESIAN_POINT('',(1.501548208467,6.907362013531));
#235 = CARTESIAN_POINT('',(1.562903789764,6.920700663944));
#236 = CARTESIAN_POINT('',(1.624220674393,6.909036555671));
#237 = CARTESIAN_POINT('',(1.684738009147,6.873788385752));
#238 = CARTESIAN_POINT('',(1.77638498315,6.787686402547));
#239 = CARTESIAN_POINT('',(1.808628616727,6.750680061629));
#240 = CARTESIAN_POINT('',(1.840302637198,6.707994922209));
#241 = CARTESIAN_POINT('',(1.871390506404,6.660167816562));
#242 = CARTESIAN_POINT('',(1.901871054328,6.607759520527));
#243 = CARTESIAN_POINT('',(1.931718199125,6.551352935825));
#244 = CARTESIAN_POINT('',(1.988777121702,6.434425934255));
#245 = CARTESIAN_POINT('',(2.01608660078,6.374121625783));
#246 = CARTESIAN_POINT('',(2.042857609086,6.311026819014));
#247 = CARTESIAN_POINT('',(2.069116969578,6.245492945429));
#248 = CARTESIAN_POINT('',(2.094890959187,6.17783476175));
#249 = CARTESIAN_POINT('',(2.120206444533,6.108330715743));
#250 = CARTESIAN_POINT('',(2.211522512276,5.847406506087));
#251 = CARTESIAN_POINT('',(2.275066294113,5.645658048346));
#252 = CARTESIAN_POINT('',(2.336180231284,5.436638538907));
#253 = CARTESIAN_POINT('',(2.395298612029,5.223696960389));
#254 = CARTESIAN_POINT('',(2.452895269665,5.009220628901));
#255 = CARTESIAN_POINT('',(2.509472807325,4.795016329617));
#256 = CARTESIAN_POINT('',(2.61770364606,4.387052707519));
#257 = CARTESIAN_POINT('',(2.668962342358,4.194650584054));
#258 = CARTESIAN_POINT('',(2.720128729964,4.006982782576));
#259 = CARTESIAN_POINT('',(2.771706950178,3.826102340447));
#260 = CARTESIAN_POINT('',(2.823989616585,3.656391350208));
#261 = CARTESIAN_POINT('',(2.877183309068,3.505053006794));
#262 = CARTESIAN_POINT('',(2.96052210558,3.315026429084));
#263 = CARTESIAN_POINT('',(2.989992207299,3.256262643379));
#264 = CARTESIAN_POINT('',(3.019854035158,3.206724996386));
#265 = CARTESIAN_POINT('',(3.049984570135,3.1681550735));
#266 = CARTESIAN_POINT('',(3.080325698204,3.141819250843));
#267 = CARTESIAN_POINT('',(3.110860024853,3.128498042192));
#268 = CARTESIAN_POINT('',(3.172560053936,3.128498042192));
#269 = CARTESIAN_POINT('',(3.203322734502,3.142023533285));
#270 = CARTESIAN_POINT('',(3.233887599396,3.168755624674));
#271 = CARTESIAN_POINT('',(3.264238144053,3.207891132192));
#272 = CARTESIAN_POINT('',(3.294315892584,3.258130591257));
#273 = CARTESIAN_POINT('',(3.323995613407,3.317689596041));
#274 = CARTESIAN_POINT('',(3.406273765696,3.506388142089));
#275 = CARTESIAN_POINT('',(3.458267300515,3.65417102768));
#276 = CARTESIAN_POINT('',(3.509382934377,3.819531395082));
#277 = CARTESIAN_POINT('',(3.559819136701,3.995750891429));
#278 = CARTESIAN_POINT('',(3.609852232067,4.178679308557));
#279 = CARTESIAN_POINT('',(3.659950474141,4.366316894494));
#280 = CARTESIAN_POINT('',(3.769285317903,4.778212572643));
#281 = CARTESIAN_POINT('',(3.828190193975,5.001574349669));
#282 = CARTESIAN_POINT('',(3.888183732049,5.225310198898));
#283 = CARTESIAN_POINT('',(3.949836626897,5.447431085294));
#284 = CARTESIAN_POINT('',(4.013687003748,5.665235595635));
#285 = CARTESIAN_POINT('',(4.080223450423,5.874863604057));
#286 = CARTESIAN_POINT('',(4.191045361408,6.186320920001));
#287 = CARTESIAN_POINT('',(4.233397761062,6.297497273528));
#288 = CARTESIAN_POINT('',(4.277085757591,6.403054339014));
#289 = CARTESIAN_POINT('',(4.322176176706,6.501473467958));
#290 = CARTESIAN_POINT('',(4.368740198007,6.591046288802));
#291 = CARTESIAN_POINT('',(4.416857474857,6.669863794927));
#292 = CARTESIAN_POINT('',(4.5233169137,6.810933578565));
#293 = CARTESIAN_POINT('',(4.582480522027,6.869791649917));
#294 = CARTESIAN_POINT('',(4.643140862057,6.907362013531));
#295 = CARTESIAN_POINT('',(4.704496443354,6.920700663944));
#296 = CARTESIAN_POINT('',(4.765813327983,6.909036555671));
#297 = CARTESIAN_POINT('',(4.826330662737,6.873788385752));
#298 = CARTESIAN_POINT('',(4.917977636739,6.787686402548));
#299 = CARTESIAN_POINT('',(4.950221270317,6.750680061629));
#300 = CARTESIAN_POINT('',(4.981895290788,6.707994922209));
#301 = CARTESIAN_POINT('',(5.012983159994,6.660167816561));
#302 = CARTESIAN_POINT('',(5.043463707918,6.607759520527));
#303 = CARTESIAN_POINT('',(5.073310852715,6.551352935826));
#304 = CARTESIAN_POINT('',(5.130369775292,6.434425934256));
#305 = CARTESIAN_POINT('',(5.157679254369,6.374121625783));
#306 = CARTESIAN_POINT('',(5.184450262675,6.311026819014));
#307 = CARTESIAN_POINT('',(5.210709623168,6.245492945429));
#308 = CARTESIAN_POINT('',(5.236483612777,6.17783476175));
#309 = CARTESIAN_POINT('',(5.261799098123,6.108330715744));
#310 = CARTESIAN_POINT('',(5.353115165865,5.847406506087));
#311 = CARTESIAN_POINT('',(5.416658947704,5.645658048344));
#312 = CARTESIAN_POINT('',(5.477772884872,5.43663853891));
#313 = CARTESIAN_POINT('',(5.53689126562,5.223696960386));
#314 = CARTESIAN_POINT('',(5.594487923254,5.009220628901));
#315 = CARTESIAN_POINT('',(5.651065460915,4.795016329617));
#316 = CARTESIAN_POINT('',(5.75929629965,4.387052707518));
#317 = CARTESIAN_POINT('',(5.810554995947,4.194650584055));
#318 = CARTESIAN_POINT('',(5.861721383554,4.006982782576));
#319 = CARTESIAN_POINT('',(5.913299603767,3.826102340447));
#320 = CARTESIAN_POINT('',(5.965582270175,3.656391350208));
#321 = CARTESIAN_POINT('',(6.018775962658,3.505053006794));
#322 = CARTESIAN_POINT('',(6.10211475917,3.315026429084));
#323 = CARTESIAN_POINT('',(6.131584860889,3.256262643379));
#324 = CARTESIAN_POINT('',(6.161446688748,3.206724996385));
#325 = CARTESIAN_POINT('',(6.191577223725,3.1681550735));
#326 = CARTESIAN_POINT('',(6.221918351793,3.141819250843));
#327 = CARTESIAN_POINT('',(6.252452678442,3.128498042192));
#328 = CARTESIAN_POINT('',(6.28318530718,3.128498042192));
#329 = ( GEOMETRIC_REPRESENTATION_CONTEXT(2) 
PARAMETRIC_REPRESENTATION_CONTEXT() REPRESENTATION_CONTEXT('2D SPACE',''
  ) );
#330 = PCURVE('',#331,#336);
#331 = CYLINDRICAL_SURFACE('',#332,6.9);
#332 = AXIS2_PLACEMENT_3D('',#333,#334,#335);
#333 = CARTESIAN_POINT('',(0.,-7.15,9.7000001));
#334 = DIRECTION('',(0.,1.,-3.445092848398E-16));
#335 = DIRECTION('',(1.,0.,0.));
#336 = DEFINITIONAL_REPRESENTATION('',(#337),#460);
#337 = B_SPLINE_CURVE_WITH_KNOTS('',7,(#338,#339,#340,#341,#342,#343,
    #344,#345,#346,#347,#348,#349,#350,#351,#352,#353,#354,#355,#356,
    #357,#358,#359,#360,#361,#362,#363,#364,#365,#366,#367,#368,#369,
    #370,#371,#372,#373,#374,#375,#376,#377,#378,#379,#380,#381,#382,
    #383,#384,#385,#386,#387,#388,#389,#390,#391,#392,#393,#394,#395,
    #396,#397,#398,#399,#400,#401,#402,#403,#404,#405,#406,#407,#408,
    #409,#410,#411,#412,#413,#414,#415,#416,#417,#418,#419,#420,#421,
    #422,#423,#424,#425,#426,#427,#428,#429,#430,#431,#432,#433,#434,
    #435,#436,#437,#438,#439,#440,#441,#442,#443,#444,#445,#446,#447,
    #448,#449,#450,#451,#452,#453,#454,#455,#456,#457,#458,#459),
  .UNSPECIFIED.,.T.,.F.,(8,6,6,6,6,6,6,6,6,6,6,6,6,6,6,6,6,6,6,6,8),(0.,
    3.581509701798E-02,0.101408529848,0.176865615701,0.22131156505,
    0.271943564521,0.300166140597,0.327125661589,0.399092431529,
    0.465858050636,0.501227529111,0.536867200855,0.602139351293,
    0.677226841715,0.721455090745,0.771839089906,0.799923429142,
    0.826750899855,0.898365169764,0.964803764568,1.),.UNSPECIFIED.);
#338 = CARTESIAN_POINT('',(0.47058246221,7.15));
#339 = CARTESIAN_POINT('',(0.47058246221,6.959550486872));
#340 = CARTESIAN_POINT('',(0.472781714059,6.770359771866));
#341 = CARTESIAN_POINT('',(0.477128449793,6.582684990743));
#342 = CARTESIAN_POINT('',(0.483507367146,6.396905072766));
#343 = CARTESIAN_POINT('',(0.491736410683,6.213647809173));
#344 = CARTESIAN_POINT('',(0.501560762418,6.033911512542));
#345 = CARTESIAN_POINT('',(0.532942474996,5.539172176571));
#346 = CARTESIAN_POINT('',(0.557790207424,5.230800239028));
#347 = CARTESIAN_POINT('',(0.58606374691,4.933096651166));
#348 = CARTESIAN_POINT('',(0.616888375959,4.645849304543));
#349 = CARTESIAN_POINT('',(0.649770851868,4.368308633715));
#350 = CARTESIAN_POINT('',(0.684588610493,4.09878571405));
#351 = CARTESIAN_POINT('',(0.764099985059,3.532394428996));
#352 = CARTESIAN_POINT('',(0.809074378231,3.24047645134));
#353 = CARTESIAN_POINT('',(0.856487457016,2.95818212859));
#354 = CARTESIAN_POINT('',(0.906552767022,2.685489282841));
#355 = CARTESIAN_POINT('',(0.959541479154,2.423749475756));
#356 = CARTESIAN_POINT('',(1.015748766843,2.176026337584));
#357 = CARTESIAN_POINT('',(1.110722271438,1.812595555693));
#358 = CARTESIAN_POINT('',(1.147300370629,1.68394783415));
#359 = CARTESIAN_POINT('',(1.185288703439,1.562676003015));
#360 = CARTESIAN_POINT('',(1.224727496761,1.450285596229));
#361 = CARTESIAN_POINT('',(1.265659850923,1.348496608571));
#362 = CARTESIAN_POINT('',(1.308133814066,1.259263270236));
#363 = CARTESIAN_POINT('',(1.402413797632,1.099969543264));
#364 = CARTESIAN_POINT('',(1.454988664444,1.033811689926));
#365 = CARTESIAN_POINT('',(1.50903092665,0.991739742211));
#366 = CARTESIAN_POINT('',(1.563762543586,0.976817559758));
#367 = CARTESIAN_POINT('',(1.618454167095,0.98984265664));
#368 = CARTESIAN_POINT('',(1.672357496048,1.029356095524));
#369 = CARTESIAN_POINT('',(1.753788286122,1.126260303493));
#370 = CARTESIAN_POINT('',(1.782396621798,1.167958203882));
#371 = CARTESIAN_POINT('',(1.810448860329,1.216132468778));
#372 = CARTESIAN_POINT('',(1.837922284936,1.270223391253));
#373 = CARTESIAN_POINT('',(1.864791158657,1.329648848185));
#374 = CARTESIAN_POINT('',(1.89102660848,1.393802714457));
#375 = CARTESIAN_POINT('',(1.941022071515,1.527249397908));
#376 = CARTESIAN_POINT('',(1.964874985971,1.596276047299));
#377 = CARTESIAN_POINT('',(1.988175764615,1.668740436999));
#378 = CARTESIAN_POINT('',(2.010943656169,1.744292328354));
#379 = CARTESIAN_POINT('',(2.033197413483,1.822624228975));
#380 = CARTESIAN_POINT('',(2.054956060709,1.903471589319));
#381 = CARTESIAN_POINT('',(2.133054910589,2.208553838818));
#382 = CARTESIAN_POINT('',(2.186636280365,2.4474336086));
#383 = CARTESIAN_POINT('',(2.237282526677,2.699023907764));
#384 = CARTESIAN_POINT('',(2.285252840593,2.960709315269));
#385 = CARTESIAN_POINT('',(2.330783583511,3.231307799746));
#386 = CARTESIAN_POINT('',(2.374059402403,3.510803574969));
#387 = CARTESIAN_POINT('',(2.453156346294,4.069033044041));
#388 = CARTESIAN_POINT('',(2.4889575179,4.344015879628));
#389 = CARTESIAN_POINT('',(2.522750066781,4.627326104254));
#390 = CARTESIAN_POINT('',(2.554417025728,4.920785116802));
#391 = CARTESIAN_POINT('',(2.583438980538,5.225179717641));
#392 = CARTESIAN_POINT('',(2.608878886778,5.54070056106));
#393 = CARTESIAN_POINT('',(2.640471114313,6.041981652236));
#394 = CARTESIAN_POINT('',(2.650162190697,6.220489273614));
#395 = CARTESIAN_POINT('',(2.658275364516,6.402456239793));
#396 = CARTESIAN_POINT('',(2.664561856375,6.586902439274));
#397 = CARTESIAN_POINT('',(2.668844155457,6.773208002051));
#398 = CARTESIAN_POINT('',(2.67101019138,6.960994333266));
#399 = CARTESIAN_POINT('',(2.67101019138,7.340449512132));
#400 = CARTESIAN_POINT('',(2.668810939554,7.529640227944));
#401 = CARTESIAN_POINT('',(2.664464203789,7.717315010023));
#402 = CARTESIAN_POINT('',(2.658085286398,7.903094928108));
#403 = CARTESIAN_POINT('',(2.649856242889,8.086352190798));
#404 = CARTESIAN_POINT('',(2.640031891238,8.266088486406));
#405 = CARTESIAN_POINT('',(2.608650178594,8.760827823429));
#406 = CARTESIAN_POINT('',(2.583802446166,9.069199760975));
#407 = CARTESIAN_POINT('',(2.555528906681,9.366903348829));
#408 = CARTESIAN_POINT('',(2.52470427763,9.654150695461));
#409 = CARTESIAN_POINT('',(2.491821801722,9.931691366283));
#410 = CARTESIAN_POINT('',(2.457004043096,10.201214285951));
#411 = CARTESIAN_POINT('',(2.377492668531,10.767605571005));
#412 = CARTESIAN_POINT('',(2.332518275359,11.059523548659));
#413 = CARTESIAN_POINT('',(2.285105196573,11.341817871412));
#414 = CARTESIAN_POINT('',(2.235039886568,11.614510717157));
#415 = CARTESIAN_POINT('',(2.182051174436,11.876250524246));
#416 = CARTESIAN_POINT('',(2.125843886747,12.123973662416));
#417 = CARTESIAN_POINT('',(2.030870382276,12.487404443829));
#418 = CARTESIAN_POINT('',(1.994292282969,12.616052165895));
#419 = CARTESIAN_POINT('',(1.95630395005,12.737323997344));
#420 = CARTESIAN_POINT('',(1.916865156733,12.849714403971));
#421 = CARTESIAN_POINT('',(1.875932802687,12.951503391292));
#422 = CARTESIAN_POINT('',(1.833458839658,13.040736729538));
#423 = CARTESIAN_POINT('',(1.739178855958,13.200030456736));
#424 = CARTESIAN_POINT('',(1.686603989146,13.266188310074));
#425 = CARTESIAN_POINT('',(1.63256172694,13.308260257789));
#426 = CARTESIAN_POINT('',(1.577830110004,13.323182440242));
#427 = CARTESIAN_POINT('',(1.523138486495,13.31015734336));
#428 = CARTESIAN_POINT('',(1.469235157542,13.270643904476));
#429 = CARTESIAN_POINT('',(1.387804367469,13.173739696508));
#430 = CARTESIAN_POINT('',(1.359196031792,13.132041796118));
#431 = CARTESIAN_POINT('',(1.33114379326,13.083867531221));
#432 = CARTESIAN_POINT('',(1.303670368653,13.029776608746));
#433 = CARTESIAN_POINT('',(1.276801494933,12.970351151815));
#434 = CARTESIAN_POINT('',(1.25056604511,12.906197285544));
#435 = CARTESIAN_POINT('',(1.200570582075,12.772750602092));
#436 = CARTESIAN_POINT('',(1.176717667619,12.703723952701));
#437 = CARTESIAN_POINT('',(1.153416888975,12.631259563001));
#438 = CARTESIAN_POINT('',(1.13064899742,12.555707671646));
#439 = CARTESIAN_POINT('',(1.108395240107,12.477375771024));
#440 = CARTESIAN_POINT('',(1.086636592881,12.396528410681));
#441 = CARTESIAN_POINT('',(1.008537743001,12.091446161183));
#442 = CARTESIAN_POINT('',(0.954956373225,11.852566391398));
#443 = CARTESIAN_POINT('',(0.904310126914,11.600976092241));
#444 = CARTESIAN_POINT('',(0.856339812996,11.339290684726));
#445 = CARTESIAN_POINT('',(0.810809070079,11.068692200256));
#446 = CARTESIAN_POINT('',(0.767533251187,10.789196425031));
#447 = CARTESIAN_POINT('',(0.688436307296,10.230966955958));
#448 = CARTESIAN_POINT('',(0.65263513569,9.955984120372));
#449 = CARTESIAN_POINT('',(0.618842586809,9.672673895745));
#450 = CARTESIAN_POINT('',(0.587175627862,9.379214883199));
#451 = CARTESIAN_POINT('',(0.558153673052,9.074820282358));
#452 = CARTESIAN_POINT('',(0.532713766812,8.75929943894));
#453 = CARTESIAN_POINT('',(0.501121539276,8.258018347764));
#454 = CARTESIAN_POINT('',(0.491430462893,8.079510726385));
#455 = CARTESIAN_POINT('',(0.483317289074,7.897543760207));
#456 = CARTESIAN_POINT('',(0.477030797215,7.713097560726));
#457 = CARTESIAN_POINT('',(0.472748498133,7.526791997949));
#458 = CARTESIAN_POINT('',(0.47058246221,7.339005666734));
#459 = CARTESIAN_POINT('',(0.47058246221,7.15));
#460 = ( GEOMETRIC_REPRESENTATION_CONTEXT(2) 
PARAMETRIC_REPRESENTATION_CONTEXT() REPRESENTATION_CONTEXT('2D SPACE',''
  ) );
#461 = ADVANCED_FACE('',(#462),#331,.F.);
#462 = FACE_BOUND('',#463,.F.);
#463 = EDGE_LOOP('',(#464));
#464 = ORIENTED_EDGE('',*,*,#79,.T.);
#465 = ADVANCED_FACE('',(#466),#66,.T.);
#466 = FACE_BOUND('',#467,.T.);
#467 = EDGE_LOOP('',(#468));
#468 = ORIENTED_EDGE('',*,*,#51,.T.);
#469 = ( GEOMETRIC_REPRESENTATION_CONTEXT(3) 
GLOBAL_UNCERTAINTY_ASSIGNED_CONTEXT((#473)) GLOBAL_UNIT_ASSIGNED_CONTEXT
((#470,#471,#472)) REPRESENTATION_CONTEXT('Context #1',
  '3D Context with UNIT and UNCERTAINTY') );
#470 = ( LENGTH_UNIT() NAMED_UNIT(*) SI_UNIT(.MILLI.,.METRE.) );
#471 = ( NAMED_UNIT(*) PLANE_ANGLE_UNIT() SI_UNIT($,.RADIAN.) );
#472 = ( NAMED_UNIT(*) SI_UNIT($,.STERADIAN.) SOLID_ANGLE_UNIT() );
#473 = UNCERTAINTY_MEASURE_WITH_UNIT(LENGTH_MEASURE(2.E-07),#470,
  'distance_accuracy_value','confusion accuracy');
#474 = PRODUCT_RELATED_PRODUCT_CATEGORY('part',$,(#7));
ENDSEC;
END-ISO-10303-21;
