ISO-10303-21;
HEADER;
FILE_DESCRIPTION(('Open CASCADE Model'),'2;1');
FILE_NAME('tpu_pad','2026-09-06T20:54:33',('Author'),('Open CASCADE'),
  'Open CASCADE STEP processor 7.9','build123d','Unknown');
FILE_SCHEMA(('AUTOMOTIVE_DESIGN { 1 0 10303 214 1 1 1 1 }'));
ENDSEC;
DATA;
#1 = APPLICATION_PROTOCOL_DEFINITION('international standard',
  'automotive_design',2000,#2);
#2 = APPLICATION_CONTEXT(
  'core data for automotive mechanical design processes');
#3 = SHAPE_DEFINITION_REPRESENTATION(#4,#10);
#4 = PRODUCT_DEFINITION_SHAPE('','',#5);
#5 = PRODUCT_DEFINITION('design','',#6,#9);
#6 = PRODUCT_DEFINITION_FORMATION('','',#7);
#7 = PRODUCT('tpu_pad','tpu_pad','',(#8));
#8 = PRODUCT_CONTEXT('',#2,'mechanical');
#9 = PRODUCT_DEFINITION_CONTEXT('part definition',#2,'design');
#10 = ADVANCED_BREP_SHAPE_REPRESENTATION('',(#11,#15),#1420);
#11 = AXIS2_PLACEMENT_3D('',#12,#13,#14);
#12 = CARTESIAN_POINT('',(0.,0.,0.));
#13 = DIRECTION('',(0.,0.,1.));
#14 = DIRECTION('',(1.,0.,-0.));
#15 = MANIFOLD_SOLID_BREP('',#16);
#16 = CLOSED_SHELL('',(#17,#461,#762,#872,#1208,#1284,#1333,#1382,#1409,
    #1413));
#17 = ADVANCED_FACE('',(#18),#32,.T.);
#18 = FACE_BOUND('',#19,.T.);
#19 = EDGE_LOOP('',(#20,#50,#77,#78));
#20 = ORIENTED_EDGE('',*,*,#21,.T.);
#21 = EDGE_CURVE('',#22,#24,#26,.T.);
#22 = VERTEX_POINT('',#23);
#23 = CARTESIAN_POINT('',(5.25,-1.285879139105E-15,3.203123475609));
#24 = VERTEX_POINT('',#25);
#25 = CARTESIAN_POINT('',(5.25,-1.285879139105E-15,8.95));
#26 = SEAM_CURVE('',#27,(#31,#43),.PCURVE_S1.);
#27 = LINE('',#28,#29);
#28 = CARTESIAN_POINT('',(5.25,-1.285879139105E-15,0.));
#29 = VECTOR('',#30,1.);
#30 = DIRECTION('',(0.,0.,1.));
#31 = PCURVE('',#32,#37);
#32 = CYLINDRICAL_SURFACE('',#33,5.25);
#33 = AXIS2_PLACEMENT_3D('',#34,#35,#36);
#34 = CARTESIAN_POINT('',(0.,0.,0.));
#35 = DIRECTION('',(0.,0.,1.));
#36 = DIRECTION('',(1.,0.,-0.));
#37 = DEFINITIONAL_REPRESENTATION('',(#38),#42);
#38 = LINE('',#39,#40);
#39 = CARTESIAN_POINT('',(6.28318530718,-0.));
#40 = VECTOR('',#41,1.);
#41 = DIRECTION('',(0.,1.));
#42 = ( GEOMETRIC_REPRESENTATION_CONTEXT(2) 
PARAMETRIC_REPRESENTATION_CONTEXT() REPRESENTATION_CONTEXT('2D SPACE',''
  ) );
#43 = PCURVE('',#32,#44);
#44 = DEFINITIONAL_REPRESENTATION('',(#45),#49);
#45 = LINE('',#46,#47);
#46 = CARTESIAN_POINT('',(0.,-0.));
#47 = VECTOR('',#48,1.);
#48 = DIRECTION('',(0.,1.));
#49 = ( GEOMETRIC_REPRESENTATION_CONTEXT(2) 
PARAMETRIC_REPRESENTATION_CONTEXT() REPRESENTATION_CONTEXT('2D SPACE',''
  ) );
#50 = ORIENTED_EDGE('',*,*,#51,.F.);
#51 = EDGE_CURVE('',#24,#24,#52,.T.);
#52 = SURFACE_CURVE('',#53,(#58,#65),.PCURVE_S1.);
#53 = CIRCLE('',#54,5.25);
#54 = AXIS2_PLACEMENT_3D('',#55,#56,#57);
#55 = CARTESIAN_POINT('',(0.,0.,8.95));
#56 = DIRECTION('',(0.,0.,1.));
#57 = DIRECTION('',(1.,0.,-0.));
#58 = PCURVE('',#32,#59);
#59 = DEFINITIONAL_REPRESENTATION('',(#60),#64);
#60 = LINE('',#61,#62);
#61 = CARTESIAN_POINT('',(0.,8.95));
#62 = VECTOR('',#63,1.);
#63 = DIRECTION('',(1.,0.));
#64 = ( GEOMETRIC_REPRESENTATION_CONTEXT(2) 
PARAMETRIC_REPRESENTATION_CONTEXT() REPRESENTATION_CONTEXT('2D SPACE',''
  ) );
#65 = PCURVE('',#66,#71);
#66 = PLANE('',#67);
#67 = AXIS2_PLACEMENT_3D('',#68,#69,#70);
#68 = CARTESIAN_POINT('',(0.,0.,8.95));
#69 = DIRECTION('',(0.,0.,1.));
#70 = DIRECTION('',(1.,0.,-0.));
#71 = DEFINITIONAL_REPRESENTATION('',(#72),#76);
#72 = CIRCLE('',#73,5.25);
#73 = AXIS2_PLACEMENT_2D('',#74,#75);
#74 = CARTESIAN_POINT('',(0.,0.));
#75 = DIRECTION('',(1.,0.));
#76 = ( GEOMETRIC_REPRESENTATION_CONTEXT(2) 
PARAMETRIC_REPRESENTATION_CONTEXT() REPRESENTATION_CONTEXT('2D SPACE',''
  ) );
#77 = ORIENTED_EDGE('',*,*,#21,.F.);
#78 = ORIENTED_EDGE('',*,*,#79,.T.);
#79 = EDGE_CURVE('',#22,#22,#80,.T.);
#80 = SURFACE_CURVE('',#81,(#204,#330),.PCURVE_S1.);
#81 = B_SPLINE_CURVE_WITH_KNOTS('',7,(#82,#83,#84,#85,#86,#87,#88,#89,
    #90,#91,#92,#93,#94,#95,#96,#97,#98,#99,#100,#101,#102,#103,#104,
    #105,#106,#107,#108,#109,#110,#111,#112,#113,#114,#115,#116,#117,
    #118,#119,#120,#121,#122,#123,#124,#125,#126,#127,#128,#129,#130,
    #131,#132,#133,#134,#135,#136,#137,#138,#139,#140,#141,#142,#143,
    #144,#145,#146,#147,#148,#149,#150,#151,#152,#153,#154,#155,#156,
    #157,#158,#159,#160,#161,#162,#163,#164,#165,#166,#167,#168,#169,
    #170,#171,#172,#173,#174,#175,#176,#177,#178,#179,#180,#181,#182,
    #183,#184,#185,#186,#187,#188,#189,#190,#191,#192,#193,#194,#195,
    #196,#197,#198,#199,#200,#201,#202,#203),.UNSPECIFIED.,.T.,.F.,(8,6,
    6,6,6,6,6,6,6,6,6,6,6,6,6,6,6,6,6,6,8),(0.,4.140139395524E-02,
    0.105377647576,0.1763096496,0.221814720025,0.27035028223,
    0.300319904582,0.325858200956,0.396922108541,0.460573536723,
    0.501235649813,0.542432917877,0.606093742018,0.676676019834,
    0.721956731378,0.770252993111,0.800074852778,0.825487234749,
    0.896200767778,0.959538368003,1.),.UNSPECIFIED.);
#82 = CARTESIAN_POINT('',(5.25,-8.881784197001E-16,3.203123475609));
#83 = CARTESIAN_POINT('',(5.25,0.185530207755,3.203123475609));
#84 = CARTESIAN_POINT('',(5.242350841654,0.370003850509,3.215660207844)
  );
#85 = CARTESIAN_POINT('',(5.227209026755,0.553086797665,3.240479443776)
  );
#86 = CARTESIAN_POINT('',(5.204743285595,0.734346022029,3.276875537993)
  );
#87 = CARTESIAN_POINT('',(5.175177953272,0.913146256655,3.323684691113)
  );
#88 = CARTESIAN_POINT('',(5.13891676245,1.088551831292,3.379306506122));
#89 = CARTESIAN_POINT('',(5.031583544851,1.522982918589,3.53825170853));
#90 = CARTESIAN_POINT('',(4.95164515513,1.778149906542,3.652033434613));
#91 = CARTESIAN_POINT('',(4.857863345616,2.02529874859,3.778507964352));
#92 = CARTESIAN_POINT('',(4.750771636861,2.264675652493,3.913757810463)
  );
#93 = CARTESIAN_POINT('',(4.630637509127,2.496636804382,4.054964073508)
  );
#94 = CARTESIAN_POINT('',(4.497139110582,2.721772488244,4.200244048859)
  );
#95 = CARTESIAN_POINT('',(4.185071805305,3.183313351687,4.512375045772)
  );
#96 = CARTESIAN_POINT('',(4.003887499497,3.417237500934,4.679146894097)
  );
#97 = CARTESIAN_POINT('',(3.804448962686,3.643133966973,4.846594031067)
  );
#98 = CARTESIAN_POINT('',(3.585085609502,3.860856498946,5.013043850283)
  );
#99 = CARTESIAN_POINT('',(3.343809879613,4.069354860326,5.176435750706)
  );
#100 = CARTESIAN_POINT('',(3.07856324214,4.266494595634,5.334005734365)
  );
#101 = CARTESIAN_POINT('',(2.600666036648,4.565918516283,5.577000715637)
  );
#102 = CARTESIAN_POINT('',(2.402546656599,4.677310660299,5.668395038003)
  );
#103 = CARTESIAN_POINT('',(2.192782297907,4.781881226721,5.755003405517)
  );
#104 = CARTESIAN_POINT('',(1.971155109397,4.878291820992,5.835486191238)
  );
#105 = CARTESIAN_POINT('',(1.737554291192,4.965048232007,5.908371252453)
  );
#106 = CARTESIAN_POINT('',(1.492009444463,5.040483930397,5.972050127583)
  );
#107 = CARTESIAN_POINT('',(0.960308711521,5.169141255354,6.081017597056)
  );
#108 = CARTESIAN_POINT('',(0.671600865192,5.220775627244,6.12499120862)
  );
#109 = CARTESIAN_POINT('',(0.373198695541,5.254107767048,6.153501855195)
  );
#110 = CARTESIAN_POINT('',(6.986088625747E-02,5.267104584886,
    6.164632944514));
#111 = CARTESIAN_POINT('',(-0.233549479528,5.2591736482,6.157821666889)
  );
#112 = CARTESIAN_POINT('',(-0.532168581806,5.231154687399,6.133873184309
    ));
#113 = CARTESIAN_POINT('',(-0.999801346761,5.157088933645,6.070860356044
    ));
#114 = CARTESIAN_POINT('',(-1.174354091742,5.122092207322,6.041128567924
    ));
#115 = CARTESIAN_POINT('',(-1.344555947411,5.080854136856,6.0061658079)
  );
#116 = CARTESIAN_POINT('',(-1.510052676165,5.033887173084,5.966455261537
    ));
#117 = CARTESIAN_POINT('',(-1.670519286073,4.981737871683,5.92251512944)
  );
#118 = CARTESIAN_POINT('',(-1.825660285165,4.924989074858,5.874895910526
    ));
#119 = CARTESIAN_POINT('',(-2.102647087019,4.812514238466,5.780958686656
    ));
#120 = CARTESIAN_POINT('',(-2.226213434545,4.757800895574,5.735425172202
    ));
#121 = CARTESIAN_POINT('',(-2.345971059866,4.700389845728,5.687839446794
    ));
#122 = CARTESIAN_POINT('',(-2.461991150203,4.6405239416,5.638443383386)
  );
#123 = CARTESIAN_POINT('',(-2.574353774009,4.578421065005,5.587458569322
    ));
#124 = CARTESIAN_POINT('',(-2.683147656544,4.514274084729,5.53508645263)
  );
#125 = CARTESIAN_POINT('',(-3.081544090349,4.264531762998,5.332420254376
    ));
#126 = CARTESIAN_POINT('',(-3.348386368044,4.065877071482,5.173664494228
    ));
#127 = CARTESIAN_POINT('',(-3.590945766503,3.855729993205,5.009035455893
    ));
#128 = CARTESIAN_POINT('',(-3.811320893871,3.636260386099,4.84134847067)
  );
#129 = CARTESIAN_POINT('',(-4.011535558447,3.408526960579,4.672699896524
    ));
#130 = CARTESIAN_POINT('',(-4.193284445289,3.172664691089,4.504794128224
    ));
#131 = CARTESIAN_POINT('',(-4.505006882295,2.708718976088,4.191775242176
    ));
#132 = CARTESIAN_POINT('',(-4.637836970728,2.483233317356,4.046680591636
    ));
#133 = CARTESIAN_POINT('',(-4.757319713699,2.250901168911,3.905736613022
    ));
#134 = CARTESIAN_POINT('',(-4.863757498961,2.011134362201,3.770851894865
    ));
#135 = CARTESIAN_POINT('',(-4.956868432803,1.763581411997,3.644879355795
    ));
#136 = CARTESIAN_POINT('',(-5.036109367769,1.507996021733,3.531769903865
    ));
#137 = CARTESIAN_POINT('',(-5.141691889106,1.075027034983,3.375045283611
    ));
#138 = CARTESIAN_POINT('',(-5.177060583588,0.901681195122,3.32070283965)
  );
#139 = CARTESIAN_POINT('',(-5.205889595749,0.72504519191,3.275018375031)
  );
#140 = CARTESIAN_POINT('',(-5.227791011511,0.546024948368,3.239525476564
    ));
#141 = CARTESIAN_POINT('',(-5.242548271542,0.365240460408,3.215336649475
    ));
#142 = CARTESIAN_POINT('',(-5.25,0.183120158626,3.203123475609));
#143 = CARTESIAN_POINT('',(-5.25,-0.185530207108,3.203123475609));
#144 = CARTESIAN_POINT('',(-5.242350841706,-0.370003850392,
    3.215660207753));
#145 = CARTESIAN_POINT('',(-5.227209026741,-0.553086798164,
    3.240479443809));
#146 = CARTESIAN_POINT('',(-5.204743285487,-0.734346022589,
    3.276875538166));
#147 = CARTESIAN_POINT('',(-5.175177953222,-0.91314625663,3.323684691175
    ));
#148 = CARTESIAN_POINT('',(-5.138916762617,-1.088551830617,
    3.379306505875));
#149 = CARTESIAN_POINT('',(-5.031583544851,-1.52298291859,3.53825170853)
  );
#150 = CARTESIAN_POINT('',(-4.95164515513,-1.778149906542,3.652033434614
    ));
#151 = CARTESIAN_POINT('',(-4.857863345617,-2.025298748588,
    3.778507964351));
#152 = CARTESIAN_POINT('',(-4.75077163686,-2.264675652495,3.913757810464
    ));
#153 = CARTESIAN_POINT('',(-4.630637509127,-2.496636804382,
    4.054964073508));
#154 = CARTESIAN_POINT('',(-4.497139110582,-2.721772488243,
    4.200244048859));
#155 = CARTESIAN_POINT('',(-4.185071805305,-3.183313351687,
    4.512375045772));
#156 = CARTESIAN_POINT('',(-4.003887499496,-3.417237500935,
    4.679146894098));
#157 = CARTESIAN_POINT('',(-3.804448962688,-3.643133966972,
    4.846594031066));
#158 = CARTESIAN_POINT('',(-3.5850856095,-3.860856498948,5.013043850284)
  );
#159 = CARTESIAN_POINT('',(-3.343809879614,-4.069354860326,
    5.176435750706));
#160 = CARTESIAN_POINT('',(-3.07856324214,-4.266494595634,5.334005734365
    ));
#161 = CARTESIAN_POINT('',(-2.600666036648,-4.565918516283,
    5.577000715637));
#162 = CARTESIAN_POINT('',(-2.402546656599,-4.677310660299,
    5.668395038003));
#163 = CARTESIAN_POINT('',(-2.192782297907,-4.781881226721,
    5.755003405517));
#164 = CARTESIAN_POINT('',(-1.971155109397,-4.878291820992,
    5.835486191238));
#165 = CARTESIAN_POINT('',(-1.737554291192,-4.965048232007,
    5.908371252453));
#166 = CARTESIAN_POINT('',(-1.492009444463,-5.040483930397,
    5.972050127583));
#167 = CARTESIAN_POINT('',(-0.960308711563,-5.169141255344,
    6.081017597047));
#168 = CARTESIAN_POINT('',(-0.671600865196,-5.220775627249,
    6.124991208624));
#169 = CARTESIAN_POINT('',(-0.373198695507,-5.254107767054,6.1535018552)
  );
#170 = CARTESIAN_POINT('',(-6.986088622343E-02,-5.267104584883,
    6.164632944511));
#171 = CARTESIAN_POINT('',(0.233549479524,-5.259173648195,6.157821666885
    ));
#172 = CARTESIAN_POINT('',(0.532168581763,-5.231154687406,6.133873184315
    ));
#173 = CARTESIAN_POINT('',(0.999801346761,-5.157088933645,6.070860356044
    ));
#174 = CARTESIAN_POINT('',(1.174354091742,-5.122092207322,6.041128567924
    ));
#175 = CARTESIAN_POINT('',(1.344555947411,-5.080854136856,6.0061658079)
  );
#176 = CARTESIAN_POINT('',(1.510052676165,-5.033887173085,5.966455261537
    ));
#177 = CARTESIAN_POINT('',(1.670519286073,-4.981737871683,5.92251512944)
  );
#178 = CARTESIAN_POINT('',(1.825660285165,-4.924989074858,5.874895910526
    ));
#179 = CARTESIAN_POINT('',(2.102647087036,-4.812514238459,5.78095868665)
  );
#180 = CARTESIAN_POINT('',(2.226213434545,-4.757800895573,5.735425172202
    ));
#181 = CARTESIAN_POINT('',(2.345971059851,-4.700389845735,5.6878394468)
  );
#182 = CARTESIAN_POINT('',(2.461991150191,-4.640523941608,5.638443383392
    ));
#183 = CARTESIAN_POINT('',(2.574353774013,-4.578421065004,5.587458569321
    ));
#184 = CARTESIAN_POINT('',(2.683147656561,-4.514274084719,5.535086452622
    ));
#185 = CARTESIAN_POINT('',(3.081544090349,-4.264531762998,5.332420254376
    ));
#186 = CARTESIAN_POINT('',(3.348386368043,-4.065877071482,5.173664494229
    ));
#187 = CARTESIAN_POINT('',(3.590945766505,-3.855729993204,5.009035455893
    ));
#188 = CARTESIAN_POINT('',(3.81132089387,-3.636260386099,4.84134847067)
  );
#189 = CARTESIAN_POINT('',(4.011535558448,-3.408526960579,4.672699896524
    ));
#190 = CARTESIAN_POINT('',(4.193284445289,-3.172664691089,4.504794128224
    ));
#191 = CARTESIAN_POINT('',(4.505006882295,-2.708718976088,4.191775242176
    ));
#192 = CARTESIAN_POINT('',(4.637836970728,-2.483233317356,4.046680591636
    ));
#193 = CARTESIAN_POINT('',(4.757319713699,-2.250901168911,3.905736613021
    ));
#194 = CARTESIAN_POINT('',(4.863757498961,-2.011134362201,3.770851894865
    ));
#195 = CARTESIAN_POINT('',(4.956868432803,-1.763581411997,3.644879355794
    ));
#196 = CARTESIAN_POINT('',(5.036109367769,-1.507996021733,3.531769903865
    ));
#197 = CARTESIAN_POINT('',(5.141691889106,-1.075027034983,3.375045283611
    ));
#198 = CARTESIAN_POINT('',(5.177060583588,-0.901681195122,3.32070283965)
  );
#199 = CARTESIAN_POINT('',(5.205889595749,-0.72504519191,3.275018375031)
  );
#200 = CARTESIAN_POINT('',(5.227791011511,-0.546024948368,3.239525476564
    ));
#201 = CARTESIAN_POINT('',(5.242548271542,-0.365240460408,3.215336649475
    ));
#202 = CARTESIAN_POINT('',(5.25,-0.183120158626,3.203123475609));
#203 = CARTESIAN_POINT('',(5.25,-8.881784197001E-16,3.203123475609));
#204 = PCURVE('',#32,#205);
#205 = DEFINITIONAL_REPRESENTATION('',(#206),#329);
#206 = B_SPLINE_CURVE_WITH_KNOTS('',7,(#207,#208,#209,#210,#211,#212,
    #213,#214,#215,#216,#217,#218,#219,#220,#221,#222,#223,#224,#225,
    #226,#227,#228,#229,#230,#231,#232,#233,#234,#235,#236,#237,#238,
    #239,#240,#241,#242,#243,#244,#245,#246,#247,#248,#249,#250,#251,
    #252,#253,#254,#255,#256,#257,#258,#259,#260,#261,#262,#263,#264,
    #265,#266,#267,#268,#269,#270,#271,#272,#273,#274,#275,#276,#277,
    #278,#279,#280,#281,#282,#283,#284,#285,#286,#287,#288,#289,#290,
    #291,#292,#293,#294,#295,#296,#297,#298,#299,#300,#301,#302,#303,
    #304,#305,#306,#307,#308,#309,#310,#311,#312,#313,#314,#315,#316,
    #317,#318,#319,#320,#321,#322,#323,#324,#325,#326,#327,#328),
  .UNSPECIFIED.,.F.,.F.,(8,6,6,6,6,6,6,6,6,6,6,6,6,6,6,6,6,6,6,6,8),(0.,
    4.140139395524E-02,0.105377647576,0.1763096496,0.221814720025,
    0.27035028223,0.300319904582,0.325858200956,0.396922108541,
    0.460573536723,0.501235649813,0.542432917877,0.606093742018,
    0.676676019834,0.721956731378,0.770252993111,0.800074852778,
    0.825487234749,0.896200767778,0.959538368003,1.),.UNSPECIFIED.);
#207 = CARTESIAN_POINT('',(0.,3.203123475609));
#208 = CARTESIAN_POINT('',(3.533908719144E-02,3.203123475609));
#209 = CARTESIAN_POINT('',(7.047686955231E-02,3.215660207844));
#210 = CARTESIAN_POINT('',(0.10542208907,3.240479443776));
#211 = CARTESIAN_POINT('',(0.140159934754,3.276875537993));
#212 = CARTESIAN_POINT('',(0.174635213554,3.323684691113));
#213 = CARTESIAN_POINT('',(0.208727104369,3.379306506122));
#214 = CARTESIAN_POINT('',(0.29396403742,3.53825170853));
#215 = CARTESIAN_POINT('',(0.344800624341,3.652033434613));
#216 = CARTESIAN_POINT('',(0.395013151535,3.778507964352));
#217 = CARTESIAN_POINT('',(0.44481403096,3.913757810463));
#218 = CARTESIAN_POINT('',(0.494441145153,4.054964073508));
#219 = CARTESIAN_POINT('',(0.544208748546,4.200244048859));
#220 = CARTESIAN_POINT('',(0.65033082289,4.512375045772));
#221 = CARTESIAN_POINT('',(0.706572806706,4.679146894097));
#222 = CARTESIAN_POINT('',(0.76377940957,4.846594031067));
#223 = CARTESIAN_POINT('',(0.822409750659,5.013043850283));
#224 = CARTESIAN_POINT('',(0.882897798087,5.176435750706));
#225 = CARTESIAN_POINT('',(0.945648629029,5.334005734365));
#226 = CARTESIAN_POINT('',(1.053067815257,5.577000715637));
#227 = CARTESIAN_POINT('',(1.096311797821,5.668395038003));
#228 = CARTESIAN_POINT('',(1.140866271137,5.755003405517));
#229 = CARTESIAN_POINT('',(1.186784908524,5.835486191238));
#230 = CARTESIAN_POINT('',(1.234127945491,5.908371252453));
#231 = CARTESIAN_POINT('',(1.282965843699,5.972050127583));
#232 = CARTESIAN_POINT('',(1.387164916501,6.081017597056));
#233 = CARTESIAN_POINT('',(1.442927527913,6.12499120862));
#234 = CARTESIAN_POINT('',(1.499918732494,6.153501855195));
#235 = CARTESIAN_POINT('',(1.55750584216,6.164632944514));
#236 = CARTESIAN_POINT('',(1.615106022777,6.157821666889));
#237 = CARTESIAN_POINT('',(1.672120496315,6.133873184309));
#238 = CARTESIAN_POINT('',(1.762303708923,6.070860356044));
#239 = CARTESIAN_POINT('',(1.7961853249,6.041128567924));
#240 = CARTESIAN_POINT('',(1.829500983668,6.0061658079));
#241 = CARTESIAN_POINT('',(1.862225981846,5.966455261537));
#242 = CARTESIAN_POINT('',(1.894329974489,5.92251512944));
#243 = CARTESIAN_POINT('',(1.92577621316,5.874895910526));
#244 = CARTESIAN_POINT('',(1.982719444539,5.780958686656));
#245 = CARTESIAN_POINT('',(2.008447505663,5.735425172202));
#246 = CARTESIAN_POINT('',(2.033726067009,5.687839446794));
#247 = CARTESIAN_POINT('',(2.058574965172,5.638443383386));
#248 = CARTESIAN_POINT('',(2.083013503144,5.587458569322));
#249 = CARTESIAN_POINT('',(2.10706117974,5.53508645263));
#250 = CARTESIAN_POINT('',(2.19662367305,5.332420254376));
#251 = CARTESIAN_POINT('',(2.259786448744,5.173664494228));
#252 = CARTESIAN_POINT('',(2.320660055645,5.009035455893));
#253 = CARTESIAN_POINT('',(2.379657232165,4.84134847067));
#254 = CARTESIAN_POINT('',(2.437220547379,4.672699896524));
#255 = CARTESIAN_POINT('',(2.493818078955,4.504794128224));
#256 = CARTESIAN_POINT('',(2.600283280569,4.191775242176));
#257 = CARTESIAN_POINT('',(2.650043640423,4.046680591636));
#258 = CARTESIAN_POINT('',(2.699676655746,3.905736613022));
#259 = CARTESIAN_POINT('',(2.749494485894,3.770851894865));
#260 = CARTESIAN_POINT('',(2.799733618075,3.644879355795));
#261 = CARTESIAN_POINT('',(2.850606469368,3.531769903865));
#262 = CARTESIAN_POINT('',(2.93549344233,3.375045283611));
#263 = CARTESIAN_POINT('',(2.969167704023,3.32070283965));
#264 = CARTESIAN_POINT('',(3.003215099635,3.275018375031));
#265 = CARTESIAN_POINT('',(3.037518460197,3.239525476564));
#266 = CARTESIAN_POINT('',(3.072023092992,3.215336649475));
#267 = CARTESIAN_POINT('',(3.106712623375,3.203123475609));
#268 = CARTESIAN_POINT('',(3.176931740658,3.203123475609));
#269 = CARTESIAN_POINT('',(3.21206952312,3.215660207753));
#270 = CARTESIAN_POINT('',(3.247014742753,3.240479443809));
#271 = CARTESIAN_POINT('',(3.281752588452,3.276875538166));
#272 = CARTESIAN_POINT('',(3.316227867141,3.323684691175));
#273 = CARTESIAN_POINT('',(3.350319757826,3.379306505875));
#274 = CARTESIAN_POINT('',(3.435556691009,3.53825170853));
#275 = CARTESIAN_POINT('',(3.486393277931,3.652033434614));
#276 = CARTESIAN_POINT('',(3.536605805124,3.778507964351));
#277 = CARTESIAN_POINT('',(3.58640668455,3.913757810464));
#278 = CARTESIAN_POINT('',(3.636033798743,4.054964073508));
#279 = CARTESIAN_POINT('',(3.685801402136,4.200244048859));
#280 = CARTESIAN_POINT('',(3.79192347648,4.512375045772));
#281 = CARTESIAN_POINT('',(3.848165460296,4.679146894098));
#282 = CARTESIAN_POINT('',(3.905372063159,4.846594031066));
#283 = CARTESIAN_POINT('',(3.96400240425,5.013043850284));
#284 = CARTESIAN_POINT('',(4.024490451677,5.176435750706));
#285 = CARTESIAN_POINT('',(4.087241282618,5.334005734365));
#286 = CARTESIAN_POINT('',(4.194660468847,5.577000715637));
#287 = CARTESIAN_POINT('',(4.237904451411,5.668395038003));
#288 = CARTESIAN_POINT('',(4.282458924727,5.755003405517));
#289 = CARTESIAN_POINT('',(4.328377562114,5.835486191238));
#290 = CARTESIAN_POINT('',(4.375720599081,5.908371252453));
#291 = CARTESIAN_POINT('',(4.424558497289,5.972050127583));
#292 = CARTESIAN_POINT('',(4.528757570083,6.081017597047));
#293 = CARTESIAN_POINT('',(4.584520181502,6.124991208624));
#294 = CARTESIAN_POINT('',(4.64151138609,6.1535018552));
#295 = CARTESIAN_POINT('',(4.699098495756,6.164632944511));
#296 = CARTESIAN_POINT('',(4.756698676366,6.157821666885));
#297 = CARTESIAN_POINT('',(4.813713149897,6.133873184315));
#298 = CARTESIAN_POINT('',(4.903896362513,6.070860356044));
#299 = CARTESIAN_POINT('',(4.93777797849,6.041128567924));
#300 = CARTESIAN_POINT('',(4.971093637258,6.0061658079));
#301 = CARTESIAN_POINT('',(5.003818635436,5.966455261537));
#302 = CARTESIAN_POINT('',(5.035922628079,5.92251512944));
#303 = CARTESIAN_POINT('',(5.06736886675,5.874895910526));
#304 = CARTESIAN_POINT('',(5.124312098133,5.78095868665));
#305 = CARTESIAN_POINT('',(5.150040159253,5.735425172202));
#306 = CARTESIAN_POINT('',(5.175318720595,5.6878394468));
#307 = CARTESIAN_POINT('',(5.200167618759,5.638443383392));
#308 = CARTESIAN_POINT('',(5.224606156735,5.587458569321));
#309 = CARTESIAN_POINT('',(5.248653833334,5.535086452622));
#310 = CARTESIAN_POINT('',(5.33821632664,5.332420254376));
#311 = CARTESIAN_POINT('',(5.401379102334,5.173664494229));
#312 = CARTESIAN_POINT('',(5.462252709235,5.009035455893));
#313 = CARTESIAN_POINT('',(5.521249885754,4.84134847067));
#314 = CARTESIAN_POINT('',(5.578813200968,4.672699896524));
#315 = CARTESIAN_POINT('',(5.635410732545,4.504794128224));
#316 = CARTESIAN_POINT('',(5.741875934159,4.191775242176));
#317 = CARTESIAN_POINT('',(5.791636294013,4.046680591636));
#318 = CARTESIAN_POINT('',(5.841269309335,3.905736613021));
#319 = CARTESIAN_POINT('',(5.891087139485,3.770851894865));
#320 = CARTESIAN_POINT('',(5.941326271665,3.644879355795));
#321 = CARTESIAN_POINT('',(5.992199122958,3.531769903865));
#322 = CARTESIAN_POINT('',(6.07708609592,3.375045283611));
#323 = CARTESIAN_POINT('',(6.110760357613,3.32070283965));
#324 = CARTESIAN_POINT('',(6.144807753225,3.275018375031));
#325 = CARTESIAN_POINT('',(6.179111113787,3.239525476564));
#326 = CARTESIAN_POINT('',(6.213615746582,3.215336649475));
#327 = CARTESIAN_POINT('',(6.248305276965,3.203123475609));
#328 = CARTESIAN_POINT('',(6.28318530718,3.203123475609));
#329 = ( GEOMETRIC_REPRESENTATION_CONTEXT(2) 
PARAMETRIC_REPRESENTATION_CONTEXT() REPRESENTATION_CONTEXT('2D SPACE',''
  ) );
#330 = PCURVE('',#331,#336);
#331 = CYLINDRICAL_SURFACE('',#332,6.15);
#332 = AXIS2_PLACEMENT_3D('',#333,#334,#335);
#333 = CARTESIAN_POINT('',(0.,6.25,-1.387778780781E-15));
#334 = DIRECTION('',(0.,-1.,2.22044604925E-16));
#335 = DIRECTION('',(1.,0.,0.));
#336 = DEFINITIONAL_REPRESENTATION('',(#337),#460);
#337 = B_SPLINE_CURVE_WITH_KNOTS('',7,(#338,#339,#340,#341,#342,#343,
    #344,#345,#346,#347,#348,#349,#350,#351,#352,#353,#354,#355,#356,
    #357,#358,#359,#360,#361,#362,#363,#364,#365,#366,#367,#368,#369,
    #370,#371,#372,#373,#374,#375,#376,#377,#378,#379,#380,#381,#382,
    #383,#384,#385,#386,#387,#388,#389,#390,#391,#392,#393,#394,#395,
    #396,#397,#398,#399,#400,#401,#402,#403,#404,#405,#406,#407,#408,
    #409,#410,#411,#412,#413,#414,#415,#416,#417,#418,#419,#420,#421,
    #422,#423,#424,#425,#426,#427,#428,#429,#430,#431,#432,#433,#434,
    #435,#436,#437,#438,#439,#440,#441,#442,#443,#444,#445,#446,#447,
    #448,#449,#450,#451,#452,#453,#454,#455,#456,#457,#458,#459),
  .UNSPECIFIED.,.T.,.F.,(8,6,6,6,6,6,6,6,6,6,6,6,6,6,6,6,6,6,6,6,8),(0.,
    4.140139395524E-02,0.105377647576,0.1763096496,0.221814720025,
    0.27035028223,0.300319904582,0.325858200956,0.396922108541,
    0.460573536723,0.501235649813,0.542432917877,0.606093742018,
    0.676676019834,0.721956731378,0.770252993111,0.800074852778,
    0.825487234749,0.896200767778,0.959538368003,1.),.UNSPECIFIED.);
#338 = CARTESIAN_POINT('',(0.547826560607,6.25));
#339 = CARTESIAN_POINT('',(0.547826560607,6.064469792245));
#340 = CARTESIAN_POINT('',(0.55021448805,5.879996149491));
#341 = CARTESIAN_POINT('',(0.554942037885,5.696913202335));
#342 = CARTESIAN_POINT('',(0.561896436981,5.515653977971));
#343 = CARTESIAN_POINT('',(0.570897728618,5.336853743345));
#344 = CARTESIAN_POINT('',(0.581692639518,5.161448168708));
#345 = CARTESIAN_POINT('',(0.612878256691,4.727017081411));
#346 = CARTESIAN_POINT('',(0.635485040893,4.471850093458));
#347 = CARTESIAN_POINT('',(0.661073015573,4.22470125141));
#348 = CARTESIAN_POINT('',(0.689096239235,3.985324347507));
#349 = CARTESIAN_POINT('',(0.719208997566,3.753363195618));
#350 = CARTESIAN_POINT('',(0.751262145099,3.528227511756));
#351 = CARTESIAN_POINT('',(0.823030414137,3.066686648313));
#352 = CARTESIAN_POINT('',(0.863037084702,2.832762499066));
#353 = CARTESIAN_POINT('',(0.905307851564,2.606866033026));
#354 = CARTESIAN_POINT('',(0.949977397935,2.389143501054));
#355 = CARTESIAN_POINT('',(0.99723432659,2.180645139674));
#356 = CARTESIAN_POINT('',(1.047292043439,1.983505404366));
#357 = CARTESIAN_POINT('',(1.134467186592,1.684081483717));
#358 = CARTESIAN_POINT('',(1.169918394589,1.572689339701));
#359 = CARTESIAN_POINT('',(1.206769287796,1.468118773279));
#360 = CARTESIAN_POINT('',(1.245040952539,1.371708179008));
#361 = CARTESIAN_POINT('',(1.284757954343,1.284951767993));
#362 = CARTESIAN_POINT('',(1.325949822604,1.209516069603));
#363 = CARTESIAN_POINT('',(1.414202157156,1.080858744646));
#364 = CARTESIAN_POINT('',(1.461626382815,1.029224372756));
#365 = CARTESIAN_POINT('',(1.510243574828,0.995892232952));
#366 = CARTESIAN_POINT('',(1.559447067504,0.982895415114));
#367 = CARTESIAN_POINT('',(1.608661839384,0.9908263518));
#368 = CARTESIAN_POINT('',(1.657303073464,1.018845312601));
#369 = CARTESIAN_POINT('',(1.734028131948,1.092911066355));
#370 = CARTESIAN_POINT('',(1.762802058566,1.127907792678));
#371 = CARTESIAN_POINT('',(1.791029529772,1.169145863144));
#372 = CARTESIAN_POINT('',(1.818677441017,1.216112826916));
#373 = CARTESIAN_POINT('',(1.845709547903,1.268262128317));
#374 = CARTESIAN_POINT('',(1.872086101991,1.325010925142));
#375 = CARTESIAN_POINT('',(1.919644198055,1.437485761534));
#376 = CARTESIAN_POINT('',(1.941049732724,1.492199104426));
#377 = CARTESIAN_POINT('',(1.961993038481,1.549610154272));
#378 = CARTESIAN_POINT('',(1.98248624543,1.6094760584));
#379 = CARTESIAN_POINT('',(2.002541105583,1.671578934995));
#380 = CARTESIAN_POINT('',(2.022169432514,1.735725915271));
#381 = CARTESIAN_POINT('',(2.094849504916,1.985468237002));
#382 = CARTESIAN_POINT('',(2.145226516535,2.184122928518));
#383 = CARTESIAN_POINT('',(2.192766809438,2.394270006795));
#384 = CARTESIAN_POINT('',(2.237687313896,2.6137396139));
#385 = CARTESIAN_POINT('',(2.280179313127,2.841473039421));
#386 = CARTESIAN_POINT('',(2.320378050874,3.077335308911));
#387 = CARTESIAN_POINT('',(2.392208908956,3.541281023912));
#388 = CARTESIAN_POINT('',(2.424166628285,3.766766682644));
#389 = CARTESIAN_POINT('',(2.454178606238,3.999098831089));
#390 = CARTESIAN_POINT('',(2.482089633393,4.238865637799));
#391 = CARTESIAN_POINT('',(2.50754738894,4.486418588003));
#392 = CARTESIAN_POINT('',(2.529999675911,4.742003978267));
#393 = CARTESIAN_POINT('',(2.560726769558,5.174972965017));
#394 = CARTESIAN_POINT('',(2.571268259414,5.348318804878));
#395 = CARTESIAN_POINT('',(2.580051073954,5.52495480809));
#396 = CARTESIAN_POINT('',(2.58683232848,5.703975051632));
#397 = CARTESIAN_POINT('',(2.591439793854,5.884759539592));
#398 = CARTESIAN_POINT('',(2.593766092983,6.066879841374));
#399 = CARTESIAN_POINT('',(2.593766092983,6.435530207108));
#400 = CARTESIAN_POINT('',(2.591378165557,6.620003850392));
#401 = CARTESIAN_POINT('',(2.586650615699,6.803086798164));
#402 = CARTESIAN_POINT('',(2.579696216576,6.984346022589));
#403 = CARTESIAN_POINT('',(2.570694924959,7.16314625663));
#404 = CARTESIAN_POINT('',(2.55990001412,7.338551830617));
#405 = CARTESIAN_POINT('',(2.528714396899,7.77298291859));
#406 = CARTESIAN_POINT('',(2.506107612697,8.028149906542));
#407 = CARTESIAN_POINT('',(2.480519638017,8.275298748588));
#408 = CARTESIAN_POINT('',(2.452496414354,8.514675652495));
#409 = CARTESIAN_POINT('',(2.422383656024,8.746636804382));
#410 = CARTESIAN_POINT('',(2.390330508491,8.971772488243));
#411 = CARTESIAN_POINT('',(2.318562239453,9.433313351687));
#412 = CARTESIAN_POINT('',(2.278555568888,9.667237500935));
#413 = CARTESIAN_POINT('',(2.236284802027,9.893133966973));
#414 = CARTESIAN_POINT('',(2.191615255654,10.110856498947));
#415 = CARTESIAN_POINT('',(2.144358327,10.319354860326));
#416 = CARTESIAN_POINT('',(2.094300610151,10.516494595634));
#417 = CARTESIAN_POINT('',(2.007125466998,10.815918516283));
#418 = CARTESIAN_POINT('',(1.971674259001,10.927310660299));
#419 = CARTESIAN_POINT('',(1.934823365794,11.031881226721));
#420 = CARTESIAN_POINT('',(1.896551701051,11.128291820992));
#421 = CARTESIAN_POINT('',(1.856834699246,11.215048232007));
#422 = CARTESIAN_POINT('',(1.815642830986,11.290483930397));
#423 = CARTESIAN_POINT('',(1.727390496441,11.419141255344));
#424 = CARTESIAN_POINT('',(1.679966270775,11.470775627249));
#425 = CARTESIAN_POINT('',(1.631349078756,11.504107767054));
#426 = CARTESIAN_POINT('',(1.58214558608,11.517104584883));
#427 = CARTESIAN_POINT('',(1.532930814206,11.509173648195));
#428 = CARTESIAN_POINT('',(1.484289580133,11.481154687406));
#429 = CARTESIAN_POINT('',(1.407564521641,11.407088933645));
#430 = CARTESIAN_POINT('',(1.378790595024,11.372092207322));
#431 = CARTESIAN_POINT('',(1.350563123818,11.330854136856));
#432 = CARTESIAN_POINT('',(1.322915212573,11.283887173085));
#433 = CARTESIAN_POINT('',(1.295883105687,11.231737871683));
#434 = CARTESIAN_POINT('',(1.269506551599,11.174989074858));
#435 = CARTESIAN_POINT('',(1.221948455532,11.062514238459));
#436 = CARTESIAN_POINT('',(1.200542920866,11.007800895573));
#437 = CARTESIAN_POINT('',(1.179599615112,10.950389845735));
#438 = CARTESIAN_POINT('',(1.159106408162,10.890523941608));
#439 = CARTESIAN_POINT('',(1.139051548007,10.828421065004));
#440 = CARTESIAN_POINT('',(1.119423221073,10.764274084719));
#441 = CARTESIAN_POINT('',(1.046743148674,10.514531762998));
#442 = CARTESIAN_POINT('',(0.996366137055,10.315877071482));
#443 = CARTESIAN_POINT('',(0.948825844152,10.105729993205));
#444 = CARTESIAN_POINT('',(0.903905339693,9.886260386099));
#445 = CARTESIAN_POINT('',(0.861413340462,9.658526960579));
#446 = CARTESIAN_POINT('',(0.821214602716,9.422664691089));
#447 = CARTESIAN_POINT('',(0.749383744634,8.958718976088));
#448 = CARTESIAN_POINT('',(0.717426025304,8.733233317356));
#449 = CARTESIAN_POINT('',(0.687414047352,8.50090116891));
#450 = CARTESIAN_POINT('',(0.659503020197,8.261134362202));
#451 = CARTESIAN_POINT('',(0.63404526465,8.013581411997));
#452 = CARTESIAN_POINT('',(0.611592977679,7.757996021733));
#453 = CARTESIAN_POINT('',(0.580865884032,7.325027034983));
#454 = CARTESIAN_POINT('',(0.570324394176,7.151681195122));
#455 = CARTESIAN_POINT('',(0.561541579636,6.97504519191));
#456 = CARTESIAN_POINT('',(0.554760325109,6.796024948368));
#457 = CARTESIAN_POINT('',(0.550152859736,6.615240460408));
#458 = CARTESIAN_POINT('',(0.547826560607,6.433120158626));
#459 = CARTESIAN_POINT('',(0.547826560607,6.25));
#460 = ( GEOMETRIC_REPRESENTATION_CONTEXT(2) 
PARAMETRIC_REPRESENTATION_CONTEXT() REPRESENTATION_CONTEXT('2D SPACE',''
  ) );
#461 = ADVANCED_FACE('',(#462,#465),#331,.F.);
#462 = FACE_BOUND('',#463,.F.);
#463 = EDGE_LOOP('',(#464));
#464 = ORIENTED_EDGE('',*,*,#79,.T.);
#465 = FACE_BOUND('',#466,.F.);
#466 = EDGE_LOOP('',(#467));
#467 = ORIENTED_EDGE('',*,*,#468,.F.);
#468 = EDGE_CURVE('',#469,#469,#471,.T.);
#469 = VERTEX_POINT('',#470);
#470 = CARTESIAN_POINT('',(4.25,-1.040949779275E-15,4.445222154179));
#471 = SURFACE_CURVE('',#472,(#565,#661),.PCURVE_S1.);
#472 = B_SPLINE_CURVE_WITH_KNOTS('',6,(#473,#474,#475,#476,#477,#478,
    #479,#480,#481,#482,#483,#484,#485,#486,#487,#488,#489,#490,#491,
    #492,#493,#494,#495,#496,#497,#498,#499,#500,#501,#502,#503,#504,
    #505,#506,#507,#508,#509,#510,#511,#512,#513,#514,#515,#516,#517,
    #518,#519,#520,#521,#522,#523,#524,#525,#526,#527,#528,#529,#530,
    #531,#532,#533,#534,#535,#536,#537,#538,#539,#540,#541,#542,#543,
    #544,#545,#546,#547,#548,#549,#550,#551,#552,#553,#554,#555,#556,
    #557,#558,#559,#560,#561,#562,#563,#564),.UNSPECIFIED.,.T.,.F.,(7,5,
    5,5,5,5,5,5,5,5,5,5,5,5,5,5,5,5,7),(0.,4.968785498749E-02,
    0.106546027862,0.172874912792,0.228112830098,0.282375911148,
    0.328447497734,0.393582231716,0.45070326075,0.500118089561,
    0.549782130567,0.606613052946,0.672910148359,0.728121591727,
    0.782358666052,0.828408171858,0.893511688646,0.948764969806,1.),
  .UNSPECIFIED.);
#473 = CARTESIAN_POINT('',(4.25,-8.881784197001E-16,4.445222154179));
#474 = CARTESIAN_POINT('',(4.25,0.20197739145,4.445222154179));
#475 = CARTESIAN_POINT('',(4.238481572739,0.403579122515,4.456234687131)
  );
#476 = CARTESIAN_POINT('',(4.215524231046,0.604009607164,4.478183969307)
  );
#477 = CARTESIAN_POINT('',(4.181279102123,0.802428906966,4.510496308107)
  );
#478 = CARTESIAN_POINT('',(4.135995299729,0.9978666522,4.55209774782));
#479 = CARTESIAN_POINT('',(4.016458776349,1.408025940739,4.65809270272)
  );
#480 = CARTESIAN_POINT('',(3.938901875492,1.621689994365,4.724968139417)
  );
#481 = CARTESIAN_POINT('',(3.847921184356,1.829960621457,4.8004216453));
#482 = CARTESIAN_POINT('',(3.743620473056,2.032517297729,4.882659520502)
  );
#483 = CARTESIAN_POINT('',(3.62597895578,2.228874798737,4.969926913066)
  );
#484 = CARTESIAN_POINT('',(3.341873265861,2.639442039,5.166134454451));
#485 = CARTESIAN_POINT('',(3.170516857747,2.851211907799,5.276280179504)
  );
#486 = CARTESIAN_POINT('',(2.9799038532,3.05353967558,5.388604170804));
#487 = CARTESIAN_POINT('',(2.768591956455,3.245453782556,5.500831745448)
  );
#488 = CARTESIAN_POINT('',(2.53488789287,3.424900512456,5.61014791931));
#489 = CARTESIAN_POINT('',(2.062717621659,3.724548878293,5.79836530961)
  );
#490 = CARTESIAN_POINT('',(1.830071843823,3.850597693421,5.879898026591)
  );
#491 = CARTESIAN_POINT('',(1.579651941996,3.963191513597,5.954519921196)
  );
#492 = CARTESIAN_POINT('',(1.312135216428,4.059024133443,6.019171071533)
  );
#493 = CARTESIAN_POINT('',(1.028616705073,4.134719616617,6.070788554728)
  );
#494 = CARTESIAN_POINT('',(0.43803829114,4.237792049956,6.141457395985)
  );
#495 = CARTESIAN_POINT('',(0.133741498586,4.265603371813,6.16079713706)
  );
#496 = CARTESIAN_POINT('',(-0.175159058541,4.266538172884,6.16151035713)
  );
#497 = CARTESIAN_POINT('',(-0.481325273306,4.240009910775,6.142980757726
    ));
#498 = CARTESIAN_POINT('',(-0.777514529014,4.188220652921,6.10724335754)
  );
#499 = CARTESIAN_POINT('',(-1.294168957627,4.055566342262,6.017110682124
    ));
#500 = CARTESIAN_POINT('',(-1.520011586886,3.980091872315,5.966224229553
    ));
#501 = CARTESIAN_POINT('',(-1.733986244081,3.892160185983,5.907638414402
    ));
#502 = CARTESIAN_POINT('',(-1.935856068153,3.793667341016,5.843081330218
    ));
#503 = CARTESIAN_POINT('',(-2.125568710023,3.686344048007,5.774180422279
    ));
#504 = CARTESIAN_POINT('',(-2.554339956694,3.409859410913,5.601000389968
    ));
#505 = CARTESIAN_POINT('',(-2.782486814991,3.232743972595,5.493414927805
    ));
#506 = CARTESIAN_POINT('',(-2.98910893141,3.043685196747,5.383150216623)
  );
#507 = CARTESIAN_POINT('',(-3.17579995927,2.844594276017,5.272857594208)
  );
#508 = CARTESIAN_POINT('',(-3.34391017045,2.636385790179,5.164701977125)
  );
#509 = CARTESIAN_POINT('',(-3.626114211532,2.228777737931,4.969856001191
    ));
#510 = CARTESIAN_POINT('',(-3.744340342554,2.031401116089,4.882140109934
    ));
#511 = CARTESIAN_POINT('',(-3.849089018167,1.827762530206,4.799508956165
    ));
#512 = CARTESIAN_POINT('',(-3.940380137863,1.618356200359,4.723745487687
    ));
#513 = CARTESIAN_POINT('',(-4.018107284992,1.403508028892,4.656671809035
    ));
#514 = CARTESIAN_POINT('',(-4.137123891997,0.992981146697,4.551060643834
    ));
#515 = CARTESIAN_POINT('',(-4.181961780151,0.798463109251,4.509852156049
    ));
#516 = CARTESIAN_POINT('',(-4.215867933426,0.601003796848,4.477855356653
    ));
#517 = CARTESIAN_POINT('',(-4.238596877466,0.401560734752,4.456124447588
    ));
#518 = CARTESIAN_POINT('',(-4.25,0.200963876883,4.445222154179));
#519 = CARTESIAN_POINT('',(-4.25,-0.20197739145,4.445222154179));
#520 = CARTESIAN_POINT('',(-4.238481572739,-0.403579122515,
    4.456234687131));
#521 = CARTESIAN_POINT('',(-4.215524231046,-0.604009607164,
    4.478183969307));
#522 = CARTESIAN_POINT('',(-4.181279102123,-0.802428906966,
    4.510496308107));
#523 = CARTESIAN_POINT('',(-4.135995299729,-0.9978666522,4.55209774782)
  );
#524 = CARTESIAN_POINT('',(-4.01645877633,-1.408025940804,4.658092702737
    ));
#525 = CARTESIAN_POINT('',(-3.93890187549,-1.621689994344,4.724968139419
    ));
#526 = CARTESIAN_POINT('',(-3.847921184384,-1.829960621398,
    4.800421645275));
#527 = CARTESIAN_POINT('',(-3.743620473075,-2.032517297717,
    4.882659520493));
#528 = CARTESIAN_POINT('',(-3.625978955741,-2.228874798793,
    4.969926913093));
#529 = CARTESIAN_POINT('',(-3.341873265861,-2.639442039,5.166134454451)
  );
#530 = CARTESIAN_POINT('',(-3.170516857747,-2.851211907799,
    5.276280179504));
#531 = CARTESIAN_POINT('',(-2.9799038532,-3.05353967558,5.388604170805)
  );
#532 = CARTESIAN_POINT('',(-2.768591956456,-3.245453782556,
    5.500831745448));
#533 = CARTESIAN_POINT('',(-2.53488789287,-3.424900512456,5.61014791931)
  );
#534 = CARTESIAN_POINT('',(-2.062717621662,-3.724548878291,
    5.798365309609));
#535 = CARTESIAN_POINT('',(-1.830071843818,-3.850597693425,
    5.879898026594));
#536 = CARTESIAN_POINT('',(-1.579651941995,-3.963191513595,
    5.954519921195));
#537 = CARTESIAN_POINT('',(-1.312135216436,-4.059024133442,
    6.019171071533));
#538 = CARTESIAN_POINT('',(-1.028616705068,-4.134719616618,
    6.070788554729));
#539 = CARTESIAN_POINT('',(-0.43803829114,-4.237792049956,6.141457395985
    ));
#540 = CARTESIAN_POINT('',(-0.133741498586,-4.265603371813,6.16079713706
    ));
#541 = CARTESIAN_POINT('',(0.175159058541,-4.266538172884,6.16151035713)
  );
#542 = CARTESIAN_POINT('',(0.481325273306,-4.240009910775,6.142980757726
    ));
#543 = CARTESIAN_POINT('',(0.777514529014,-4.188220652921,6.10724335754)
  );
#544 = CARTESIAN_POINT('',(1.294168957627,-4.055566342262,6.017110682124
    ));
#545 = CARTESIAN_POINT('',(1.520011586886,-3.980091872315,5.966224229553
    ));
#546 = CARTESIAN_POINT('',(1.733986244081,-3.892160185983,5.907638414402
    ));
#547 = CARTESIAN_POINT('',(1.935856068153,-3.793667341016,5.843081330218
    ));
#548 = CARTESIAN_POINT('',(2.125568710023,-3.686344048007,5.774180422279
    ));
#549 = CARTESIAN_POINT('',(2.554339956694,-3.409859410913,5.601000389968
    ));
#550 = CARTESIAN_POINT('',(2.782486814991,-3.232743972595,5.493414927805
    ));
#551 = CARTESIAN_POINT('',(2.98910893141,-3.043685196747,5.383150216623)
  );
#552 = CARTESIAN_POINT('',(3.17579995927,-2.844594276017,5.272857594208)
  );
#553 = CARTESIAN_POINT('',(3.34391017045,-2.636385790179,5.164701977125)
  );
#554 = CARTESIAN_POINT('',(3.621864029197,-2.234916588873,4.972790512411
    ));
#555 = CARTESIAN_POINT('',(3.736687468369,-2.04414283099,4.887810119397)
  );
#556 = CARTESIAN_POINT('',(3.838885283047,-1.847494283305,4.807540456948
    ));
#557 = CARTESIAN_POINT('',(3.928486860402,-1.645408899008,4.733588947663
    ));
#558 = CARTESIAN_POINT('',(4.005404787637,-1.438177672671,4.667601451652
    ));
#559 = CARTESIAN_POINT('',(4.12862237397,-1.029181631113,4.558862691683)
  );
#560 = CARTESIAN_POINT('',(4.176818557861,-0.827860393234,4.514702979313
    ));
#561 = CARTESIAN_POINT('',(4.213278073353,-0.623291159296,4.480331515502
    ));
#562 = CARTESIAN_POINT('',(4.237727811344,-0.416529632342,4.456955336133
    ));
#563 = CARTESIAN_POINT('',(4.25,-0.208481541073,4.445222154179));
#564 = CARTESIAN_POINT('',(4.25,-8.881784197001E-16,4.445222154179));
#565 = PCURVE('',#331,#566);
#566 = DEFINITIONAL_REPRESENTATION('',(#567),#660);
#567 = B_SPLINE_CURVE_WITH_KNOTS('',6,(#568,#569,#570,#571,#572,#573,
    #574,#575,#576,#577,#578,#579,#580,#581,#582,#583,#584,#585,#586,
    #587,#588,#589,#590,#591,#592,#593,#594,#595,#596,#597,#598,#599,
    #600,#601,#602,#603,#604,#605,#606,#607,#608,#609,#610,#611,#612,
    #613,#614,#615,#616,#617,#618,#619,#620,#621,#622,#623,#624,#625,
    #626,#627,#628,#629,#630,#631,#632,#633,#634,#635,#636,#637,#638,
    #639,#640,#641,#642,#643,#644,#645,#646,#647,#648,#649,#650,#651,
    #652,#653,#654,#655,#656,#657,#658,#659),.UNSPECIFIED.,.T.,.F.,(7,5,
    5,5,5,5,5,5,5,5,5,5,5,5,5,5,5,5,7),(0.,4.968785498749E-02,
    0.106546027862,0.172874912792,0.228112830098,0.282375911148,
    0.328447497734,0.393582231716,0.45070326075,0.500118089561,
    0.549782130567,0.606613052946,0.672910148359,0.728121591727,
    0.782358666052,0.828408171858,0.893511688646,0.948764969806,1.),
  .UNSPECIFIED.);
#568 = CARTESIAN_POINT('',(0.8078460501,6.25));
#569 = CARTESIAN_POINT('',(0.8078460501,6.04802260855));
#570 = CARTESIAN_POINT('',(0.810437221745,5.846420877485));
#571 = CARTESIAN_POINT('',(0.815601818317,5.645990392836));
#572 = CARTESIAN_POINT('',(0.823257241246,5.447571093034));
#573 = CARTESIAN_POINT('',(0.833254417375,5.2521333478));
#574 = CARTESIAN_POINT('',(0.859231985598,4.841974059261));
#575 = CARTESIAN_POINT('',(0.875882100088,4.628310005635));
#576 = CARTESIAN_POINT('',(0.895095527785,4.420039378543));
#577 = CARTESIAN_POINT('',(0.916680675337,4.217482702271));
#578 = CARTESIAN_POINT('',(0.940484233184,4.021125201263));
#579 = CARTESIAN_POINT('',(0.996626183888,3.610557961));
#580 = CARTESIAN_POINT('',(1.029730565133,3.398788092201));
#581 = CARTESIAN_POINT('',(1.065662257331,3.19646032442));
#582 = CARTESIAN_POINT('',(1.104501630781,3.004546217444));
#583 = CARTESIAN_POINT('',(1.146382976263,2.825099487544));
#584 = CARTESIAN_POINT('',(1.229033648442,2.525451121707));
#585 = CARTESIAN_POINT('',(1.269082299299,2.399402306579));
#586 = CARTESIAN_POINT('',(1.311494874643,2.286808486402));
#587 = CARTESIAN_POINT('',(1.356143439228,2.190975866557));
#588 = CARTESIAN_POINT('',(1.402914672769,2.115280383383));
#589 = CARTESIAN_POINT('',(1.499628740497,2.012207950044));
#590 = CARTESIAN_POINT('',(1.54913130532,1.984396628187));
#591 = CARTESIAN_POINT('',(1.599213918537,1.983461827116));
#592 = CARTESIAN_POINT('',(1.648949480301,2.009990089225));
#593 = CARTESIAN_POINT('',(1.6973926963,2.061779347079));
#594 = CARTESIAN_POINT('',(1.782670342991,2.194433657738));
#595 = CARTESIAN_POINT('',(1.820268335362,2.269908127685));
#596 = CARTESIAN_POINT('',(1.856288571287,2.357839814017));
#597 = CARTESIAN_POINT('',(1.890709702487,2.456332658984));
#598 = CARTESIAN_POINT('',(1.923508100573,2.563655951993));
#599 = CARTESIAN_POINT('',(1.998699021217,2.840140589087));
#600 = CARTESIAN_POINT('',(2.039647781823,3.017256027405));
#601 = CARTESIAN_POINT('',(2.077668057976,3.206314803253));
#602 = CARTESIAN_POINT('',(2.112885073998,3.405405723983));
#603 = CARTESIAN_POINT('',(2.145371361338,3.613614209821));
#604 = CARTESIAN_POINT('',(2.201133069568,4.021222262069));
#605 = CARTESIAN_POINT('',(2.225056194102,4.218598883911));
#606 = CARTESIAN_POINT('',(2.246737968277,4.422237469795));
#607 = CARTESIAN_POINT('',(2.266022380723,4.631643799641));
#608 = CARTESIAN_POINT('',(2.282714510966,4.846491971108));
#609 = CARTESIAN_POINT('',(2.308587424467,5.257018853303));
#610 = CARTESIAN_POINT('',(2.318488023063,5.451536890749));
#611 = CARTESIAN_POINT('',(2.32606815758,5.648996203152));
#612 = CARTESIAN_POINT('',(2.331181370108,5.848439265248));
#613 = CARTESIAN_POINT('',(2.33374660349,6.049036123117));
#614 = CARTESIAN_POINT('',(2.33374660349,6.45197739145));
#615 = CARTESIAN_POINT('',(2.331155431844,6.653579122515));
#616 = CARTESIAN_POINT('',(2.325990835272,6.854009607164));
#617 = CARTESIAN_POINT('',(2.318335412344,7.052428906966));
#618 = CARTESIAN_POINT('',(2.308338236215,7.2478666522));
#619 = CARTESIAN_POINT('',(2.282360667988,7.658025940804));
#620 = CARTESIAN_POINT('',(2.265710553501,7.871689994344));
#621 = CARTESIAN_POINT('',(2.24649712581,8.079960621398));
#622 = CARTESIAN_POINT('',(2.224911978256,8.282517297717));
#623 = CARTESIAN_POINT('',(2.201108420398,8.478874798793));
#624 = CARTESIAN_POINT('',(2.144966469701,8.889442039));
#625 = CARTESIAN_POINT('',(2.111862088457,9.101211907799));
#626 = CARTESIAN_POINT('',(2.075930396259,9.30353967558));
#627 = CARTESIAN_POINT('',(2.037091022809,9.495453782556));
#628 = CARTESIAN_POINT('',(1.995209677327,9.674900512456));
#629 = CARTESIAN_POINT('',(1.912559005148,9.974548878291));
#630 = CARTESIAN_POINT('',(1.87251035429,10.100597693425));
#631 = CARTESIAN_POINT('',(1.830097778947,10.213191513595));
#632 = CARTESIAN_POINT('',(1.785449214363,10.309024133442));
#633 = CARTESIAN_POINT('',(1.73867798082,10.384719616618));
#634 = CARTESIAN_POINT('',(1.641963913093,10.487792049956));
#635 = CARTESIAN_POINT('',(1.59246134827,10.515603371813));
#636 = CARTESIAN_POINT('',(1.542378735053,10.516538172884));
#637 = CARTESIAN_POINT('',(1.492643173289,10.490009910775));
#638 = CARTESIAN_POINT('',(1.444199957289,10.438220652921));
#639 = CARTESIAN_POINT('',(1.358922310599,10.305566342262));
#640 = CARTESIAN_POINT('',(1.321324318228,10.230091872315));
#641 = CARTESIAN_POINT('',(1.285304082303,10.142160185983));
#642 = CARTESIAN_POINT('',(1.250882951103,10.043667341016));
#643 = CARTESIAN_POINT('',(1.218084553016,9.936344048007));
#644 = CARTESIAN_POINT('',(1.142893632373,9.659859410913));
#645 = CARTESIAN_POINT('',(1.101944871766,9.482743972595));
#646 = CARTESIAN_POINT('',(1.063924595614,9.293685196747));
#647 = CARTESIAN_POINT('',(1.028707579591,9.094594276017));
#648 = CARTESIAN_POINT('',(0.996221292252,8.886385790179));
#649 = CARTESIAN_POINT('',(0.941299392787,8.484916588873));
#650 = CARTESIAN_POINT('',(0.918084292314,8.29414283099));
#651 = CARTESIAN_POINT('',(0.896964982872,8.097494283305));
#652 = CARTESIAN_POINT('',(0.87807983959,7.895408899008));
#653 = CARTESIAN_POINT('',(0.861602660897,7.688177672671));
#654 = CARTESIAN_POINT('',(0.834881176738,7.279181631113));
#655 = CARTESIAN_POINT('',(0.824254138489,7.077860393234));
#656 = CARTESIAN_POINT('',(0.816107135422,6.873291159296));
#657 = CARTESIAN_POINT('',(0.810606782976,6.666529632342));
#658 = CARTESIAN_POINT('',(0.8078460501,6.458481541073));
#659 = CARTESIAN_POINT('',(0.8078460501,6.25));
#660 = ( GEOMETRIC_REPRESENTATION_CONTEXT(2) 
PARAMETRIC_REPRESENTATION_CONTEXT() REPRESENTATION_CONTEXT('2D SPACE',''
  ) );
#661 = PCURVE('',#662,#667);
#662 = CYLINDRICAL_SURFACE('',#663,4.25);
#663 = AXIS2_PLACEMENT_3D('',#664,#665,#666);
#664 = CARTESIAN_POINT('',(0.,0.,0.));
#665 = DIRECTION('',(0.,0.,1.));
#666 = DIRECTION('',(1.,0.,-0.));
#667 = DEFINITIONAL_REPRESENTATION('',(#668),#761);
#668 = B_SPLINE_CURVE_WITH_KNOTS('',6,(#669,#670,#671,#672,#673,#674,
    #675,#676,#677,#678,#679,#680,#681,#682,#683,#684,#685,#686,#687,
    #688,#689,#690,#691,#692,#693,#694,#695,#696,#697,#698,#699,#700,
    #701,#702,#703,#704,#705,#706,#707,#708,#709,#710,#711,#712,#713,
    #714,#715,#716,#717,#718,#719,#720,#721,#722,#723,#724,#725,#726,
    #727,#728,#729,#730,#731,#732,#733,#734,#735,#736,#737,#738,#739,
    #740,#741,#742,#743,#744,#745,#746,#747,#748,#749,#750,#751,#752,
    #753,#754,#755,#756,#757,#758,#759,#760),.UNSPECIFIED.,.F.,.F.,(7,5,
    5,5,5,5,5,5,5,5,5,5,5,5,5,5,5,5,7),(0.,4.968785498749E-02,
    0.106546027862,0.172874912792,0.228112830098,0.282375911148,
    0.328447497734,0.393582231716,0.45070326075,0.500118089561,
    0.549782130567,0.606613052946,0.672910148359,0.728121591727,
    0.782358666052,0.828408171858,0.893511688646,0.948764969806,1.),
  .UNSPECIFIED.);
#669 = CARTESIAN_POINT('',(0.,4.445222154179));
#670 = CARTESIAN_POINT('',(4.752409210584E-02,4.445222154179));
#671 = CARTESIAN_POINT('',(9.495974755726E-02,4.456234687131));
#672 = CARTESIAN_POINT('',(0.142313285639,4.478183969307));
#673 = CARTESIAN_POINT('',(0.18957561973,4.510496308107));
#674 = CARTESIAN_POINT('',(0.236705473398,4.55209774782));
#675 = CARTESIAN_POINT('',(0.337228568204,4.65809270272));
#676 = CARTESIAN_POINT('',(0.390600457837,4.724968139417));
#677 = CARTESIAN_POINT('',(0.44391536814,4.8004216453));
#678 = CARTESIAN_POINT('',(0.49735884115,4.882659520502));
#679 = CARTESIAN_POINT('',(0.551102321362,4.969926913066));
#680 = CARTESIAN_POINT('',(0.668580200147,5.166134454451));
#681 = CARTESIAN_POINT('',(0.732497735205,5.276280179504));
#682 = CARTESIAN_POINT('',(0.797621250596,5.388604170804));
#683 = CARTESIAN_POINT('',(0.864462810094,5.500831745448));
#684 = CARTESIAN_POINT('',(0.933515961794,5.61014791931));
#685 = CARTESIAN_POINT('',(1.065098589809,5.79836530961));
#686 = CARTESIAN_POINT('',(1.127209161654,5.879898026591));
#687 = CARTESIAN_POINT('',(1.19153881963,5.954519921196));
#688 = CARTESIAN_POINT('',(1.258071663762,6.019171071533));
#689 = CARTESIAN_POINT('',(1.326850781291,6.070788554728));
#690 = CARTESIAN_POINT('',(1.467910888143,6.141457395985));
#691 = CARTESIAN_POINT('',(1.539568995003,6.16079713706));
#692 = CARTESIAN_POINT('',(1.611822103445,6.16151035713));
#693 = CARTESIAN_POINT('',(1.683713436396,6.142980757726));
#694 = CARTESIAN_POINT('',(1.754245941138,6.10724335754));
#695 = CARTESIAN_POINT('',(1.879754780015,6.017110682124));
#696 = CARTESIAN_POINT('',(1.935641517225,5.966224229553));
#697 = CARTESIAN_POINT('',(1.989895587794,5.907638414402));
#698 = CARTESIAN_POINT('',(2.04259604875,5.843081330218));
#699 = CARTESIAN_POINT('',(2.093795904268,5.774180422279));
#700 = CARTESIAN_POINT('',(2.213839388089,5.601000389968));
#701 = CARTESIAN_POINT('',(2.281539333864,5.493414927805));
#702 = CARTESIAN_POINT('',(2.347130568017,5.383150216623));
#703 = CARTESIAN_POINT('',(2.411081583535,5.272857594208));
#704 = CARTESIAN_POINT('',(2.473876513848,5.164701977125));
#705 = CARTESIAN_POINT('',(2.590527223069,4.969856001191));
#706 = CARTESIAN_POINT('',(2.644545301944,4.882140109934));
#707 = CARTESIAN_POINT('',(2.698260839981,4.799508956165));
#708 = CARTESIAN_POINT('',(2.751847415442,4.723745487687));
#709 = CARTESIAN_POINT('',(2.805493140871,4.656671809035));
#710 = CARTESIAN_POINT('',(2.906065144721,4.551060643834));
#711 = CARTESIAN_POINT('',(2.952961608736,4.509852156049));
#712 = CARTESIAN_POINT('',(2.999989516581,4.477855356653));
#713 = CARTESIAN_POINT('',(3.047107819399,4.456124447588));
#714 = CARTESIAN_POINT('',(3.0943070355,4.445222154179));
#715 = CARTESIAN_POINT('',(3.189116745696,4.445222154179));
#716 = CARTESIAN_POINT('',(3.236552401147,4.456234687131));
#717 = CARTESIAN_POINT('',(3.283905939229,4.478183969307));
#718 = CARTESIAN_POINT('',(3.33116827332,4.510496308107));
#719 = CARTESIAN_POINT('',(3.378298126988,4.55209774782));
#720 = CARTESIAN_POINT('',(3.47882122181,4.658092702737));
#721 = CARTESIAN_POINT('',(3.532193111422,4.724968139419));
#722 = CARTESIAN_POINT('',(3.585508021715,4.800421645275));
#723 = CARTESIAN_POINT('',(3.638951494735,4.882659520493));
#724 = CARTESIAN_POINT('',(3.692694974967,4.969926913093));
#725 = CARTESIAN_POINT('',(3.810172853737,5.166134454451));
#726 = CARTESIAN_POINT('',(3.874090388795,5.276280179504));
#727 = CARTESIAN_POINT('',(3.939213904186,5.388604170805));
#728 = CARTESIAN_POINT('',(4.006055463684,5.500831745448));
#729 = CARTESIAN_POINT('',(4.075108615384,5.61014791931));
#730 = CARTESIAN_POINT('',(4.206691243398,5.798365309609));
#731 = CARTESIAN_POINT('',(4.268801815245,5.879898026594));
#732 = CARTESIAN_POINT('',(4.33313147322,5.954519921195));
#733 = CARTESIAN_POINT('',(4.39966431735,6.019171071533));
#734 = CARTESIAN_POINT('',(4.468443434882,6.070788554729));
#735 = CARTESIAN_POINT('',(4.609503541733,6.141457395985));
#736 = CARTESIAN_POINT('',(4.681161648593,6.16079713706));
#737 = CARTESIAN_POINT('',(4.753414757035,6.16151035713));
#738 = CARTESIAN_POINT('',(4.825306089985,6.142980757726));
#739 = CARTESIAN_POINT('',(4.895838594728,6.10724335754));
#740 = CARTESIAN_POINT('',(5.021347433605,6.017110682124));
#741 = CARTESIAN_POINT('',(5.077234170815,5.966224229553));
#742 = CARTESIAN_POINT('',(5.131488241383,5.907638414402));
#743 = CARTESIAN_POINT('',(5.184188702339,5.843081330218));
#744 = CARTESIAN_POINT('',(5.235388557857,5.774180422279));
#745 = CARTESIAN_POINT('',(5.355432041679,5.601000389968));
#746 = CARTESIAN_POINT('',(5.423131987453,5.493414927805));
#747 = CARTESIAN_POINT('',(5.488723221607,5.383150216623));
#748 = CARTESIAN_POINT('',(5.552674237125,5.272857594208));
#749 = CARTESIAN_POINT('',(5.615469167437,5.164701977125));
#750 = CARTESIAN_POINT('',(5.730363038657,4.972790512411));
#751 = CARTESIAN_POINT('',(5.782648017057,4.887810119397));
#752 = CARTESIAN_POINT('',(5.834642404007,4.807540456948));
#753 = CARTESIAN_POINT('',(5.886507315626,4.733588947663));
#754 = CARTESIAN_POINT('',(5.938415587475,4.667601451652));
#755 = CARTESIAN_POINT('',(6.038922354785,4.558862691683));
#756 = CARTESIAN_POINT('',(6.087549625451,4.514702979313));
#757 = CARTESIAN_POINT('',(6.136315876646,4.480331515502));
#758 = CARTESIAN_POINT('',(6.185178390614,4.456955336133));
#759 = CARTESIAN_POINT('',(6.234130826927,4.445222154179));
#760 = CARTESIAN_POINT('',(6.28318530718,4.445222154179));
#761 = ( GEOMETRIC_REPRESENTATION_CONTEXT(2) 
PARAMETRIC_REPRESENTATION_CONTEXT() REPRESENTATION_CONTEXT('2D SPACE',''
  ) );
#762 = ADVANCED_FACE('',(#763,#766),#66,.T.);
#763 = FACE_BOUND('',#764,.T.);
#764 = EDGE_LOOP('',(#765));
#765 = ORIENTED_EDGE('',*,*,#51,.T.);
#766 = FACE_BOUND('',#767,.T.);
#767 = EDGE_LOOP('',(#768,#796,#822,#848));
#768 = ORIENTED_EDGE('',*,*,#769,.T.);
#769 = EDGE_CURVE('',#770,#772,#774,.T.);
#770 = VERTEX_POINT('',#771);
#771 = CARTESIAN_POINT('',(1.6,-1.1,8.95));
#772 = VERTEX_POINT('',#773);
#773 = CARTESIAN_POINT('',(-1.6,-1.1,8.95));
#774 = SURFACE_CURVE('',#775,(#779,#785),.PCURVE_S1.);
#775 = LINE('',#776,#777);
#776 = CARTESIAN_POINT('',(-0.8,-1.1,8.95));
#777 = VECTOR('',#778,1.);
#778 = DIRECTION('',(-1.,-0.,0.));
#779 = PCURVE('',#66,#780);
#780 = DEFINITIONAL_REPRESENTATION('',(#781),#784);
#781 = B_SPLINE_CURVE_WITH_KNOTS('',1,(#782,#783),.UNSPECIFIED.,.F.,.F.,
  (2,2),(-2.4,0.8),.PIECEWISE_BEZIER_KNOTS.);
#782 = CARTESIAN_POINT('',(1.6,-1.1));
#783 = CARTESIAN_POINT('',(-1.6,-1.1));
#784 = ( GEOMETRIC_REPRESENTATION_CONTEXT(2) 
PARAMETRIC_REPRESENTATION_CONTEXT() REPRESENTATION_CONTEXT('2D SPACE',''
  ) );
#785 = PCURVE('',#786,#791);
#786 = PLANE('',#787);
#787 = AXIS2_PLACEMENT_3D('',#788,#789,#790);
#788 = CARTESIAN_POINT('',(-1.6,-1.1,8.05));
#789 = DIRECTION('',(-0.,1.,0.));
#790 = DIRECTION('',(0.,0.,1.));
#791 = DEFINITIONAL_REPRESENTATION('',(#792),#795);
#792 = B_SPLINE_CURVE_WITH_KNOTS('',1,(#793,#794),.UNSPECIFIED.,.F.,.F.,
  (2,2),(-2.4,0.8),.PIECEWISE_BEZIER_KNOTS.);
#793 = CARTESIAN_POINT('',(0.9,3.2));
#794 = CARTESIAN_POINT('',(0.9,0.));
#795 = ( GEOMETRIC_REPRESENTATION_CONTEXT(2) 
PARAMETRIC_REPRESENTATION_CONTEXT() REPRESENTATION_CONTEXT('2D SPACE',''
  ) );
#796 = ORIENTED_EDGE('',*,*,#797,.T.);
#797 = EDGE_CURVE('',#772,#798,#800,.T.);
#798 = VERTEX_POINT('',#799);
#799 = CARTESIAN_POINT('',(-1.6,1.1,8.95));
#800 = SURFACE_CURVE('',#801,(#805,#811),.PCURVE_S1.);
#801 = LINE('',#802,#803);
#802 = CARTESIAN_POINT('',(-1.6,-0.55,8.95));
#803 = VECTOR('',#804,1.);
#804 = DIRECTION('',(-0.,1.,0.));
#805 = PCURVE('',#66,#806);
#806 = DEFINITIONAL_REPRESENTATION('',(#807),#810);
#807 = B_SPLINE_CURVE_WITH_KNOTS('',1,(#808,#809),.UNSPECIFIED.,.F.,.F.,
  (2,2),(-0.55,1.65),.PIECEWISE_BEZIER_KNOTS.);
#808 = CARTESIAN_POINT('',(-1.6,-1.1));
#809 = CARTESIAN_POINT('',(-1.6,1.1));
#810 = ( GEOMETRIC_REPRESENTATION_CONTEXT(2) 
PARAMETRIC_REPRESENTATION_CONTEXT() REPRESENTATION_CONTEXT('2D SPACE',''
  ) );
#811 = PCURVE('',#812,#817);
#812 = PLANE('',#813);
#813 = AXIS2_PLACEMENT_3D('',#814,#815,#816);
#814 = CARTESIAN_POINT('',(-1.6,-1.1,8.05));
#815 = DIRECTION('',(1.,0.,-0.));
#816 = DIRECTION('',(0.,0.,1.));
#817 = DEFINITIONAL_REPRESENTATION('',(#818),#821);
#818 = B_SPLINE_CURVE_WITH_KNOTS('',1,(#819,#820),.UNSPECIFIED.,.F.,.F.,
  (2,2),(-0.55,1.65),.PIECEWISE_BEZIER_KNOTS.);
#819 = CARTESIAN_POINT('',(0.9,0.));
#820 = CARTESIAN_POINT('',(0.9,-2.2));
#821 = ( GEOMETRIC_REPRESENTATION_CONTEXT(2) 
PARAMETRIC_REPRESENTATION_CONTEXT() REPRESENTATION_CONTEXT('2D SPACE',''
  ) );
#822 = ORIENTED_EDGE('',*,*,#823,.F.);
#823 = EDGE_CURVE('',#824,#798,#826,.T.);
#824 = VERTEX_POINT('',#825);
#825 = CARTESIAN_POINT('',(1.6,1.1,8.95));
#826 = SURFACE_CURVE('',#827,(#831,#837),.PCURVE_S1.);
#827 = LINE('',#828,#829);
#828 = CARTESIAN_POINT('',(-0.8,1.1,8.95));
#829 = VECTOR('',#830,1.);
#830 = DIRECTION('',(-1.,-0.,0.));
#831 = PCURVE('',#66,#832);
#832 = DEFINITIONAL_REPRESENTATION('',(#833),#836);
#833 = B_SPLINE_CURVE_WITH_KNOTS('',1,(#834,#835),.UNSPECIFIED.,.F.,.F.,
  (2,2),(-2.4,0.8),.PIECEWISE_BEZIER_KNOTS.);
#834 = CARTESIAN_POINT('',(1.6,1.1));
#835 = CARTESIAN_POINT('',(-1.6,1.1));
#836 = ( GEOMETRIC_REPRESENTATION_CONTEXT(2) 
PARAMETRIC_REPRESENTATION_CONTEXT() REPRESENTATION_CONTEXT('2D SPACE',''
  ) );
#837 = PCURVE('',#838,#843);
#838 = PLANE('',#839);
#839 = AXIS2_PLACEMENT_3D('',#840,#841,#842);
#840 = CARTESIAN_POINT('',(-1.6,1.1,8.05));
#841 = DIRECTION('',(-0.,1.,0.));
#842 = DIRECTION('',(0.,0.,1.));
#843 = DEFINITIONAL_REPRESENTATION('',(#844),#847);
#844 = B_SPLINE_CURVE_WITH_KNOTS('',1,(#845,#846),.UNSPECIFIED.,.F.,.F.,
  (2,2),(-2.4,0.8),.PIECEWISE_BEZIER_KNOTS.);
#845 = CARTESIAN_POINT('',(0.9,3.2));
#846 = CARTESIAN_POINT('',(0.9,0.));
#847 = ( GEOMETRIC_REPRESENTATION_CONTEXT(2) 
PARAMETRIC_REPRESENTATION_CONTEXT() REPRESENTATION_CONTEXT('2D SPACE',''
  ) );
#848 = ORIENTED_EDGE('',*,*,#849,.F.);
#849 = EDGE_CURVE('',#770,#824,#850,.T.);
#850 = SURFACE_CURVE('',#851,(#855,#861),.PCURVE_S1.);
#851 = LINE('',#852,#853);
#852 = CARTESIAN_POINT('',(1.6,-0.55,8.95));
#853 = VECTOR('',#854,1.);
#854 = DIRECTION('',(-0.,1.,0.));
#855 = PCURVE('',#66,#856);
#856 = DEFINITIONAL_REPRESENTATION('',(#857),#860);
#857 = B_SPLINE_CURVE_WITH_KNOTS('',1,(#858,#859),.UNSPECIFIED.,.F.,.F.,
  (2,2),(-0.55,1.65),.PIECEWISE_BEZIER_KNOTS.);
#858 = CARTESIAN_POINT('',(1.6,-1.1));
#859 = CARTESIAN_POINT('',(1.6,1.1));
#860 = ( GEOMETRIC_REPRESENTATION_CONTEXT(2) 
PARAMETRIC_REPRESENTATION_CONTEXT() REPRESENTATION_CONTEXT('2D SPACE',''
  ) );
#861 = PCURVE('',#862,#867);
#862 = PLANE('',#863);
#863 = AXIS2_PLACEMENT_3D('',#864,#865,#866);
#864 = CARTESIAN_POINT('',(1.6,-1.1,8.05));
#865 = DIRECTION('',(1.,0.,-0.));
#866 = DIRECTION('',(0.,0.,1.));
#867 = DEFINITIONAL_REPRESENTATION('',(#868),#871);
#868 = B_SPLINE_CURVE_WITH_KNOTS('',1,(#869,#870),.UNSPECIFIED.,.F.,.F.,
  (2,2),(-0.55,1.65),.PIECEWISE_BEZIER_KNOTS.);
#869 = CARTESIAN_POINT('',(0.9,0.));
#870 = CARTESIAN_POINT('',(0.9,-2.2));
#871 = ( GEOMETRIC_REPRESENTATION_CONTEXT(2) 
PARAMETRIC_REPRESENTATION_CONTEXT() REPRESENTATION_CONTEXT('2D SPACE',''
  ) );
#872 = ADVANCED_FACE('',(#873),#662,.F.);
#873 = FACE_BOUND('',#874,.F.);
#874 = EDGE_LOOP('',(#875,#898,#1206,#1207));
#875 = ORIENTED_EDGE('',*,*,#876,.T.);
#876 = EDGE_CURVE('',#469,#877,#879,.T.);
#877 = VERTEX_POINT('',#878);
#878 = CARTESIAN_POINT('',(4.25,-1.040949779275E-15,5.499090833947));
#879 = SEAM_CURVE('',#880,(#884,#891),.PCURVE_S1.);
#880 = LINE('',#881,#882);
#881 = CARTESIAN_POINT('',(4.25,-1.040949779275E-15,0.));
#882 = VECTOR('',#883,1.);
#883 = DIRECTION('',(0.,0.,1.));
#884 = PCURVE('',#662,#885);
#885 = DEFINITIONAL_REPRESENTATION('',(#886),#890);
#886 = LINE('',#887,#888);
#887 = CARTESIAN_POINT('',(6.28318530718,-0.));
#888 = VECTOR('',#889,1.);
#889 = DIRECTION('',(0.,1.));
#890 = ( GEOMETRIC_REPRESENTATION_CONTEXT(2) 
PARAMETRIC_REPRESENTATION_CONTEXT() REPRESENTATION_CONTEXT('2D SPACE',''
  ) );
#891 = PCURVE('',#662,#892);
#892 = DEFINITIONAL_REPRESENTATION('',(#893),#897);
#893 = LINE('',#894,#895);
#894 = CARTESIAN_POINT('',(0.,-0.));
#895 = VECTOR('',#896,1.);
#896 = DIRECTION('',(0.,1.));
#897 = ( GEOMETRIC_REPRESENTATION_CONTEXT(2) 
PARAMETRIC_REPRESENTATION_CONTEXT() REPRESENTATION_CONTEXT('2D SPACE',''
  ) );
#898 = ORIENTED_EDGE('',*,*,#899,.F.);
#899 = EDGE_CURVE('',#877,#877,#900,.T.);
#900 = SURFACE_CURVE('',#901,(#999,#1100),.PCURVE_S1.);
#901 = B_SPLINE_CURVE_WITH_KNOTS('',6,(#902,#903,#904,#905,#906,#907,
    #908,#909,#910,#911,#912,#913,#914,#915,#916,#917,#918,#919,#920,
    #921,#922,#923,#924,#925,#926,#927,#928,#929,#930,#931,#932,#933,
    #934,#935,#936,#937,#938,#939,#940,#941,#942,#943,#944,#945,#946,
    #947,#948,#949,#950,#951,#952,#953,#954,#955,#956,#957,#958,#959,
    #960,#961,#962,#963,#964,#965,#966,#967,#968,#969,#970,#971,#972,
    #973,#974,#975,#976,#977,#978,#979,#980,#981,#982,#983,#984,#985,
    #986,#987,#988,#989,#990,#991,#992,#993,#994,#995,#996,#997,#998),
  .UNSPECIFIED.,.T.,.F.,(7,5,5,5,5,5,5,5,5,5,5,5,5,5,5,5,5,5,5,7),(0.,
    5.021798954451E-02,0.100602088395,0.152093316635,0.19634835264,
    0.24992487136,0.303280039181,0.347069553269,0.399246003479,
    0.44986310622,0.499823547787,0.550033936533,0.600410409444,
    0.670444720411,0.717251293212,0.772053397572,0.828478712533,
    0.899336890257,0.94999705504,1.),.UNSPECIFIED.);
#902 = CARTESIAN_POINT('',(4.25,-1.7763568394E-15,5.499090833947));
#903 = CARTESIAN_POINT('',(4.25,0.201137104465,5.499090833947));
#904 = CARTESIAN_POINT('',(4.238577154339,0.402098754576,5.507919030807)
  );
#905 = CARTESIAN_POINT('',(4.215768409317,0.60215804064,5.525546914823)
  );
#906 = CARTESIAN_POINT('',(4.181657394314,0.800569986249,5.551625465856)
  );
#907 = CARTESIAN_POINT('',(4.13638441026,0.996531518019,5.58548408864));
#908 = CARTESIAN_POINT('',(4.02392853433,1.382395359117,5.667039748214)
  );
#909 = CARTESIAN_POINT('',(3.956663217493,1.572313600429,5.714790256588)
  );
#910 = CARTESIAN_POINT('',(3.878568181615,1.758600131247,5.768641846572)
  );
#911 = CARTESIAN_POINT('',(3.789677255358,1.940870476202,5.827688608126)
  );
#912 = CARTESIAN_POINT('',(3.689969587959,2.118651956808,5.890947695787)
  );
#913 = CARTESIAN_POINT('',(3.466392611105,2.467904527654,6.025280235506)
  );
#914 = CARTESIAN_POINT('',(3.342003808343,2.639207301329,6.09651636665)
  );
#915 = CARTESIAN_POINT('',(3.205950670766,2.805008728106,6.170116933187)
  );
#916 = CARTESIAN_POINT('',(3.057791763704,2.964828156775,6.245073695371)
  );
#917 = CARTESIAN_POINT('',(2.896987801473,3.117905160178,6.320263973217)
  );
#918 = CARTESIAN_POINT('',(2.573400572159,3.387928036713,6.45805976569)
  );
#919 = CARTESIAN_POINT('',(2.413932119714,3.507044465931,6.521007712725)
  );
#920 = CARTESIAN_POINT('',(2.244208111591,3.619700854223,6.582356385731)
  );
#921 = CARTESIAN_POINT('',(2.063893474465,3.724919737719,6.641121444461)
  );
#922 = CARTESIAN_POINT('',(1.872725310509,3.821483494524,6.696176059533)
  );
#923 = CARTESIAN_POINT('',(1.425828467549,4.012524893813,6.806840909832)
  );
#924 = CARTESIAN_POINT('',(1.162636000331,4.103282302109,6.8607079273));
#925 = CARTESIAN_POINT('',(0.884392711418,4.175186753381,6.904251617105)
  );
#926 = CARTESIAN_POINT('',(0.59501302589,4.224798736325,6.934588971952)
  );
#927 = CARTESIAN_POINT('',(0.298753276693,4.25,6.95));
#928 = CARTESIAN_POINT('',(-0.297518980255,4.25,6.95));
#929 = CARTESIAN_POINT('',(-0.592546441512,4.225006544559,6.934716048163
    ));
#930 = CARTESIAN_POINT('',(-0.880759440057,4.17580625736,6.904630447095)
  );
#931 = CARTESIAN_POINT('',(-1.157962095107,4.104486241416,6.861437122381
    ));
#932 = CARTESIAN_POINT('',(-1.420291854673,4.0144297757,6.807971663626)
  );
#933 = CARTESIAN_POINT('',(-1.864719058102,3.825274640041,6.698350371718
    ));
#934 = CARTESIAN_POINT('',(-2.054294327422,3.73004237304,6.644018363442)
  );
#935 = CARTESIAN_POINT('',(-2.23323710726,3.626290074354,6.586014468821)
  );
#936 = CARTESIAN_POINT('',(-2.401795051825,3.515206319503,6.525436082516
    ));
#937 = CARTESIAN_POINT('',(-2.560287093711,3.397750279273,6.463244226723
    ));
#938 = CARTESIAN_POINT('',(-2.886309517163,3.128041074593,6.325248359939
    ));
#939 = CARTESIAN_POINT('',(-3.049957616711,2.973265916573,6.249034265725
    ));
#940 = CARTESIAN_POINT('',(-3.200594147116,2.811536422139,6.173015163071
    ));
#941 = CARTESIAN_POINT('',(-3.338784539268,2.643651217257,6.098362284066
    ));
#942 = CARTESIAN_POINT('',(-3.464991892277,2.470111710741,6.026124740636
    ));
#943 = CARTESIAN_POINT('',(-3.690599907271,2.117648777657,5.890566156581
    ));
#944 = CARTESIAN_POINT('',(-3.790725730382,1.938984414127,5.827021569183
    ));
#945 = CARTESIAN_POINT('',(-3.879929470252,1.75579410092,5.767736409561)
  );
#946 = CARTESIAN_POINT('',(-3.958233073764,1.568554239977,5.713706885469
    ));
#947 = CARTESIAN_POINT('',(-4.025603399717,1.377651497741,5.665850245745
    ));
#948 = CARTESIAN_POINT('',(-4.137506161723,0.991662574417,5.584644992368
    ));
#949 = CARTESIAN_POINT('',(-4.182333475976,0.79662734406,5.551108572347)
  );
#950 = CARTESIAN_POINT('',(-4.216107685274,0.599175944652,5.525284702729
    ));
#951 = CARTESIAN_POINT('',(-4.238690595393,0.400100370825,5.507831357587
    ));
#952 = CARTESIAN_POINT('',(-4.25,0.200135844503,5.499090833947));
#953 = CARTESIAN_POINT('',(-4.25,-0.201137104465,5.499090833947));
#954 = CARTESIAN_POINT('',(-4.238577154339,-0.402098754576,
    5.507919030807));
#955 = CARTESIAN_POINT('',(-4.215768409317,-0.602158040639,
    5.525546914822));
#956 = CARTESIAN_POINT('',(-4.181657394314,-0.800569986249,
    5.551625465856));
#957 = CARTESIAN_POINT('',(-4.13638441026,-0.996531518018,5.58548408864)
  );
#958 = CARTESIAN_POINT('',(-4.02392853433,-1.382395359117,5.667039748214
    ));
#959 = CARTESIAN_POINT('',(-3.956663217493,-1.572313600429,
    5.714790256588));
#960 = CARTESIAN_POINT('',(-3.878568181615,-1.758600131247,
    5.768641846572));
#961 = CARTESIAN_POINT('',(-3.789677255358,-1.940870476202,
    5.827688608126));
#962 = CARTESIAN_POINT('',(-3.689969587959,-2.118651956808,
    5.890947695787));
#963 = CARTESIAN_POINT('',(-3.425674443149,-2.531510919684,
    6.049745075273));
#964 = CARTESIAN_POINT('',(-3.250990485822,-2.761813341354,
    6.148223228385));
#965 = CARTESIAN_POINT('',(-3.054595501487,-2.981766332527,
    6.250404825959));
#966 = CARTESIAN_POINT('',(-2.835136929102,-3.190062926343,
    6.353795955259));
#967 = CARTESIAN_POINT('',(-2.591001560949,-3.384270120907,
    6.455340284134));
#968 = CARTESIAN_POINT('',(-2.140115030319,-3.678164576308,
    6.615068224713));
#969 = CARTESIAN_POINT('',(-1.947256590106,-3.788204649105,
    6.676662443628));
#970 = CARTESIAN_POINT('',(-1.742216244117,-3.888869748388,
    6.734434333877));
#971 = CARTESIAN_POINT('',(-1.525190160665,-3.978407929739,
    6.786844503746));
#972 = CARTESIAN_POINT('',(-1.296559805855,-4.054952476773,
    6.832291971802));
#973 = CARTESIAN_POINT('',(-0.776370848865,-4.188514300074,
    6.912331475603));
#974 = CARTESIAN_POINT('',(-0.480078274797,-4.240130905623,
    6.943844726871));
#975 = CARTESIAN_POINT('',(-0.174413919604,-4.266474607053,
    6.960159463412));
#976 = CARTESIAN_POINT('',(0.133817327284,-4.265535196076,6.959515600354
    ));
#977 = CARTESIAN_POINT('',(0.437720561004,-4.237847502742,6.942456070975
    ));
#978 = CARTESIAN_POINT('',(1.032354654902,-4.134067239938,6.879589906615
    ));
#979 = CARTESIAN_POINT('',(1.320148730946,-4.05696359621,6.833187697058)
  );
#980 = CARTESIAN_POINT('',(1.592259604232,-3.958829533795,6.774890078775
    ));
#981 = CARTESIAN_POINT('',(1.84734961789,-3.842997456356,6.707550855141)
  );
#982 = CARTESIAN_POINT('',(2.084505897907,-3.71282258824,6.634083570294)
  );
#983 = CARTESIAN_POINT('',(2.577842329952,-3.394704371503,6.460801857695
    ));
#984 = CARTESIAN_POINT('',(2.825714723864,-3.198991992816,6.35823161788)
  );
#985 = CARTESIAN_POINT('',(3.04831440446,-2.988802608499,6.253674084672)
  );
#986 = CARTESIAN_POINT('',(3.247315327231,-2.766673410532,6.150298646095
    ));
#987 = CARTESIAN_POINT('',(3.424122024382,-2.533961895823,6.050681764564
    ));
#988 = CARTESIAN_POINT('',(3.690599907271,-2.117648777657,5.890566156581
    ));
#989 = CARTESIAN_POINT('',(3.790725730382,-1.938984414127,5.827021569183
    ));
#990 = CARTESIAN_POINT('',(3.879929470252,-1.75579410092,5.767736409561)
  );
#991 = CARTESIAN_POINT('',(3.958233073764,-1.568554239977,5.713706885469
    ));
#992 = CARTESIAN_POINT('',(4.025603399717,-1.377651497741,5.665850245745
    ));
#993 = CARTESIAN_POINT('',(4.137506161723,-0.991662574417,5.584644992368
    ));
#994 = CARTESIAN_POINT('',(4.182333475976,-0.79662734406,5.551108572347)
  );
#995 = CARTESIAN_POINT('',(4.216107685274,-0.599175944652,5.525284702729
    ));
#996 = CARTESIAN_POINT('',(4.238690595393,-0.400100370825,5.507831357587
    ));
#997 = CARTESIAN_POINT('',(4.25,-0.200135844503,5.499090833947));
#998 = CARTESIAN_POINT('',(4.25,-1.7763568394E-15,5.499090833947));
#999 = PCURVE('',#662,#1000);
#1000 = DEFINITIONAL_REPRESENTATION('',(#1001),#1099);
#1001 = B_SPLINE_CURVE_WITH_KNOTS('',6,(#1002,#1003,#1004,#1005,#1006,
    #1007,#1008,#1009,#1010,#1011,#1012,#1013,#1014,#1015,#1016,#1017,
    #1018,#1019,#1020,#1021,#1022,#1023,#1024,#1025,#1026,#1027,#1028,
    #1029,#1030,#1031,#1032,#1033,#1034,#1035,#1036,#1037,#1038,#1039,
    #1040,#1041,#1042,#1043,#1044,#1045,#1046,#1047,#1048,#1049,#1050,
    #1051,#1052,#1053,#1054,#1055,#1056,#1057,#1058,#1059,#1060,#1061,
    #1062,#1063,#1064,#1065,#1066,#1067,#1068,#1069,#1070,#1071,#1072,
    #1073,#1074,#1075,#1076,#1077,#1078,#1079,#1080,#1081,#1082,#1083,
    #1084,#1085,#1086,#1087,#1088,#1089,#1090,#1091,#1092,#1093,#1094,
    #1095,#1096,#1097,#1098),.UNSPECIFIED.,.F.,.F.,(7,5,5,5,5,5,5,5,5,5,
    5,5,5,5,5,5,5,5,5,7),(0.,5.021798954451E-02,0.100602088395,
    0.152093316635,0.19634835264,0.24992487136,0.303280039181,
    0.347069553269,0.399246003479,0.44986310622,0.499823547787,
    0.550033936533,0.600410409444,0.670444720411,0.717251293212,
    0.772053397572,0.828478712533,0.899336890257,0.94999705504,1.),
  .UNSPECIFIED.);
#1002 = CARTESIAN_POINT('',(0.,5.499090833947));
#1003 = CARTESIAN_POINT('',(4.732637752121E-02,5.499090833947));
#1004 = CARTESIAN_POINT('',(9.461145047311E-02,5.507919030807));
#1005 = CARTESIAN_POINT('',(0.141875126765,5.525546914823));
#1006 = CARTESIAN_POINT('',(0.189130769452,5.551625465856));
#1007 = CARTESIAN_POINT('',(0.236378254623,5.58548408864));
#1008 = CARTESIAN_POINT('',(0.33094694675,5.667039748214));
#1009 = CARTESIAN_POINT('',(0.378277200061,5.714790256588));
#1010 = CARTESIAN_POINT('',(0.425691098171,5.768641846572));
#1011 = CARTESIAN_POINT('',(0.473290064988,5.827688608126));
#1012 = CARTESIAN_POINT('',(0.521169239054,5.890947695787));
#1013 = CARTESIAN_POINT('',(0.618742286221,6.025280235506));
#1014 = CARTESIAN_POINT('',(0.668468484577,6.09651636665));
#1015 = CARTESIAN_POINT('',(0.718800730509,6.170116933187));
#1016 = CARTESIAN_POINT('',(0.769932242289,6.245073695371));
#1017 = CARTESIAN_POINT('',(0.822059583885,6.320263973217));
#1018 = CARTESIAN_POINT('',(0.921224553932,6.45805976569));
#1019 = CARTESIAN_POINT('',(0.967990600706,6.521007712725));
#1020 = CARTESIAN_POINT('',(1.015809476455,6.582356385731));
#1021 = CARTESIAN_POINT('',(1.06480144097,6.641121444461));
#1022 = CARTESIAN_POINT('',(1.115092739029,6.696176059533));
#1023 = CARTESIAN_POINT('',(1.229449941683,6.806840909832));
#1024 = CARTESIAN_POINT('',(1.294786762583,6.8607079273));
#1025 = CARTESIAN_POINT('',(1.362078508477,6.904251617105));
#1026 = CARTESIAN_POINT('',(1.430793298122,6.934588971952));
#1027 = CARTESIAN_POINT('',(1.500501438161,6.95));
#1028 = CARTESIAN_POINT('',(1.640800792737,6.95));
#1029 = CARTESIAN_POINT('',(1.710218983196,6.934716048163));
#1030 = CARTESIAN_POINT('',(1.778651536499,6.904630447095));
#1031 = CARTESIAN_POINT('',(1.845675766702,6.861437122381));
#1032 = CARTESIAN_POINT('',(1.910768583191,6.807971663626));
#1033 = CARTESIAN_POINT('',(2.024417153268,6.698350371718));
#1034 = CARTESIAN_POINT('',(2.074235742791,6.644018363442));
#1035 = CARTESIAN_POINT('',(2.122778732907,6.586014468821));
#1036 = CARTESIAN_POINT('',(2.170167593371,6.525436082516));
#1037 = CARTESIAN_POINT('',(2.216517903956,6.463244226723));
#1038 = CARTESIAN_POINT('',(2.316076424434,6.325248359939));
#1039 = CARTESIAN_POINT('',(2.368959113569,6.249034265725));
#1040 = CARTESIAN_POINT('',(2.420810411902,6.173015163071));
#1041 = CARTESIAN_POINT('',(2.471835298887,6.098362284066));
#1042 = CARTESIAN_POINT('',(2.522235282908,6.026124740636));
#1043 = CARTESIAN_POINT('',(2.620702173169,5.890566156581));
#1044 = CARTESIAN_POINT('',(2.668809493015,5.827021569183));
#1045 = CARTESIAN_POINT('',(2.716633627623,5.767736409561));
#1046 = CARTESIAN_POINT('',(2.764271755596,5.713706885469));
#1047 = CARTESIAN_POINT('',(2.811827544934,5.665850245745));
#1048 = CARTESIAN_POINT('',(2.906388172182,5.584644992368));
#1049 = CARTESIAN_POINT('',(2.953400844895,5.551108572347));
#1050 = CARTESIAN_POINT('',(3.000422034215,5.525284702729));
#1051 = CARTESIAN_POINT('',(3.047451410394,5.507831357587));
#1052 = CARTESIAN_POINT('',(3.094501866648,5.499090833947));
#1053 = CARTESIAN_POINT('',(3.188919031111,5.499090833947));
#1054 = CARTESIAN_POINT('',(3.236204104063,5.507919030807));
#1055 = CARTESIAN_POINT('',(3.283467780355,5.525546914822));
#1056 = CARTESIAN_POINT('',(3.330723423042,5.551625465856));
#1057 = CARTESIAN_POINT('',(3.377970908213,5.58548408864));
#1058 = CARTESIAN_POINT('',(3.47253960034,5.667039748214));
#1059 = CARTESIAN_POINT('',(3.519869853651,5.714790256588));
#1060 = CARTESIAN_POINT('',(3.567283751761,5.768641846572));
#1061 = CARTESIAN_POINT('',(3.614882718578,5.827688608126));
#1062 = CARTESIAN_POINT('',(3.662761892644,5.890947695787));
#1063 = CARTESIAN_POINT('',(3.778105086712,6.049745075273));
#1064 = CARTESIAN_POINT('',(3.845903817192,6.148223228385));
#1065 = CARTESIAN_POINT('',(3.91494821115,6.250404825959));
#1066 = CARTESIAN_POINT('',(3.985756337339,6.353795955259));
#1067 = CARTESIAN_POINT('',(4.058832303094,6.455340284134));
#1068 = CARTESIAN_POINT('',(4.18547052074,6.615068224713));
#1069 = CARTESIAN_POINT('',(4.237624329147,6.676662443628));
#1070 = CARTESIAN_POINT('',(4.291210992345,6.734434333877));
#1071 = CARTESIAN_POINT('',(4.346265047082,6.786844503746));
#1072 = CARTESIAN_POINT('',(4.402849727759,6.832291971802));
#1073 = CARTESIAN_POINT('',(4.529217195785,6.912331475603));
#1074 = CARTESIAN_POINT('',(4.599763114714,6.943844726871));
#1075 = CARTESIAN_POINT('',(4.671536370373,6.960159463412));
#1076 = CARTESIAN_POINT('',(4.743636677637,6.959515600354));
#1077 = CARTESIAN_POINT('',(4.81519852895,6.942456070975));
#1078 = CARTESIAN_POINT('',(4.95722733807,6.879589906615));
#1079 = CARTESIAN_POINT('',(5.027054446378,6.833187697058));
#1080 = CARTESIAN_POINT('',(5.094770037336,6.774890078775));
#1081 = CARTESIAN_POINT('',(5.160396245154,6.707550855141));
#1082 = CARTESIAN_POINT('',(5.223892164244,6.634083570294));
#1083 = CARTESIAN_POINT('',(5.36201202293,6.460801857695));
#1084 = CARTESIAN_POINT('',(5.43598403983,6.35823161788));
#1085 = CARTESIAN_POINT('',(5.507621486198,6.253674084672));
#1086 = CARTESIAN_POINT('',(5.577445065004,6.150298646095));
#1087 = CARTESIAN_POINT('',(5.645990233359,6.050681764564));
#1088 = CARTESIAN_POINT('',(5.762294826759,5.890566156581));
#1089 = CARTESIAN_POINT('',(5.810402146605,5.827021569183));
#1090 = CARTESIAN_POINT('',(5.858226281212,5.767736409561));
#1091 = CARTESIAN_POINT('',(5.905864409186,5.713706885469));
#1092 = CARTESIAN_POINT('',(5.953420198523,5.665850245745));
#1093 = CARTESIAN_POINT('',(6.047980825771,5.584644992368));
#1094 = CARTESIAN_POINT('',(6.094993498485,5.551108572347));
#1095 = CARTESIAN_POINT('',(6.142014687805,5.525284702729));
#1096 = CARTESIAN_POINT('',(6.189044063983,5.507831357587));
#1097 = CARTESIAN_POINT('',(6.236094520238,5.499090833947));
#1098 = CARTESIAN_POINT('',(6.28318530718,5.499090833947));
#1099 = ( GEOMETRIC_REPRESENTATION_CONTEXT(2) 
PARAMETRIC_REPRESENTATION_CONTEXT() REPRESENTATION_CONTEXT('2D SPACE',''
  ) );
#1100 = PCURVE('',#1101,#1106);
#1101 = CYLINDRICAL_SURFACE('',#1102,6.95);
#1102 = AXIS2_PLACEMENT_3D('',#1103,#1104,#1105);
#1103 = CARTESIAN_POINT('',(0.,6.25,-1.387778780781E-15));
#1104 = DIRECTION('',(0.,-1.,2.22044604925E-16));
#1105 = DIRECTION('',(1.,0.,0.));
#1106 = DEFINITIONAL_REPRESENTATION('',(#1107),#1205);
#1107 = B_SPLINE_CURVE_WITH_KNOTS('',6,(#1108,#1109,#1110,#1111,#1112,
    #1113,#1114,#1115,#1116,#1117,#1118,#1119,#1120,#1121,#1122,#1123,
    #1124,#1125,#1126,#1127,#1128,#1129,#1130,#1131,#1132,#1133,#1134,
    #1135,#1136,#1137,#1138,#1139,#1140,#1141,#1142,#1143,#1144,#1145,
    #1146,#1147,#1148,#1149,#1150,#1151,#1152,#1153,#1154,#1155,#1156,
    #1157,#1158,#1159,#1160,#1161,#1162,#1163,#1164,#1165,#1166,#1167,
    #1168,#1169,#1170,#1171,#1172,#1173,#1174,#1175,#1176,#1177,#1178,
    #1179,#1180,#1181,#1182,#1183,#1184,#1185,#1186,#1187,#1188,#1189,
    #1190,#1191,#1192,#1193,#1194,#1195,#1196,#1197,#1198,#1199,#1200,
    #1201,#1202,#1203,#1204),.UNSPECIFIED.,.T.,.F.,(7,5,5,5,5,5,5,5,5,5,
    5,5,5,5,5,5,5,5,5,7),(0.,5.021798954451E-02,0.100602088395,
    0.152093316635,0.19634835264,0.24992487136,0.303280039181,
    0.347069553269,0.399246003479,0.44986310622,0.499823547787,
    0.550033936533,0.600410409444,0.670444720411,0.717251293212,
    0.772053397572,0.828478712533,0.899336890257,0.94999705504,1.),
  .UNSPECIFIED.);
#1108 = CARTESIAN_POINT('',(0.912827734949,6.25));
#1109 = CARTESIAN_POINT('',(0.912827734949,6.048862895535));
#1110 = CARTESIAN_POINT('',(0.914904952986,5.847901245424));
#1111 = CARTESIAN_POINT('',(0.919052712804,5.64784195936));
#1112 = CARTESIAN_POINT('',(0.92523065901,5.449430013751));
#1113 = CARTESIAN_POINT('',(0.933364107721,5.253468481981));
#1114 = CARTESIAN_POINT('',(0.953352018585,4.867604640883));
#1115 = CARTESIAN_POINT('',(0.965220588342,4.677686399571));
#1116 = CARTESIAN_POINT('',(0.978867781316,4.491399868753));
#1117 = CARTESIAN_POINT('',(0.994218241553,4.309129523798));
#1118 = CARTESIAN_POINT('',(1.011203408205,4.131348043192));
#1119 = CARTESIAN_POINT('',(1.048732796185,3.782095472346));
#1120 = CARTESIAN_POINT('',(1.069353058333,3.610792698671));
#1121 = CARTESIAN_POINT('',(1.091599745748,3.444991271894));
#1122 = CARTESIAN_POINT('',(1.115474843604,3.285171843225));
#1123 = CARTESIAN_POINT('',(1.141001162159,3.132094839822));
#1124 = CARTESIAN_POINT('',(1.191606191661,2.862071963287));
#1125 = CARTESIAN_POINT('',(1.216265450202,2.742955534069));
#1126 = CARTESIAN_POINT('',(1.242215351854,2.630299145777));
#1127 = CARTESIAN_POINT('',(1.269479994277,2.525080262281));
#1128 = CARTESIAN_POINT('',(1.298083897498,2.428516505476));
#1129 = CARTESIAN_POINT('',(1.364327773219,2.237475106187));
#1130 = CARTESIAN_POINT('',(1.402949997474,2.146717697891));
#1131 = CARTESIAN_POINT('',(1.443402863607,2.074813246619));
#1132 = CARTESIAN_POINT('',(1.485182874765,2.025201263675));
#1133 = CARTESIAN_POINT('',(1.527810243817,2.));
#1134 = CARTESIAN_POINT('',(1.613604813163,2.));
#1135 = CARTESIAN_POINT('',(1.656054873812,2.024993455441));
#1136 = CARTESIAN_POINT('',(1.697665257848,2.07419374264));
#1137 = CARTESIAN_POINT('',(1.737963182498,2.145513758584));
#1138 = CARTESIAN_POINT('',(1.776452478554,2.2355702243));
#1139 = CARTESIAN_POINT('',(1.842315364232,2.424725359959));
#1140 = CARTESIAN_POINT('',(1.870670840605,2.51995762696));
#1141 = CARTESIAN_POINT('',(1.897714470307,2.623709925646));
#1142 = CARTESIAN_POINT('',(1.923469309027,2.734793680497));
#1143 = CARTESIAN_POINT('',(1.947958155509,2.852249720727));
#1144 = CARTESIAN_POINT('',(1.998896959565,3.121958925407));
#1145 = CARTESIAN_POINT('',(2.024855573958,3.276734083427));
#1146 = CARTESIAN_POINT('',(2.049117006531,3.438463577861));
#1147 = CARTESIAN_POINT('',(2.07170577316,3.606348782743));
#1148 = CARTESIAN_POINT('',(2.092624518895,3.779888289259));
#1149 = CARTESIAN_POINT('',(2.13049525924,4.132351222343));
#1150 = CARTESIAN_POINT('',(2.147553163398,4.311015585873));
#1151 = CARTESIAN_POINT('',(2.162960047645,4.49420589908));
#1152 = CARTESIAN_POINT('',(2.176646469494,4.681445760023));
#1153 = CARTESIAN_POINT('',(2.188536200743,4.872348502259));
#1154 = CARTESIAN_POINT('',(2.208430086892,5.258337425583));
#1155 = CARTESIAN_POINT('',(2.216484442753,5.45337265594));
#1156 = CARTESIAN_POINT('',(2.222601638385,5.650824055348));
#1157 = CARTESIAN_POINT('',(2.226708329424,5.849899629175));
#1158 = CARTESIAN_POINT('',(2.228764918641,6.049864155497));
#1159 = CARTESIAN_POINT('',(2.228764918641,6.451137104465));
#1160 = CARTESIAN_POINT('',(2.226687700604,6.652098754576));
#1161 = CARTESIAN_POINT('',(2.222539940786,6.852158040639));
#1162 = CARTESIAN_POINT('',(2.21636199458,7.050569986249));
#1163 = CARTESIAN_POINT('',(2.208228545869,7.246531518018));
#1164 = CARTESIAN_POINT('',(2.188240635005,7.632395359117));
#1165 = CARTESIAN_POINT('',(2.176372065248,7.822313600429));
#1166 = CARTESIAN_POINT('',(2.162724872274,8.008600131247));
#1167 = CARTESIAN_POINT('',(2.147374412037,8.190870476202));
#1168 = CARTESIAN_POINT('',(2.130389245384,8.368651956808));
#1169 = CARTESIAN_POINT('',(2.086024950052,8.781510919684));
#1170 = CARTESIAN_POINT('',(2.057182698126,9.011813341354));
#1171 = CARTESIAN_POINT('',(2.025357496419,9.231766332527));
#1172 = CARTESIAN_POINT('',(1.990499403045,9.440062926343));
#1173 = CARTESIAN_POINT('',(1.952509446236,9.634270120907));
#1174 = CARTESIAN_POINT('',(1.883683167511,9.928164576308));
#1175 = CARTESIAN_POINT('',(1.854567119222,10.038204649105));
#1176 = CARTESIAN_POINT('',(1.823944996307,10.138869748388));
#1177 = CARTESIAN_POINT('',(1.791858050994,10.228407929739));
#1178 = CARTESIAN_POINT('',(1.758349818821,10.304952476773));
#1179 = CARTESIAN_POINT('',(1.682621671454,10.438514300074));
#1180 = CARTESIAN_POINT('',(1.639795760393,10.490130905623));
#1181 = CARTESIAN_POINT('',(1.595848138385,10.516474607053));
#1182 = CARTESIAN_POINT('',(1.551598230903,10.515535196076));
#1183 = CARTESIAN_POINT('',(1.507855224514,10.487847502742));
#1184 = CARTESIAN_POINT('',(1.4218195351,10.384067239938));
#1185 = CARTESIAN_POINT('',(1.379937864938,10.30696359621));
#1186 = CARTESIAN_POINT('',(1.339970638622,10.208829533795));
#1187 = CARTESIAN_POINT('',(1.302063358753,10.092997456356));
#1188 = CARTESIAN_POINT('',(1.266365270756,9.96282258824));
#1189 = CARTESIAN_POINT('',(1.191130202791,9.644704371503));
#1190 = CARTESIAN_POINT('',(1.15258960825,9.448991992816));
#1191 = CARTESIAN_POINT('',(1.117253056698,9.238802608499));
#1192 = CARTESIAN_POINT('',(1.085017013381,9.016673410532));
#1193 = CARTESIAN_POINT('',(1.055828583137,8.783961895823));
#1194 = CARTESIAN_POINT('',(1.01109739435,8.367648777657));
#1195 = CARTESIAN_POINT('',(0.994039490192,8.188984414127));
#1196 = CARTESIAN_POINT('',(0.978632605944,8.00579410092));
#1197 = CARTESIAN_POINT('',(0.964946184096,7.818554239977));
#1198 = CARTESIAN_POINT('',(0.953056452847,7.627651497741));
#1199 = CARTESIAN_POINT('',(0.933162566698,7.241662574417));
#1200 = CARTESIAN_POINT('',(0.925108210837,7.04662734406));
#1201 = CARTESIAN_POINT('',(0.918991015205,6.849175944652));
#1202 = CARTESIAN_POINT('',(0.914884324165,6.650100370825));
#1203 = CARTESIAN_POINT('',(0.912827734949,6.450135844503));
#1204 = CARTESIAN_POINT('',(0.912827734949,6.25));
#1205 = ( GEOMETRIC_REPRESENTATION_CONTEXT(2) 
PARAMETRIC_REPRESENTATION_CONTEXT() REPRESENTATION_CONTEXT('2D SPACE',''
  ) );
#1206 = ORIENTED_EDGE('',*,*,#876,.F.);
#1207 = ORIENTED_EDGE('',*,*,#468,.T.);
#1208 = ADVANCED_FACE('',(#1209),#786,.T.);
#1209 = FACE_BOUND('',#1210,.T.);
#1210 = EDGE_LOOP('',(#1211,#1234,#1262,#1283));
#1211 = ORIENTED_EDGE('',*,*,#1212,.F.);
#1212 = EDGE_CURVE('',#1213,#770,#1215,.T.);
#1213 = VERTEX_POINT('',#1214);
#1214 = CARTESIAN_POINT('',(1.6,-1.1,8.05));
#1215 = SURFACE_CURVE('',#1216,(#1220,#1227),.PCURVE_S1.);
#1216 = LINE('',#1217,#1218);
#1217 = CARTESIAN_POINT('',(1.6,-1.1,8.05));
#1218 = VECTOR('',#1219,1.);
#1219 = DIRECTION('',(0.,0.,1.));
#1220 = PCURVE('',#786,#1221);
#1221 = DEFINITIONAL_REPRESENTATION('',(#1222),#1226);
#1222 = LINE('',#1223,#1224);
#1223 = CARTESIAN_POINT('',(0.,3.2));
#1224 = VECTOR('',#1225,1.);
#1225 = DIRECTION('',(1.,0.));
#1226 = ( GEOMETRIC_REPRESENTATION_CONTEXT(2) 
PARAMETRIC_REPRESENTATION_CONTEXT() REPRESENTATION_CONTEXT('2D SPACE',''
  ) );
#1227 = PCURVE('',#862,#1228);
#1228 = DEFINITIONAL_REPRESENTATION('',(#1229),#1233);
#1229 = LINE('',#1230,#1231);
#1230 = CARTESIAN_POINT('',(0.,0.));
#1231 = VECTOR('',#1232,1.);
#1232 = DIRECTION('',(1.,0.));
#1233 = ( GEOMETRIC_REPRESENTATION_CONTEXT(2) 
PARAMETRIC_REPRESENTATION_CONTEXT() REPRESENTATION_CONTEXT('2D SPACE',''
  ) );
#1234 = ORIENTED_EDGE('',*,*,#1235,.F.);
#1235 = EDGE_CURVE('',#1236,#1213,#1238,.T.);
#1236 = VERTEX_POINT('',#1237);
#1237 = CARTESIAN_POINT('',(-1.6,-1.1,8.05));
#1238 = SURFACE_CURVE('',#1239,(#1243,#1250),.PCURVE_S1.);
#1239 = LINE('',#1240,#1241);
#1240 = CARTESIAN_POINT('',(-1.6,-1.1,8.05));
#1241 = VECTOR('',#1242,1.);
#1242 = DIRECTION('',(1.,0.,-0.));
#1243 = PCURVE('',#786,#1244);
#1244 = DEFINITIONAL_REPRESENTATION('',(#1245),#1249);
#1245 = LINE('',#1246,#1247);
#1246 = CARTESIAN_POINT('',(0.,0.));
#1247 = VECTOR('',#1248,1.);
#1248 = DIRECTION('',(0.,1.));
#1249 = ( GEOMETRIC_REPRESENTATION_CONTEXT(2) 
PARAMETRIC_REPRESENTATION_CONTEXT() REPRESENTATION_CONTEXT('2D SPACE',''
  ) );
#1250 = PCURVE('',#1251,#1256);
#1251 = PLANE('',#1252);
#1252 = AXIS2_PLACEMENT_3D('',#1253,#1254,#1255);
#1253 = CARTESIAN_POINT('',(-1.6,-1.1,8.05));
#1254 = DIRECTION('',(0.,0.,1.));
#1255 = DIRECTION('',(1.,0.,-0.));
#1256 = DEFINITIONAL_REPRESENTATION('',(#1257),#1261);
#1257 = LINE('',#1258,#1259);
#1258 = CARTESIAN_POINT('',(0.,0.));
#1259 = VECTOR('',#1260,1.);
#1260 = DIRECTION('',(1.,0.));
#1261 = ( GEOMETRIC_REPRESENTATION_CONTEXT(2) 
PARAMETRIC_REPRESENTATION_CONTEXT() REPRESENTATION_CONTEXT('2D SPACE',''
  ) );
#1262 = ORIENTED_EDGE('',*,*,#1263,.T.);
#1263 = EDGE_CURVE('',#1236,#772,#1264,.T.);
#1264 = SURFACE_CURVE('',#1265,(#1269,#1276),.PCURVE_S1.);
#1265 = LINE('',#1266,#1267);
#1266 = CARTESIAN_POINT('',(-1.6,-1.1,8.05));
#1267 = VECTOR('',#1268,1.);
#1268 = DIRECTION('',(0.,0.,1.));
#1269 = PCURVE('',#786,#1270);
#1270 = DEFINITIONAL_REPRESENTATION('',(#1271),#1275);
#1271 = LINE('',#1272,#1273);
#1272 = CARTESIAN_POINT('',(0.,0.));
#1273 = VECTOR('',#1274,1.);
#1274 = DIRECTION('',(1.,0.));
#1275 = ( GEOMETRIC_REPRESENTATION_CONTEXT(2) 
PARAMETRIC_REPRESENTATION_CONTEXT() REPRESENTATION_CONTEXT('2D SPACE',''
  ) );
#1276 = PCURVE('',#812,#1277);
#1277 = DEFINITIONAL_REPRESENTATION('',(#1278),#1282);
#1278 = LINE('',#1279,#1280);
#1279 = CARTESIAN_POINT('',(0.,0.));
#1280 = VECTOR('',#1281,1.);
#1281 = DIRECTION('',(1.,0.));
#1282 = ( GEOMETRIC_REPRESENTATION_CONTEXT(2) 
PARAMETRIC_REPRESENTATION_CONTEXT() REPRESENTATION_CONTEXT('2D SPACE',''
  ) );
#1283 = ORIENTED_EDGE('',*,*,#769,.F.);
#1284 = ADVANCED_FACE('',(#1285),#862,.F.);
#1285 = FACE_BOUND('',#1286,.F.);
#1286 = EDGE_LOOP('',(#1287,#1288,#1311,#1332));
#1287 = ORIENTED_EDGE('',*,*,#1212,.F.);
#1288 = ORIENTED_EDGE('',*,*,#1289,.T.);
#1289 = EDGE_CURVE('',#1213,#1290,#1292,.T.);
#1290 = VERTEX_POINT('',#1291);
#1291 = CARTESIAN_POINT('',(1.6,1.1,8.05));
#1292 = SURFACE_CURVE('',#1293,(#1297,#1304),.PCURVE_S1.);
#1293 = LINE('',#1294,#1295);
#1294 = CARTESIAN_POINT('',(1.6,-1.1,8.05));
#1295 = VECTOR('',#1296,1.);
#1296 = DIRECTION('',(-0.,1.,0.));
#1297 = PCURVE('',#862,#1298);
#1298 = DEFINITIONAL_REPRESENTATION('',(#1299),#1303);
#1299 = LINE('',#1300,#1301);
#1300 = CARTESIAN_POINT('',(0.,0.));
#1301 = VECTOR('',#1302,1.);
#1302 = DIRECTION('',(0.,-1.));
#1303 = ( GEOMETRIC_REPRESENTATION_CONTEXT(2) 
PARAMETRIC_REPRESENTATION_CONTEXT() REPRESENTATION_CONTEXT('2D SPACE',''
  ) );
#1304 = PCURVE('',#1251,#1305);
#1305 = DEFINITIONAL_REPRESENTATION('',(#1306),#1310);
#1306 = LINE('',#1307,#1308);
#1307 = CARTESIAN_POINT('',(3.2,0.));
#1308 = VECTOR('',#1309,1.);
#1309 = DIRECTION('',(0.,1.));
#1310 = ( GEOMETRIC_REPRESENTATION_CONTEXT(2) 
PARAMETRIC_REPRESENTATION_CONTEXT() REPRESENTATION_CONTEXT('2D SPACE',''
  ) );
#1311 = ORIENTED_EDGE('',*,*,#1312,.T.);
#1312 = EDGE_CURVE('',#1290,#824,#1313,.T.);
#1313 = SURFACE_CURVE('',#1314,(#1318,#1325),.PCURVE_S1.);
#1314 = LINE('',#1315,#1316);
#1315 = CARTESIAN_POINT('',(1.6,1.1,8.05));
#1316 = VECTOR('',#1317,1.);
#1317 = DIRECTION('',(0.,0.,1.));
#1318 = PCURVE('',#862,#1319);
#1319 = DEFINITIONAL_REPRESENTATION('',(#1320),#1324);
#1320 = LINE('',#1321,#1322);
#1321 = CARTESIAN_POINT('',(0.,-2.2));
#1322 = VECTOR('',#1323,1.);
#1323 = DIRECTION('',(1.,0.));
#1324 = ( GEOMETRIC_REPRESENTATION_CONTEXT(2) 
PARAMETRIC_REPRESENTATION_CONTEXT() REPRESENTATION_CONTEXT('2D SPACE',''
  ) );
#1325 = PCURVE('',#838,#1326);
#1326 = DEFINITIONAL_REPRESENTATION('',(#1327),#1331);
#1327 = LINE('',#1328,#1329);
#1328 = CARTESIAN_POINT('',(0.,3.2));
#1329 = VECTOR('',#1330,1.);
#1330 = DIRECTION('',(1.,0.));
#1331 = ( GEOMETRIC_REPRESENTATION_CONTEXT(2) 
PARAMETRIC_REPRESENTATION_CONTEXT() REPRESENTATION_CONTEXT('2D SPACE',''
  ) );
#1332 = ORIENTED_EDGE('',*,*,#849,.F.);
#1333 = ADVANCED_FACE('',(#1334),#838,.F.);
#1334 = FACE_BOUND('',#1335,.F.);
#1335 = EDGE_LOOP('',(#1336,#1337,#1360,#1381));
#1336 = ORIENTED_EDGE('',*,*,#1312,.F.);
#1337 = ORIENTED_EDGE('',*,*,#1338,.F.);
#1338 = EDGE_CURVE('',#1339,#1290,#1341,.T.);
#1339 = VERTEX_POINT('',#1340);
#1340 = CARTESIAN_POINT('',(-1.6,1.1,8.05));
#1341 = SURFACE_CURVE('',#1342,(#1346,#1353),.PCURVE_S1.);
#1342 = LINE('',#1343,#1344);
#1343 = CARTESIAN_POINT('',(-1.6,1.1,8.05));
#1344 = VECTOR('',#1345,1.);
#1345 = DIRECTION('',(1.,0.,-0.));
#1346 = PCURVE('',#838,#1347);
#1347 = DEFINITIONAL_REPRESENTATION('',(#1348),#1352);
#1348 = LINE('',#1349,#1350);
#1349 = CARTESIAN_POINT('',(0.,0.));
#1350 = VECTOR('',#1351,1.);
#1351 = DIRECTION('',(0.,1.));
#1352 = ( GEOMETRIC_REPRESENTATION_CONTEXT(2) 
PARAMETRIC_REPRESENTATION_CONTEXT() REPRESENTATION_CONTEXT('2D SPACE',''
  ) );
#1353 = PCURVE('',#1251,#1354);
#1354 = DEFINITIONAL_REPRESENTATION('',(#1355),#1359);
#1355 = LINE('',#1356,#1357);
#1356 = CARTESIAN_POINT('',(0.,2.2));
#1357 = VECTOR('',#1358,1.);
#1358 = DIRECTION('',(1.,0.));
#1359 = ( GEOMETRIC_REPRESENTATION_CONTEXT(2) 
PARAMETRIC_REPRESENTATION_CONTEXT() REPRESENTATION_CONTEXT('2D SPACE',''
  ) );
#1360 = ORIENTED_EDGE('',*,*,#1361,.T.);
#1361 = EDGE_CURVE('',#1339,#798,#1362,.T.);
#1362 = SURFACE_CURVE('',#1363,(#1367,#1374),.PCURVE_S1.);
#1363 = LINE('',#1364,#1365);
#1364 = CARTESIAN_POINT('',(-1.6,1.1,8.05));
#1365 = VECTOR('',#1366,1.);
#1366 = DIRECTION('',(0.,0.,1.));
#1367 = PCURVE('',#838,#1368);
#1368 = DEFINITIONAL_REPRESENTATION('',(#1369),#1373);
#1369 = LINE('',#1370,#1371);
#1370 = CARTESIAN_POINT('',(0.,0.));
#1371 = VECTOR('',#1372,1.);
#1372 = DIRECTION('',(1.,0.));
#1373 = ( GEOMETRIC_REPRESENTATION_CONTEXT(2) 
PARAMETRIC_REPRESENTATION_CONTEXT() REPRESENTATION_CONTEXT('2D SPACE',''
  ) );
#1374 = PCURVE('',#812,#1375);
#1375 = DEFINITIONAL_REPRESENTATION('',(#1376),#1380);
#1376 = LINE('',#1377,#1378);
#1377 = CARTESIAN_POINT('',(0.,-2.2));
#1378 = VECTOR('',#1379,1.);
#1379 = DIRECTION('',(1.,0.));
#1380 = ( GEOMETRIC_REPRESENTATION_CONTEXT(2) 
PARAMETRIC_REPRESENTATION_CONTEXT() REPRESENTATION_CONTEXT('2D SPACE',''
  ) );
#1381 = ORIENTED_EDGE('',*,*,#823,.F.);
#1382 = ADVANCED_FACE('',(#1383),#812,.T.);
#1383 = FACE_BOUND('',#1384,.T.);
#1384 = EDGE_LOOP('',(#1385,#1386,#1407,#1408));
#1385 = ORIENTED_EDGE('',*,*,#1263,.F.);
#1386 = ORIENTED_EDGE('',*,*,#1387,.T.);
#1387 = EDGE_CURVE('',#1236,#1339,#1388,.T.);
#1388 = SURFACE_CURVE('',#1389,(#1393,#1400),.PCURVE_S1.);
#1389 = LINE('',#1390,#1391);
#1390 = CARTESIAN_POINT('',(-1.6,-1.1,8.05));
#1391 = VECTOR('',#1392,1.);
#1392 = DIRECTION('',(-0.,1.,0.));
#1393 = PCURVE('',#812,#1394);
#1394 = DEFINITIONAL_REPRESENTATION('',(#1395),#1399);
#1395 = LINE('',#1396,#1397);
#1396 = CARTESIAN_POINT('',(0.,0.));
#1397 = VECTOR('',#1398,1.);
#1398 = DIRECTION('',(0.,-1.));
#1399 = ( GEOMETRIC_REPRESENTATION_CONTEXT(2) 
PARAMETRIC_REPRESENTATION_CONTEXT() REPRESENTATION_CONTEXT('2D SPACE',''
  ) );
#1400 = PCURVE('',#1251,#1401);
#1401 = DEFINITIONAL_REPRESENTATION('',(#1402),#1406);
#1402 = LINE('',#1403,#1404);
#1403 = CARTESIAN_POINT('',(0.,0.));
#1404 = VECTOR('',#1405,1.);
#1405 = DIRECTION('',(0.,1.));
#1406 = ( GEOMETRIC_REPRESENTATION_CONTEXT(2) 
PARAMETRIC_REPRESENTATION_CONTEXT() REPRESENTATION_CONTEXT('2D SPACE',''
  ) );
#1407 = ORIENTED_EDGE('',*,*,#1361,.T.);
#1408 = ORIENTED_EDGE('',*,*,#797,.F.);
#1409 = ADVANCED_FACE('',(#1410),#1101,.F.);
#1410 = FACE_BOUND('',#1411,.F.);
#1411 = EDGE_LOOP('',(#1412));
#1412 = ORIENTED_EDGE('',*,*,#899,.T.);
#1413 = ADVANCED_FACE('',(#1414),#1251,.T.);
#1414 = FACE_BOUND('',#1415,.T.);
#1415 = EDGE_LOOP('',(#1416,#1417,#1418,#1419));
#1416 = ORIENTED_EDGE('',*,*,#1387,.F.);
#1417 = ORIENTED_EDGE('',*,*,#1235,.T.);
#1418 = ORIENTED_EDGE('',*,*,#1289,.T.);
#1419 = ORIENTED_EDGE('',*,*,#1338,.F.);
#1420 = ( GEOMETRIC_REPRESENTATION_CONTEXT(3) 
GLOBAL_UNCERTAINTY_ASSIGNED_CONTEXT((#1424)) 
GLOBAL_UNIT_ASSIGNED_CONTEXT((#1421,#1422,#1423)) REPRESENTATION_CONTEXT
('Context #1','3D Context with UNIT and UNCERTAINTY') );
#1421 = ( LENGTH_UNIT() NAMED_UNIT(*) SI_UNIT(.MILLI.,.METRE.) );
#1422 = ( NAMED_UNIT(*) PLANE_ANGLE_UNIT() SI_UNIT($,.RADIAN.) );
#1423 = ( NAMED_UNIT(*) SI_UNIT($,.STERADIAN.) SOLID_ANGLE_UNIT() );
#1424 = UNCERTAINTY_MEASURE_WITH_UNIT(LENGTH_MEASURE(1.E-07),#1421,
  'distance_accuracy_value','confusion accuracy');
#1425 = PRODUCT_RELATED_PRODUCT_CATEGORY('part',$,(#7));
ENDSEC;
END-ISO-10303-21;
